<svg width="1443" height="24" viewBox="0 0 1443 24" fill="none" xmlns="http://www.w3.org/2000/svg">
<g clip-path="url(#clip0_1227_13808)">
<path fill-rule="evenodd" clip-rule="evenodd" d="M1225.57 1.85997C1225.72 1.91997 1225.92 1.96997 1226.14 2.00997C1226.36 2.04997 1226.61 2.06997 1226.86 2.07997C1228.11 2.08497 1229.36 2.09247 1230.6 2.09997C1231.85 2.10747 1233.09 2.11497 1234.34 2.11997L1234.28 2.14997C1235.53 2.15496 1236.76 2.16242 1238 2.1699L1238.01 2.16991C1239.25 2.17743 1240.5 2.18496 1241.76 2.18997C1242.77 2.22997 1243.79 2.17997 1244.7 2.04997C1247.72 1.48319 1251.05 1.43542 1254.39 1.38751C1256 1.36441 1257.61 1.34129 1259.19 1.25997C1259.49 1.25997 1259.78 1.18333 1260.05 1.10962L1260.05 1.10933L1260.05 1.10927C1260.17 1.07659 1260.28 1.04452 1260.4 1.01997C1260.2 0.919971 1259.95 0.839972 1259.66 0.769972C1257.79 0.549972 1255.77 0.459972 1253.78 0.509972C1251.78 0.499972 1249.8 0.489972 1247.89 0.429972C1247.11 0.409609 1246.34 0.312956 1245.57 0.216333C1244.44 0.0756989 1243.32 -0.0648688 1242.18 0.0299715C1240.15 0.199297 1238.08 0.28451 1236.01 0.36965C1234.65 0.4253 1233.3 0.480918 1231.96 0.559972C1230.05 0.719972 1228.22 0.949971 1226.51 1.24997C1225.45 1.40997 1225.13 1.66997 1225.57 1.85997ZM1214.91 1.54001C1215.14 1.73001 1214.53 1.98001 1213.41 1.98001C1210.57 2.09001 1207.67 2.04001 1204.9 1.81001C1204.65 1.78135 1204.45 1.71161 1204.27 1.64495L1204.27 1.64485C1204.2 1.61851 1204.12 1.59266 1204.05 1.57001C1204.18 1.54363 1204.3 1.50854 1204.42 1.47336C1204.67 1.40187 1204.92 1.33001 1205.2 1.33001C1206.07 1.29001 1206.96 1.26001 1207.85 1.26001C1209.01 1.26756 1209.93 1.27084 1210.71 1.2736C1212 1.27816 1212.89 1.28134 1213.79 1.30001C1214.03 1.31001 1214.25 1.34001 1214.45 1.38001C1214.64 1.42001 1214.8 1.48001 1214.91 1.54001ZM1124.89 5.64997C1125.15 5.38997 1124.45 5.23997 1123.15 5.28997C1122.95 5.28997 1122.79 5.38477 1122.63 5.47647C1122.56 5.51796 1122.49 5.55882 1122.42 5.58997C1122.55 5.61283 1122.68 5.64103 1122.81 5.66898C1123.08 5.72662 1123.34 5.78324 1123.62 5.78997C1124.06 5.78997 1124.8 5.73997 1124.89 5.64997ZM951.91 3.09998C951.23 3.01998 950.63 2.87998 950.17 2.70998C950.08 2.64998 950.03 2.57998 950.03 2.50998C950.04 2.43998 950.09 2.36998 950.18 2.30998C950.279 2.23072 950.531 2.16891 950.817 2.09862L950.818 2.09853L950.818 2.09841L950.819 2.09827L950.82 2.09811L950.82 2.09791C950.967 2.06199 951.122 2.02383 951.27 1.97998C951.513 2.01389 951.76 2.04781 952.007 2.08192C953.074 2.22887 954.168 2.37955 955.15 2.54998C955.53 2.60998 956.06 2.75998 956.06 2.86998C956.09 3.10998 955.27 3.19998 954.06 3.19998C953.33 3.21998 952.59 3.18998 951.91 3.09998ZM1166.92 5.76997C1167.16 5.89997 1167.56 5.99997 1168.05 6.04997C1168.93 6.16997 1169.86 6.25997 1170.81 6.31997C1172.75 6.40997 1174.73 6.45997 1174.81 6.45997C1178.13 6.70664 1180.61 6.7533 1182.26 6.59997C1182.99 6.53318 1183.75 6.47694 1184.49 6.42177C1185.2 6.36956 1185.89 6.31831 1186.53 6.25997C1187.86 6.13997 1188.18 5.94997 1187.65 5.75997C1187.35 5.64997 1186.9 5.56997 1186.42 5.54997C1182.42 5.53997 1178.56 5.07997 1175.62 4.25997C1175.23 4.16997 1174.81 4.08997 1174.36 4.02997C1173.74 3.90997 1173.02 3.83997 1172.28 3.83997C1171.55 3.83997 1170.82 3.89997 1170.21 4.00997C1169.33 4.13997 1168.57 4.32997 1167.98 4.55997C1167.39 4.78997 1166.98 5.04997 1166.78 5.33997C1166.64 5.47997 1166.69 5.63997 1166.92 5.76997ZM1152.59 6.12999C1146.14 6.30999 1139.63 6.26999 1133.19 6.01999V6.02999C1131.86 5.99999 1131.13 5.52999 1131.66 5.03999C1131.74 4.96259 1131.85 4.88825 1131.96 4.81358C1132.05 4.75319 1132.14 4.69259 1132.22 4.62999C1132.35 4.48794 1132.46 4.34034 1132.57 4.19158L1132.57 4.18913C1132.67 4.05596 1132.77 3.92187 1132.88 3.78999C1133.53 3.09999 1134.35 2.92999 1135.82 3.10999C1141.13 3.95999 1147.01 4.44999 1153.01 4.54999C1153.5 4.56999 1153.97 4.61999 1154.39 4.69999C1154.84 4.76999 1155.23 4.86999 1155.51 4.98999C1155.74 5.10999 1155.84 5.24999 1155.78 5.38999C1155.72 5.52999 1155.51 5.64999 1155.18 5.74999C1154.51 5.95999 1153.59 6.09999 1152.59 6.12999ZM1092.28 3.67997C1092.63 3.77997 1093.04 3.84997 1093.49 3.88997C1093.95 3.93997 1094.42 3.94997 1094.9 3.93997C1095.82 3.90997 1096.73 3.85997 1097.63 3.78997C1097.86 3.76997 1098.08 3.73997 1098.27 3.69997C1098.45 3.65997 1098.61 3.60997 1098.73 3.54997C1098.89 3.41997 1098.91 3.27997 1098.78 3.14997C1098.66 3.01997 1098.39 2.89997 1098.02 2.81997C1097.09 2.59997 1095.91 2.48997 1094.73 2.50997C1093.54 2.52997 1092.44 2.67997 1091.63 2.93997C1091.43 3.05997 1091.38 3.20997 1091.5 3.33997C1091.61 3.47997 1091.89 3.58997 1092.28 3.67997ZM831.75 5.26997L831.45 5.34997C831.43 5.31997 831.39 5.27997 831.36 5.24997C831.49 5.25997 831.62 5.26997 831.75 5.26997ZM831.88 5.39997C831.861 5.39743 831.842 5.39473 831.824 5.39194C831.801 5.3885 831.778 5.38494 831.756 5.38141C831.655 5.36534 831.557 5.34997 831.45 5.34997H831.46L831.75 5.26997C831.78 5.31988 831.83 5.35982 831.88 5.39975L831.88 5.39997ZM831.88 5.39997C832.17 5.42997 832.46 5.45997 832.72 5.49997C832.92 5.53997 833.07 5.65997 833.07 5.75997C832.52 5.75997 832.13 5.63997 831.88 5.39997ZM924.23 2.81997C923.78 2.75997 923.41 2.65997 923.17 2.52997H923.18C923.05 2.46997 922.96 2.40997 922.92 2.33997C922.88 2.27997 922.88 2.20997 922.94 2.13997C922.99 2.07997 923.1 2.00997 923.24 1.95997C923.38 1.90997 923.56 1.85997 923.77 1.82997C924.57 1.66997 925.54 1.58997 926.51 1.61997C927.01 1.57997 927.54 1.57997 928.05 1.61997C928.55 1.65997 929.02 1.73997 929.39 1.84997C929.98 2.02997 928.65 2.58997 927.18 2.77997C926.74 2.84997 926.24 2.89997 925.73 2.89997C925.21 2.90997 924.7 2.87997 924.23 2.81997ZM852.01 8.21997C854.96 7.08997 858.49 7.14997 862.41 7.73997C862.84 7.80997 863.29 7.85997 863.76 7.88997C864.24 7.91997 864.75 7.92997 865.23 7.88997C867.99 7.61997 870.83 7.41997 873.71 7.28997C873.94 7.28997 874.18 7.27997 874.39 7.24997C874.6 7.21997 874.8 7.17997 874.95 7.12997C875.1 7.07997 875.22 7.01997 875.28 6.94997C875.35 6.87997 875.36 6.81997 875.33 6.74997C875.1 6.34997 873.27 5.86997 872.18 5.96997C871.506 6.03183 871 6.05925 870.518 6.08537C870.221 6.10148 869.933 6.11709 869.62 6.13997C866.25 6.35997 862.78 6.44997 859.31 6.40997C857.35 6.35997 855.38 6.36997 853.42 6.42997C852.49 6.49997 851.65 6.64997 851.01 6.85997C850.37 7.06997 849.97 7.32997 849.85 7.60997C849.75 7.74997 849.75 7.89997 849.85 8.03997C850.38 8.42997 851.2 8.49997 852 8.19997L852.01 8.21997ZM1273.08 7.28997C1273.12 7.07997 1272.34 6.94997 1271.53 6.89997V7.68997C1272.31 7.65997 1273.05 7.49997 1273.08 7.28997ZM1271.52 7.67993V7.75993L1271.23 7.67993H1271.52ZM1276.63 4.86988C1277.06 4.91988 1277.55 4.92988 1277.99 4.86988C1278.25 4.83548 1278.44 4.75848 1278.63 4.68122C1278.72 4.64618 1278.81 4.61108 1278.9 4.57988L1278.08 4.31988C1277.9 4.31988 1277.71 4.31279 1277.53 4.30592C1277.19 4.29281 1276.87 4.2805 1276.63 4.31988C1275.37 4.49988 1275.42 4.71988 1276.63 4.86988ZM1400.21 8.33997C1395.83 8.42997 1391.42 8.39997 1387.05 8.26997C1386.57 8.24997 1386.11 8.20997 1385.69 8.13997C1385.48 8.09542 1385.29 8.04466 1385.09 7.99289L1385.09 7.99276C1384.93 7.95161 1384.77 7.90981 1384.6 7.86997C1384.97 7.77997 1385.38 7.69997 1385.81 7.62997C1388.72 7.46997 1391.69 7.42997 1394.65 7.51997C1395.5 7.52997 1397.94 7.55997 1400.3 7.62997C1400.77 7.66997 1401.19 7.75997 1401.47 7.87997C1401.89 8.05997 1401.44 8.28997 1400.21 8.33997ZM1225.33 7.00993L1224.45 6.92993L1224.56 7.13993L1225.33 7.00993ZM1302.47 7.46997L1303.14 7.33997L1303.23 7.54997L1302.47 7.46997ZM1264.33 4.47998L1263.56 4.51998L1264.06 4.71998L1264.33 4.47998ZM1271.53 6.89C1271.43 6.88 1271.33 6.88 1271.23 6.88V6.86H1271.28C1271.27 6.83591 1271.25 6.81544 1271.23 6.79423L1271.23 6.79341C1271.22 6.78644 1271.21 6.77939 1271.21 6.77209C1271.2 6.765 1271.2 6.75769 1271.19 6.75L1271.24 6.7539C1271.28 6.75819 1271.33 6.76346 1271.38 6.76879C1271.42 6.77405 1271.47 6.77937 1271.52 6.7839L1271.53 6.78003V6.78518C1271.55 6.78695 1271.57 6.78858 1271.59 6.79L1271.53 6.81V6.89ZM1270.94 6.73481C1270.75 6.71614 1270.56 6.69795 1270.38 6.66997C1270.17 6.62997 1270 6.51997 1270 6.42997C1270.61 6.40997 1270.98 6.52997 1271.19 6.75997L1271.13 6.75357L1271.03 6.74395L1270.94 6.73481ZM1312.99 4.54997C1313.21 4.62997 1313.49 4.68997 1313.81 4.72997C1314.13 4.76997 1314.49 4.77997 1314.83 4.76997C1315.17 4.75997 1315.5 4.71997 1315.77 4.65997C1316.04 4.59997 1316.25 4.51997 1316.38 4.41997C1317.08 4.05997 1318.21 3.77997 1319.56 3.64997C1320 3.60511 1320.47 3.58013 1320.94 3.5552C1321.42 3.53013 1321.89 3.50511 1322.33 3.45997C1323.21 3.36997 1323.89 3.13997 1323.22 2.95997C1322.84 2.87997 1322.42 2.81997 1321.98 2.76997C1321.53 2.74997 1321.08 2.72997 1320.63 2.71997L1317.68 2.76997C1315.77 2.80997 1313.98 3.04997 1312.64 3.44997C1311.55 3.74997 1311.64 4.12997 1312.99 4.53997V4.54997ZM490.68 9.69997H490.54L490.83 9.61997C490.807 9.63704 490.778 9.65088 490.748 9.66516C490.738 9.66987 490.728 9.67464 490.718 9.67958L490.701 9.68805C490.694 9.69187 490.687 9.69582 490.68 9.69997ZM829.98 4.71997C829.64 4.63997 829.21 4.59997 828.78 4.60997C828.35 4.61997 827.96 4.67997 827.68 4.77997C827.68 4.77997 827.68 4.96997 827.88 5.00997C828.24 5.07997 828.65 5.12997 829.09 5.14997C829.84 5.18997 830.6 5.21997 831.35 5.23997C831.26 5.14997 831.14 5.05997 830.95 4.97997C830.7 4.86997 830.36 4.77997 829.97 4.70997L829.98 4.71997ZM234.42 8.22997C234.343 8.23955 234.267 8.23995 234.19 8.23997L234.498 8.163C234.363 8.14248 234.233 8.11854 234.11 8.09011C233.73 8.0001 233.41 7.90011 233.17 7.78011C232.93 7.67011 232.81 7.53011 232.82 7.40011C232.85 7.34011 232.91 7.28011 233.02 7.23011C233.13 7.18011 233.27 7.14011 233.44 7.10011C234.21 7.0201 234.82 7.18011 235 7.53011C235.04 7.76011 235.04 8.0001 235 8.2301L235.03 8.22874L235.03 8.20996C235.067 8.21306 235.104 8.21807 235.142 8.22351C237.282 8.12187 239.363 7.93407 241.31 7.6601C242.22 7.5201 243.23 7.43011 244.26 7.43011C248.24 7.3101 252.27 7.47011 256.03 7.90011C256.7 8.0001 257.44 8.0701 258.2 8.0801C258.96 8.09011 259.72 8.06011 260.42 7.9801C263.652 7.59138 267.03 7.32988 270.411 7.06821C274.249 6.77117 278.089 6.47391 281.72 5.9901C283.12 5.84011 284.61 5.7701 286.11 5.7901C289.13 5.72011 292.17 5.88011 294.94 6.26011C297.21 6.60011 299.83 6.6701 302.24 6.4601C303.025 6.40728 303.753 6.33738 304.48 6.26758L304.48 6.26752L304.481 6.26749C304.717 6.24482 304.952 6.22216 305.19 6.2001C308.03 5.9301 311.02 5.82011 314.02 5.85011C314.737 5.85816 315.453 5.86693 316.169 5.8757C323.46 5.96495 330.726 6.05391 337.81 5.38011C338.77 5.31011 339.76 5.2901 340.75 5.31011C345.26 5.2301 349.79 5.42011 354.06 5.88011C354.99 6.00011 356.01 6.05011 357.02 6.05011C358.03 6.05011 359.03 5.9801 359.94 5.85011C362.65 5.47011 365.62 5.2901 368.63 5.2901C370.197 5.27002 371.72 5.27767 373.221 5.2852C374.71 5.29267 376.176 5.30002 377.64 5.28011C379.14 5.25011 380.61 5.1701 382.03 5.0401C383.92 4.84011 385.91 4.7301 387.92 4.7301C389.179 4.73512 390.435 4.74265 391.69 4.75017C392.938 4.75765 394.184 4.76512 395.43 4.7701C398.91 4.68011 402.43 4.6901 405.91 4.8301C407.05 4.9001 407.85 5.16011 407.67 5.40011C407.16 6.12011 406.51 6.82011 405.77 7.52011C405.29 7.9401 404.41 8.3101 403.23 8.5801C402.32 8.80011 401.23 8.76011 400.67 8.5001C400.626 8.47973 400.583 8.4593 400.539 8.43891C400.029 8.19902 399.529 7.96462 398.58 7.90011C398.32 7.88011 397.76 8.0301 397.55 8.13011C397.04 8.4501 396.21 8.7301 395.16 8.9101C394.11 9.1001 392.89 9.18011 391.66 9.1601C390.67 9.1401 389.68 9.1501 388.71 9.2001C388.47 9.22011 388.25 9.2501 388.05 9.2901C387.86 9.3301 387.69 9.3901 387.57 9.4501C387.3 9.6201 387.97 9.84011 389.27 9.84011C395.083 9.98011 403.044 9.92344 413.15 9.6701C414.15 9.6501 415.16 9.7001 416.09 9.8201C417.49 9.9801 418.96 10.0901 420.45 10.1301C422.694 10.1401 424.938 10.1525 427.183 10.165L427.185 10.165C429.441 10.1775 431.7 10.1901 433.96 10.2001C436.46 10.2101 439 10.1701 441.47 10.1201C442.77 10.1001 443.47 9.9201 443.18 9.77011C442.89 9.65011 442.44 9.57011 441.95 9.55011C440.517 9.45114 439.056 9.41129 437.595 9.37146C435.071 9.30262 432.549 9.23386 430.18 8.8601C429.22 8.7601 428.17 8.77011 427.24 8.89011C425.45 9.09011 424.39 8.7801 423.36 8.4601C422.67 8.2401 422.1 7.99011 421.69 7.72011C420.91 7.1701 419.46 6.73011 417.63 6.48011C416.73 6.35011 415.91 6.1701 415.19 5.9601C413.04 5.41011 413.22 5.05011 415.99 4.6801C418.61 4.2501 421.55 4.0201 424.56 4.0001C426.525 4.01592 428.496 4.00203 430.473 3.98811C433.495 3.96683 436.529 3.94546 439.57 4.03011C441.651 4.08597 443.741 4.06815 445.834 4.05029C448.237 4.02979 450.645 4.00925 453.05 4.1001C454.02 4.1401 454.93 4.2701 455.66 4.4701C456.38 4.6701 456.89 4.93011 457.11 5.2101C457.35 5.50011 457.46 5.7901 457.46 6.0801C457.58 6.37011 457.41 6.6701 456.98 6.93011C456.55 7.20011 455.88 7.42011 455.04 7.57011C454.84 7.61309 454.621 7.64467 454.405 7.67574C454.17 7.70972 453.939 7.74309 453.74 7.7901C451.26 8.36011 451.47 8.97011 453.73 9.6201C454.23 9.7801 454.87 9.9201 455.57 10.0001C456.28 10.0901 457.04 10.1201 457.79 10.1101C458.51 10.0701 459.19 9.98011 459.76 9.85011C460.33 9.72011 460.78 9.55011 461.06 9.35011C461.77 8.95011 462.6 8.9701 463.27 9.3601C463.86 9.6901 464.81 9.95011 465.97 10.1001C467.13 10.2501 468.41 10.2701 469.62 10.1801C470.13 10.1601 470.6 10.0901 470.92 9.97011C471.02 9.9201 471.07 9.85011 471.07 9.7901C471.07 9.7301 471.02 9.6701 470.92 9.6101C469.769 9.18086 468.572 8.75549 467.379 8.33158C466.654 8.07407 465.931 7.81709 465.22 7.56011C464.49 7.2901 464.7 7.04011 465.55 6.78011C466.94 6.36011 468.73 6.07011 470.7 5.9601C472.67 5.85011 474.72 5.91011 476.59 6.14011C478.03 6.3101 479.24 6.62011 480 7.02011C480.13 7.07011 480.23 7.14011 480.27 7.2101C480.31 7.28011 480.31 7.35011 480.25 7.4201C480.19 7.49011 480.08 7.56011 479.94 7.61011C479.8 7.66011 479.61 7.7101 479.4 7.7401C479.14 7.79542 478.834 7.84226 478.53 7.8889C477.898 7.98561 477.273 8.08145 477.07 8.2501C476.905 8.39279 477.091 8.56154 477.281 8.73403C477.425 8.86377 477.57 8.99562 477.57 9.1201L477.579 9.14998C477.92 10.3101 477.92 10.3103 481.42 10.3301C483.38 10.3601 485.35 10.3801 487.31 10.3601C488.06 10.3401 488.77 10.2601 489.38 10.1401C489.91 10.0301 490.34 9.8901 490.67 9.7301H491.07V9.60011C491.087 9.60176 491.103 9.60369 491.12 9.60576L491.17 9.61233C491.237 9.62122 491.303 9.63011 491.37 9.63011L491.11 9.72011H499.36C501.39 9.73011 503.39 9.6101 505.25 9.38011C505.69 9.30011 506.17 9.26011 506.68 9.2401C507.19 9.2301 507.7 9.2401 508.19 9.2901C511.01 9.60011 514.03 9.74011 517.02 9.68011L517.459 9.67439C521.588 9.62102 521.774 9.6186 526.56 8.7001C526.94 8.6101 527.39 8.55011 527.87 8.5301C528.35 8.5101 528.84 8.5201 529.3 8.5701C531.59 8.8601 533.89 9.1601 536.18 9.47011C537.54 9.6701 539.1 9.7101 540.54 9.5801C542.84 9.3101 545.26 9.13011 547.73 9.06011C549.2 8.99011 550.6 8.8301 551.82 8.5801C552.45 8.47011 553.17 8.40011 553.91 8.39011C554.66 8.38011 555.4 8.4101 556.09 8.5001C557.41 8.72011 558.95 8.7701 560.39 8.6601C562.27 8.4501 564.26 8.3601 566.28 8.3601C569.107 8.36677 571.937 8.39899 574.767 8.43122C580.427 8.49566 586.087 8.56011 591.72 8.4201C594.7 8.35011 597.7 8.5401 600.37 8.9501C601.77 9.1201 603.33 9.13011 604.73 8.97011C605.939 8.85903 607.174 8.76985 608.407 8.68075C610.061 8.56128 611.714 8.44194 613.3 8.27011C615.22 8.09011 617.28 8.10011 619.19 8.30011C620.64 8.43011 622.17 8.44011 623.63 8.35011C625.1 8.2501 626.45 8.05011 627.56 7.76011C628.95 7.37011 630.65 7.09011 632.52 6.94011C632.89 7.18011 633.44 7.38011 634.16 7.53011C634.98 7.70011 635.95 7.80011 636.95 7.80011C639.93 7.75011 642.92 7.95011 645.54 8.39011C647.38 8.65011 649.41 8.7701 651.43 8.7401C652.92 8.80011 654.43 8.7301 655.76 8.5301C656.668 8.37646 657.586 8.24232 658.51 8.10725C658.909 8.04892 659.309 7.99042 659.71 7.93011L659.711 7.92995C661.041 7.73 662.371 7.53006 663.72 7.36011C664.4 7.28011 665.13 7.2401 665.88 7.2401C666.62 7.2501 667.36 7.30011 668.04 7.39011C669.79 7.68011 671.73 7.86011 673.72 7.9101C675.71 7.9601 677.71 7.89011 679.58 7.69011C683.72 7.18011 688.38 7.15011 692.65 7.61011C694.06 7.76011 695.52 7.86011 697 7.9201C699.94 8.0001 702.89 8.0601 705.83 8.0801C706.84 8.10011 707.84 8.05011 708.78 7.9501C709.89 7.80011 711.09 7.7101 712.32 7.7101C713.55 7.70011 714.78 7.76011 715.93 7.89011C717.86 8.0801 719.94 8.07011 721.82 7.86011C724.63 7.55011 727.62 7.39011 730.65 7.40011C732.569 7.40011 734.487 7.3891 736.407 7.37809C738.971 7.36339 741.537 7.34867 744.11 7.36011C747.59 7.42011 751.07 7.31011 754.42 7.05011C756.256 7.20361 757.977 7.07825 759.684 6.95392C760.869 6.86767 762.046 6.78191 763.25 6.7901C768.224 6.75681 773.202 6.74126 778.172 6.72572C780.667 6.71792 783.16 6.71013 785.65 6.7001C788.6 6.7101 791.55 6.7701 794.48 6.89011C798.94 7.09011 803.49 6.9801 807.73 6.56011C808.2 6.51011 808.72 6.49011 809.23 6.51011C809.74 6.53011 810.23 6.5801 810.67 6.6601C812.48 6.95011 814.52 7.09011 816.56 7.07011C821.53 7.01011 826.52 7.04011 831.49 7.15011C833.08 7.18011 833.55 7.5101 832.84 8.1201C832.51 8.4001 832.16 8.6701 831.8 8.9401C830.15 8.9901 828.48 8.9801 826.83 8.9101C826.01 8.7501 825.07 8.6401 824.09 8.6101C823.11 8.5801 822.12 8.6201 821.21 8.7301C820.99 8.7601 820.76 8.77011 820.52 8.77011C820.28 8.76011 820.05 8.7501 819.83 8.72011C818.94 8.59011 817.94 8.5301 816.95 8.55011C815.96 8.57011 815.01 8.6701 814.21 8.84011L814.182 8.84548C813.31 9.0139 812.387 9.19221 812.12 9.39011C811.85 9.59011 813.56 9.8101 815.59 9.8201L826.1 9.88011C827.11 9.89011 828.09 9.8201 828.95 9.6701C829.81 9.52011 830.5 9.30011 830.94 9.0401C831.43 9.0801 831.9 9.13011 832.35 9.2001C833.013 9.3278 837.066 9.98055 840.513 10.5355L840.517 10.5362L840.527 10.5379C842.743 10.8946 844.705 11.2106 845.35 11.3201C847.55 11.6801 850.07 11.8401 852.56 11.7701C853.373 11.7389 854.164 11.7429 854.943 11.7468C855.659 11.7505 856.366 11.7541 857.07 11.7301C858.1 11.7001 859.09 11.6101 860.02 11.4801C860.94 11.3601 861.78 11.2001 862.53 11.0101C863.59 10.7101 864.87 10.4701 866.29 10.3301C867.71 10.1901 869.22 10.1401 870.72 10.1901C872.503 10.2512 874.058 10.0593 875.594 9.86973C876.822 9.71805 878.039 9.56789 879.35 9.55011C879.59 9.56011 879.83 9.5801 880.04 9.6201C880.25 9.6601 880.44 9.7101 880.58 9.77011C880.68 9.83011 880.73 9.8901 880.73 9.9501C880.73 10.0201 880.68 10.0801 880.58 10.1301C880.314 10.2779 879.999 10.4223 879.683 10.5672C879.464 10.6674 879.245 10.7679 879.04 10.8701C877.68 11.5001 877.88 11.7401 879.74 11.8001C884.23 11.9401 888.74 12.0001 893.25 12.0001C894.892 12.0084 896.498 11.913 898.108 11.8174C900.37 11.683 902.641 11.5482 905.03 11.7001C905.943 11.7583 906.798 11.5151 907.525 11.3087L907.59 11.2901C908.23 11.0701 909.08 10.9101 910.04 10.8401C911 10.7701 912.02 10.7901 912.95 10.8901C913.44 10.9401 913.97 10.9601 914.49 10.9401C915.01 10.9201 915.5 10.8601 915.9 10.7601C917.2 10.5401 918.68 10.4301 920.2 10.4301C922.745 10.4555 925.292 10.488 927.84 10.5205L927.841 10.5205C933.311 10.5903 938.785 10.6601 944.25 10.6601C946.77 10.6701 949.26 10.8101 951.61 11.0801C953.01 11.2501 954.49 11.3601 956 11.3901C959.123 11.4057 962.284 11.424 965.426 11.4422C968.331 11.459 971.221 11.4757 974.05 11.4901C977.08 11.5201 980.08 11.3801 982.89 11.0701C984.05 10.9401 985.29 10.8801 986.54 10.8801C987.79 10.8801 989.03 10.9601 990.19 11.1101C991.1 11.2501 992.16 11.2701 993.13 11.1901L1000.17 10.4401C1000.63 10.3901 1001.13 10.3601 1001.64 10.3601C1002.14 10.3701 1002.64 10.4001 1003.11 10.4601C1006.42 10.8201 1009.92 11.0001 1013.44 10.9901C1015.82 10.9996 1018.2 11.0211 1020.58 11.0425C1025.73 11.089 1030.86 11.1353 1036.02 11.0601C1037.53 11.0101 1039.06 11.0901 1040.44 11.2901C1041.52 11.4701 1042.8 11.5501 1044.03 11.4901C1045.27 11.4401 1046.39 11.2601 1047.21 10.9801C1047.58 10.8801 1047.98 10.7901 1048.42 10.7201C1049.26 10.5801 1050.19 10.4701 1051.16 10.4101C1058.22 10.2301 1065.2 10.1101 1071.76 11.1701C1073.15 11.3401 1074.59 11.4801 1076.06 11.5801C1076.99 11.7001 1077.76 11.9101 1078.23 12.1701C1078.5 12.2901 1078.88 12.3901 1079.33 12.4501C1079.78 12.5101 1080.28 12.5301 1080.76 12.5101C1083.23 12.4001 1085.67 12.2401 1088.07 12.0501C1089.21 11.946 1090.33 11.8307 1091.46 11.7151L1091.46 11.7147L1091.47 11.7146C1093.15 11.5416 1094.84 11.3679 1096.61 11.2301C1097.29 11.1501 1097.9 11.0201 1098.4 10.8701C1098.91 10.7201 1099.3 10.5301 1099.56 10.3301C1099.8 10.2001 1100.16 10.1001 1100.59 10.0201C1100.99 9.94011 1101.46 9.89011 1101.95 9.89011C1103.09 9.90011 1103.71 10.0901 1103.71 10.3901C1103.61 10.5301 1103.62 10.6701 1103.75 10.8101C1103.87 10.9501 1104.11 11.0801 1104.44 11.1801C1104.86 11.2801 1105.34 11.3401 1105.84 11.3801C1106.35 11.4201 1106.87 11.4201 1107.38 11.4001C1112.9 11.4201 1118.39 11.2001 1123.67 10.7601C1124.63 10.7001 1125.63 10.6901 1126.61 10.7201L1132.5 10.7501C1133.75 10.8001 1135.02 10.7201 1136.11 10.5501C1137.2 10.3801 1138.07 10.1001 1138.57 9.76011C1139.02 9.5001 1139.55 9.2601 1140.17 9.0301C1140.56 8.84011 1141.15 8.7001 1141.85 8.6201C1142.55 8.5401 1143.32 8.5301 1144.05 8.59011C1151.26 9.25061 1158.6 9.16212 1165.94 9.07351C1166.61 9.06552 1167.27 9.05754 1167.93 9.05011C1169.41 8.98011 1170.82 8.8301 1172.11 8.6101C1172.99 8.4801 1173.94 8.38011 1174.91 8.3301C1176.36 8.2101 1177.9 8.22011 1179.35 8.35011C1180.8 8.48011 1182.1 8.73011 1183.12 9.06011C1183.37 9.14888 1183.61 9.23915 1183.85 9.32918L1183.85 9.32968L1183.85 9.33045L1183.86 9.33103C1184.24 9.47363 1184.61 9.6156 1185.03 9.7501C1185.57 9.9101 1186.3 10.0001 1187.04 10.0001C1187.79 10.0101 1188.52 9.9301 1189.06 9.7801C1190.24 9.4801 1191.39 9.19011 1192.57 8.93011C1194.18 8.5801 1196.15 8.4001 1198.17 8.4101C1199.15 8.4201 1200.14 8.4001 1201.11 8.3601C1202.35 8.2801 1202.94 8.0801 1202.62 7.90011C1202.5 7.83011 1202.34 7.78011 1202.14 7.73011C1201.94 7.68011 1201.71 7.65011 1201.47 7.63011C1200.49 7.56848 1199.48 7.52005 1198.47 7.47126C1197.51 7.42503 1196.54 7.37849 1195.58 7.32011C1195.25 7.30511 1194.97 7.22262 1194.69 7.14012C1194.6 7.11262 1194.51 7.08511 1194.41 7.06011C1194.01 6.97011 1193.73 6.85011 1193.6 6.7101C1193.46 6.57011 1193.49 6.4201 1193.67 6.2901C1193.81 6.17147 1194.26 6.08614 1194.66 6.01133L1194.77 5.9901C1196.58 5.76011 1198.53 5.63011 1200.51 5.63011C1201.8 5.55008 1203.08 5.45297 1204.36 5.35549C1205.48 5.27026 1206.61 5.18474 1207.75 5.11011C1208 5.12011 1208.24 5.1401 1208.45 5.18011C1208.66 5.22011 1208.84 5.28011 1208.96 5.34011C1209.13 5.48365 1209.1 5.64146 1209.08 5.79899V5.79919C1209.04 6.05862 1209 6.31726 1209.81 6.51011C1211.14 6.72011 1212.61 6.8301 1214.1 6.8301C1214.35 6.84011 1214.58 6.88011 1214.78 6.9201C1214.98 6.96011 1215.15 7.0201 1215.28 7.0801C1215.3 7.1501 1215.26 7.22011 1215.17 7.28011C1215.08 7.34011 1214.93 7.4001 1214.75 7.44011C1213.89 7.58011 1212.8 7.85011 1212.68 8.01011C1212.57 8.1701 1213.71 8.2801 1214.86 8.3601C1216.3 8.4801 1217.71 8.63011 1219.07 8.8201C1219.73 8.9201 1220.46 8.97011 1221.2 8.9601C1221.94 8.9501 1222.65 8.8901 1223.28 8.7801C1225.63 8.5401 1227.68 8.10011 1229.17 7.51011C1229.59 7.33011 1230.15 7.18011 1230.82 7.0801C1231.48 6.9801 1232.22 6.93011 1232.97 6.93011C1235.48 6.9601 1237.98 6.84011 1240.31 6.5801C1240.97 6.49011 1241.69 6.43011 1242.42 6.43011C1243.16 6.4201 1243.89 6.4601 1244.58 6.5401C1249.32 7.09011 1254.55 7.1201 1259.3 6.6201C1259.77 6.5801 1260.28 6.59011 1260.74 6.64011C1261.2 6.6901 1261.59 6.79011 1261.83 6.9201C1262.46 7.24011 1263.4 7.50011 1264.52 7.6701C1265.64 7.84011 1266.9 7.91011 1268.15 7.88011C1268.63 7.88593 1269.12 7.90195 1269.63 7.91825C1269.99 7.92993 1270.35 7.94176 1270.72 7.9501C1270.5 8.13011 1270.16 8.3001 1269.7 8.4401C1269.19 8.6001 1268.56 8.72011 1267.85 8.7901C1267.42 8.85011 1267.08 8.9501 1266.88 9.0801C1266.47 9.34011 1267.05 9.5001 1268.47 9.5001L1276 9.5401H1277.5C1280.66 9.5201 1281.92 9.44011 1282.84 8.38011C1283.76 7.32011 1284.2 7.32011 1288 7.81011C1290.29 8.11011 1292.42 8.52011 1294.32 9.01011C1294.66 9.11011 1295.09 9.1901 1295.56 9.2401C1296.03 9.2901 1296.54 9.30011 1297.03 9.27011C1299.83 8.9601 1302.85 8.85011 1305.86 8.93011C1310.37 9.01011 1314.88 8.97011 1319.34 8.80011C1320.58 8.7501 1320.91 8.5301 1320.58 8.1501C1320.46 8.0101 1320.46 7.86011 1320.59 7.72011C1320.79 7.59011 1321.11 7.4801 1321.52 7.4101C1321.93 7.34011 1322.41 7.31011 1322.89 7.31011C1324.45 7.31011 1326.12 7.3101 1327.39 7.3301C1328.66 7.35011 1329.24 7.53011 1329.24 7.77011C1329.09 7.9001 1328.79 8.02011 1328.39 8.10011C1327.44 8.28011 1326.88 8.4901 1327.18 8.7501C1327.29 8.8601 1328.03 8.9501 1328.47 8.9501C1329.72 8.95509 1330.97 8.96255 1332.22 8.97003L1332.22 8.97004C1333.49 8.97756 1334.75 8.98509 1336.01 8.9901C1336.5 9.0001 1336.99 8.98011 1337.44 8.9201C1337.89 8.8601 1338.28 8.7701 1338.57 8.6601C1338.75 8.5701 1338.75 8.3801 1338.75 8.2301C1338.96 7.7001 1339.81 7.43011 1341.37 7.43011C1342.37 7.43011 1343.38 7.43174 1344.38 7.43337C1346.89 7.43745 1349.41 7.44154 1351.91 7.4201C1354.43 7.41011 1356.91 7.6001 1359.09 7.9801C1359.76 8.09011 1360.49 8.1501 1361.24 8.1601C1361.99 8.18011 1362.73 8.14011 1363.42 8.06011C1364.33 7.93011 1365.35 7.8701 1366.37 7.9101C1367.34 8.0001 1368.37 8.0301 1369.38 8.0001C1370.39 7.9701 1371.37 7.88011 1372.26 7.7401C1372.72 7.6901 1373.23 7.6901 1373.7 7.7401C1374.15 7.78011 1374.55 7.8601 1374.82 7.9701C1374.91 8.0201 1374.96 8.0801 1374.96 8.14011C1374.96 8.20011 1374.91 8.26011 1374.81 8.31011C1374.34 8.57011 1373.64 8.7801 1372.79 8.9401C1371.94 9.1001 1370.96 9.1901 1369.95 9.2001C1366.99 9.22704 1364.02 9.23366 1361.05 9.24029C1358.51 9.24597 1355.96 9.25165 1353.41 9.27011C1352.29 9.28011 1351.46 9.5701 1351.46 9.6601C1351.46 9.7501 1352.22 9.9101 1352.64 9.9101C1357.61 10.1301 1362.64 10.2001 1367.65 10.1101C1371.63 9.9901 1375.65 10.1501 1379.42 10.5601C1380.37 10.6701 1381.42 10.6801 1382.37 10.5801C1384.24 10.3601 1386.24 10.2401 1388.26 10.2201C1391.38 10.2357 1394.54 10.254 1397.68 10.2722L1397.69 10.2722C1400.59 10.289 1403.48 10.3057 1406.3 10.3201C1407.78 10.3088 1408.79 10.8758 1409.8 11.4372L1409.8 11.4375C1410.57 11.872 1411.34 12.3031 1412.32 12.4601C1414.12 12.7672 1415.97 13.0303 1417.81 13.2925C1421.32 13.79 1424.79 14.2842 1427.84 15.0701C1428.61 15.2601 1429.55 15.3801 1430.55 15.4201L1430.73 15.4345L1431.36 15.4823C1434.19 15.6995 1437.2 15.9306 1439.84 16.6701V16.6801C1440.58 16.8903 1441.54 16.8693 1442.28 16.8533C1442.56 16.8472 1442.81 16.8419 1443 16.8501V24H-0.0698242V16.8501C0.755657 16.832 1.58154 16.8143 2.40759 16.7965L2.40979 16.7965L2.41198 16.7965L2.41221 16.7965L2.41243 16.7964C5.68758 16.7262 8.96525 16.6559 12.2302 16.5601C12.8957 16.5441 13.5355 16.3609 14.1289 16.1909L14.1292 16.1909C14.2758 16.1489 14.4196 16.1077 14.5602 16.0701C14.8702 15.9501 15.1102 15.8301 15.3002 15.6901L15.3233 15.6787C17.0203 14.8401 17.0283 14.8361 14.4002 13.9601C14.0202 13.8701 13.7102 13.7501 13.5102 13.6201C13.3002 13.4901 13.2002 13.3401 13.2202 13.2001C13.2302 13.0601 13.3602 12.9201 13.5902 12.7901C13.8202 12.6601 14.1502 12.5501 14.5502 12.4701C17.0502 11.9401 19.9502 11.5901 23.0102 11.4601C27.5302 11.4801 32.0102 11.2701 36.2302 10.8101C36.7002 10.7601 37.2002 10.7401 37.7002 10.7501C39.2202 10.7201 40.7302 10.8401 42.0002 11.0901C42.7543 11.2646 43.5162 11.4663 44.2254 11.6541L44.2256 11.6541C44.6542 11.7676 45.0635 11.8759 45.4402 11.9701C46.4402 12.2201 47.2702 12.1501 47.7102 11.7701C47.8502 11.6301 47.8602 11.4801 47.7102 11.3401C47.2602 11.0001 46.5702 10.6901 45.7002 10.4201C44.8202 10.1501 43.7702 9.94011 42.6202 9.80011C41.4502 9.6201 41.1502 9.38011 41.8302 9.2401C42.2302 9.1601 42.7102 9.1201 43.2102 9.1201C43.9978 9.1201 44.7549 9.1252 45.5045 9.13025H45.5047H45.5049C46.2398 9.1352 46.9676 9.14011 47.7102 9.14011C49.2202 9.20011 50.6302 9.40011 51.7102 9.72011C52.4402 9.93011 53.1102 10.1501 53.7102 10.3901C54.0034 10.4959 54.2852 10.6086 54.5675 10.7215L54.5676 10.7216C54.8726 10.8436 55.1783 10.9659 55.5002 11.0801C56.4702 11.4901 58.3302 11.3601 59.4202 11.1001C59.8045 11.0049 60.149 10.8923 60.4958 10.779C61.1327 10.5708 61.7773 10.3602 62.6902 10.2501C64.5802 10.0601 66.6202 10.0201 68.5802 10.1601C71.1702 10.2701 73.6202 10.5801 75.7002 11.0501C76.1102 11.1301 76.4402 11.2501 76.6402 11.3901C77.2002 11.8001 77.2002 12.2601 76.6402 12.6701C76.4302 12.8001 76.1102 12.9201 75.7102 13.0101C75.3202 13.1001 74.8502 13.1601 74.3502 13.1901L71.7602 13.3501C71.7402 13.4901 71.7302 13.6301 71.7602 13.7701C71.9902 14.5301 73.4002 14.7901 75.6702 14.4801L76.3599 14.3899L76.36 14.3899C77.9567 14.1815 79.539 13.9749 81.0602 13.7301C81.7002 13.6101 82.4302 13.5601 83.1802 13.5601C83.9302 13.5601 84.6602 13.6301 85.3002 13.7501C88.9202 14.5101 91.8102 14.2401 94.5202 13.3901C94.8702 13.2801 95.2502 13.1901 95.6702 13.1101C96.2602 12.9801 96.9602 12.8901 97.7002 12.8601C98.4402 12.8301 99.2002 12.8501 99.9102 12.9301C101.44 13.1801 103.16 13.3301 104.9 13.3301C106.64 13.3401 108.36 13.2201 109.89 12.9901C110.833 12.8492 111.893 12.7876 112.958 12.7258C113.858 12.6734 114.762 12.6209 115.6 12.5201C116.76 12.3801 117.77 12.1601 118.53 11.8701C119.29 11.5801 119.77 11.2401 119.91 10.8701C120.16 10.1501 120.16 9.4101 120.16 8.68011C120.28 8.47011 120.57 8.27011 121 8.10011C121.43 7.93011 121.99 7.79011 122.64 7.69011C126.64 7.66011 130.55 7.39011 134.13 6.89011C135.99 6.66011 138.06 6.63011 140.02 6.7901C140.37 6.80011 140.71 6.83011 141.02 6.88011C141.33 6.93011 141.6 7.0001 141.81 7.0801C142.02 7.1701 142.18 7.26011 142.26 7.36011C142.34 7.47011 142.35 7.57011 142.29 7.6701C142.22 7.96011 142.47 8.2501 143 8.5001C143.53 8.7501 144.31 8.95011 145.23 9.06011C146.426 9.18874 147.656 9.28842 148.889 9.38841C149.573 9.44388 150.259 9.49945 150.94 9.56011C151.6 9.66011 152.13 9.82011 152.45 10.0201C152.77 10.2201 152.87 10.4401 152.73 10.6501C152.7 10.6851 152.676 10.7225 152.651 10.7604C152.577 10.8744 152.5 10.9926 152.26 11.0601C151.26 11.3501 151.28 11.5801 152.58 11.7401C153.04 11.8001 153.53 11.8201 154.01 11.8001C154.49 11.7801 154.95 11.7301 155.35 11.6501C156.64 11.4401 157.76 11.1501 158.59 10.8001C161.3 9.64032 161.33 9.6401 165.658 9.61012L165.66 9.6101L168.6 9.63011C168.85 9.63011 169.093 9.6151 169.335 9.60011C169.578 9.5851 169.82 9.5701 170.07 9.5701C170.81 9.5501 171.51 9.47011 172.09 9.34011C172.66 9.2101 173.09 9.0301 173.31 8.8201C173.55 8.4701 173.31 8.36011 170.96 7.8301C169.4 7.49011 169.49 7.1901 171.26 6.97011C172.62 6.7901 174.02 6.64011 175.44 6.51011C175.94 6.51011 176.44 6.55011 176.85 6.64011C178.97 7.01011 179.35 7.32011 178.26 8.06011C177.72 8.39011 177.43 8.7401 177.43 9.1101C177.43 9.4801 177.71 9.84011 178.25 10.1701C178.58 10.4501 179.24 10.6901 180.12 10.8301C181 10.9701 182.02 11.0201 182.99 10.9501C184.41 10.8201 185.86 10.7201 187.32 10.6501C190.31 10.7101 193.31 10.6001 196.15 10.3301C197.764 10.0872 199.511 10.0005 201.244 9.91455C202.936 9.83061 204.614 9.74735 206.14 9.52011C208.32 9.1701 210.77 8.9901 213.27 8.9901C219.28 9.01011 225.37 9.02011 231.26 8.97011C232 8.9501 232.7 8.86011 233.27 8.72011C233.78 8.59011 234.16 8.43011 234.39 8.2501C234.454 8.24677 234.517 8.24233 234.58 8.23788C234.707 8.22899 234.834 8.22011 234.96 8.22011C234.805 8.2046 234.653 8.18642 234.506 8.16419C234.477 8.19187 234.449 8.21092 234.42 8.22997ZM492.91 4.11997C493.08 4.17997 493.29 4.21997 493.52 4.24997C493.75 4.27997 494 4.29997 494.25 4.29997C494.5 4.29997 494.75 4.28997 494.98 4.25997C495.279 4.23082 495.535 4.14858 495.776 4.07128C495.866 4.04249 495.953 4.01439 496.04 3.98997C495.95 3.91997 495.81 3.84997 495.63 3.79997C495.45 3.73997 495.24 3.69997 495 3.66997C494.76 3.63997 494.51 3.61997 494.25 3.61997C493.99 3.61997 493.74 3.62997 493.5 3.65997C493.09 3.70997 492.44 3.89997 492.53 3.93997C492.61 4.00997 492.74 4.07997 492.91 4.12997V4.11997ZM528.54 4.05997L529.33 4.01997L529.04 4.24997L528.54 4.05997ZM224.6 7.27997C225.31 7.27997 226.02 7.22997 226.63 7.12997C226.89 7.08997 227.28 6.89997 227.19 6.86997C226.89 6.75997 226.49 6.66997 226.05 6.60997C225.6 6.54997 225.12 6.52997 224.63 6.53997C224.15 6.52997 223.66 6.53997 223.21 6.59997C222.76 6.64997 222.36 6.72997 222.04 6.83997C222.098 6.87201 222.145 6.90713 222.192 6.94171C222.291 7.01506 222.387 7.08599 222.57 7.11997C223.18 7.22997 223.89 7.28997 224.6 7.28997V7.27997ZM1270.72 7.89997C1270.74 7.87997 1270.8 7.82997 1270.8 7.82997V7.81997L1271.1 7.89997H1270.72ZM489.45 8.39997C489.28 8.43997 489.14 8.47997 489.03 8.53997C488.92 8.59997 488.87 8.65997 488.85 8.71997C488.85 8.84997 488.95 8.97997 489.17 9.09997C489.6 9.31997 490.28 9.47997 491.08 9.56997C491.08 9.33997 491.05 9.09997 490.88 8.84997C490.68 8.54997 490.18 8.31997 489.44 8.39997H489.45ZM632.54 6.93997C632.48 6.90997 632.38 6.83997 632.38 6.83997H632.39L632.68 6.92997C632.63 6.93997 632.59 6.93997 632.54 6.93997ZM207.7 7.95997C208.871 8.03804 210.245 8.09354 211.222 8.13299L211.64 8.14997C212.186 8.10446 212.669 8.07093 213.112 8.04018C213.739 7.9966 214.287 7.9586 214.82 7.89997C215.29 7.85997 215.7 7.76997 215.95 7.63997C216.2 7.51997 216.28 7.36997 216.18 7.21997C216.13 7.07997 215.96 6.93997 215.67 6.82997C215.39 6.70997 215.01 6.61997 214.56 6.55997C213.2 6.37997 211.67 6.34997 210.26 6.48997C208.86 6.62997 207.69 6.90997 206.99 7.28997C206.13 7.61997 206.34 7.86997 207.69 7.95997H207.7ZM631.56 3.10997C631.12 3.03997 630.75 2.93997 630.48 2.81997H630.47C630.28 2.73997 630.17 2.63997 630.1 2.53997C630.96 2.54997 631.8 2.54997 632.64 2.54997C633.1 2.56997 633.53 2.63997 633.88 2.72997C633.99 2.76997 634.07 2.80997 634.1 2.85997C634.13 2.90997 634.12 2.95997 634.06 3.00997C633.78 3.11997 633.36 3.18997 632.89 3.20997C632.42 3.22997 631.95 3.18997 631.56 3.10997ZM630.03 2.41997C630.04 2.45997 630.11 2.53997 630.11 2.53997H630.1H629.71L630.03 2.41997ZM629.63 2.37997C629.687 2.38407 629.741 2.39153 629.795 2.39891C629.872 2.40953 629.947 2.41997 630.03 2.41997L629.74 2.49997C629.71 2.45997 629.67 2.41997 629.63 2.37997ZM629.63 2.37997C629.34 2.35997 629.06 2.33997 628.79 2.29997C628.657 2.27342 628.586 2.21602 628.51 2.1541C628.471 2.12274 628.43 2.09023 628.38 2.05997C629.01 2.02997 629.41 2.13997 629.63 2.37997ZM827.13 2.58997C826.65 2.60997 826.15 2.58997 825.7 2.52997C825.25 2.46997 824.88 2.36997 824.63 2.23997C824.43 2.06997 825.46 1.88997 826.49 1.83997C827.374 1.79708 828.213 1.79834 829.027 1.79957C829.162 1.79977 829.296 1.79997 829.43 1.79997C830.35 1.78997 831.26 1.86997 832.02 2.02997C832.29 2.09997 832.55 2.29997 832.55 2.29997C832.29 2.41997 831.89 2.50997 831.43 2.53997C830.315 2.59735 829.086 2.59426 827.903 2.59128C827.642 2.59062 827.384 2.58997 827.13 2.58997ZM757.16 2.66997C756.3 2.55997 755.6 2.35997 755.22 2.10997H755.23C755.03 1.98997 754.85 1.79997 755.03 1.73997C755.52 1.59997 756.13 1.48997 756.8 1.43997C757.47 1.37997 758.18 1.37997 758.86 1.43997C759.3 1.45997 759.72 1.50997 760.09 1.57997C760.45 1.65997 760.76 1.74997 760.97 1.86997C760.98 1.99997 760.87 2.13997 760.65 2.25997C760.43 2.37997 760.1 2.47997 759.7 2.54997C759.35 2.62997 758.94 2.68997 758.49 2.70997C758.04 2.72997 757.58 2.71997 757.16 2.66997ZM531.79 6.86997C532.12 6.95997 532.54 7.02997 532.99 7.04997C534.02 7.09997 534.96 6.94997 534.94 6.68997C534.8 6.47997 534.46 6.28997 533.95 6.13997C533.44 5.98997 532.79 5.88997 532.09 5.84997C531.67 5.89997 531.33 5.99997 531.15 6.12997C530.97 6.24997 530.96 6.38997 531.11 6.51997C531.22 6.64997 531.45 6.76997 531.79 6.86997ZM570.709 3.8664C569.821 3.85037 568.86 3.83304 567.9 3.81997L567.89 3.80997C566.86 3.78997 565.77 3.69997 565.45 3.40997C565.25 3.25997 566.34 3.00997 567.4 3.00997C569.82 2.88997 572.31 2.89997 574.73 3.04997C575.85 3.13997 576.53 3.32997 576.35 3.53997C576.23 3.59997 576.07 3.65997 575.88 3.69997C575.69 3.73997 575.47 3.76997 575.23 3.78997C574.63 3.8283 574.005 3.84214 573.308 3.85757C572.915 3.86629 572.498 3.87552 572.05 3.88997C571.631 3.88304 571.18 3.87491 570.71 3.86642L570.709 3.8664ZM612.27 3.10997C612.989 3.10997 613.723 3.11495 614.458 3.11995C615.195 3.12495 615.934 3.12997 616.66 3.12997C617.14 3.14997 617.63 3.15997 618.1 3.12997C618.54 3.07997 618.94 3.00997 619.27 2.90997C619.6 2.80997 619.86 2.69997 620.02 2.56997C620.52 2.20997 618.97 1.69997 617.58 1.68997C615.65 1.76997 613.82 1.97997 612.25 2.30997C611.28 2.46997 610.72 2.67997 611.01 2.90997C611.263 3.11022 611.674 3.1058 612.093 3.10131C612.156 3.10064 612.218 3.09997 612.28 3.09997L612.27 3.10997ZM634.28 6.48997C634.33 6.66997 633.93 6.78997 633.05 6.83997C633.14 6.74997 633.24 6.65997 633.37 6.57997C633.54 6.48997 633.96 6.48997 634.28 6.48997ZM632.95 6.93997C632.95 6.93997 633.01 6.86997 633.05 6.82997C632.939 6.82997 632.818 6.83859 632.69 6.84783L632.66 6.84997L632.95 6.93997ZM1248.57 12.763C1249.26 12.7725 1250.13 12.7846 1250.95 12.7401H1250.93C1252.21 12.6701 1252.47 12.4001 1251.82 11.9801C1250.37 11.1001 1248.27 10.3701 1245.77 9.9001C1245.15 9.7801 1244.46 9.7101 1243.76 9.7101C1243.07 9.7101 1242.38 9.77011 1241.75 9.88011C1240.54 10.0773 1240.8 10.4233 1241.06 10.7679C1241.17 10.9126 1241.28 11.057 1241.28 11.1901C1241.28 11.3401 1241.17 11.4957 1241.06 11.6512C1240.83 11.9623 1240.61 12.2734 1241.28 12.5401C1241.67 12.6501 1242.14 12.7201 1242.62 12.7601C1243.1 12.8001 1243.61 12.7901 1244.07 12.7401C1244.53 12.7201 1245.01 12.7301 1245.47 12.7601H1247.59C1247.83 12.7528 1248.17 12.7575 1248.57 12.763ZM1404.59 17.6103C1407.07 17.6227 1409.55 17.6352 1412.04 17.6501V17.6301C1413.34 17.6401 1413.93 17.4401 1413.75 17.1201C1413.67 16.9901 1413.49 16.8601 1413.22 16.7401C1412.79 16.5601 1412.15 16.4401 1411.42 16.3901C1410.7 16.3501 1409.94 16.3801 1409.31 16.4901C1408.42 16.6201 1407.5 16.7201 1406.54 16.7901C1405.57 16.8501 1404.56 16.8401 1403.6 16.7701C1401.42 16.4201 1398.91 16.2801 1396.47 16.3901C1395.45 16.4101 1394.42 16.3401 1393.53 16.1901C1391.67 15.9301 1389.57 15.8901 1387.64 16.0701C1385.35 16.3401 1382.78 16.3601 1380.43 16.1101C1378.95 16.0201 1377.43 16.0701 1376.07 16.2501C1375.1 16.3301 1374.06 16.3001 1373.13 16.1801C1368.4 15.6501 1363.2 15.6601 1358.55 16.2001L1355.81 16.5401H1355.87C1355.47 16.5646 1355.16 16.5708 1354.84 16.577C1354.39 16.586 1353.92 16.5951 1353.19 16.6601C1351.96 16.7601 1351.45 16.9501 1351.95 17.1101C1352.31 17.2101 1352.78 17.2801 1353.28 17.2901C1355.16 17.3901 1357.16 17.4001 1359.17 17.4101C1361.16 17.4401 1363.11 17.6101 1364.85 17.9001C1366.17 18.1201 1367.65 18.2401 1369.16 18.2401C1370.66 18.2501 1372.14 18.1501 1373.47 17.9501C1375.7 17.6301 1378.16 17.4801 1380.66 17.4801L1397.08 17.5701C1399.58 17.5852 1402.08 17.5977 1404.59 17.6103L1404.59 17.6103Z" fill="#1A2C17"/>
</g>
<defs>
<clipPath id="clip0_1227_13808">
<rect width="1443" height="24" fill="white"/>
</clipPath>
</defs>
</svg>
