<svg width="360" height="24" viewBox="0 0 360 24" fill="none" xmlns="http://www.w3.org/2000/svg">
<g clip-path="url(#clip0_1612_52947)">
<rect width="360" height="24" fill="white"/>
<path fill-rule="evenodd" clip-rule="evenodd" d="M803.022 1.85997C803.172 1.91997 803.372 1.96997 803.591 2.00997C803.811 2.04997 804.06 2.06997 804.31 2.07997C805.557 2.08497 806.799 2.09247 808.041 2.09996L808.042 2.09997C809.284 2.10747 810.527 2.11497 811.774 2.11997L811.714 2.14997C812.958 2.15496 814.194 2.16243 815.432 2.1699C816.677 2.17743 817.923 2.18496 819.179 2.18997C820.187 2.22997 821.205 2.17997 822.113 2.04997C825.129 1.48319 828.45 1.43542 831.781 1.38751C833.387 1.36441 834.995 1.34129 836.573 1.25997C836.876 1.25997 837.156 1.18336 837.426 1.10966L837.426 1.1096C837.546 1.07681 837.663 1.0446 837.78 1.01997C837.581 0.919971 837.331 0.839972 837.042 0.769972C835.176 0.549972 833.16 0.459972 831.174 0.509972C829.178 0.499972 827.202 0.489972 825.296 0.429972C824.52 0.409609 823.749 0.312958 822.978 0.216337C821.855 0.0757011 820.734 -0.0648696 819.598 0.0299715C817.57 0.199293 815.503 0.284507 813.437 0.369645L813.436 0.369653C812.086 0.425302 810.736 0.480919 809.399 0.559972C807.493 0.719972 805.667 0.949971 803.961 1.24997C802.903 1.40997 802.583 1.66997 803.022 1.85997ZM792.384 1.54001C792.614 1.73001 792.005 1.98001 790.887 1.98001C788.053 2.09001 785.159 2.04001 782.395 1.81001C782.144 1.78133 781.95 1.71152 781.765 1.64482C781.692 1.61849 781.62 1.59265 781.547 1.57001C781.672 1.54363 781.793 1.50855 781.916 1.47338C782.164 1.40189 782.413 1.33001 782.694 1.33001C783.562 1.29001 784.45 1.26001 785.339 1.26001C786.491 1.26756 787.414 1.27084 788.193 1.2736C789.477 1.27816 790.372 1.28134 791.266 1.30001C791.506 1.31001 791.725 1.34001 791.925 1.38001C792.115 1.42001 792.274 1.48001 792.384 1.54001ZM702.551 5.64997C702.811 5.38997 702.112 5.23997 700.815 5.28997C700.616 5.28997 700.454 5.38479 700.298 5.47649C700.228 5.51798 700.158 5.55882 700.087 5.58997C700.22 5.61283 700.351 5.64102 700.48 5.66898C700.747 5.72662 701.009 5.78324 701.284 5.78997C701.723 5.78997 702.462 5.73997 702.551 5.64997ZM529.931 3.09998C529.253 3.01998 528.654 2.87998 528.195 2.70998C528.105 2.64998 528.055 2.57998 528.055 2.50998C528.065 2.43998 528.115 2.36998 528.205 2.30998C528.304 2.23072 528.555 2.16892 528.841 2.09863L528.841 2.09846L528.842 2.09827C528.989 2.06224 529.144 2.02397 529.293 1.97998C529.535 2.0139 529.781 2.04781 530.028 2.08193C531.093 2.22888 532.185 2.37955 533.165 2.54998C533.544 2.60998 534.073 2.75998 534.073 2.86998C534.103 3.10998 533.284 3.19998 532.077 3.19998C531.348 3.21998 530.61 3.18998 529.931 3.09998ZM744.494 5.76997C744.734 5.89997 745.133 5.99997 745.622 6.04997C746.5 6.16997 747.428 6.25997 748.376 6.31997C750.312 6.40997 752.288 6.45997 752.368 6.45997C755.681 6.70664 758.159 6.7533 759.802 6.59997C760.53 6.53318 761.287 6.47695 762.03 6.42178C762.733 6.36957 763.423 6.31832 764.063 6.25997C765.39 6.13997 765.71 5.94997 765.181 5.75997C764.881 5.64997 764.432 5.56997 763.953 5.54997C759.962 5.53997 756.11 5.07997 753.176 4.25997C752.787 4.16997 752.368 4.08997 751.918 4.02997C751.3 3.90997 750.581 3.83997 749.843 3.83997C749.114 3.83997 748.386 3.89997 747.777 4.00997C746.899 4.13997 746.141 4.32997 745.552 4.55997C744.963 4.78997 744.554 5.04997 744.354 5.33997C744.215 5.47997 744.264 5.63997 744.494 5.76997ZM730.194 6.12999C723.757 6.30999 717.261 6.26999 710.834 6.01999V6.02999C709.507 5.99999 708.779 5.52999 709.307 5.03999C709.39 4.96262 709.5 4.8883 709.611 4.81366C709.701 4.75325 709.79 4.69262 709.866 4.62999C709.992 4.48794 710.102 4.34034 710.212 4.19158C710.311 4.0576 710.411 3.92267 710.525 3.78999C711.174 3.09999 711.992 2.92999 713.459 3.10999C718.758 3.95999 724.626 4.44999 730.613 4.54999C731.102 4.56999 731.571 4.61999 731.99 4.69999C732.439 4.76999 732.828 4.86999 733.108 4.98999C733.337 5.10999 733.437 5.24999 733.377 5.38999C733.318 5.52999 733.108 5.64999 732.779 5.74999C732.11 5.95999 731.192 6.09999 730.194 6.12999ZM670.009 3.67997C670.358 3.77997 670.768 3.84997 671.217 3.88997C671.676 3.93997 672.145 3.94997 672.624 3.93997C673.542 3.90997 674.45 3.85997 675.348 3.78997C675.578 3.76997 675.797 3.73997 675.987 3.69997C676.166 3.65997 676.326 3.60997 676.446 3.54997C676.605 3.41997 676.625 3.27997 676.496 3.14997C676.376 3.01997 676.106 2.89997 675.737 2.81997C674.809 2.59997 673.632 2.48997 672.454 2.50997C671.266 2.52997 670.169 2.67997 669.36 2.93997C669.161 3.05997 669.111 3.20997 669.231 3.33997C669.341 3.47997 669.62 3.58997 670.009 3.67997ZM410.018 5.27095L409.722 5.34997C409.702 5.31997 409.662 5.27997 409.632 5.24997C409.762 5.25997 409.892 5.26997 410.022 5.26997C410.052 5.31997 410.102 5.35997 410.151 5.39997C410.131 5.39721 410.11 5.39426 410.09 5.39122L410.028 5.3815L410.027 5.38141C409.926 5.36534 409.829 5.34997 409.722 5.34997H409.732L410.018 5.27095ZM411.338 5.75997C411.338 5.65997 411.188 5.53997 410.989 5.49997C410.729 5.45997 410.44 5.42997 410.151 5.39997C410.4 5.63997 410.789 5.75997 411.338 5.75997ZM502.308 2.81997C501.859 2.75997 501.49 2.65997 501.251 2.52997H501.261C501.131 2.46997 501.041 2.40997 501.001 2.33997C500.961 2.27997 500.961 2.20997 501.021 2.13997C501.071 2.07997 501.181 2.00997 501.321 1.95997C501.46 1.90997 501.64 1.85997 501.849 1.82997C502.648 1.66997 503.616 1.58997 504.584 1.61997C505.083 1.57997 505.612 1.57997 506.121 1.61997C506.62 1.65997 507.089 1.73997 507.458 1.84997C508.047 2.02997 506.719 2.58997 505.252 2.77997C504.813 2.84997 504.314 2.89997 503.805 2.89997C503.286 2.90997 502.778 2.87997 502.308 2.81997ZM430.239 8.21997C433.183 7.08997 436.705 7.14997 440.617 7.73997C441.046 7.80997 441.495 7.85997 441.964 7.88997C442.443 7.91997 442.952 7.92997 443.431 7.88997C446.185 7.61997 449.02 7.41997 451.894 7.28997C452.123 7.28997 452.363 7.27997 452.572 7.24997C452.782 7.21997 452.981 7.17997 453.131 7.12997C453.281 7.07997 453.401 7.01997 453.46 6.94997C453.53 6.87997 453.54 6.81997 453.51 6.74997C453.281 6.34997 451.455 5.86997 450.367 5.96997C449.694 6.03183 449.189 6.05925 448.708 6.08537C448.412 6.10148 448.124 6.11709 447.812 6.13997C444.449 6.35997 440.986 6.44997 437.524 6.40997C435.568 6.35997 433.602 6.36997 431.646 6.42997C430.718 6.49997 429.88 6.64997 429.241 6.85997C428.602 7.06997 428.203 7.32997 428.083 7.60997C427.983 7.74997 427.983 7.89997 428.083 8.03997C428.612 8.42997 429.43 8.49997 430.229 8.19997L430.239 8.21997ZM850.433 7.28997C850.473 7.07997 849.695 6.94997 848.886 6.89997V7.68997C849.665 7.65997 850.403 7.49997 850.433 7.28997ZM848.878 7.67993V7.75993L848.588 7.67993H848.878ZM853.975 4.86988C854.405 4.91988 854.893 4.92988 855.333 4.86988C855.594 4.83548 855.783 4.75848 855.974 4.68122C856.061 4.64618 856.147 4.61108 856.241 4.57988L855.422 4.31988C855.241 4.31988 855.055 4.31279 854.876 4.30592C854.533 4.29281 854.211 4.2805 853.975 4.31988C852.718 4.49988 852.768 4.71988 853.975 4.86988ZM977.299 8.33997C972.928 8.42997 968.527 8.39997 964.166 8.26997C963.687 8.24997 963.228 8.20997 962.809 8.13997C962.598 8.09546 962.406 8.04475 962.209 7.99302L962.209 7.99288L962.208 7.99272L962.206 7.99206L962.205 7.99187C962.05 7.951 961.893 7.90952 961.721 7.86997C962.091 7.77997 962.5 7.69997 962.929 7.62997C965.833 7.46997 968.797 7.42997 971.75 7.51997C972.599 7.52997 975.034 7.55997 977.389 7.62997C977.858 7.66997 978.277 7.75997 978.556 7.87997C978.975 8.05997 978.526 8.28997 977.299 8.33997ZM802.783 7.00993L801.905 6.92993L802.014 7.13993L802.783 7.00993ZM879.762 7.46997L880.431 7.33997L880.521 7.54997L879.762 7.46997ZM841.702 4.47998L840.934 4.51998L841.433 4.71998L841.702 4.47998ZM848.887 6.89C848.787 6.88 848.687 6.88 848.587 6.88V6.86H848.637C848.625 6.83589 848.605 6.81541 848.585 6.79419L848.585 6.79338C848.572 6.77965 848.558 6.76558 848.547 6.75C848.608 6.75473 848.67 6.7617 848.732 6.76879L848.735 6.76907C848.769 6.77293 848.803 6.77681 848.838 6.78039C848.85 6.78159 848.862 6.78276 848.874 6.78388L848.887 6.78003V6.78516C848.907 6.78694 848.927 6.78857 848.947 6.79L848.887 6.81V6.89ZM848.298 6.73481C848.107 6.71614 847.92 6.69794 847.739 6.66997C847.529 6.62997 847.36 6.51997 847.36 6.42997C847.968 6.40997 848.338 6.52997 848.547 6.75997L848.448 6.7497L848.3 6.735L848.298 6.73481ZM890.26 4.54997C890.48 4.62997 890.759 4.68997 891.079 4.72997C891.398 4.76997 891.757 4.77997 892.096 4.76997C892.436 4.75997 892.765 4.71997 893.035 4.65997C893.304 4.59997 893.513 4.51997 893.643 4.41997C894.342 4.05997 895.469 3.77997 896.817 3.64997C897.259 3.60511 897.729 3.58013 898.198 3.5552C898.67 3.53013 899.14 3.50511 899.581 3.45997C900.459 3.36997 901.138 3.13997 900.469 2.95997C900.09 2.87997 899.671 2.81997 899.232 2.76997C898.782 2.74997 898.333 2.72997 897.884 2.71997L894.941 2.76997C893.035 2.80997 891.248 3.04997 889.911 3.44997C888.823 3.74997 888.913 4.12997 890.26 4.53997V4.54997ZM69.6602 9.69997H69.5202L69.8102 9.61997C69.7874 9.63704 69.7582 9.65088 69.728 9.66516C69.7175 9.67013 69.7068 9.67516 69.6963 9.6804C69.684 9.68655 69.6718 9.69299 69.6602 9.69997ZM408.255 4.71997C407.915 4.63997 407.486 4.59997 407.057 4.60997C406.628 4.61997 406.239 4.67997 405.959 4.77997C405.959 4.77997 405.959 4.96997 406.159 5.00997C406.518 5.07997 406.927 5.12997 407.366 5.14997C408.115 5.18997 408.873 5.21997 409.622 5.23997C409.532 5.14997 409.412 5.05997 409.223 4.97997C408.973 4.86997 408.634 4.77997 408.245 4.70997L408.255 4.71997ZM-186.067 8.22997C-186.143 8.23955 -186.22 8.23995 -186.297 8.23997L-185.989 8.16307C-186.124 8.14254 -186.254 8.11858 -186.377 8.09011C-186.756 8.0001 -187.075 7.90011 -187.315 7.78011C-187.554 7.67011 -187.674 7.53011 -187.664 7.40011C-187.634 7.34011 -187.574 7.28011 -187.464 7.23011C-187.355 7.18011 -187.215 7.14011 -187.045 7.10011C-186.277 7.0201 -185.668 7.18011 -185.489 7.53011C-185.449 7.76011 -185.449 8.0001 -185.489 8.2301L-185.459 8.22873L-185.459 8.20996C-185.421 8.21305 -185.384 8.21806 -185.347 8.2235C-183.211 8.12185 -181.135 7.93406 -179.192 7.6601C-178.284 7.5201 -177.276 7.43011 -176.248 7.43011C-172.276 7.3101 -168.254 7.47011 -164.502 7.90011C-163.834 8.0001 -163.095 8.0701 -162.337 8.0801C-161.578 8.09011 -160.82 8.06011 -160.121 7.9801C-156.897 7.59138 -153.525 7.32988 -150.151 7.06821C-146.322 6.77117 -142.489 6.47391 -138.866 5.9901C-137.469 5.84011 -135.982 5.7701 -134.485 5.7901C-131.471 5.72011 -128.437 5.88011 -125.673 6.26011C-123.408 6.60011 -120.793 6.6701 -118.388 6.4601C-117.605 6.40729 -116.879 6.33741 -116.154 6.26762L-116.154 6.26759C-115.918 6.24488 -115.682 6.22219 -115.444 6.2001C-112.61 5.9301 -109.627 5.82011 -106.633 5.85011C-105.918 5.85816 -105.203 5.86693 -104.488 5.8757C-97.2129 5.96495 -89.9615 6.05391 -82.8923 5.38011C-81.9343 5.31011 -80.9463 5.2901 -79.9584 5.31011C-75.4578 5.2301 -70.9372 5.42011 -66.6761 5.88011C-65.748 6.00011 -64.7301 6.05011 -63.7222 6.05011C-62.7143 6.05011 -61.7164 5.9801 -60.8083 5.85011C-58.1039 5.47011 -55.1401 5.2901 -52.1364 5.2901C-50.5732 5.27002 -49.0529 5.27767 -47.5551 5.2852C-46.0694 5.29267 -44.606 5.30002 -43.1451 5.28011C-41.6482 5.25011 -40.1812 5.1701 -38.7642 5.0401C-36.8781 4.84011 -34.8923 4.7301 -32.8864 4.7301C-31.6303 4.73512 -30.3767 4.74265 -29.1244 4.75017C-27.8795 4.75765 -26.6358 4.76512 -25.3921 4.7701C-21.9193 4.68011 -18.4066 4.6901 -14.9338 4.8301C-13.7962 4.9001 -12.9979 5.16011 -13.1775 5.40011C-13.6864 6.12011 -14.3351 6.82011 -15.0736 7.52011C-15.5526 7.9401 -16.4307 8.3101 -17.6083 8.5801C-18.5164 8.80011 -19.6041 8.76011 -20.1629 8.5001L-20.2426 8.46282L-20.2935 8.4389C-20.8032 8.19902 -21.3013 7.96462 -22.2486 7.90011C-22.5081 7.88011 -23.0669 8.0301 -23.2765 8.13011C-23.7854 8.4501 -24.6137 8.7301 -25.6615 8.9101C-26.7093 9.1001 -27.9268 9.18011 -29.1542 9.1601C-30.1422 9.1401 -31.1301 9.1501 -32.0981 9.2001C-32.3376 9.22011 -32.5572 9.2501 -32.7567 9.2901C-32.9464 9.3301 -33.116 9.3901 -33.2357 9.4501C-33.5052 9.6201 -32.8366 9.84011 -31.5393 9.84011C-25.738 9.98011 -17.7946 9.92344 -7.70892 9.6701C-6.711 9.6501 -5.70309 9.7001 -4.77502 9.8201C-3.37793 9.9801 -1.91098 10.0901 -0.424072 10.1301C1.81503 10.1401 4.05414 10.1525 6.29446 10.165L6.2962 10.165L6.29932 10.165C8.55054 10.1776 10.8029 10.1901 13.0578 10.2001C15.5526 10.2101 18.0873 10.1701 20.5522 10.1201C21.8495 10.1001 22.5481 9.9201 22.2587 9.77011C21.9693 9.65011 21.5202 9.57011 21.0312 9.55011C19.6011 9.45114 18.1428 9.41129 16.6854 9.37146C14.1664 9.30262 11.65 9.23385 9.28568 8.8601C8.32767 8.7601 7.27985 8.77011 6.35181 8.89011C4.56552 9.09011 3.50772 8.7801 2.47986 8.4601C1.79129 8.2401 1.2225 7.99011 0.813354 7.72011C0.0349731 7.1701 -1.41202 6.73011 -3.23822 6.48011C-4.13635 6.35011 -4.95465 6.1701 -5.67316 5.9601C-7.81866 5.41011 -7.63907 5.05011 -4.87482 4.6801C-2.26025 4.2501 0.673615 4.0201 3.67737 4.0001C5.63821 4.01592 7.60532 4.00203 9.57742 3.98811C12.5934 3.96683 15.6212 3.94546 18.6562 4.03011C20.7329 4.08597 22.8183 4.06815 24.9073 4.05029C27.3053 4.02979 29.7081 4.00925 32.1081 4.1001C33.0761 4.1401 33.9842 4.2701 34.7127 4.4701C35.4312 4.6701 35.9402 4.93011 36.1597 5.2101C36.3992 5.50011 36.509 5.7901 36.509 6.0801C36.6287 6.37011 36.4591 6.6701 36.03 6.93011C35.6009 7.20011 34.9323 7.42011 34.094 7.57011C33.8939 7.61309 33.6755 7.64467 33.4606 7.67574C33.2256 7.70972 32.9948 7.74309 32.7967 7.7901C30.3219 8.36011 30.5314 8.97011 32.7867 9.6201C33.2857 9.7801 33.9244 9.9201 34.6229 10.0001C35.3314 10.0901 36.0898 10.1201 36.8383 10.1101C37.5568 10.0701 38.2354 9.98011 38.8042 9.85011C39.373 9.72011 39.8221 9.55011 40.1015 9.35011C40.81 8.95011 41.6383 8.9701 42.3069 9.3601C42.8957 9.6901 43.8437 9.95011 45.0013 10.1001C46.1589 10.2501 47.4362 10.2701 48.6437 10.1801C49.1526 10.1601 49.6217 10.0901 49.941 9.97011C50.0408 9.9201 50.0907 9.85011 50.0907 9.7901C50.0907 9.7301 50.0408 9.6701 49.941 9.6101C48.793 9.18105 47.5987 8.75585 46.4085 8.33212L46.4078 8.33189L46.407 8.33159L46.404 8.3305L46.4023 8.32989C45.6805 8.07294 44.9603 7.81652 44.2528 7.56011C43.5244 7.2901 43.7339 7.04011 44.5822 6.78011C45.9692 6.36011 47.7556 6.07011 49.7215 5.9601C51.6874 5.85011 53.7331 5.91011 55.5992 6.14011C57.0362 6.3101 58.2437 6.62011 59.0021 7.02011C59.1318 7.07011 59.2316 7.14011 59.2715 7.2101C59.3115 7.28011 59.3115 7.35011 59.2516 7.4201C59.1917 7.49011 59.0819 7.56011 58.9422 7.61011C58.8025 7.66011 58.6129 7.7101 58.4034 7.7401C58.1436 7.79542 57.8384 7.84226 57.5346 7.8889C56.9045 7.98561 56.2802 8.08144 56.0782 8.2501C55.9131 8.39279 56.099 8.56154 56.289 8.73403C56.4319 8.86377 56.5772 8.99562 56.5772 9.1201L56.586 9.14999C56.9262 10.3101 56.9262 10.3103 60.4192 10.3301C62.3751 10.3601 64.341 10.3801 66.2969 10.3601C67.0453 10.3401 67.7539 10.2601 68.3626 10.1401C68.8915 10.0301 69.3206 9.8901 69.6499 9.7301H70.0491V9.60011C70.0824 9.60344 70.1156 9.60788 70.1489 9.61233C70.2154 9.62122 70.282 9.63011 70.3485 9.63011L70.089 9.72011H78.3218C80.3476 9.73011 82.3435 9.6101 84.1996 9.38011C84.6387 9.30011 85.1177 9.26011 85.6266 9.2401C86.1356 9.2301 86.6445 9.2401 87.1335 9.2901C89.9476 9.60011 92.9614 9.74011 95.9452 9.68011L96.3833 9.67439C100.503 9.62102 100.689 9.6186 105.465 8.7001C105.845 8.6101 106.294 8.55011 106.773 8.5301C107.252 8.5101 107.741 8.5201 108.2 8.5701C110.485 8.8601 112.78 9.1601 115.065 9.47011C116.422 9.6701 117.979 9.7101 119.416 9.5801C121.711 9.3101 124.126 9.13011 126.591 9.06011C128.058 8.99011 129.455 8.8301 130.673 8.5801C131.302 8.47011 132.02 8.40011 132.758 8.39011C133.507 8.38011 134.245 8.4101 134.934 8.5001C136.251 8.72011 137.788 8.7701 139.225 8.6601C141.101 8.4501 143.087 8.3601 145.103 8.3601C147.924 8.36677 150.748 8.39899 153.572 8.43122C159.22 8.49566 164.868 8.56011 170.49 8.4201C173.464 8.35011 176.457 8.5401 179.122 8.9501C180.519 9.1201 182.076 9.13011 183.473 8.97011C184.679 8.85905 185.911 8.76989 187.141 8.68081L187.142 8.68075C188.793 8.56128 190.442 8.44194 192.025 8.27011C193.941 8.09011 195.997 8.10011 197.903 8.30011C199.35 8.43011 200.877 8.44011 202.333 8.35011C203.8 8.2501 205.148 8.05011 206.255 7.76011C207.642 7.37011 209.339 7.09011 211.205 6.94011C211.574 7.18011 212.123 7.38011 212.842 7.53011C213.66 7.70011 214.628 7.80011 215.626 7.80011C218.6 7.75011 221.583 7.95011 224.198 8.39011C226.034 8.65011 228.06 8.7701 230.076 8.7401C231.563 8.80011 233.069 8.7301 234.397 8.5301C235.303 8.37647 236.218 8.24235 237.14 8.1073C237.539 8.04895 237.938 7.99044 238.339 7.93011L238.341 7.92978C239.667 7.72989 240.994 7.53001 242.34 7.36011C243.019 7.28011 243.747 7.2401 244.496 7.2401C245.234 7.2501 245.973 7.30011 246.651 7.39011C248.398 7.68011 250.333 7.86011 252.319 7.9101C254.305 7.9601 256.301 7.89011 258.167 7.69011C262.299 7.18011 266.949 7.15011 271.21 7.61011C272.617 7.76011 274.074 7.86011 275.551 7.9201C278.485 8.0001 281.429 8.0601 284.363 8.0801C285.371 8.10011 286.368 8.05011 287.307 7.9501C288.414 7.80011 289.612 7.7101 290.839 7.7101C292.067 7.70011 293.294 7.76011 294.442 7.89011C296.368 8.0801 298.443 8.07011 300.319 7.86011C303.124 7.55011 306.107 7.39011 309.131 7.40011C311.045 7.40011 312.96 7.3891 314.876 7.37809C317.434 7.36339 319.995 7.34867 322.563 7.36011C326.036 7.42011 329.509 7.31011 332.852 7.05011C334.684 7.20361 336.402 7.07825 338.105 6.95392C339.287 6.86767 340.462 6.78191 341.663 6.7901C346.626 6.75682 351.594 6.74126 356.554 6.72572C359.044 6.71792 361.532 6.71013 364.017 6.7001C366.961 6.7101 369.904 6.7701 372.828 6.89011C377.279 7.09011 381.82 6.9801 386.051 6.56011C386.52 6.51011 387.039 6.49011 387.548 6.51011C388.057 6.53011 388.546 6.5801 388.985 6.6601C390.791 6.95011 392.827 7.09011 394.862 7.07011C399.822 7.01011 404.802 7.04011 409.761 7.15011C411.348 7.18011 411.817 7.5101 411.109 8.1201C410.779 8.4001 410.43 8.6701 410.071 8.9401C408.424 8.9901 406.758 8.9801 405.111 8.9101C404.293 8.7501 403.355 8.6401 402.377 8.6101C401.399 8.5801 400.411 8.6201 399.503 8.7301C399.283 8.7601 399.054 8.77011 398.814 8.77011C398.575 8.76011 398.345 8.7501 398.126 8.72011C397.237 8.59011 396.24 8.5301 395.252 8.55011C394.264 8.57011 393.316 8.6701 392.517 8.84011L392.489 8.84552C391.619 9.01392 390.698 9.19223 390.432 9.39011C390.162 9.59011 391.869 9.8101 393.894 9.8201L404.383 9.88011C405.39 9.89011 406.368 9.8201 407.227 9.6701C408.085 9.52011 408.773 9.30011 409.213 9.0401C409.701 9.0801 410.17 9.13011 410.62 9.2001C411.281 9.32782 415.327 9.98079 418.767 10.5359L418.77 10.5363L418.774 10.5369L418.807 10.5422C421.006 10.8972 422.951 11.211 423.593 11.3201C425.788 11.6801 428.303 11.8401 430.788 11.7701C431.598 11.7389 432.388 11.7429 433.165 11.7468C433.88 11.7505 434.585 11.7541 435.288 11.7301C436.316 11.7001 437.304 11.6101 438.232 11.4801C439.15 11.3601 439.988 11.2001 440.737 11.0101C441.795 10.7101 443.072 10.4701 444.489 10.3301C445.906 10.1901 447.413 10.1401 448.91 10.1901C450.689 10.2512 452.241 10.0593 453.773 9.86973C454.999 9.71805 456.213 9.56789 457.522 9.55011C457.761 9.56011 458.001 9.5801 458.21 9.6201C458.42 9.6601 458.61 9.7101 458.749 9.77011C458.849 9.83011 458.899 9.8901 458.899 9.9501C458.899 10.0201 458.849 10.0801 458.749 10.1301C458.484 10.2779 458.169 10.4223 457.854 10.5672C457.635 10.6674 457.416 10.7679 457.212 10.8701C455.855 11.5001 456.055 11.7401 457.911 11.8001C462.392 11.9401 466.892 12.0001 471.393 12.0001C473.032 12.0084 474.634 11.913 476.241 11.8174C478.498 11.683 480.764 11.5482 483.148 11.7001C484.059 11.7583 484.913 11.5151 485.638 11.3088L485.703 11.2901C486.342 11.0701 487.19 10.9101 488.148 10.8401C489.106 10.7701 490.124 10.7901 491.052 10.8901C491.541 10.9401 492.07 10.9601 492.589 10.9401C493.108 10.9201 493.597 10.8601 493.996 10.7601C495.293 10.5401 496.77 10.4301 498.287 10.4301C500.827 10.4555 503.368 10.488 505.911 10.5205L505.912 10.5205C511.371 10.5903 516.834 10.6601 522.287 10.6601C524.802 10.6701 527.286 10.8101 529.632 11.0801C531.029 11.2501 532.506 11.3601 534.013 11.3901C537.129 11.4057 540.283 11.424 543.419 11.4422C546.318 11.459 549.201 11.4757 552.025 11.4901C555.049 11.5201 558.042 11.3801 560.847 11.0701C562.004 10.9401 563.242 10.8801 564.489 10.8801C565.736 10.8801 566.974 10.9601 568.131 11.1101C569.04 11.2501 570.097 11.2701 571.065 11.1901L578.091 10.4401C578.55 10.3901 579.049 10.3601 579.558 10.3601C580.057 10.3701 580.556 10.4001 581.025 10.4601C584.328 10.8201 587.82 11.0001 591.333 10.9901C593.712 10.9996 596.087 11.0211 598.46 11.0425C603.594 11.089 608.721 11.1353 613.866 11.0601C615.373 11.0101 616.9 11.0901 618.277 11.2901C619.355 11.4701 620.632 11.5501 621.859 11.4901C623.097 11.4401 624.214 11.2601 625.033 10.9801C625.402 10.8801 625.801 10.7901 626.24 10.7201C627.079 10.5801 628.007 10.4701 628.975 10.4101C636.02 10.2301 642.985 10.1101 649.532 11.1701C650.919 11.3401 652.356 11.4801 653.823 11.5801C654.751 11.7001 655.519 11.9101 655.988 12.1701C656.258 12.2901 656.637 12.3901 657.086 12.4501C657.535 12.5101 658.034 12.5301 658.513 12.5101C660.978 12.4001 663.413 12.2401 665.808 12.0501C666.948 11.9459 668.07 11.8305 669.195 11.7148C670.877 11.5417 672.566 11.3679 674.33 11.2301C675.009 11.1501 675.617 11.0201 676.116 10.8701C676.625 10.7201 677.015 10.5301 677.274 10.3301C677.514 10.2001 677.873 10.1001 678.302 10.0201C678.701 9.94011 679.17 9.89011 679.659 9.89011C680.797 9.90011 681.415 10.0901 681.415 10.3901C681.316 10.5301 681.326 10.6701 681.455 10.8101C681.575 10.9501 681.814 11.0801 682.144 11.1801C682.563 11.2801 683.042 11.3401 683.541 11.3801C684.05 11.4201 684.569 11.4201 685.078 11.4001C690.586 11.4201 696.065 11.2001 701.334 10.7601C702.292 10.7001 703.29 10.6901 704.268 10.7201L710.146 10.7501C711.393 10.8001 712.66 10.7201 713.748 10.5501C714.836 10.3801 715.704 10.1001 716.203 9.76011C716.652 9.5001 717.181 9.2601 717.8 9.0301C718.189 8.84011 718.777 8.7001 719.476 8.6201C720.175 8.5401 720.943 8.5301 721.672 8.59011C728.867 9.25061 736.189 9.16212 743.521 9.07351C744.181 9.06552 744.841 9.05754 745.502 9.05011C746.979 8.98011 748.386 8.8301 749.673 8.6101C750.551 8.4801 751.499 8.38011 752.467 8.3301C753.914 8.2101 755.451 8.22011 756.898 8.35011C758.345 8.48011 759.642 8.73011 760.66 9.06011C760.911 9.14907 761.152 9.23954 761.391 9.32976C761.772 9.47279 762.15 9.6152 762.566 9.7501C763.105 9.9101 763.834 10.0001 764.572 10.0001C765.321 10.0101 766.049 9.9301 766.588 9.7801C767.766 9.4801 768.913 9.19011 770.091 8.93011C771.697 8.5801 773.663 8.4001 775.679 8.4101C776.657 8.4201 777.645 8.4001 778.613 8.3601C779.85 8.2801 780.439 8.0801 780.12 7.90011C780 7.83011 779.84 7.78011 779.641 7.73011C779.441 7.68011 779.212 7.65011 778.972 7.63011C777.993 7.56848 776.988 7.52005 775.976 7.47126C775.017 7.42503 774.051 7.37849 773.094 7.32011C772.765 7.3051 772.486 7.2226 772.207 7.14009C772.115 7.1126 772.022 7.0851 771.927 7.06011C771.528 6.97011 771.248 6.85011 771.118 6.7101C770.979 6.57011 771.009 6.4201 771.188 6.2901C771.325 6.17151 771.777 6.0862 772.174 6.01141L772.286 5.9901C774.092 5.76011 776.038 5.63011 778.014 5.63011C779.297 5.55011 780.574 5.45304 781.855 5.3556L781.857 5.35552C782.978 5.27028 784.103 5.18475 785.239 5.11011C785.489 5.12011 785.728 5.1401 785.938 5.18011C786.147 5.22011 786.327 5.28011 786.447 5.34011C786.612 5.48372 786.589 5.64161 786.565 5.79922C786.526 6.05864 786.488 6.31726 787.295 6.51011C788.622 6.72011 790.089 6.8301 791.576 6.8301C791.825 6.84011 792.055 6.88011 792.255 6.9201C792.454 6.96011 792.624 7.0201 792.753 7.0801C792.773 7.1501 792.734 7.22011 792.644 7.28011C792.554 7.34011 792.404 7.4001 792.224 7.44011C791.366 7.58011 790.279 7.85011 790.159 8.01011C790.049 8.1701 791.187 8.2801 792.334 8.3601C793.771 8.4801 795.178 8.63011 796.536 8.8201C797.194 8.9201 797.923 8.97011 798.661 8.9601C799.4 8.9501 800.108 8.8901 800.737 8.7801C803.082 8.5401 805.128 8.10011 806.615 7.51011C807.034 7.33011 807.592 7.18011 808.261 7.0801C808.92 6.9801 809.658 6.93011 810.407 6.93011C812.911 6.9601 815.406 6.84011 817.731 6.5801C818.39 6.49011 819.109 6.43011 819.837 6.43011C820.575 6.4201 821.304 6.4601 821.992 6.5401C826.723 7.09011 831.942 7.1201 836.682 6.6201C837.151 6.5801 837.66 6.59011 838.119 6.64011C838.578 6.6901 838.967 6.79011 839.207 6.9201C839.835 7.24011 840.773 7.50011 841.891 7.6701C843.009 7.84011 844.266 7.91011 845.514 7.88011C845.99 7.88593 846.484 7.90195 846.987 7.91825C847.347 7.92993 847.712 7.94176 848.078 7.9501C847.859 8.13011 847.519 8.3001 847.06 8.4401C846.551 8.6001 845.923 8.72011 845.214 8.7901C844.785 8.85011 844.446 8.9501 844.246 9.0801C843.837 9.34011 844.416 9.5001 845.833 9.5001L853.347 9.5401H854.844C857.997 9.5201 859.255 9.44011 860.173 8.38011C861.091 7.32011 861.53 7.32011 865.322 7.81011C867.607 8.11011 869.733 8.52011 871.629 9.01011C871.968 9.11011 872.398 9.1901 872.867 9.2401C873.336 9.2901 873.844 9.30011 874.333 9.27011C877.128 8.9601 880.141 8.85011 883.145 8.93011C887.646 9.01011 892.146 8.97011 896.597 8.80011C897.834 8.7501 898.164 8.5301 897.834 8.1501C897.715 8.0101 897.715 7.86011 897.844 7.72011C898.044 7.59011 898.363 7.4801 898.773 7.4101C899.182 7.34011 899.661 7.31011 900.14 7.31011C901.696 7.31011 903.363 7.3101 904.63 7.3301C905.898 7.35011 906.476 7.53011 906.476 7.77011C906.327 7.9001 906.027 8.02011 905.628 8.10011C904.68 8.28011 904.121 8.4901 904.421 8.7501C904.531 8.8601 905.269 8.9501 905.708 8.9501C906.951 8.95509 908.202 8.96256 909.454 8.97003L909.455 8.97004C910.715 8.97756 911.976 8.98509 913.232 8.9901C913.721 9.0001 914.21 8.98011 914.659 8.9201C915.108 8.8601 915.498 8.7701 915.787 8.6601C915.967 8.5701 915.967 8.3801 915.967 8.2301C916.176 7.7001 917.025 7.43011 918.581 7.43011C919.582 7.43011 920.583 7.43174 921.586 7.43337C924.094 7.43745 926.604 7.44154 929.099 7.4201C931.614 7.41011 934.089 7.6001 936.264 7.9801C936.933 8.09011 937.661 8.1501 938.41 8.1601C939.158 8.18011 939.897 8.14011 940.585 8.06011C941.494 7.93011 942.511 7.8701 943.529 7.9101C944.497 8.0001 945.525 8.0301 946.533 8.0001C947.541 7.9701 948.519 7.88011 949.407 7.7401C949.866 7.6901 950.375 7.6901 950.844 7.7401C951.293 7.78011 951.692 7.8601 951.962 7.9701C952.052 8.0201 952.101 8.0801 952.101 8.14011C952.101 8.20011 952.052 8.26011 951.952 8.31011C951.483 8.57011 950.784 8.7801 949.936 8.9401C949.088 9.1001 948.11 9.1901 947.102 9.2001C944.145 9.22704 941.185 9.23366 938.221 9.24029C935.683 9.24597 933.142 9.25165 930.596 9.27011C929.479 9.28011 928.65 9.5701 928.65 9.6601C928.65 9.7501 929.409 9.9101 929.828 9.9101C934.787 10.1301 939.807 10.2001 944.807 10.1101C948.778 9.9901 952.79 10.1501 956.552 10.5601C957.5 10.6701 958.548 10.6801 959.496 10.5801C961.362 10.3601 963.358 10.2401 965.374 10.2201C968.485 10.2357 971.64 10.254 974.776 10.2722L974.78 10.2722L974.782 10.2722L974.787 10.2722C977.682 10.289 980.562 10.3057 983.376 10.3201C984.856 10.3088 985.866 10.8758 986.866 11.4372C987.64 11.8718 988.408 12.303 989.384 12.4601C991.178 12.7672 993.026 13.0303 994.867 13.2925C998.361 13.79 1001.83 14.2842 1004.87 15.0701C1005.64 15.2601 1006.58 15.3801 1007.58 15.4201C1007.84 15.441 1008.11 15.4616 1008.38 15.4823C1011.21 15.6996 1014.21 15.9306 1016.85 16.6701V16.6801C1017.58 16.8903 1018.55 16.8693 1019.28 16.8533C1019.56 16.8472 1019.81 16.8419 1020 16.8501V24H-420.07V16.8501C-419.246 16.832 -418.422 16.8143 -417.598 16.7965L-417.595 16.7965L-417.593 16.7965L-417.593 16.7965L-417.593 16.7964C-414.324 16.7262 -411.054 16.6559 -407.795 16.5601C-407.131 16.5441 -406.493 16.3609 -405.901 16.191L-405.901 16.1909C-405.754 16.1489 -405.611 16.1078 -405.47 16.0701C-405.161 15.9501 -404.921 15.8301 -404.732 15.6901L-404.709 15.6787C-403.015 14.8401 -403.007 14.8361 -405.63 13.9601C-406.009 13.8701 -406.318 13.7501 -406.518 13.6201C-406.728 13.4901 -406.827 13.3401 -406.807 13.2001C-406.797 13.0601 -406.668 12.9201 -406.438 12.7901C-406.209 12.6601 -405.879 12.5501 -405.48 12.4701C-402.985 11.9401 -400.091 11.5901 -397.038 11.4601C-392.527 11.4801 -388.057 11.2701 -383.845 10.8101C-383.376 10.7601 -382.877 10.7401 -382.378 10.7501C-380.862 10.7201 -379.355 10.8401 -378.087 11.0901C-377.335 11.2646 -376.575 11.4663 -375.867 11.654L-375.867 11.654L-375.867 11.6541C-375.439 11.7675 -375.03 11.8759 -374.654 11.9701C-373.657 12.2201 -372.828 12.1501 -372.389 11.7701C-372.249 11.6301 -372.239 11.4801 -372.389 11.3401C-372.838 11.0001 -373.527 10.6901 -374.395 10.4201C-375.273 10.1501 -376.321 9.94011 -377.469 9.80011C-378.636 9.6201 -378.936 9.38011 -378.257 9.2401C-377.858 9.1601 -377.379 9.1201 -376.88 9.1201C-376.094 9.1201 -375.338 9.1252 -374.59 9.13025H-374.59H-374.59C-373.856 9.1352 -373.13 9.14011 -372.389 9.14011C-370.882 9.20011 -369.475 9.40011 -368.397 9.72011C-367.669 9.93011 -367 10.1501 -366.402 10.3901C-366.109 10.4959 -365.828 10.6086 -365.546 10.7215L-365.546 10.7215L-365.546 10.7215C-365.242 10.8436 -364.937 10.9659 -364.615 11.0801C-363.647 11.4901 -361.791 11.3601 -360.704 11.1001C-360.32 11.0049 -359.976 10.8923 -359.63 10.779L-359.63 10.779C-358.995 10.5708 -358.351 10.3602 -357.44 10.2501C-355.554 10.0601 -353.518 10.0201 -351.563 10.1601C-348.978 10.2701 -346.533 10.5801 -344.457 11.0501C-344.048 11.1301 -343.719 11.2501 -343.519 11.3901C-342.96 11.8001 -342.96 12.2601 -343.519 12.6701C-343.729 12.8001 -344.048 12.9201 -344.447 13.0101C-344.837 13.1001 -345.306 13.1601 -345.805 13.1901L-348.389 13.3501C-348.409 13.4901 -348.419 13.6301 -348.389 13.7701C-348.16 14.5301 -346.753 14.7901 -344.487 14.4801L-343.799 14.3899L-343.799 14.3899C-342.205 14.1814 -340.626 13.9749 -339.108 13.7301C-338.47 13.6101 -337.741 13.5601 -336.993 13.5601C-336.244 13.5601 -335.516 13.6301 -334.877 13.7501C-331.265 14.5101 -328.381 14.2401 -325.676 13.3901C-325.327 13.2801 -324.948 13.1901 -324.529 13.1101C-323.94 12.9801 -323.242 12.8901 -322.503 12.8601C-321.765 12.8301 -321.006 12.8501 -320.298 12.9301C-318.771 13.1801 -317.054 13.3301 -315.318 13.3301C-313.582 13.3401 -311.865 13.2201 -310.338 12.9901C-309.398 12.8492 -308.34 12.7876 -307.277 12.7258C-306.379 12.6734 -305.477 12.6209 -304.64 12.5201C-303.483 12.3801 -302.475 12.1601 -301.716 11.8701C-300.958 11.5801 -300.479 11.2401 -300.339 10.8701C-300.09 10.1501 -300.09 9.4101 -300.09 8.68011C-299.97 8.47011 -299.681 8.27011 -299.252 8.10011C-298.822 7.93011 -298.264 7.79011 -297.615 7.69011C-293.623 7.66011 -289.721 7.39011 -286.149 6.89011C-284.293 6.66011 -282.227 6.63011 -280.271 6.7901C-279.922 6.80011 -279.582 6.83011 -279.273 6.88011C-278.964 6.93011 -278.694 7.0001 -278.485 7.0801C-278.275 7.1701 -278.116 7.26011 -278.036 7.36011C-277.956 7.47011 -277.946 7.57011 -278.006 7.6701C-278.076 7.96011 -277.826 8.2501 -277.297 8.5001C-276.768 8.7501 -275.99 8.95011 -275.072 9.06011C-273.878 9.18874 -272.651 9.28842 -271.421 9.38841C-270.738 9.44388 -270.054 9.49945 -269.374 9.56011C-268.715 9.66011 -268.186 9.82011 -267.867 10.0201C-267.548 10.2201 -267.448 10.4401 -267.587 10.6501C-267.617 10.6851 -267.642 10.7225 -267.666 10.7605C-267.74 10.8744 -267.817 10.9926 -268.057 11.0601C-269.054 11.3501 -269.034 11.5801 -267.737 11.7401C-267.278 11.8001 -266.789 11.8201 -266.31 11.8001C-265.831 11.7801 -265.372 11.7301 -264.973 11.6501C-263.686 11.4401 -262.568 11.1501 -261.74 10.8001C-259.036 9.64032 -259.005 9.6401 -254.687 9.61012L-254.684 9.6101L-251.75 9.63011C-251.501 9.63011 -251.259 9.6151 -251.017 9.6001C-250.775 9.5851 -250.533 9.5701 -250.284 9.5701C-249.545 9.5501 -248.847 9.47011 -248.268 9.34011C-247.699 9.2101 -247.27 9.0301 -247.05 8.8201C-246.811 8.4701 -247.05 8.36011 -249.395 7.8301C-250.952 7.49011 -250.862 7.1901 -249.096 6.97011C-247.739 6.7901 -246.342 6.64011 -244.925 6.51011C-244.426 6.51011 -243.927 6.55011 -243.518 6.64011C-241.402 7.01011 -241.023 7.32011 -242.111 8.06011C-242.649 8.39011 -242.939 8.7401 -242.939 9.1101C-242.939 9.4801 -242.659 9.84011 -242.121 10.1701C-241.791 10.4501 -241.133 10.6901 -240.254 10.8301C-239.376 10.9701 -238.358 11.0201 -237.39 10.9501C-235.973 10.8201 -234.526 10.7201 -233.069 10.6501C-230.086 10.7101 -227.092 10.6001 -224.258 10.3301C-222.647 10.0872 -220.903 10.0005 -219.174 9.91455C-217.486 9.83061 -215.812 9.74735 -214.289 9.52011C-212.113 9.1701 -209.668 8.9901 -207.173 8.9901C-201.176 9.01011 -195.099 9.02011 -189.221 8.97011C-188.482 8.9501 -187.784 8.86011 -187.215 8.72011C-186.706 8.59011 -186.327 8.43011 -186.097 8.2501C-186.034 8.24677 -185.971 8.24233 -185.908 8.23788C-185.781 8.22899 -185.655 8.22011 -185.528 8.22011C-185.683 8.20462 -185.835 8.18648 -185.981 8.16429C-186.01 8.19192 -186.038 8.21095 -186.067 8.22997ZM71.8853 4.11997C72.0549 4.17997 72.2645 4.21997 72.494 4.24997C72.7235 4.27997 72.973 4.29997 73.2225 4.29997C73.472 4.29997 73.7214 4.28997 73.951 4.25997C74.2491 4.23082 74.5049 4.14858 74.7452 4.07127C74.8347 4.04249 74.9221 4.01439 75.0088 3.98997C74.9189 3.91997 74.7792 3.84997 74.5996 3.79997C74.42 3.73997 74.2104 3.69997 73.9709 3.66997C73.7314 3.63997 73.4819 3.61997 73.2225 3.61997C72.963 3.61997 72.7135 3.62997 72.474 3.65997C72.0649 3.70997 71.4162 3.89997 71.506 3.93997C71.5859 4.00997 71.7156 4.07997 71.8853 4.12997V4.11997ZM107.441 4.05997L108.23 4.01997L107.94 4.24997L107.441 4.05997ZM-195.867 7.27997C-195.158 7.27997 -194.45 7.22997 -193.841 7.12997C-193.582 7.08997 -193.192 6.89997 -193.282 6.86997C-193.582 6.75997 -193.981 6.66997 -194.42 6.60997C-194.869 6.54997 -195.348 6.52997 -195.837 6.53997C-196.316 6.52997 -196.805 6.53997 -197.254 6.59997C-197.703 6.64997 -198.102 6.72997 -198.422 6.83997C-198.364 6.87201 -198.317 6.90713 -198.27 6.94171C-198.171 7.01506 -198.076 7.08599 -197.893 7.11997C-197.284 7.22997 -196.575 7.28997 -195.867 7.28997V7.27997ZM848.078 7.89997C848.086 7.89245 848.099 7.8807 848.112 7.86895L848.14 7.84546L848.158 7.82997V7.81997L848.458 7.89997H848.078ZM68.4325 8.39997C68.2628 8.43997 68.1231 8.47997 68.0133 8.53997C67.9036 8.59997 67.8537 8.65997 67.8337 8.71997C67.8337 8.84997 67.9335 8.97997 68.153 9.09997C68.5822 9.31997 69.2607 9.47997 70.0591 9.56997C70.0591 9.33997 70.0291 9.09997 69.8595 8.84997C69.6599 8.54997 69.1609 8.31997 68.4225 8.39997H68.4325ZM211.225 6.93997C211.165 6.90997 211.065 6.83997 211.065 6.83997H211.075L211.365 6.92997C211.315 6.93997 211.275 6.93997 211.225 6.93997ZM-212.732 7.95997C-211.563 8.03804 -210.192 8.09354 -209.217 8.13299L-208.8 8.14997C-208.255 8.10446 -207.773 8.07093 -207.331 8.04018L-207.331 8.04017C-206.705 7.99659 -206.159 7.95859 -205.627 7.89997C-205.158 7.85997 -204.748 7.76997 -204.499 7.63997C-204.249 7.51997 -204.17 7.36997 -204.269 7.21997C-204.319 7.07997 -204.489 6.93997 -204.778 6.82997C-205.058 6.70997 -205.437 6.61997 -205.886 6.55997C-207.243 6.37997 -208.77 6.34997 -210.177 6.48997C-211.574 6.62997 -212.742 6.90997 -213.44 7.28997C-214.299 7.61997 -214.089 7.86997 -212.742 7.95997H-212.732ZM210.247 3.10997C209.808 3.03997 209.439 2.93997 209.169 2.81997H209.159C208.97 2.73997 208.86 2.63997 208.79 2.53997C209.648 2.54997 210.487 2.54997 211.325 2.54997C211.784 2.56997 212.213 2.63997 212.562 2.72997C212.672 2.76997 212.752 2.80997 212.782 2.85997C212.812 2.90997 212.802 2.95997 212.742 3.00997C212.462 3.11997 212.043 3.18997 211.574 3.20997C211.105 3.22997 210.636 3.18997 210.247 3.10997ZM208.721 2.41997C208.731 2.45997 208.801 2.53997 208.801 2.53997H208.79H208.401L208.721 2.41997ZM208.321 2.37997C208.378 2.38407 208.432 2.39153 208.486 2.39891C208.563 2.40953 208.638 2.41997 208.721 2.41997L208.431 2.49997C208.401 2.45997 208.361 2.41997 208.321 2.37997ZM208.321 2.37997C208.032 2.35997 207.752 2.33997 207.483 2.29997C207.35 2.27342 207.279 2.21602 207.203 2.1541L207.203 2.15389C207.164 2.1226 207.124 2.09016 207.074 2.05997C207.702 2.02997 208.102 2.13997 208.321 2.37997ZM405.41 2.58997C404.931 2.60997 404.432 2.58997 403.983 2.52997C403.534 2.46997 403.165 2.36997 402.916 2.23997C402.716 2.06997 403.744 1.88997 404.772 1.83997C405.654 1.79708 406.491 1.79834 407.304 1.79957C407.438 1.79977 407.572 1.79997 407.706 1.79997C408.624 1.78997 409.532 1.86997 410.29 2.02997C410.56 2.09997 410.819 2.29997 410.819 2.29997C410.56 2.41997 410.161 2.50997 409.702 2.53997C408.589 2.59735 407.362 2.59426 406.181 2.59128C405.922 2.59062 405.664 2.58997 405.41 2.58997ZM335.586 2.66997C334.728 2.55997 334.029 2.35997 333.65 2.10997H333.66C333.46 1.98997 333.281 1.79997 333.46 1.73997C333.949 1.59997 334.558 1.48997 335.227 1.43997C335.895 1.37997 336.604 1.37997 337.282 1.43997C337.721 1.45997 338.141 1.50997 338.51 1.57997C338.869 1.65997 339.178 1.74997 339.388 1.86997C339.398 1.99997 339.288 2.13997 339.069 2.25997C338.849 2.37997 338.52 2.47997 338.121 2.54997C337.771 2.62997 337.362 2.68997 336.913 2.70997C336.464 2.72997 336.005 2.71997 335.586 2.66997ZM110.684 6.86997C111.014 6.95997 111.433 7.02997 111.882 7.04997C112.91 7.09997 113.848 6.94997 113.828 6.68997C113.688 6.47997 113.349 6.28997 112.84 6.13997C112.331 5.98997 111.682 5.88997 110.984 5.84997C110.565 5.89997 110.225 5.99997 110.046 6.12997C109.866 6.24997 109.856 6.38997 110.006 6.51997C110.116 6.64997 110.345 6.76997 110.684 6.86997ZM149.522 3.86639C148.636 3.85037 147.678 3.83304 146.719 3.81997L146.709 3.80997C145.682 3.78997 144.594 3.69997 144.274 3.40997C144.075 3.25997 145.163 3.00997 146.22 3.00997C148.635 2.88997 151.12 2.89997 153.535 3.04997C154.653 3.13997 155.331 3.32997 155.152 3.53997C155.032 3.59997 154.872 3.65997 154.683 3.69997C154.493 3.73997 154.274 3.76997 154.034 3.78997C153.435 3.8283 152.811 3.84214 152.116 3.85757C151.723 3.86629 151.308 3.87552 150.861 3.88997C150.442 3.88304 149.993 3.87491 149.523 3.86641L149.522 3.86639ZM190.997 3.10997C191.714 3.10997 192.447 3.11495 193.18 3.11995C193.916 3.12495 194.653 3.12997 195.378 3.12997C195.857 3.14997 196.346 3.15997 196.815 3.12997C197.254 3.07997 197.653 3.00997 197.983 2.90997C198.312 2.80997 198.571 2.69997 198.731 2.56997C199.23 2.20997 197.683 1.69997 196.296 1.68997C194.37 1.76997 192.544 1.97997 190.977 2.30997C190.009 2.46997 189.45 2.67997 189.74 2.90997C189.992 3.11022 190.403 3.1058 190.821 3.10131C190.883 3.10064 190.945 3.09997 191.007 3.09997L190.997 3.10997ZM212.961 6.48997C213.011 6.66997 212.612 6.78997 211.734 6.83997C211.824 6.74997 211.924 6.65997 212.053 6.57997C212.223 6.48997 212.642 6.48997 212.961 6.48997ZM211.635 6.93997C211.635 6.93997 211.695 6.86997 211.735 6.82997C211.623 6.82997 211.503 6.83859 211.375 6.84783L211.345 6.84997L211.635 6.93997ZM825.969 12.763C826.662 12.7725 827.532 12.7846 828.349 12.7401H828.329C829.607 12.6701 829.866 12.4001 829.217 11.9801C827.77 11.1001 825.675 10.3701 823.18 9.9001C822.561 9.7801 821.873 9.7101 821.174 9.7101C820.486 9.7101 819.797 9.77011 819.168 9.88011C817.959 10.0773 818.221 10.4233 818.481 10.7679L818.481 10.7682C818.59 10.9128 818.699 11.0571 818.699 11.1901C818.699 11.3401 818.587 11.4957 818.475 11.6512C818.251 11.9623 818.027 12.2734 818.699 12.5401C819.089 12.6501 819.557 12.7201 820.036 12.7601C820.516 12.8001 821.024 12.7901 821.484 12.7401C821.943 12.7201 822.422 12.7301 822.881 12.7601H824.996C825.233 12.7528 825.572 12.7575 825.969 12.763ZM981.67 17.6103C984.145 17.6227 986.622 17.6352 989.104 17.6501V17.6301C990.402 17.6401 990.99 17.4401 990.811 17.1201C990.731 16.9901 990.551 16.8601 990.282 16.7401C989.853 16.5601 989.214 16.4401 988.486 16.3901C987.767 16.3501 987.009 16.3801 986.38 16.4901C985.492 16.6201 984.574 16.7201 983.616 16.7901C982.648 16.8501 981.64 16.8401 980.682 16.7701C978.506 16.4201 976.002 16.2801 973.567 16.3901C972.549 16.4101 971.521 16.3401 970.633 16.1901C968.777 15.9301 966.681 15.8901 964.755 16.0701C962.47 16.3401 959.905 16.3601 957.56 16.1101C956.083 16.0201 954.566 16.0701 953.209 16.2501C952.241 16.3301 951.203 16.3001 950.275 16.1801C945.555 15.6501 940.366 15.6601 935.726 16.2001L932.991 16.5401H933.051C932.655 16.5646 932.343 16.5708 932.027 16.577C931.571 16.586 931.108 16.5951 930.377 16.6601C929.149 16.7601 928.64 16.9501 929.139 17.1101C929.498 17.2101 929.968 17.2801 930.467 17.2901C932.343 17.3901 934.339 17.4001 936.344 17.4101C938.33 17.4401 940.276 17.6101 942.012 17.9001C943.33 18.1201 944.807 18.2401 946.313 18.2401C947.81 18.2501 949.287 18.1501 950.615 17.9501C952.84 17.6301 955.295 17.4801 957.79 17.4801L974.175 17.5701C976.672 17.5852 979.168 17.5977 981.667 17.6103L981.67 17.6103Z" fill="#1B1B1B"/>
</g>
<defs>
<clipPath id="clip0_1612_52947">
<rect width="360" height="24" fill="white"/>
</clipPath>
</defs>
</svg>
