<svg width="32" height="32" viewBox="0 0 32 32" fill="none" xmlns="http://www.w3.org/2000/svg">
<circle cx="16" cy="16" r="15.5" fill="white" stroke="white"/>
<g clip-path="url(#clip0_1754_53567)">
<path d="M16.9162 16.0083L20.81 12.1144C21.0634 11.8611 21.0634 11.4515 20.81 11.1983C20.5567 10.945 20.1471 10.945 19.8939 11.1983L15.9999 15.0922L12.1061 11.1983C11.8527 10.945 11.4433 10.945 11.1901 11.1983C10.9366 11.4515 10.9366 11.8611 11.1901 12.1144L15.0839 16.0083L11.1901 19.9022C10.9366 20.1555 10.9366 20.565 11.1901 20.8183C11.3163 20.9446 11.4822 21.0081 11.6481 21.0081C11.8139 21.0081 11.9798 20.9446 12.1061 20.8183L15.9999 16.9244L19.8939 20.8183C20.0202 20.9446 20.1861 21.0081 20.3519 21.0081C20.5178 21.0081 20.6836 20.9446 20.81 20.8183C21.0634 20.565 21.0634 20.1555 20.81 19.9022L16.9162 16.0083Z" fill="#1B1B1B"/>
</g>
<defs>
<clipPath id="clip0_1754_53567">
<rect width="10" height="10" fill="white" transform="translate(11 11)"/>
</clipPath>
</defs>
</svg>
