<svg width="421" height="421" viewBox="0 0 421 421" fill="none" xmlns="http://www.w3.org/2000/svg">
<g opacity="0.4" clip-path="url(#clip0_3117_84915)">
<path d="M210.509 409.387C100.834 409.387 11.6094 320.163 11.6094 210.488C11.6094 100.813 100.834 11.6127 210.509 11.6127C320.184 11.6127 409.408 100.838 409.408 210.512C409.408 320.187 320.184 409.412 210.509 409.412V409.387ZM210.509 16.4817C103.512 16.4817 16.4784 103.515 16.4784 210.488C16.4784 317.46 103.512 404.518 210.509 404.518C317.506 404.518 404.539 317.485 404.539 210.488C404.539 103.491 317.481 16.4817 210.509 16.4817Z" fill="#D8B465"/>
<path d="M210.49 308.112C156.663 308.112 112.891 264.315 112.891 210.512C112.891 156.709 156.687 112.913 210.49 112.913C264.293 112.913 308.114 156.709 308.114 210.512C308.114 264.315 264.317 308.112 210.49 308.112ZM210.49 115.323C158.002 115.323 115.325 158.024 115.325 210.488C115.325 262.952 158.026 305.653 210.49 305.653C262.954 305.653 305.68 262.952 305.68 210.488C305.68 158.024 262.978 115.323 210.49 115.323Z" fill="#D8B465"/>
<path d="M210.491 395.949C108.242 395.949 25.0547 312.762 25.0547 210.512C25.0547 108.263 108.242 25.0511 210.491 25.0511C312.741 25.0511 395.928 108.238 395.928 210.488C395.928 312.737 312.741 395.925 210.491 395.925V395.949ZM210.491 27.4857C109.581 27.4857 27.4892 109.577 27.4892 210.488C27.4892 311.398 109.581 393.49 210.491 393.49C311.402 393.49 393.494 311.398 393.494 210.488C393.494 109.577 311.426 27.4857 210.491 27.4857Z" fill="#D8B465"/>
<path d="M149.435 47.902L144.898 49.6715L153.79 72.4655L158.326 70.696L149.435 47.902Z" fill="#D8B465"/>
<path d="M267.208 349.795L262.672 351.565L271.559 374.335L276.094 372.565L267.208 349.795Z" fill="#D8B465"/>
<path d="M278.194 50.5187L268.375 72.929L272.835 74.8829L282.653 52.4727L278.194 50.5187Z" fill="#D8B465"/>
<path d="M148.176 347.364L138.367 369.752L142.827 371.706L152.636 349.318L148.176 347.364Z" fill="#D8B465"/>
<path d="M369.57 139.904L347.102 149.589L349.029 154.06L371.497 144.375L369.57 139.904Z" fill="#D8B465"/>
<path d="M71.9837 268.229L49.5156 277.914L51.4431 282.385L73.9112 272.7L71.9837 268.229Z" fill="#D8B465"/>
<path d="M350.843 263.673L349.062 268.205L371.812 277.143L373.593 272.611L350.843 263.673Z" fill="#D8B465"/>
<path d="M49.2024 145.154L47.4219 149.686L70.1941 158.633L71.9746 154.101L49.2024 145.154Z" fill="#D8B465"/>
<path d="M421 210.488L270.572 235.344L306.602 306.602L235.344 270.572L210.488 421L185.656 270.572L115.639 306.602L150.428 235.344L0 210.488L150.428 185.656L108.555 107.922L185.656 150.428L210.488 0L235.344 150.428L313.078 107.922L270.572 185.656L421 210.488Z" fill="#D8B465"/>
<path d="M210.484 18.3075V210.488L231.957 156.977L210.484 18.3075Z" fill="#1B1B1B"/>
<path d="M306.599 114.398L210.484 210.488L263.532 187.823L306.599 114.398Z" fill="#1B1B1B"/>
<path d="M402.696 210.488H210.516L264.026 231.96L402.696 210.488Z" fill="#1B1B1B"/>
<path d="M300.349 299.859L210.516 210.488L233.181 263.536L300.349 299.859Z" fill="#1B1B1B"/>
<path d="M211.73 402.692V210.488L190.258 264.023L211.73 402.692Z" fill="#1B1B1B"/>
<path d="M122.727 299.859L211.732 210.488L158.709 233.177L122.727 299.859Z" fill="#1B1B1B"/>
<path d="M19.5469 210.488H211.727L158.217 189.04L19.5469 210.488Z" fill="#1B1B1B"/>
<path d="M120.242 118.025L211.731 210.488L189.066 157.464L120.242 118.025Z" fill="#1B1B1B"/>
</g>
<defs>
<clipPath id="clip0_3117_84915">
<rect width="421" height="421" fill="white"/>
</clipPath>
</defs>
</svg>
