<svg width="16" height="17" viewBox="0 0 16 17" fill="none" xmlns="http://www.w3.org/2000/svg">
<path d="M14.6667 2.5H1.33334C0.597969 2.5 0 3.09797 0 3.83334V13.1667C0 13.902 0.597969 14.5 1.33334 14.5H14.6667C15.402 14.5 16 13.902 16 13.1667V3.83334C16 3.09797 15.402 2.5 14.6667 2.5ZM1.33334 3.16666H14.6667C14.7158 3.16666 14.7591 3.18456 14.8052 3.19469C13.6508 4.25116 9.82322 7.75278 8.48375 8.95963C8.37894 9.05403 8.21 9.16666 8.00003 9.16666C7.79006 9.16666 7.62113 9.05403 7.51597 8.95931C6.17663 7.75266 2.34878 4.25084 1.19463 3.19475C1.24081 3.18463 1.28419 3.16666 1.33334 3.16666ZM0.666656 13.1667V3.83334C0.666656 3.76803 0.686344 3.70878 0.703969 3.64909C1.58747 4.45772 4.25822 6.90097 5.98997 8.47575C4.26384 9.95847 1.59241 12.4912 0.701875 13.3404C0.686156 13.2837 0.666656 13.2283 0.666656 13.1667ZM14.6667 13.8333H1.33334C1.28009 13.8333 1.23275 13.8148 1.18303 13.8029C2.10325 12.9257 4.79169 10.3783 6.48747 8.92762C6.70853 9.12816 6.91047 9.311 7.06966 9.45444C7.34441 9.7025 7.666 9.83334 8 9.83334C8.334 9.83334 8.65559 9.70247 8.93 9.45475C9.08925 9.31125 9.29134 9.12825 9.51253 8.92762C11.2084 10.3782 13.8965 12.9253 14.817 13.8029C14.7673 13.8148 14.72 13.8333 14.6667 13.8333ZM15.3333 13.1667C15.3333 13.2283 15.3138 13.2837 15.2982 13.3404C14.4073 12.4908 11.7362 9.95831 10.0101 8.47578C11.7419 6.901 14.4122 4.45797 15.296 3.64903C15.3137 3.70872 15.3333 3.768 15.3333 3.83331V13.1667Z" fill="#646363"/>
</svg>
