<svg width="1440" height="296" viewBox="0 0 1440 296" fill="none" xmlns="http://www.w3.org/2000/svg">
<path d="M1437.93 28.1198C1433.68 32.8598 1428.8 37.3699 1423.92 41.9599L1416.64 48.8098C1414.1 51.0598 1411.86 53.3799 1409.22 55.5699L1393.65 68.7998L1389.74 72.1098L1385.59 75.3299L1377.29 81.7099C1365.33 91.2499 1352.01 100.14 1339.02 109.19C1332.19 113.52 1325.3 117.83 1318.37 122.12L1313.19 125.34L1310.61 126.92L1307.87 128.47L1296.99 134.56C1291.28 137.81 1285.12 141.11 1279.95 144.33L1257.39 156.03C1250.32 159.83 1243.04 163.2 1235.67 166.71L1224.54 171.89L1218.93 174.47C1217.07 175.32 1215.07 176.08 1213.17 176.9C1205.87 180.12 1198.42 183.33 1190.81 186.53L1185.14 188.93C1183.24 189.69 1181.24 190.42 1179.29 191.15L1167.62 195.54L1156.44 199.75C1152.68 201.13 1149.02 202.59 1145.11 203.82L1121.97 211.49C1118.07 212.75 1114.26 214.09 1110.3 215.26L1098.39 218.74L1074.57 225.67C1071.05 226.64 1067.54 227.63 1064.02 228.6C1059.48 230.08 1054.78 231.39 1049.96 232.52L1039.32 235.24C1037.61 235.71 1035.81 236.09 1034 236.5L1028.58 237.7L1006.96 242.5L998.751 244.31C996.411 244.73 994.031 245.08 991.621 245.33L992.601 244.98L991.621 245.18C987.371 246.26 982.491 247.23 977.611 248.11C973.851 248.99 970.001 249.73 966.091 250.33C963.501 250.74 960.921 251.3 958.231 251.71L950.171 253C944.851 253.85 939.281 254.67 934.401 255.28L926.151 256.57V256.74L920.831 257.62L915.411 258.35L904.571 259.78C897.391 260.72 890.071 261.56 882.751 262.36L879.581 262.83C867.961 264.15 856.151 265.58 844.281 266.43C832.421 267.28 820.461 267.95 808.501 268.68L803.621 269L798.741 269.21H795.861C796.201 269.39 796.351 269.62 795.861 269.91C790.541 270.53 790.781 269.74 789.121 269.41H788.781C782.291 269.61 775.741 269.85 769.251 270.17C767.991 270.29 766.701 270.29 765.441 270.17V270.02H765.201C761.641 270.28 758.171 270.28 754.801 270.28L735.031 270.54L725.271 270.69H705.651C701.941 270.72 698.231 270.95 694.321 270.95C694.791 270.86 695.251 270.74 695.691 270.6C692.661 270.54 689.641 270.42 686.611 270.22L696.371 270.43C696.761 270.25 696.761 270.08 696.761 269.87L686.221 269.67C682.121 269.58 678.021 269.32 673.921 269.14L649.511 267.88C647.501 268.2 645.411 268.26 643.361 268.06C643.331 267.96 643.341 267.86 643.381 267.77C643.421 267.67 643.501 267.59 643.601 267.51L637.111 266.98L624.811 265.93L621.151 265.49H620.911L603.681 264.11L597.771 263.35C588.301 262.33 579.171 261.51 569.411 260.42C565.241 259.98 561.151 259.33 557.161 258.49C554.431 258.26 550.621 257.58 547.881 257.35C542.851 256.74 537.581 256.06 532.701 255.36C530.021 255.04 527.671 254.6 525.131 254.16L517.561 252.87L516.491 252.69L510.631 251.37C503.991 250.2 497.251 249.12 490.611 247.86L484.951 246.75L464.351 242.68L454.101 240.57L443.991 238.17L432.961 235.74L428.861 234.8L420.411 232.81C417.631 232.16 414.911 231.43 412.261 230.61C406.741 229.21 401.231 227.74 395.811 226.28L387.661 224C384.931 223.24 382.241 222.45 379.651 221.54L375.401 220.25C375.401 220.34 374.911 220.25 373.891 219.96L348.551 212.32C340.251 209.66 332.101 206.73 324.141 203.8L317.361 201.55C315.111 200.82 312.821 200.06 310.621 199.21L297.441 194.3C288.651 190.96 279.821 187.66 271.321 184.06C262.831 180.46 254.281 176.89 245.891 173.2L221.481 161.5L215.521 158.72L209.811 155.79L198.291 149.94C194.481 148.04 190.631 146.08 186.911 144.09C183.201 142.1 179.691 139.94 176.121 137.83L165.431 131.74L160.061 128.81C158.301 127.82 156.501 126.82 154.791 125.74L134.431 112.92L129.551 109.7C127.841 108.65 126.281 107.48 124.671 106.39L114.911 99.6599C108.511 95.1499 101.921 90.7599 96.0709 86.0199C87.3309 79.1699 78.3009 72.4199 70.1009 65.3299C62.5509 59.5999 55.2309 53.7399 48.1309 47.7699L50.5209 50.0799C51.9409 51.5699 53.7409 53.0298 55.4009 54.4998C62.2309 60.3498 68.9709 66.1998 75.9009 72.0598C76.5309 73.1098 75.7509 72.8798 74.6309 72.0598C74.3009 71.8198 73.9309 71.5299 73.5309 71.2099C74.0709 71.6999 74.6009 72.1899 75.1109 72.6499C76.6209 73.9999 78.3309 75.3399 79.9909 76.7199C83.2209 79.2599 86.5509 81.8299 90.1609 84.3299C89.6409 83.9499 89.1209 83.5599 88.5909 83.1599C87.9609 81.9599 89.3709 82.4899 94.2509 86.4398L96.1509 88.1098C98.5909 89.8898 101.031 91.7098 103.721 93.4398C104.651 94.1098 105.871 94.9599 106.551 95.4599C107.541 96.2999 107.441 96.2798 106.991 95.9898C109.311 97.5498 111.641 99.1499 114.021 100.85L115.391 101.82C118.811 103.68 121.941 105.71 124.761 107.91C127.151 109.67 129.741 111.3 132.331 112.94L140.091 117.86C145.261 121.08 150.471 124.24 155.711 127.34C164.161 132.32 172.751 137.14 181.341 141.97L184.611 143.9C185.731 144.54 186.951 145.16 188.131 145.77C190.131 146.78 191.991 147.89 193.701 149.08C193.901 149.4 193.111 149.17 191.801 148.64C183.571 144.81 175.731 140.68 168.321 136.29C173.061 139.45 172.571 139.6 166.761 136.52C169.541 138.07 172.771 140 175.401 141.55C178.041 143.1 180.671 144.71 183.411 146.2C181.991 145.61 180.731 144.94 179.361 144.33L176.871 143.13C169.941 139.94 160.661 134.09 154.171 131.16L151.681 129.78L149.291 128.32L144.411 125.39C141.361 123.55 138.511 121.6 135.871 119.54C139.821 121.65 145.151 125.13 149.151 127.26C150.521 127.93 151.841 128.69 153.351 129.42C154.861 130.15 156.381 130.94 157.891 131.73C156.331 130.88 154.771 130.12 153.401 129.39C152.031 128.66 150.811 128.01 149.691 127.52L149.151 126.91C143.981 123.57 139.731 121.7 134.211 117.96L135.431 119.13L134.361 118.49L131.141 116.44C127.901 114.4 124.911 112.22 122.211 109.91L102.681 96.5999C101.361 95.2499 99.6009 93.8499 97.8009 92.3299C95.9909 90.8099 94.0909 89.2299 92.0409 87.5899C87.9909 84.3099 83.5509 80.8899 79.1509 77.5199C77.2709 75.7699 75.2009 74.0999 72.9509 72.5199C70.9509 70.9399 68.9509 69.4499 66.9909 67.7799C63.7209 65.2899 63.3809 64.8498 63.7209 65.2898C62.2609 63.9398 60.6909 62.6299 59.1809 61.4599C55.2409 58.4799 51.6809 55.3199 48.5409 52.0099C45.8509 49.0799 42.9009 46.2398 39.7009 43.4898C35.7509 39.7998 32.2309 35.9398 28.1309 32.3398C26.7109 31.0798 25.4409 29.5599 24.1309 28.1599L20.1809 23.8899C17.5409 21.0499 14.9609 18.3598 12.6609 15.4298L9.19094 11.7399C5.44094 7.88987 1.78094 3.99984 -1.78906 0.0898438V6.04987C-0.679062 7.42987 0.360937 8.77986 1.28094 10.0799C1.38094 10.4899 0.890937 10.1999 0.210937 9.72986C0.410937 10.0199 0.650938 10.3199 0.890938 10.6099L3.14094 13.0999C3.24094 13.2599 3.37094 13.4199 3.53094 13.5699C6.01094 15.8299 8.29094 18.1598 10.3609 20.5598L21.2509 32.5298L32.9709 44.2298L39.7109 50.7599C41.8609 52.7799 43.8109 54.8298 45.4709 56.6098C42.9809 54.3898 40.5409 52.0499 38.1009 49.7599L30.8709 42.8499L22.2309 34.5099C20.7709 33.1899 19.5009 31.6999 18.1309 30.2699L14.1809 25.9698L3.68094 14.6198L1.24094 11.9599L0.0209377 10.6099L-1.09906 9.25986L-1.77906 8.42984V26.3299C-0.0290625 28.0799 1.52094 29.8999 2.85094 31.7899C1.19094 30.1099 -0.349063 28.3998 -1.77906 26.6498V39.3199C-1.56906 39.5199 -1.34906 39.7198 -1.14906 39.9198C0.0709374 41.1498 1.44094 42.5199 2.76094 44.0799C1.33094 43.0199 0.0109375 41.8998 -1.18906 40.7398C-1.37906 40.5598 -1.57906 40.3499 -1.76906 40.1499V384.82H1440.17V57.0999L1435.09 61.8899L1415.57 78.4499C1413.96 79.8299 1412.39 81.1998 1410.68 82.5498L1405.51 86.5598L1395.11 94.5498L1387.5 100.4C1386.28 101.48 1384.91 102.42 1383.59 103.33L1379.54 106.26L1363.43 117.44L1359.38 120.22C1358.01 121.13 1356.59 122 1355.18 122.91L1346.68 128.26C1341.02 131.8 1335.36 135.37 1329.6 138.91C1283.65 166.12 1232.72 190.13 1177.77 210.48C1174.3 211.82 1170.68 213.01 1166.93 214.05L1188.56 205.97L1198.67 202.17L1208.43 198.19L1229.67 189.41C1231.37 188.65 1233.23 187.95 1234.89 187.16L1240.01 184.79L1250.27 180.05L1260.47 175.31C1263.89 173.73 1267.35 172.18 1270.58 170.48L1290.1 160.39C1293.72 158.49 1297.47 156.67 1301.04 154.68L1311.58 148.83L1323.79 141.9L1329.84 138.42L1335.7 134.79C1343.41 129.9 1351.17 125.05 1358.84 120.16C1363.62 116.91 1368.16 113.52 1373.05 110.36L1381.1 104.77C1385.25 101.99 1388.96 99.0599 1392.77 96.1399C1393.35 95.6699 1393.94 95.1999 1394.57 94.7599L1403.9 87.5899L1408.78 83.9898L1411.08 82.1798L1413.27 80.3399C1419.62 74.4899 1427.14 68.6399 1433.97 62.7799C1436.06 60.8799 1438.11 58.9598 1440.17 57.0398V39.4898C1437.33 42.3098 1434.3 45.0599 1431.04 47.7099L1427.92 50.6399C1424.99 53.8199 1421.73 56.8899 1418.15 59.8299C1417.1 60.8499 1415.92 61.8299 1414.64 62.7599C1412.02 65.3099 1409.05 67.7099 1405.75 69.9599L1412.34 64.1098C1413.08 63.3498 1414 62.4999 1415.08 61.5699L1418.93 58.3199L1420.89 56.6499L1422.69 54.9798L1429.92 48.2199L1437.1 41.4599C1438.04 40.4599 1439.1 39.4698 1440.17 38.4798V25.7599L1437.93 28.1198ZM15.6409 21.5598C13.2509 18.8098 10.1709 15.7698 8.37094 13.2798L18.1309 23.9298L15.6409 21.5598ZM1246.85 162.59C1244.76 163.77 1242.56 164.87 1240.26 165.9V166.11L1231.03 170.59L1225.32 172.99L1222.54 174.19L1221.07 174.77C1229.03 170.62 1238.31 166.67 1246.85 162.6V162.59ZM1174.6 193.69C1184.56 190.12 1193.98 186.05 1207.01 180.64C1198.62 184.56 1191.98 187.11 1187.1 189.42L1184.95 190.36L1168.15 196.65L1174.6 193.69ZM1204.82 183.57C1203.61 184.35 1202.23 185.02 1200.72 185.56C1199.15 186.2 1197.45 186.88 1197.45 186.67C1198.78 185.77 1200.34 185.01 1202.08 184.42C1203.94 183.57 1204.82 183.57 1204.82 183.57ZM1156.49 204.08L1164.54 201.01L1166.79 200.13C1168.68 199.543 1167.99 199.953 1164.74 201.36L1157.22 204.29C1154.58 205.2 1152.29 206.19 1149.7 207.01C1151.6 206.1 1153.9 205.11 1156.49 204.08ZM1108.74 218.18C1110.51 217.59 1112.35 217.09 1114.26 216.69C1113.43 217.11 1112.53 217.49 1111.57 217.8L1106.3 219.32C1104.74 219.55 1104.89 219.32 1108.74 218.18ZM1117.63 217.13L1114.5 218.1L1111.67 218.83C1110.5 219.09 1112.06 218.54 1113.48 218.1C1114.74 217.61 1116.15 217.28 1117.63 217.13ZM1068.17 229.6L1070.57 228.96L1076.38 227.94C1067.44 230.72 1055.63 233.47 1046.3 236.22C1045.12 236.52 1043.92 236.79 1042.69 237.01C1040.64 237.27 1040.79 237.04 1042.69 236.37C1044.7 235.76 1046.77 235.22 1048.89 234.76C1051.67 234.1 1054.39 233.36 1057.04 232.54C1060.54 231.3 1064.28 230.31 1068.17 229.61V229.6ZM1072.47 230.48C1072.03 230.8 1071.54 231.12 1068.12 232.03C1065.73 232.59 1065 232.67 1065.44 232.44C1066.79 231.73 1068.37 231.18 1070.08 230.83C1072.47 230.19 1072.91 230.16 1072.47 230.48ZM1058.31 234.2L1052.89 235.78L1045.03 237.8C1042.4 238.44 1039.81 239.18 1037.12 239.76L1021.06 243.33L1039.52 238.82C1045.62 237.12 1051.77 235.6 1058.31 234.2ZM1034.93 236.69C1037.47 236.13 1039.91 235.46 1042.4 234.7L1050.31 232.68C1047.91 233.5 1045.23 234.26 1042.59 234.99C1039.96 235.72 1037.22 236.42 1034.54 237.01C1029.92 238.21 1025.15 239.18 1020.28 239.94L1034.93 236.69ZM1015.11 242.48C1021.31 241.34 1028.24 239.73 1034.63 238.41C1035.37 238.64 1029.22 239.93 1027.12 240.6L1004.76 245.57C1002.85 246.04 1001 246.59 999.051 247L990.791 248.58C988.821 249.04 986.801 249.41 984.741 249.69L985.131 249.46L979.031 250.37L992.651 247.59L998.611 246.45C1004.12 245.19 1008.91 243.61 1015.11 242.47V242.48ZM987.871 246.84C989.261 246.53 990.701 246.32 992.171 246.23C990.861 246.63 989.491 246.94 988.071 247.17C986.741 247.49 985.341 247.7 983.921 247.78C985.151 247.35 986.491 247.03 987.871 246.84ZM978.201 249.33C983.671 248.36 989.581 247.16 997.001 246.2L978.791 249.65L975.371 250.06L978.201 249.33ZM970.981 253.98C967.401 254.95 963.711 255.77 959.951 256.44C955.311 257.23 950.581 257.96 948.331 258.17C946.081 258.38 949.211 257.79 950.971 257.41L961.221 255.83C964.391 255.24 967.661 254.6 970.981 253.99V253.98ZM961.361 254.68C966.441 253.69 966.631 253.69 962.631 254.97L956.821 255.88C947.061 257.43 937.291 258.86 927.531 260.36C922.651 261.15 917.771 261.74 912.881 262.38C908.001 263.02 903.121 263.73 898.231 264.46L896.331 264.72L882.511 266.42C881.051 266.54 879.731 266.71 878.511 266.71C878.041 266.75 877.561 266.75 877.101 266.71C869.731 268 860.011 268.82 851.181 269.64L844.351 270.26L837.471 270.73L823.651 271.61C818.081 271.96 812.521 272.31 807.151 272.78C805.491 272.87 803.881 273.04 802.271 273.04H793.921C786.161 273.6 777.661 273.71 769.511 274.03H767.071C763.821 274.18 760.561 274.18 757.311 274.03C762.831 273.71 770.931 273.77 776.401 273.3L790.461 272.8C793.101 272.63 795.391 272.51 797.981 272.36C800.571 272.21 803.301 272.16 806.031 271.98L833.171 270.2C836.541 269.88 840.001 269.64 843.471 269.41L853.921 268.5C857.011 268.28 860.071 267.96 863.101 267.53L871.591 266.71C875.741 266.3 879.941 265.95 884.091 265.48L896.541 263.96L921.341 260.83C934.721 258.87 947.951 256.97 961.371 254.68H961.361ZM845.461 271.62C842.431 272.02 839.311 272.12 836.231 271.91C839.281 271.63 842.371 271.53 845.461 271.62ZM903.701 260.47C904.721 260.29 907.121 260 908.871 259.77L911.701 259.39C915.071 258.83 918.491 258.42 921.851 257.9C925.221 257.37 928.541 256.93 931.911 256.58C928.351 257.51 924.641 258.22 920.831 258.69L905.651 260.47C904.041 260.68 901.741 260.85 903.701 260.47ZM900.581 262.11C899.411 262.61 914.401 260.35 906.491 261.96C902.631 262.51 898.711 262.93 894.771 263.22L891.741 263.05C894.651 262.64 897.601 262.33 900.581 262.11ZM882.321 263.05C883.931 262.84 886.571 262.38 887.201 262.52C887.831 262.67 883.491 263.13 882.321 263.43L870.701 264.54C874.171 263.93 878.511 263.52 882.321 263.05ZM849.121 267.64C858.491 266.7 867.801 265.73 877.041 264.71L879.771 264.45C882.801 264.1 885.821 263.66 888.901 263.4C889.191 263.61 887.921 263.93 885.821 264.28C884.751 264.46 883.531 264.66 882.161 264.84L877.961 265.28C871.661 265.89 865.611 266.6 859.261 267.15C851.651 268.06 842.711 268.64 835.341 269.37C833.501 269.62 831.621 269.74 829.731 269.75C827.661 269.56 825.561 269.52 823.471 269.59L820.751 269.78V269.75C821.651 269.67 822.561 269.62 823.471 269.59L834.951 268.79L842.031 268.29C844.231 268.12 846.771 267.85 849.111 267.65L849.121 267.64ZM837.401 267.32C826.901 268.34 818.411 268.72 808.651 269.4C818.161 268.38 827.761 267.68 837.401 267.32ZM658.871 270.57H662.731L669.661 270.75L679.421 271.39L684.301 271.65H689.181C698.291 271.74 707.381 272.11 716.421 272.76H725.161L725.501 272.59H742.441C749.031 272.36 754.601 272.82 761.091 272.59C763.531 272.38 766.311 272.15 769.291 272.01C772.271 271.86 775.541 271.86 779.051 271.86H781.931C786.081 271.57 790.621 271.51 794.961 271.3L802.431 271.04C804.381 270.89 806.041 270.89 807.311 270.89C809.901 270.89 810.871 271.09 810.391 271.47C809.221 271.65 808.001 271.79 806.731 271.91H805.221C795.121 272.32 785.201 272.49 775.151 273.05C772.601 273.14 770.051 273.31 767.531 273.58L763.771 273.73H752.401L737.271 273.91C732.371 274.18 727.441 274.01 722.621 273.41C722.521 273.32 722.621 273.15 723.061 273.15H723.841L716.321 272.97C710.601 272.91 704.841 272.85 699.071 272.77C699.461 273.93 682.081 273.56 682.931 272.33C680.341 272.24 677.761 271.98 675.171 271.98L661.211 271.28C655.901 271.23 650.611 270.84 645.441 270.11C649.931 270.09 654.411 270.25 658.861 270.58L658.871 270.57ZM670.681 272.65C675.901 273.36 681.261 273.62 686.591 273.41C680.991 275.16 674.501 275.61 668.381 274.67C672.241 274.11 666.181 273.32 670.671 272.65H670.681ZM635.581 268.87L632.411 269.4L626.501 268.96L623.331 268.08C626.701 268.11 631.381 268.58 635.581 268.87ZM549.901 261.35L552.681 261.53C554.821 261.43 556.981 261.53 559.081 261.82C561.621 262.11 564.211 262.46 566.791 262.81L574.651 263.69C577.631 263.98 580.651 264.25 583.491 264.65C586.321 265.06 587.201 265.44 586.321 265.44C590.711 265.85 594.961 266.35 599.161 266.87L605.511 267.66C607.611 267.89 609.761 268.07 611.911 268.25L626.561 269.48L642.621 270.68C645.401 270.94 648.231 271.06 651.211 271.26L660.441 271.96L651.071 271.46C648.091 271.28 645.211 271.2 642.431 270.93L626.421 269.64L614.461 268.85C610.511 268.56 606.451 268.35 602.551 267.94C592.301 266.65 582.051 265.54 571.751 264.46C566.621 263.99 561.351 263.23 556.471 262.56L541.241 260.45C536.361 259.72 531.481 259.1 526.601 258.31C533.291 258.9 541.831 260.15 549.931 261.32L549.901 261.35ZM590.521 267.26C585.391 266.76 580.071 266.06 575.191 265.74L566.841 264.8L558.641 263.66C556.351 263.13 559.761 263.57 561.521 263.66C566.341 264.42 571.231 265 576.171 265.42C581.021 265.84 585.811 266.46 590.521 267.26ZM506.941 253.24C511.331 253.88 516.221 254.56 521.101 255.32L528.421 256.49C530.861 256.9 533.451 257.22 535.991 257.6C537.841 258.04 545.751 259.12 540.091 258.74C535.061 258.18 529.451 257.48 524.031 256.54L495.671 251.68C497.181 251.62 504.461 253.23 506.951 253.23L506.941 253.24ZM347.941 213.21C349.621 213.57 351.141 214.15 352.381 214.91L347.011 213.3C345.591 212.66 344.961 212.31 347.941 213.21ZM304.691 199.66C307.331 200.71 309.911 201.68 312.601 202.59L320.851 205.11C333.491 209.35 345.941 213.89 358.981 217.63C365.621 219.68 372.061 221.61 378.511 223.48C381.681 224.47 385.001 225.29 388.271 226.11L398.031 228.6C407.791 231.09 417.561 233.84 427.321 236.09C431.081 237 435.031 237.9 437.621 238.72H438.011C441.281 239.33 444.551 240.1 447.771 240.86C450.991 241.62 454.211 242.5 457.531 243.11C459.691 243.55 461.801 244.06 463.881 244.63C466.701 245.55 469.641 246.33 472.671 246.97L469.551 246.53C464.521 245.68 459.591 244.77 454.321 243.6C449.051 242.43 444.171 241.2 439.281 240.12L437.721 239.68L435.861 239.39C434.801 239.24 433.761 239.05 432.741 238.83L420.151 235.9L417.031 235.14L413.951 234.29L407.751 232.62C399.551 230.4 391.301 228.17 382.951 226.07C376.511 224.26 369.921 221.94 364.111 220.69C361.391 220.02 358.771 219.19 356.301 218.23C345.071 214.4 333.651 210.65 322.131 207.02L314.221 204.53L310.561 203.24L307.091 201.86L300.451 199.17C296.201 197.41 292.301 195.72 288.981 194.14L304.701 199.64L304.691 199.66ZM437.771 241.06C431.621 239.51 424.251 238.1 418.831 236.41L435.181 239.95C441.041 241.27 441.231 241.35 437.771 241.06ZM361.471 221.1L351.711 218.17L346.831 216.68L344.391 215.92L341.951 215.1L334.091 212.41C326.381 209.95 318.711 207.32 311.051 204.63C308.221 203.72 305.481 202.67 302.701 201.7C295.721 198.98 288.691 196.32 281.711 193.68L276.441 191.69C274.931 191.02 273.271 190.29 271.561 189.58L261.361 185.37C264.321 186.18 267.151 187.16 269.811 188.3C273.081 189.76 276.601 191.23 279.041 192.34C282.991 193.77 288.171 195.79 292.761 197.55C295.931 198.66 299.061 199.8 302.231 200.97L307.111 202.73C308.771 203.32 310.381 203.9 311.991 204.43L331.521 211.1L341.871 214.38C344.651 215.17 347.531 215.9 350.221 216.72C352.901 217.51 355.471 218.41 357.931 219.41C358.231 219.52 358.491 219.66 358.711 219.82C366.601 221.72 374.171 224.06 381.311 226.81C374.671 225.08 368.131 223.07 361.491 221.1H361.471ZM373.481 225.69C369.301 224.88 365.261 223.82 361.421 222.53C355.021 220.51 348.291 218.64 341.891 216.44C335.501 214.25 329.151 212.05 322.951 209.77C328.371 211.32 333.841 213.13 339.351 215.04L343.451 216.44C344.821 216.91 346.231 217.35 347.651 217.79L355.801 220.42C362.001 222.35 367.611 224.16 373.471 225.69H373.481ZM379.441 227.3L381.881 227.94L387.101 229.32L397.211 232.1C393.791 231.16 390.181 230.34 386.671 229.47C383.251 228.7 379.981 227.72 376.911 226.54L379.451 227.3H379.441ZM262.231 183.26C267.991 185.72 273.851 187.94 279.611 190.49C271.361 187.78 263.401 184.76 255.791 181.45C257.791 182.23 259.961 182.84 262.231 183.26ZM206.581 157.25C210.101 159.01 213.611 160.91 217.221 162.46C222.441 164.74 227.761 167.11 232.651 169.51L240.221 173.14C242.761 174.34 245.201 175.63 247.881 176.71C250.581 178.037 249.571 177.833 244.851 176.1C240.551 174.72 232.841 170.83 227.471 168.67L220.831 165.74C218.331 164.76 215.981 163.66 213.801 162.43C205.011 158.25 195.881 153.74 196.371 152.34C199.591 153.77 203.061 155.5 206.571 157.25H206.581ZM181.631 147.33C183.001 147.89 184.511 148.62 186.071 149.38C188.681 150.74 191.421 152.01 194.271 153.18C198.311 154.96 202.121 156.92 205.691 159.03C212.101 162.6 218.861 165.93 225.951 169.01C227.951 169.89 229.951 170.83 231.961 171.79C234.301 172.86 236.541 174.01 238.651 175.24C233.541 173.38 228.651 171.32 224.001 169.07C220.141 166.99 216.241 165.09 212.281 163.22L200.901 157.37C197.041 155.47 193.291 153.57 189.431 151.69L183.771 148.76L180.941 147.3L178.211 145.78C179.401 146.26 180.541 146.77 181.631 147.33ZM228.101 171.47C222.101 168.84 216.141 166.09 210.231 163.31L193.091 154.53C199.081 157.07 204.851 159.8 210.371 162.69L228.091 171.47H228.101ZM193.101 154.53H193.051V154.5L193.101 154.53ZM88.7309 87.0899L95.8109 92.5899C97.0209 93.6199 98.3609 94.5999 99.8109 95.5199C106.011 99.9999 112.891 104.47 118.601 108.92C111.521 103.8 104.391 99.6198 97.4109 94.2898C96.0909 93.2998 94.9209 92.3298 93.7009 91.3598C91.1109 89.8098 88.0909 86.9699 85.5009 85.3299L83.7409 84.1898C82.6809 83.3799 81.7509 82.4999 80.9609 81.5899C83.9209 83.2199 86.5309 85.0699 88.7209 87.0899H88.7309ZM105.521 101.57C103.471 100.19 101.271 98.6199 99.6609 97.7699C95.0209 94.6399 90.8709 91.2798 86.5809 87.9998C85.9509 86.5998 91.4109 91.3598 92.7809 91.9798C95.0709 93.8198 97.6109 95.5498 100.101 97.3098L107.621 102.58C109.471 104.22 106.891 102.43 105.521 101.58V101.57ZM67.0009 69.7398L70.4209 72.6698C70.8609 73.0798 71.3509 73.5198 71.8809 73.9298C74.0309 75.6598 75.3009 76.9699 77.1509 78.5799C77.4909 78.8999 77.9309 79.2199 78.3709 79.5999C76.1109 78.1999 74.0209 76.6998 72.1209 75.1198L70.6109 73.8598L69.1509 72.5398C68.1709 71.6898 67.2009 70.8398 66.2209 70.0498L64.8009 68.4699L67.0009 69.7298V69.7398ZM292.301 202.49C289.731 201.66 287.261 200.75 284.881 199.74C282.541 198.98 280.241 198.1 277.651 197.08C279.851 196.58 290.441 200.53 292.001 201.56C290.861 201.39 289.761 201.16 288.681 200.89C289.931 201.39 291.141 201.93 292.291 202.5L292.301 202.49ZM286.391 203.28C282.891 202.23 279.481 201.07 276.191 199.8C272.721 198.51 269.261 197.17 265.991 195.79L250.561 189.26C256.781 191.45 262.791 193.85 268.571 196.43C274.431 198.77 280.481 201 286.391 203.28ZM249.481 185.02L241.961 182.09L239.521 181.01L237.131 179.9L232.251 177.62C228.981 176.13 225.901 174.66 222.491 173.2C219.081 171.74 215.901 170.36 212.731 168.81L207.851 166.47L202.971 164.1C199.261 162.08 195.451 160.15 191.601 158.25L177.741 151.02C173.151 148.59 168.811 145.99 164.361 143.47C161.301 141.96 158.431 140.32 155.771 138.56L149.911 135.22C147.911 134.05 145.961 132.88 144.101 131.65C140.341 129.25 136.581 126.82 132.631 124.51C134.831 126.15 137.511 127.87 140.291 129.6C143.071 131.33 145.861 133.14 148.641 134.78C147.441 134.29 146.321 133.72 145.321 133.08C144.101 132.35 142.831 131.56 142.001 131.15L127.701 122.14V121.91C124.181 119.57 120.521 117.32 117.151 114.89C113.781 112.46 110.371 110.03 107.001 107.57L96.6509 100.28C94.9409 99.0499 93.1809 97.8198 91.4309 96.6198L86.5509 92.8199L79.1809 86.9699L77.1309 85.4798L71.5209 81.3199C70.6109 80.7199 69.7909 80.0799 69.0809 79.3899C64.4409 75.9099 60.3909 72.1298 56.1409 68.4798C54.7709 67.3098 53.1609 65.8799 53.6009 65.8799C54.9609 66.6199 56.1309 67.4798 57.0709 68.4198L62.3909 73.1299C64.1509 74.8599 65.9509 76.2899 67.8609 77.7799C68.1009 77.9199 68.3609 78.0499 68.6409 78.1599L86.2109 91.7699L90.6509 95.1599C92.3609 96.2699 93.9709 97.3198 95.5309 98.4398C98.6509 100.61 101.781 102.74 104.951 104.85L105.831 105.49L106.761 106.1C108.341 106.89 109.711 107.83 110.811 108.88C118.281 114.29 126.381 119.33 134.341 124.45L146.401 132.12C150.551 134.58 154.851 136.95 159.141 139.35C161.871 140.75 165.001 142.45 167.341 143.86C169.681 145.26 172.121 146.67 174.561 148.04C175.931 148.8 177.241 149.56 178.661 150.26L180.221 151.14C187.051 154.68 193.641 158.19 200.281 161.73L205.161 164.36L207.651 165.68L210.241 166.94L220.741 171.91L223.031 172.82C231.871 176.89 240.561 180.75 249.731 184.76L264.861 191.11C262.811 190.88 262.761 190.88 249.481 185.02ZM235.811 183L231.271 180.92L229.221 179.51C232.321 180.85 235.301 182.29 238.151 183.81C238.391 184.01 237.271 183.63 235.811 182.99V183ZM49.9609 55.0199C48.7609 54.1899 47.6509 53.3099 46.6409 52.3899L43.4209 49.3199C45.8409 51.1199 48.0309 53.0299 49.9609 55.0299V55.0199ZM45.6209 52.4998C48.2609 54.8398 51.0909 57.0598 53.7709 59.2298C54.5309 59.8598 55.2009 60.5199 55.7709 61.2199C53.7209 59.7899 51.6709 58.2398 49.6209 56.5398C48.5909 55.6898 47.6209 54.6699 46.5409 53.8499C45.4709 53.0299 44.5909 51.9798 43.6109 50.9198C44.3409 51.4098 45.0109 51.9398 45.6109 52.4998H45.6209ZM46.5009 56.0398C49.4809 58.5098 52.6509 61.1799 55.3009 63.6999C55.3309 63.7199 55.3609 63.7399 55.3809 63.7599H55.3609C55.8609 64.2299 56.3409 64.6998 56.7909 65.1698L55.1309 63.7599H55.3609L55.3009 63.6999C54.0109 62.7799 52.6709 61.6899 51.3309 60.5699C51.8209 61.7999 53.7209 63.5799 52.3109 63.9599C49.1709 62.3099 47.1409 60.0298 46.6009 57.5498C47.5309 57.4298 49.4309 59.5098 50.6009 59.9798L46.5009 56.4398C43.9109 54.2198 44.1109 54.0399 46.5009 56.0299V56.0398ZM28.7809 43.7199C25.4609 40.2099 20.5309 36.3499 18.1409 33.0099C21.7009 36.6399 26.0509 40.3499 28.7809 43.7199ZM26.3409 44.4798L21.8009 39.7998C26.1909 43.5998 26.1909 43.6298 26.3409 44.4798ZM9.06094 26.4298C11.6509 28.6998 13.7509 31.1598 15.3109 33.7498L10.7209 29.2099C10.3309 28.3899 6.57094 24.2098 9.06094 26.4298ZM0.960937 28.2699C3.94094 31.4599 6.87094 34.6799 9.99094 37.8399L12.8709 40.7398C8.33094 36.7898 4.34094 32.6199 0.960937 28.2699ZM2.67094 42.5498C1.60094 41.4698 0.470937 40.4098 -0.499063 39.2998C0.000937223 39.5198 0.410938 39.7998 0.720937 40.1198C1.35094 40.6198 2.14094 41.2899 3.11094 42.1999C4.33094 43.6199 5.71094 44.9898 7.26094 46.2998C9.90094 48.7898 10.5309 49.5498 9.16094 48.7898L2.67094 42.5598V42.5498ZM9.11094 51.1798L9.06094 51.1198L9.11094 51.1499V51.1798ZM22.2909 63.7599C17.8009 59.5999 13.5009 55.3598 9.11094 51.1798C13.9509 55.1198 18.4309 59.2099 22.5409 63.4398L22.3009 63.7599H22.2909ZM36.1509 76.0799C35.6309 75.5399 35.1609 74.9799 34.7309 74.4099C36.9809 75.8699 39.5609 78.4799 42.0009 80.4398C43.9509 82.0199 45.7609 83.6598 47.4209 85.3598C43.5609 82.7298 39.8509 79.1599 36.1409 76.0799H36.1509ZM58.2209 91.8499C57.8809 91.6799 55.4409 89.9198 53.9209 88.9198C52.3109 87.5998 49.6209 85.5899 50.1609 85.5899C51.9409 86.6399 53.5809 87.7698 55.0409 88.9798C56.5509 90.0898 58.5509 92.0199 58.2109 91.8499H58.2209ZM62.7609 92.0799C59.4109 89.6399 56.3009 87.0899 53.4409 84.4398C56.9109 86.7798 60.1309 89.4998 63.2509 91.8698L62.7609 92.0799ZM53.9709 82.7498C52.3109 81.4898 50.8509 80.1699 49.3309 78.8899L44.7409 74.9699C38.7409 69.7599 32.5809 64.5498 26.7309 59.2898C22.5309 55.5098 18.4309 51.5399 14.3309 47.5899L8.13094 41.7398L5.01094 38.8098L2.08094 35.8799C0.590938 34.4099 -0.669063 32.8599 -1.67906 31.2599L1.30094 34.3599C5.11094 38.7199 9.65094 42.8199 13.9409 47.0299L26.7309 59.2599C32.5909 64.5599 38.7409 69.7399 44.7909 74.9699L49.3309 78.8598C50.8409 80.1798 52.3109 81.4899 53.9709 82.7199L63.7309 90.2998L53.9709 82.7498ZM88.9709 116.08C86.4309 114.67 84.1609 113.1 82.1809 111.4C77.9309 108.21 73.1509 105.63 67.5309 100.87L71.4409 103.42C72.6609 104.24 73.8809 105.03 75.1509 105.82C77.9609 107.59 80.6209 109.44 83.1109 111.38C85.8009 113.34 90.2909 116.44 88.9709 116.09V116.08ZM104.101 124.92C103.271 124.78 102.531 124.51 101.951 124.13C100.451 123.23 99.0909 122.25 97.9009 121.2C93.9009 117.98 89.4509 114.82 84.9609 111.69L78.1309 107.01L74.7609 104.67C73.6409 103.88 72.6109 103.06 71.5409 102.24C71.9309 101.83 74.0309 103.15 78.1809 106.25C82.3309 109.35 86.8209 112.48 91.2109 115.58L97.7509 120.23C99.9509 121.84 101.901 123.33 104.051 124.77L109.221 127.29L110.981 128.37L115.371 131.65L124.211 137.36C120.041 135.22 116.111 132.93 112.441 130.48L104.091 124.92H104.101ZM73.5409 98.1198C77.1009 100.23 78.8609 102.13 82.2809 104.67C79.0609 102.64 76.1409 100.44 73.5409 98.1198ZM113.431 132.38C119.101 135.11 124.211 138.23 128.661 141.68L113.431 132.38ZM130.521 141.74C134.681 143.86 138.621 146.13 142.341 148.53C138.051 146.5 134.091 144.23 130.521 141.74ZM141.111 144.93C148.041 148.03 156.831 153.3 164.981 157.86C168.741 159.94 166.741 159.32 165.861 159C157.461 154.41 149.361 149.64 141.111 144.93ZM166.541 161.2C164.981 160.35 163.471 159.56 162.241 158.8C161.181 158.14 160.221 157.42 159.361 156.66C162.121 158.14 164.741 159.7 167.221 161.34C167.371 161.46 166.541 161.19 166.541 161.19V161.2ZM175.181 166.7C178.791 168.01 182.081 169.61 184.941 171.47C181.521 170.01 178.251 168.42 175.181 166.7ZM201.981 177.5L201.051 177.09C195.681 174.51 190.651 171.79 184.841 168.66C189.381 170.74 192.801 172.52 195.781 174.07C198.301 175.28 200.701 176.58 202.961 177.96L201.981 177.49V177.5ZM212.091 180.83L209.751 179.75C205.751 177.82 201.551 176.01 197.541 174.04C193.541 172.08 189.631 170.06 185.921 167.98C166.981 158.44 149.061 148.17 131.541 137.7L122.561 131.85C117.341 128.63 111.971 125.44 107.081 122.11C102.201 118.77 97.3209 115.29 92.4309 111.87C97.4609 115.12 102.441 118.54 107.561 121.97L123.431 132.01L130.901 136.72C133.591 138.39 135.831 139.85 138.471 141.31L154.041 150.26L161.851 154.68L165.801 156.9L169.851 159.04L186.151 167.47L195.521 172.3C198.601 173.91 201.921 175.37 204.991 177.1L224.521 186.2C221.101 185 215.591 182.13 212.071 180.85L212.091 180.83ZM233.031 191.98C230.591 191.03 228.271 189.96 226.101 188.79C225.661 188.56 226.101 188.53 226.691 188.64C231.821 190.72 235.871 192.62 240.751 194.9L233.041 191.97L233.031 191.98ZM263.391 204.62C260.311 203.36 258.901 202.6 261.241 203.33C268.911 206.46 277.691 209.42 284.721 212.55C277.741 210.21 270.611 207.55 263.391 204.62ZM247.621 196.16C252.011 197.74 256.071 199.61 259.971 201.19L262.261 202.18C257.721 200.57 252.981 198.52 247.611 196.15L247.621 196.16ZM283.161 210.44C278.811 208.71 273.881 206.99 270.421 205.35C275.501 207.34 281.211 209.33 285.461 211.29L283.171 210.44H283.161ZM296.731 219.74C294.241 219.01 293.561 218.42 294.241 218.42C296.101 218.87 297.891 219.43 299.561 220.09L317.531 226.59C310.331 224.61 303.381 222.32 296.731 219.74ZM306.741 219.3C302.841 218.4 299.211 217.13 296.001 215.53C299.831 216.4 303.491 217.53 306.891 218.9L306.551 219.19L306.751 219.31L306.741 219.3ZM299.611 217.78L303.611 219.01L306.051 219.83L311.421 222.05L303.271 219.15C300.591 218.3 297.751 217.42 294.731 216.22C296.541 216.86 298.151 217.36 299.611 217.77V217.78ZM368.641 240.22C357.951 237.15 347.261 233.81 336.661 230.39L368.641 239.96V240.22ZM341.791 230.57C342.581 230.7 343.351 230.87 344.081 231.1C345.561 231.49 346.971 231.97 348.281 232.53C347.371 232.35 346.471 232.13 345.601 231.89C344.241 231.56 342.961 231.11 341.791 230.57ZM354.971 234.72C358.081 235.43 361.121 236.26 364.051 237.21L366.491 238.38C362.681 237.21 358.481 236.04 354.971 234.72ZM373.761 238C371.511 237.41 369.371 236.74 367.171 236.1L360.631 233.88L347.601 229.93L334.611 225.92L321.921 221.59C278.831 207.24 237.981 190.59 199.871 171.85C198.311 171.09 196.791 170.27 195.281 169.48C186.431 165.01 177.661 160.5 168.971 155.93C166.191 154.41 163.501 152.86 160.771 151.34C159.651 150.9 158.721 150.75 158.721 151.51C157.841 150.92 157.331 150.17 157.301 149.37L143.831 141.62L137.581 137.99L131.621 134.25L119.711 126.67C115.751 124.15 111.751 121.67 107.901 119.09L96.5709 111.19C91.6909 107.77 86.2709 104.26 81.9209 100.83C80.3609 99.7199 78.8909 98.5499 77.4309 97.4099C71.9009 93.3299 66.4509 89.2099 61.0809 85.0299L57.0309 81.8698L55.0309 80.2898L53.1709 78.6499L45.6009 72.1499C48.8209 74.2399 51.7709 76.4699 54.4409 78.8199C55.9509 80.1399 57.7609 81.4499 59.3209 82.7699C60.8809 84.0899 62.5409 85.4599 64.2009 86.7799C70.5009 91.5499 76.6509 96.3798 83.0909 101.06C88.9509 105.65 95.0009 109.93 101.151 114.08C104.271 116.13 107.251 118.23 110.471 120.19L114.031 122.35C113.491 121.87 112.901 121.41 112.271 120.97C110.901 120.09 109.491 119.21 106.021 116.96C106.561 116.43 110.811 118.77 113.491 120.47C116.171 122.17 118.271 123.89 117.391 124.36L120.221 126.09C121.051 126.5 122.071 127.08 123.251 127.79L132.281 133.64C135.311 135.57 138.241 137.53 141.461 139.32C147.031 142.57 152.641 145.76 158.301 148.95C159.451 149.41 160.461 149.98 161.281 150.65C163.181 151.85 165.041 152.93 167.141 154.22C169.241 155.51 171.781 156.74 174.121 158C179.001 160.49 183.881 162.95 188.771 165.43L192.281 167.42C194.281 168.36 196.431 169.44 198.581 170.55C206.441 174.38 214.491 178.1 222.501 181.84L228.501 184.77C230.501 185.71 232.461 186.64 234.551 187.49L247.001 192.79L259.451 198.03L265.651 200.66L272.051 203.12L297.781 212.89C299.731 213.68 301.781 214.38 303.791 215.11L309.791 217.28C313.791 218.63 317.841 220.18 322.191 221.55L334.491 225.62C338.591 226.94 342.791 228.17 346.941 229.45C355.291 232 363.641 234.6 372.031 237.06C375.401 238 375.981 238.58 373.741 238H373.761ZM328.991 220.47C331.961 221.3 334.821 222.28 337.531 223.4C339.531 224.22 335.331 222.67 334.161 222.29C332.991 221.91 331.771 221.47 328.991 220.48V220.47ZM362.091 231.21C357.551 229.78 352.521 228.31 347.101 226.26C356.961 229.24 364.581 231.64 375.271 234.78C369.021 233.17 365.601 232.15 362.091 231.21ZM369.221 228.9C371.811 229.69 374.981 230.57 377.861 231.3C380.151 231.8 382.281 232.53 384.161 233.47C381.781 232.66 379.341 231.93 376.841 231.28C374.111 230.52 371.571 229.7 369.221 228.91V228.9ZM406.861 252.75C400.121 251.17 393.441 249.41 386.701 247.72C384.721 247.29 382.821 246.73 381.041 246.05C380.261 245.61 382.941 246.25 385.141 246.84C392.271 248.68 399.401 250.26 406.571 252.43C407.251 252.66 407.011 252.66 406.861 252.75ZM406.811 250.53C403.591 249.71 400.371 248.83 397.051 247.95L376.551 242.48C387.291 244.73 408.581 250.67 416.581 252.87L406.821 250.53H406.811ZM383.381 242.86C389.841 244.11 396.131 245.66 402.171 247.51L389.041 244.58L383.381 242.85V242.86ZM477.991 268.17C471.611 267.25 465.331 266.09 459.201 264.69C465.211 265.47 471.141 266.45 476.971 267.62C477.411 267.74 478.431 268.12 477.991 268.18V268.17ZM458.561 260.65C461.581 260.85 464.541 261.31 467.351 262.03C472.771 263.23 478.431 264.49 484.191 265.51C489.951 266.53 495.811 267.56 501.521 268.7C497.131 268.06 492.831 267.38 488.541 266.68C486.441 266.3 484.341 265.98 482.191 265.54C480.041 265.1 477.941 264.63 475.841 264.14L458.561 260.66V260.65ZM490.491 268.37C486.191 267.61 482.241 266.88 478.381 265.94C482.291 266.73 486.041 267.29 490.491 268.13L505.141 270.62C499.481 269.86 494.791 269.13 490.491 268.37ZM532.431 275.07C528.721 274.78 525.051 274.33 521.451 273.72C517.591 273.21 513.811 272.48 510.171 271.56C514.801 272.04 519.371 272.72 523.841 273.58C527.551 273.99 533.361 274.87 532.431 275.07ZM542.051 276.53C541.511 276.41 541.511 276.24 541.511 276.24L549.861 277.35L552.791 277.94C549.171 277.6 545.581 277.14 542.051 276.53ZM534.781 274.31C528.681 273.32 522.721 272.47 516.911 271.38C522.521 272.29 528.381 272.99 534.491 273.84L553.581 276.53C547.141 275.89 540.891 275.3 534.791 274.31H534.781ZM542.691 272.91L525.361 270.48C522.281 269.98 519.231 269.46 516.181 268.93L509.341 267.79L506.561 267.32C504.811 267.07 503.091 266.77 501.381 266.44L494.251 265.22C493.031 265 491.801 264.79 490.551 264.57L484.541 263.55L469.411 260.62L454.231 257.69L446.661 256.14C444.071 255.61 441.681 255 439.191 254.44L409.411 247.48C399.651 244.93 389.881 242.3 380.121 239.7C384.001 240.28 387.741 241.16 391.251 242.3L405.601 246.13C407.941 246.8 410.381 247.36 412.821 247.94L420.141 249.67L434.791 253.09L442.111 254.79C444.601 255.38 446.991 255.93 449.481 256.43L479.211 262.46C482.911 263.25 486.781 263.91 490.541 264.56L499.911 266.15C500.391 266.25 500.891 266.33 501.381 266.43L506.561 267.31C507.101 267.39 507.631 267.48 508.171 267.55C510.851 268 513.521 268.46 516.181 268.92L523.211 270.09L537.271 272.05L551.331 273.98L558.361 274.94C560.561 275.26 563.051 275.58 565.441 275.82C569.551 276.11 573.591 276.67 577.501 277.49L568.761 276.52C565.831 276.2 562.901 275.91 560.021 275.47L542.691 272.89V272.91ZM421.331 246.78C426.041 247.77 430.651 248.91 435.151 250.2C430.411 249.06 425.191 247.98 421.331 246.78ZM535.911 265.18C543.231 265.74 551.581 266.82 560.321 268.11C561.981 268.34 563.741 268.61 564.861 268.81C565.981 269.01 566.421 269.19 565.251 269.19L556.461 267.96C550.521 267.41 544.651 266.63 538.891 265.62L535.911 265.18ZM578.191 282.85C575.991 282.92 573.781 282.78 571.651 282.44C568.481 282.06 565.991 281.71 566.771 281.56C568.841 281.47 570.921 281.59 572.921 281.91C576.191 282.2 578.531 282.55 578.191 282.85ZM610.661 284.37C606.021 283.96 601.381 283.64 596.801 283.08C589.181 282.23 593.681 282.58 595.821 282.58L598.501 282.87L601.581 283.28L604.751 283.6L611.341 284.21C615.781 284.59 620.271 285 624.571 285.47L610.661 284.36V284.37ZM580.781 270.94C585.081 271.17 590.501 271.64 595.431 272.17C600.361 272.7 604.711 273.37 607.101 273.78C604.851 273.6 602.661 273.37 600.461 273.14L594.021 272.41L580.791 270.95L580.781 270.94ZM638.531 283.17L631.311 282.61L602.561 280.27V279.89L625.161 281.76L636.491 282.67L642.151 283.11C644.051 283.26 645.961 283.43 647.811 283.43C651.971 283.51 656.111 283.85 660.161 284.42L645.761 283.66C643.421 283.57 640.931 283.37 638.531 283.16V283.17ZM665.481 290.34L662.941 290.19C661.671 289.87 652.051 289.14 662.941 289.46L668.991 289.78C683.151 291.01 662.941 289.9 665.471 290.34H665.481ZM684.711 289.29C690.751 288.98 696.831 288.98 702.871 289.29C696.831 289.6 690.751 289.6 684.711 289.29ZM687.251 285.49H683.341L679.581 285.31C677.241 285.11 674.651 285.11 672.351 285.11L667.471 284.85C675.381 284.85 678.451 285.17 703.301 285.79C697.931 285.79 692.461 285.64 687.241 285.5L687.251 285.49ZM703.851 279.26C700.681 279.06 696.481 278.82 701.361 278.67H706.241C709.221 278.99 704.481 278.99 703.851 279.26ZM736.171 290.09H721.521C718.301 290 715.271 289.91 712.441 289.88C715.381 289.79 718.331 289.79 721.281 289.88H730.701C732.751 289.76 734.831 289.83 736.851 290.09H736.171ZM738.951 286.43H718.641L715.661 286.22L721.761 285.99C728.941 286.05 736.161 285.96 743.091 286.11C748.411 286.11 754.121 285.91 761.011 286.11C753.591 286.43 746.121 286.43 738.941 286.43H738.951ZM738.901 279.44C736.141 279.59 733.371 279.51 730.651 279.21C733.751 278.75 736.941 278.58 740.121 278.71C738.311 279 750.811 279.21 738.901 279.44ZM781.521 278.27C786.841 278.01 791.191 277.8 795.431 277.66C799.681 277.51 803.881 277.51 808.761 277.34C803.731 277.75 799.481 277.75 795.241 278.01C790.991 278.27 786.701 278.27 781.521 278.27ZM947.021 273.94L930.421 276.46C924.861 277.25 919.191 277.89 913.631 278.6L896.841 280.71L888.441 281.76L879.991 282.67C875.551 283.27 871.011 283.56 866.471 283.55L887.121 281.53L907.531 278.93L927.841 276.3L948.051 273.26C950.751 272.68 953.551 272.3 956.401 272.12C956.791 272.41 952.151 273.17 947.031 273.96L947.021 273.94ZM966.551 266.86L960.791 267.85C956.981 268.46 953.271 269.05 950.051 269.67L935.401 271.98L927.981 273.12C925.391 273.47 923.001 273.76 920.511 274.09C914.541 275.07 908.481 275.84 902.351 276.37L889.561 277.95C887.461 278.24 885.311 278.45 883.161 278.65L876.721 279.26L850.901 281.66C846.601 282.13 842.261 282.36 837.961 282.65L824.971 283.5L811.981 284.32L805.491 284.73L798.951 284.96C797.241 284.37 805.001 284.46 808.711 284.14L838.241 282.18L845.611 281.68L852.981 281.01L867.631 279.63L882.281 278.25L885.941 277.9L889.551 277.46L896.871 276.58L926.161 272.95C933.581 271.87 940.951 270.7 948.571 269.5L960.191 267.69L966.051 266.75C968.101 266.43 970.101 266.02 972.151 265.64C970.291 266.05 968.441 266.49 966.541 266.84L966.551 266.86ZM853.881 274.14C861.601 273.02 869.451 272.28 877.361 271.92L853.881 274.14ZM937.361 268.67C940.201 268.06 943.121 267.6 946.101 267.29C947.811 267.29 943.371 267.96 940.881 268.28C939.661 268.46 938.681 268.51 937.361 268.66V268.67ZM965.771 261.65C971.231 260.35 976.841 259.3 982.561 258.52C983.001 258.43 983.151 258.58 982.561 258.75C977.111 260.06 971.521 261.15 965.821 262C963.321 262.63 960.661 263.02 957.961 263.14C957.371 262.91 962.211 262.23 965.771 261.65ZM981.391 264.08C989.591 262.41 997.301 260.6 1007.71 258.93C998.721 261.07 989.641 262.5 981.391 264.08ZM1006.93 254.98C1012.64 253.81 1018.74 252.35 1024.21 251.35C1018.64 252.86 1012.85 254.08 1006.93 254.98ZM1084.99 240.85L1077.86 242.69C1073.07 243.92 1068.24 245.12 1063.65 246.38L1055.26 248.52C1052.47 249.11 1049.64 249.78 1046.71 250.51L1037.68 252.5C1031.63 253.85 1025.57 255.16 1019.96 256.07L1035.73 252.56C1041 251.36 1046.32 250.31 1051.45 248.9L1082.35 240.97C1085.37 240.13 1088.46 239.4 1091.63 238.78C1089.48 239.48 1087.28 240.21 1084.99 240.86V240.85ZM1097.14 237.16H1097.09C1106.29 233.92 1115.77 230.99 1125.51 228.38C1114.62 232.27 1105.34 234.64 1097.14 237.16ZM1156.85 218.43L1155.58 218.87L1154.31 219.28C1148.6 220.8 1141.37 223.64 1131.61 226.33C1142.74 222.61 1150.55 219.89 1158.41 217.52C1161.05 216.73 1157.73 218.02 1156.85 218.43ZM1158.36 209.01L1155.63 210L1152.89 210.94L1147.28 212.81L1136.15 216.5C1133.79 217.43 1131.25 218.19 1128.58 218.75C1130.92 217.54 1133.56 216.56 1136.39 215.82C1140.49 214.59 1144.55 213.3 1148.6 211.96L1154.7 209.91C1156.7 209.24 1158.85 208.13 1160.66 207.72C1162.46 207.31 1158.75 208.68 1158.36 209.01ZM1191.51 194.73C1189.31 195.64 1187.02 196.49 1184.72 197.33L1170.86 202.48C1154.55 208.86 1137.32 214.21 1120.38 219.89C1081.23 232.25 1040.55 242.75 998.671 251.3C998.481 251.35 998.281 251.38 998.091 251.43L969.291 256.87C966.951 257.31 964.511 257.81 962.061 258.22L954.741 259.36L940.091 261.67C934.821 262.69 929.501 263.6 924.081 264.25C918.661 264.89 913.241 265.45 907.821 266.21L904.301 266.59L895.901 267.67C890.101 268.69 884.151 269.37 878.131 269.72L854.361 271.97L847.621 272.58C845.371 272.81 843.131 273.14 840.881 273.14L827.311 274.02C820.331 274.52 813.351 275.01 806.321 275.37C804.281 275.54 802.231 275.65 800.171 275.69C798.071 275.78 796.071 275.87 794.411 276.04L779.761 276.39C763.991 277.3 748.081 277.3 732.161 277.3C724.151 277.42 716.241 277.15 708.291 277.01L684.421 276.45C673.091 275.95 661.671 275.31 650.251 274.69H649.181C647.231 274.54 645.231 274.49 643.271 274.34L637.361 273.96C633.411 273.7 629.501 273.4 625.551 272.97L613.541 272.06C609.541 271.74 605.481 271.47 601.531 271.01C593.621 270.13 585.711 269.2 577.801 268.26L569.011 267.3C567.591 267.28 566.191 267.07 564.911 266.68L560.421 266.07C549.781 264.9 538.551 263.06 527.761 261.65C520.971 260.54 514.191 259.34 507.351 258.17L495.101 256.09L488.951 255.04L482.901 253.84L463.371 249.95C464.441 250.3 466.451 250.65 467.961 251C468.301 252.01 466.131 251.8 465.181 252.21C465.811 252.36 466.451 252.51 467.081 252.67C470.741 253.58 466.541 252.9 465.961 252.67L451.661 249.74C456.181 250.3 460.591 251.11 464.871 252.13C462.171 251.15 460.171 249.92 460.841 249.3L458.591 248.86C450.491 247.31 442.631 245.35 434.671 243.53L422.811 240.75L416.851 239.37L413.871 238.67L410.941 237.88L401.521 235.36L386.531 231.35L379.011 229.3C376.521 228.66 374.131 227.87 371.641 227.14L342.351 218.22C337.851 216.51 333.171 214.99 328.341 213.65C325.441 212.9 322.621 212.05 319.891 211.1C316.621 209.96 313.011 208.79 309.591 207.62C306.431 206.56 303.431 205.35 300.611 203.99C298.391 203.35 296.251 202.6 294.211 201.77L292.311 201.01C285.521 198.35 278.541 195.95 271.901 193.26C265.261 190.57 258.671 187.99 252.031 185.07C246.371 182.47 240.121 179.98 234.451 177.05C230.151 174.89 224.691 172.37 219.801 170.03C217.211 168.89 214.671 167.78 212.331 166.78C209.991 165.79 207.691 164.97 205.791 164.24C203.811 163.33 201.911 162.36 200.131 161.31L197.491 159.82C196.271 158.91 194.561 157.95 192.611 156.89C189.781 155.57 186.311 153.64 183.481 152.27L177.041 148.87L170.791 145.33L158.391 138.25V138.02L164.691 141.47H164.981L154.001 135.53L148.731 132.6C147.221 131.58 145.561 130.49 143.851 129.44L123.741 116.68L119.931 114.31L116.321 111.82L109.141 106.85L94.7909 96.8698C92.4009 95.2298 90.2509 93.4499 87.9609 91.7199L81.3709 86.3899L67.9409 75.9398C65.6909 73.9499 63.5509 71.9899 61.3009 70.0899L58.4209 67.1599C61.0009 68.7999 63.3009 70.5798 65.3009 72.4898C68.0009 74.9698 70.9609 77.3599 74.1409 79.6299C77.0709 81.7899 79.9509 83.7798 82.8309 85.7998L83.7609 86.8799C88.7409 90.4199 93.4709 94.2799 98.8409 97.9699C96.7409 97.0899 98.1609 98.4398 102.451 101.36L115.971 110.75C116.511 111.12 117.161 111.44 117.871 111.69C119.381 112.83 121.631 114.29 122.751 115.05C123.871 115.81 124.701 116.43 125.341 116.95L126.461 117.53L128.221 118.55C128.801 119.05 131.251 120.54 132.521 121.48C136.231 123.97 139.651 126.13 142.821 127.98C145.591 129.68 148.581 131.24 151.751 132.66C154.121 134.82 156.911 136.8 160.051 138.57C164.351 140.91 168.541 143.31 172.691 145.71C174.791 146.88 176.791 148.14 178.941 149.28L185.431 152.7H185.821C191.411 155.09 196.751 157.68 201.831 160.45C203.981 161.68 205.981 162.94 208.471 164.11C210.961 165.28 213.261 166.42 215.841 167.56C220.721 169.67 225.601 171.98 230.491 174.26L234.101 175.96C241.421 179.38 248.551 182.54 256.071 185.64C253.821 184.29 256.411 185.11 262.611 187.69L271.061 191.03L275.011 192.64L279.161 194.19C282.671 195.57 286.241 196.91 288.631 198.08C289.671 198.29 290.661 198.57 291.611 198.9C293.561 199.54 295.611 200.31 297.711 201.12L304.201 203.67C305.661 204.17 307.281 204.69 308.791 205.28C310.301 205.87 311.961 206.45 313.671 207.12L314.211 207.32L314.651 207.5C314.691 207.62 314.821 207.73 314.991 207.79L335.151 214.67L337.201 215.28L344.181 217.5L351.211 219.78L359.461 222.27L370.251 225.37L375.621 226.98L380.941 228.68C392.611 232.02 402.321 233.6 414.331 237.22C418.331 238.3 422.781 239.21 426.291 240.15C431.031 241.38 435.661 242.58 440.551 243.75L447.731 245.51L451.341 246.36L455.001 247.15C464.831 249.1 474.761 251.05 484.781 253L489.661 253.91L494.541 254.76L503.961 256.52C510.261 257.66 516.601 258.8 523.051 259.68C523.201 259.65 523.051 259.59 522.561 259.45C523.651 259.55 524.721 259.69 525.781 259.86C531.641 260.8 537.011 261.62 542.281 262.55L542.571 262.73H543.011C542.281 262.73 542.231 262.52 543.651 262.73C545.071 262.93 546.291 263.11 547.311 263.32C549.681 264 552.221 264.46 554.831 264.67C559.471 265.23 563.721 265.9 567.381 266.51H569.231L573.181 266.83C579.671 267.53 585.971 268.35 592.271 269.08C598.571 269.81 604.821 270.69 611.411 271.16C614.631 271.45 617.901 271.66 621.171 271.95C625.781 272.29 630.361 272.78 634.891 273.41C638.601 273.67 642.211 274.02 645.871 274.2L656.851 274.73L678.921 275.72C680.921 275.81 683.021 276.04 685.221 276.04H691.811C695.841 276.17 699.881 276.17 703.921 276.04C708.361 276.13 712.711 276.22 716.911 276.36L721.061 276.51C724.481 276.8 727.851 276.8 731.071 276.8H739.911L740.791 276.56C742.501 276.56 744.221 276.63 745.921 276.77H747.191C750.701 276.6 754.271 276.51 757.881 276.51H763.301L768.771 276.36C776.001 276.13 783.421 275.92 790.641 275.66C794.891 275.02 799.251 274.68 803.621 274.64C811.971 274.11 820.021 273.47 828.321 272.91C832.231 272.62 836.031 272.27 840.141 272.06C842.921 272 845.801 271.8 848.681 271.56L850.391 271.41H850.051L850.491 271.26L848.001 271.46C846.491 271.02 851.221 270.64 857.081 270.26L856.051 270.49C862.011 269.99 868.211 269.35 874.261 268.82C877.291 268.53 880.311 268.32 883.151 268.06C885.981 267.8 888.761 267.53 891.351 267.39H891.991C894.391 267.07 896.821 266.85 899.261 266.72L903.611 266.08C909.911 265.17 916.251 264.38 922.601 263.62L941.491 260.69L945.931 260.02C949.881 259.49 953.841 258.94 957.791 258.29L963.651 257.33L969.411 256.13L978.691 254.35L983.571 253.44C1001.98 250.19 1019.84 246.42 1037.76 242.12C1038.93 241.77 1040.1 241.51 1041.27 241.18L1044.84 240.33C1047.03 239.77 1049.57 239.25 1051.92 238.6L1057.24 237.22C1061.14 236.05 1064.8 235.05 1068.95 233.97C1071.44 233.33 1074.08 232.68 1077.2 231.95C1084.04 230.25 1091.02 228.09 1098.15 225.95L1108.89 222.73L1114.26 221.18L1116.94 220.42L1120.12 219.48C1127 216.9 1132.66 215 1141.65 212.25C1144.33 211.43 1147.21 210.52 1150.14 209.56L1154.63 208.07L1159.07 206.4L1177.04 199.64L1187.68 195.63L1190.32 194.64L1192.86 193.64L1197.74 191.74C1195.74 192.79 1193.69 193.76 1191.49 194.67L1191.51 194.73ZM1212.35 182.59C1204.51 186.26 1196.2 189.55 1187.51 192.45L1197.03 188.27L1199.37 187.33L1215.43 180.6C1218.07 179.52 1220.8 178.41 1223.34 177.21L1231.1 173.61C1229.06 174.96 1226.82 176.21 1224.41 177.33L1222.12 178.41L1219.68 179.43L1214.8 181.54L1212.35 182.59ZM1216.65 184.02C1214.6 184.63 1217.04 183.29 1219.29 182.18C1219.63 182.41 1223 181.21 1224.9 180.72C1222.39 182.02 1219.62 183.13 1216.65 184.03V184.02ZM1253.61 167.4L1248.97 169.6C1242.09 173.02 1234.76 176.36 1227.44 179.52C1231.7 176.61 1236.63 174.08 1242.09 172C1246.58 170.01 1251.36 167.79 1255.71 165.97L1253.61 167.4ZM1254.63 162.66C1251.46 164.47 1247.02 166.44 1243.01 168.31V168.1L1252.39 163.74C1254.66 162.56 1257.06 161.46 1259.56 160.46L1254.63 162.66ZM1255.61 158.74C1252.48 160.2 1256 158.24 1256.34 157.95L1258.49 156.81L1262.78 154.65C1260.77 156.23 1258.35 157.62 1255.61 158.75V158.74ZM1278.94 154.64L1274.5 156.95C1272.79 156.92 1279.48 154.05 1282.02 152.53C1283.24 152.32 1279.33 154.26 1278.94 154.64ZM1285.63 147.32C1281.3 150.15 1276.41 152.67 1271.08 154.81C1273.17 153.47 1275.4 152.22 1277.77 151.07L1282.26 148.76C1283.53 148.23 1288.27 145.54 1285.63 147.33V147.32ZM1365.55 99.2699C1359.35 103.57 1353.2 107.75 1347.34 111.32C1352.51 107.31 1358.62 103.16 1364.42 99.2398C1369.6 95.7598 1370.04 95.8199 1365.55 99.2699Z" fill="#D8B465"/>
</svg>
