<svg width="52" height="52" viewBox="0 0 52 52" fill="none" xmlns="http://www.w3.org/2000/svg">
<circle cx="26" cy="26" r="18.5" stroke="white" stroke-width="3"/>
<circle cx="26" cy="26" r="25.5" stroke="white" stroke-dasharray="2 2"/>
<g clip-path="url(#clip0_3002_101410)">
<path d="M31.8625 25.6682C31.8624 25.6681 31.8623 25.6679 31.8621 25.6677L29.4128 23.2302C29.2293 23.0476 28.9325 23.0483 28.7499 23.2318C28.5672 23.4153 28.5679 23.7121 28.7514 23.8947L30.3959 25.5312H20.4688C20.2099 25.5312 20 25.7411 20 26C20 26.2589 20.2099 26.4687 20.4688 26.4687H30.3959L28.7514 28.1052C28.568 28.2879 28.5673 28.5847 28.7499 28.7682C28.9325 28.9517 29.2293 28.9523 29.4128 28.7697L31.8621 26.3322C31.8623 26.3321 31.8624 26.3319 31.8625 26.3318C32.0461 26.1486 32.0455 25.8508 31.8625 25.6682Z" fill="white"/>
</g>
<defs>
<clipPath id="clip0_3002_101410">
<rect width="12" height="12" fill="white" transform="translate(20 20)"/>
</clipPath>
</defs>
</svg>
