<svg width="12" height="12" viewBox="0 0 12 12" fill="none" xmlns="http://www.w3.org/2000/svg">
<path fill-rule="evenodd" clip-rule="evenodd" d="M3.58288 5.02173L5.5835 7.03447V1.46397C5.5835 1.20772 5.77004 1 6.00016 1C6.23029 1 6.41683 1.20772 6.41683 1.46397V6.99776L8.41966 5.01923C8.57251 4.86825 8.81983 4.86875 8.97208 5.02032C9.12433 5.17191 9.12384 5.41719 8.97099 5.56818L6.80856 7.70436C6.58048 7.93058 6.2806 8.04374 5.98067 8.04374C5.68052 8.04374 5.38036 7.93046 5.15183 7.70382L5.14985 7.70184L3.02649 5.56566C2.87505 5.41328 2.87683 5.16799 3.03046 5.0178C3.18409 4.86761 3.43144 4.86935 3.58288 5.02173ZM10.2188 9.45045C10.2188 9.23649 10.3936 9.06306 10.6094 9.06306C10.8251 9.06306 11 9.23649 11 9.45045C11 10.3049 10.2991 11 9.4375 11H2.5625C1.70094 11 1 10.3049 1 9.45045C1 9.23649 1.17488 9.06306 1.39062 9.06306C1.60637 9.06306 1.78125 9.23649 1.78125 9.45045C1.78125 9.87768 2.13172 10.2252 2.5625 10.2252H9.4375C9.86828 10.2252 10.2188 9.87768 10.2188 9.45045Z" fill="#1B1B1B"/>
</svg>
