<svg width="24" height="24" viewBox="0 0 24 24" fill="none" xmlns="http://www.w3.org/2000/svg">
<path fill-rule="evenodd" clip-rule="evenodd" d="M2 10.8076C2 5.95121 5.95121 2 10.8076 2C15.6642 2 19.6152 5.95121 19.6152 10.8076C19.6152 12.9438 18.8507 14.9048 17.5811 16.4315L21.7618 20.6122C22.0794 20.9295 22.0794 21.4445 21.7618 21.7618C21.603 21.9206 21.3949 22 21.187 22C20.9789 22 20.771 21.9206 20.6122 21.7618L16.4315 17.5811C14.9048 18.8507 12.9438 19.6152 10.8076 19.6152C5.95121 19.6152 2 15.6642 2 10.8076ZM3.62602 10.8076C3.62602 14.7675 6.8477 17.9892 10.8076 17.9892C14.7675 17.9892 17.9891 14.7675 17.9891 10.8076C17.9891 6.8477 14.7675 3.62602 10.8076 3.62602C6.8477 3.62602 3.62602 6.84773 3.62602 10.8076Z" fill="#D8B465"/>
</svg>
