<svg width="48" height="48" viewBox="0 0 48 48" fill="none" xmlns="http://www.w3.org/2000/svg">
<g clip-path="url(#clip0_1837_64527)">
<path fill-rule="evenodd" clip-rule="evenodd" d="M46.5938 0H40.9688C40.1921 0 39.5625 0.629625 39.5625 1.40625C39.5625 2.18288 40.1921 2.8125 40.9688 2.8125H45.1875V7.03125C45.1875 7.80788 45.8171 8.4375 46.5938 8.4375C47.3704 8.4375 48 7.80788 48 7.03125V1.40625C48 0.629625 47.3704 0 46.5938 0ZM2.8125 45.1875H7.03125C7.80788 45.1875 8.4375 45.8171 8.4375 46.5938C8.4375 47.3704 7.80788 48 7.03125 48H1.40625C0.629625 48 0 47.3704 0 46.5938V40.9688C0 40.1921 0.629625 39.5625 1.40625 39.5625C2.18288 39.5625 2.8125 40.1921 2.8125 40.9688V45.1875ZM45.1875 40.9688C45.1875 40.1921 45.8171 39.5625 46.5938 39.5625C47.3704 39.5625 48 40.1921 48 40.9688V46.5938C48 47.3704 47.3704 48 46.5938 48H40.9688C40.1921 48 39.5625 47.3704 39.5625 46.5938C39.5625 45.8171 40.1921 45.1875 40.9688 45.1875H45.1875V40.9688ZM2.8125 7.03125C2.8125 7.80788 2.18288 8.4375 1.40625 8.4375C0.629625 8.4375 0 7.80788 0 7.03125V1.40625C0 0.629625 0.629625 0 1.40625 0H7.03125C7.80788 0 8.4375 0.629625 8.4375 1.40625C8.4375 2.18288 7.80788 2.8125 7.03125 2.8125H2.8125V7.03125ZM40.7697 17.2561C35.1885 13.4363 29.3939 11.3919 24.0125 11.3441C24.0041 11.3439 23.9958 11.3439 23.9875 11.3441C18.606 11.3919 12.8114 13.4362 7.23021 17.2561C3.05346 20.1149 0.473086 22.9357 0.365273 23.0544C-0.121758 23.5907 -0.121758 24.4091 0.365273 24.9454C0.473086 25.0642 3.05337 27.8849 7.23021 30.7437C12.8114 34.5636 18.606 36.608 23.9875 36.6557L23.9999 36.6558L24.0124 36.6557C29.3938 36.608 35.1884 34.5637 40.7696 30.7437C44.9465 27.885 47.5268 25.0642 47.6346 24.9454C48.1216 24.4091 48.1216 23.5907 47.6346 23.0544C47.527 22.9357 44.9466 20.1149 40.7697 17.2561ZM24 33.8437C18.5722 33.8437 14.1563 29.4278 14.1563 23.9999C14.1563 18.5721 18.5722 14.1562 24 14.1562C29.4279 14.1562 33.8438 18.5721 33.8438 23.9999C33.8438 29.4278 29.4279 33.8437 24 33.8437ZM3.38318 23.9999C4.44752 22.9727 6.36724 21.2489 8.87571 19.5383C10.2015 18.634 11.8001 17.6642 13.5971 16.8001C12.177 18.8452 11.3438 21.3269 11.3438 23.9999C11.3438 26.6736 12.1781 29.1554 13.5987 31.201C11.8009 30.3365 10.202 29.3661 8.87571 28.4616C6.36696 26.7508 4.44724 25.0269 3.38318 23.9999ZM39.1243 28.4616C37.7977 29.3663 36.1983 30.337 34.4 31.2018C35.8211 29.1561 36.6563 26.6741 36.6563 23.9999C36.6563 21.3269 35.8231 18.8451 34.403 16.7999C36.2001 17.6641 37.7984 18.634 39.1243 19.5383C41.6331 21.249 43.5528 22.9729 44.6169 23.9999C43.5526 25.0271 41.6328 26.7509 39.1243 28.4616ZM17.9062 24C17.9062 20.6399 20.6399 17.9062 24 17.9062C27.3601 17.9062 30.0938 20.6399 30.0938 24C30.0938 27.3601 27.3601 30.0938 24 30.0938C20.6399 30.0938 17.9062 27.3601 17.9062 24ZM20.7188 24C20.7188 25.8093 22.1907 27.2812 24 27.2812C25.8093 27.2812 27.2812 25.8093 27.2812 24C27.2812 22.1907 25.8093 20.7188 24 20.7188C22.1907 20.7188 20.7188 22.1907 20.7188 24Z" fill="#D8B465"/>
</g>
<defs>
<clipPath id="clip0_1837_64527">
<rect width="48" height="48" fill="white"/>
</clipPath>
</defs>
</svg>
