<svg width="56" height="56" viewBox="0 0 56 56" fill="none" xmlns="http://www.w3.org/2000/svg">
<g clip-path="url(#clip0_2109_58748)">
<mask id="path-1-inside-1_2109_58748" fill="white">
<path fill-rule="evenodd" clip-rule="evenodd" d="M0 22.75C0 35.294 10.206 45.5 22.75 45.5C28.1836 45.5 33.1785 43.585 37.0953 40.3946L52.0171 55.3164C52.4721 55.7714 53.0694 56.0001 53.6667 56.0001C54.2641 56.0001 54.8614 55.7714 55.3164 55.3164C56.2287 54.4041 56.2287 52.9294 55.3164 52.0171L40.3946 37.0953C43.585 33.1785 45.5 28.1836 45.5 22.75C45.5 10.206 35.294 0 22.75 0C10.206 0 0 10.206 0 22.75ZM4.66667 22.75C4.66667 12.7797 12.7797 4.66667 22.75 4.66667C32.7203 4.66667 40.8333 12.7797 40.8333 22.75C40.8333 32.7203 32.7203 40.8333 22.75 40.8333C12.7797 40.8333 4.66667 32.7203 4.66667 22.75ZM20.3627 31.5C19.7421 31.5 19.1447 31.2526 18.7061 30.8093L12.3431 24.3926C11.4354 23.478 11.4424 22.001 12.3571 21.0933C13.2717 20.188 14.7511 20.1926 15.6564 21.1073L20.2484 25.739L29.7357 14.805C30.5781 13.8296 32.0551 13.727 33.0281 14.5716C34.0011 15.4163 34.1061 16.891 33.2614 17.864L22.1244 30.6973C21.6997 31.1873 21.0884 31.4766 20.4397 31.5H20.3627Z"/>
</mask>
<path fill-rule="evenodd" clip-rule="evenodd" d="M0 22.75C0 35.294 10.206 45.5 22.75 45.5C28.1836 45.5 33.1785 43.585 37.0953 40.3946L52.0171 55.3164C52.4721 55.7714 53.0694 56.0001 53.6667 56.0001C54.2641 56.0001 54.8614 55.7714 55.3164 55.3164C56.2287 54.4041 56.2287 52.9294 55.3164 52.0171L40.3946 37.0953C43.585 33.1785 45.5 28.1836 45.5 22.75C45.5 10.206 35.294 0 22.75 0C10.206 0 0 10.206 0 22.75ZM4.66667 22.75C4.66667 12.7797 12.7797 4.66667 22.75 4.66667C32.7203 4.66667 40.8333 12.7797 40.8333 22.75C40.8333 32.7203 32.7203 40.8333 22.75 40.8333C12.7797 40.8333 4.66667 32.7203 4.66667 22.75ZM20.3627 31.5C19.7421 31.5 19.1447 31.2526 18.7061 30.8093L12.3431 24.3926C11.4354 23.478 11.4424 22.001 12.3571 21.0933C13.2717 20.188 14.7511 20.1926 15.6564 21.1073L20.2484 25.739L29.7357 14.805C30.5781 13.8296 32.0551 13.727 33.0281 14.5716C34.0011 15.4163 34.1061 16.891 33.2614 17.864L22.1244 30.6973C21.6997 31.1873 21.0884 31.4766 20.4397 31.5H20.3627Z" fill="#D8B465"/>
<path d="M37.0953 40.3946L37.4488 40.0411L37.1296 39.7218L36.7795 40.0069L37.0953 40.3946ZM52.0171 55.3164L52.3706 54.9628L52.0171 55.3164ZM55.3164 55.3164L54.9628 54.9628L55.3164 55.3164ZM55.3164 52.0171L55.6699 51.6635L55.3164 52.0171ZM40.3946 37.0953L40.0069 36.7795L39.7218 37.1296L40.0411 37.4488L40.3946 37.0953ZM18.7061 30.8093L19.0615 30.4576L19.0611 30.4572L18.7061 30.8093ZM12.3431 24.3926L12.6981 24.0406L12.698 24.0405L12.3431 24.3926ZM12.3571 21.0933L12.0053 20.7379L12.0049 20.7384L12.3571 21.0933ZM15.6564 21.1073L15.301 21.459L15.3013 21.4593L15.6564 21.1073ZM20.2484 25.739L19.8933 26.091L20.2728 26.4738L20.6261 26.0667L20.2484 25.739ZM29.7357 14.805L30.1134 15.1327L30.1141 15.1318L29.7357 14.805ZM33.0281 14.5716L33.3558 14.1941L33.0281 14.5716ZM33.2614 17.864L32.8838 17.5362L32.8838 17.5363L33.2614 17.864ZM22.1244 30.6973L21.7468 30.3696L21.7466 30.3698L22.1244 30.6973ZM20.4397 31.5V32H20.4487L20.4577 31.9997L20.4397 31.5ZM22.75 45C10.4821 45 0.5 35.0179 0.5 22.75H-0.5C-0.5 35.5701 9.92986 46 22.75 46V45ZM36.7795 40.0069C32.9484 43.1276 28.064 45 22.75 45V46C28.3031 46 33.4086 44.0425 37.4111 40.7823L36.7795 40.0069ZM36.7417 40.7482L51.6635 55.6699L52.3706 54.9628L37.4488 40.0411L36.7417 40.7482ZM51.6635 55.6699C52.2158 56.2223 52.9419 56.5001 53.6667 56.5001V55.5001C53.1969 55.5001 52.7283 55.3205 52.3706 54.9628L51.6635 55.6699ZM53.6667 56.5001C54.3916 56.5001 55.1176 56.2223 55.6699 55.6699L54.9628 54.9628C54.6052 55.3205 54.1366 55.5001 53.6667 55.5001V56.5001ZM55.6699 55.6699C56.7775 54.5624 56.7775 52.7711 55.6699 51.6635L54.9628 52.3706C55.6799 53.0877 55.6799 54.2458 54.9628 54.9628L55.6699 55.6699ZM55.6699 51.6635L40.7482 36.7417L40.0411 37.4488L54.9628 52.3706L55.6699 51.6635ZM45 22.75C45 28.064 43.1276 32.9484 40.0069 36.7795L40.7823 37.4111C44.0425 33.4086 46 28.3031 46 22.75H45ZM22.75 0.5C35.0179 0.5 45 10.4821 45 22.75H46C46 9.92986 35.5701 -0.5 22.75 -0.5V0.5ZM0.5 22.75C0.5 10.4821 10.4821 0.5 22.75 0.5V-0.5C9.92986 -0.5 -0.5 9.92986 -0.5 22.75H0.5ZM22.75 4.16667C12.5035 4.16667 4.16667 12.5035 4.16667 22.75H5.16667C5.16667 13.0558 13.0558 5.16667 22.75 5.16667V4.16667ZM41.3333 22.75C41.3333 12.5035 32.9965 4.16667 22.75 4.16667V5.16667C32.4442 5.16667 40.3333 13.0558 40.3333 22.75H41.3333ZM22.75 41.3333C32.9965 41.3333 41.3333 32.9965 41.3333 22.75H40.3333C40.3333 32.4442 32.4442 40.3333 22.75 40.3333V41.3333ZM4.16667 22.75C4.16667 32.9965 12.5035 41.3333 22.75 41.3333V40.3333C13.0558 40.3333 5.16667 32.4442 5.16667 22.75H4.16667ZM18.3506 31.161C18.8837 31.6997 19.6093 32 20.3627 32V31C19.8749 31 19.4057 30.8055 19.0615 30.4576L18.3506 31.161ZM11.988 24.7447L18.351 31.1614L19.0611 30.4572L12.6981 24.0406L11.988 24.7447ZM12.0049 20.7384C10.8946 21.8402 10.8856 23.6338 11.9882 24.7448L12.698 24.0405C11.9852 23.3222 11.9902 22.1617 12.7093 21.4482L12.0049 20.7384ZM16.0118 20.7556C14.9114 19.6438 13.1154 19.6392 12.0053 20.7379L12.7088 21.4487C13.428 20.7368 14.5908 20.7415 15.301 21.459L16.0118 20.7556ZM20.6035 25.3869L16.0115 20.7553L15.3013 21.4593L19.8933 26.091L20.6035 25.3869ZM29.3581 14.4773L19.8707 25.4113L20.6261 26.0667L30.1134 15.1327L29.3581 14.4773ZM33.3558 14.1941C32.1749 13.1689 30.3814 13.2924 29.3573 14.4782L30.1141 15.1318C30.7748 14.3668 31.9352 14.285 32.7003 14.9492L33.3558 14.1941ZM33.639 18.1918C34.6649 17.01 34.5371 15.2195 33.3558 14.1941L32.7003 14.9492C33.465 15.6131 33.5472 16.772 32.8838 17.5362L33.639 18.1918ZM22.502 31.025L33.639 18.1917L32.8838 17.5363L21.7468 30.3696L22.502 31.025ZM20.4577 31.9997C21.2433 31.9714 21.9856 31.6209 22.5022 31.0248L21.7466 30.3698C21.4139 30.7537 20.9335 30.9819 20.4218 31.0003L20.4577 31.9997ZM20.3627 32H20.4397V31H20.3627V32Z" fill="#1A2C17" mask="url(#path-1-inside-1_2109_58748)"/>
</g>
<defs>
<clipPath id="clip0_2109_58748">
<rect width="56" height="56" fill="white"/>
</clipPath>
</defs>
</svg>
