<svg width="24" height="24" viewBox="0 0 24 24" fill="none" xmlns="http://www.w3.org/2000/svg">
<path d="M2.99922 14.0896C3.22422 14.0896 3.44697 13.9891 3.59397 13.7971L3.92022 13.3734C4.40847 16.2699 6.43722 18.7479 9.31722 19.7476C10.2037 20.0551 11.1135 20.2029 12.0112 20.2029C14.6992 20.2029 17.286 18.8769 18.8347 16.5421C19.0635 16.1971 18.969 15.7314 18.624 15.5026C18.2775 15.2724 17.814 15.3684 17.5837 15.7134C15.897 18.2589 12.6997 19.3359 9.80997 18.3309C7.41222 17.4984 5.73972 15.4111 5.38272 12.9871L6.02472 13.4814C6.35397 13.7326 6.82422 13.6726 7.07622 13.3441C7.32897 13.0156 7.26822 12.5454 6.93972 12.2926C6.93972 12.2926 5.16597 10.9269 5.16147 10.9239C4.78872 10.6366 4.25847 10.4754 3.92097 10.9156L2.40597 12.8829C2.15322 13.2114 2.21397 13.6816 2.54247 13.9344C2.67822 14.0386 2.83947 14.0896 2.99922 14.0896Z" fill="white"/>
<path d="M5.37465 8.49826C5.7189 8.72701 6.18465 8.63251 6.4149 8.28751C8.10165 5.74276 11.3019 4.66576 14.1887 5.67001C16.5864 6.50251 18.2589 8.58976 18.6159 11.0138L17.9739 10.5195C17.6447 10.2675 17.1744 10.3275 16.9224 10.6568C16.6697 10.9853 16.7304 11.4555 17.0589 11.7083C17.0589 11.7083 18.8327 13.0733 18.8372 13.077C19.2167 13.3688 19.7349 13.5323 20.0777 13.0853L21.5927 11.118C21.8454 10.7895 21.7847 10.3193 21.4562 10.0665C21.1277 9.81376 20.6567 9.87526 20.4047 10.2038L20.0784 10.6275C19.5902 7.73101 17.5614 5.25301 14.6814 4.25326C11.1414 3.02476 7.2294 4.34251 5.1639 7.45801C4.93515 7.80376 5.02965 8.26876 5.37465 8.49826Z" fill="white"/>
</svg>
