<svg width="32" height="32" viewBox="0 0 32 32" fill="none" xmlns="http://www.w3.org/2000/svg">
<g clip-path="url(#clip0_2109_58706)">
<path fill-rule="evenodd" clip-rule="evenodd" d="M30.0169 5.95826H19.012C18.9969 5.95826 18.9834 5.9502 18.9771 5.93726L17.8421 3.63501C17.5218 2.9834 16.8455 2.5625 16.1189 2.5625H9.46608C8.407 2.5625 7.54542 3.42432 7.54542 4.48365V6.36671H5.66163C4.60279 6.36671 3.74122 7.22828 3.74122 8.28736V10.1704H1.85816C0.799074 10.1704 -0.0625 11.032 -0.0625 12.0911V27.6331C-0.0625 28.6922 0.799074 29.5538 1.85816 29.5538H22.4092C23.4683 29.5538 24.3299 28.6922 24.3299 27.6331V25.7498H26.2132C27.2723 25.7498 28.1338 24.8882 28.1338 23.8294V21.9463H30.0169C31.076 21.9463 31.9376 21.0848 31.9376 20.0257V7.87941C31.9376 6.82008 31.076 5.95826 30.0169 5.95826ZM22.4092 27.6714H1.85816C1.83716 27.6714 1.81983 27.6543 1.81983 27.6331V12.0911C1.81983 12.0698 1.83716 12.0528 1.85816 12.0528H8.51149C8.51784 12.0528 8.52394 12.055 8.52931 12.0579L8.52996 12.0581C8.53056 12.0583 8.53122 12.0583 8.53175 12.0586C8.53299 12.0594 8.53392 12.0607 8.53484 12.0619C8.53533 12.0625 8.53582 12.0631 8.53635 12.0637C8.5366 12.064 8.53686 12.0642 8.53713 12.0645L8.53957 12.0668C8.54203 12.0691 8.54445 12.0713 8.54591 12.0742L9.68141 14.3772C10.0073 15.0379 10.6675 15.4485 11.4041 15.4485H22.4092C22.4143 15.4485 22.4195 15.4495 22.4241 15.4514C22.4378 15.4573 22.4473 15.471 22.4473 15.4868C22.4473 22.1246 22.4476 27.5726 22.4476 27.6331C22.4476 27.6543 22.4305 27.6714 22.4092 27.6714ZM26.2515 23.8294C26.2515 23.8504 26.2344 23.8675 26.2134 23.8675H24.3299V15.4868C24.3299 14.4275 23.4681 13.5659 22.409 13.5659H11.4041C11.3899 13.5659 11.3762 13.5574 11.3699 13.5445L10.2342 11.2415C9.90847 10.5816 9.24855 10.1704 8.51173 10.1704H5.62355V8.28736C5.62355 8.26612 5.64064 8.24903 5.66163 8.24903H12.3152C12.3299 8.24903 12.343 8.25709 12.3496 8.27076L13.4854 10.5737C13.8116 11.2344 14.4715 11.6448 15.2078 11.6448H26.2134C26.2344 11.6448 26.2515 11.6619 26.2515 11.6831V23.8294ZM30.0552 20.0257C30.0552 20.0469 30.0381 20.064 30.0169 20.064H28.1338V11.6831C28.1338 10.624 27.2725 9.76247 26.2134 9.76247H15.2078C15.1934 9.76247 15.18 9.75392 15.1734 9.74074L14.0379 7.43849C13.7124 6.77735 13.0523 6.36671 12.3152 6.36671H9.42775V4.48365C9.42775 4.46216 9.44484 4.44483 9.46584 4.44483H16.1187C16.1331 4.44483 16.1465 4.45288 16.1531 4.46631L17.2889 6.77003C17.6148 7.43019 18.2749 7.84059 19.012 7.84059H30.0169C30.0379 7.84059 30.055 7.85792 30.055 7.87965V20.0257H30.0552ZM16.6625 23.5791C16.1427 23.5791 15.7214 24.0005 15.7214 24.5203V25.0645C15.7214 25.5842 16.1427 26.0056 16.6625 26.0056C17.1823 26.0056 17.6037 25.5842 17.6037 25.0645V24.5203C17.6037 24.0005 17.1823 23.5791 16.6625 23.5791ZM18.4642 24.5203C18.4642 24.0005 18.8856 23.5791 19.4054 23.5791C19.9251 23.5791 20.3465 24.0005 20.3465 24.5203V25.0645C20.3465 25.5842 19.9251 26.0056 19.4054 26.0056C18.8856 26.0056 18.4642 25.5842 18.4642 25.0645V24.5203Z" fill="#1B1B1B"/>
</g>
<defs>
<clipPath id="clip0_2109_58706">
<rect width="32" height="32" fill="white"/>
</clipPath>
</defs>
</svg>
