<svg width="48" height="48" viewBox="0 0 48 48" fill="none" xmlns="http://www.w3.org/2000/svg">
<g clip-path="url(#clip0_1837_64509)">
<path fill-rule="evenodd" clip-rule="evenodd" d="M22.5938 2.9126C22.5938 2.13595 23.2233 1.50635 24 1.50635H28.3177C29.0268 1.50635 29.625 2.03437 29.713 2.73804L30.1616 6.32342C31.7764 6.74818 33.3037 7.38836 34.7109 8.21102L37.5659 5.99072C38.1257 5.55535 38.9221 5.60495 39.4235 6.10642L43.4 10.0829C43.9015 10.5844 43.9511 11.3808 43.5157 11.9406L41.2955 14.7954C42.1182 16.2025 42.7583 17.7301 43.1829 19.3449L46.7683 19.7934C47.472 19.8814 48 20.4796 48 21.1888V26.8116C48 27.5208 47.472 28.119 46.7683 28.207L43.1829 28.6555C42.7582 30.2704 42.118 31.7976 41.2954 33.2049L43.5157 36.0598C43.9511 36.6196 43.9015 37.416 43.4 37.9175L39.4235 41.894C38.9221 42.3955 38.1257 42.4451 37.5659 42.0097L34.711 39.7895C33.3039 40.6122 31.7763 41.2522 30.1616 41.677L29.713 45.2624C29.625 45.966 29.0268 46.4941 28.3177 46.4941H24C23.2233 46.4941 22.5938 45.8645 22.5938 45.0878V32.9126C22.5938 32.499 22.7758 32.1064 23.0915 31.8392C23.4072 31.572 23.8245 31.4573 24.2324 31.5257C24.6458 31.595 25.0712 31.6313 25.5063 31.6313C29.7176 31.6313 33.1375 28.2114 33.1375 24.0001C33.1375 19.7887 29.7176 16.3688 25.5063 16.3688C25.0712 16.3688 24.6458 16.4052 24.2324 16.4745C23.8245 16.5428 23.4072 16.4281 23.0915 16.1609C22.7758 15.8937 22.5938 15.5011 22.5938 15.0875V2.9126ZM25.4062 4.31885V13.5568C25.4396 13.5565 25.4729 13.5563 25.5063 13.5563C31.2709 13.5563 35.95 18.2354 35.95 24.0001C35.95 29.7647 31.2709 34.4438 25.5063 34.4438C25.4729 34.4438 25.4396 34.4437 25.4062 34.4433V43.6816H27.0764L27.4924 40.3561C27.5673 39.7574 28.0157 39.2732 28.6069 39.1527C30.5735 38.7519 32.4053 37.9773 34.0241 36.9052C34.5274 36.5719 35.1873 36.597 35.6639 36.9676L38.3126 39.0275L40.5335 36.8065L38.4736 34.1578C38.1031 33.6814 38.0779 33.0216 38.4111 32.5183C39.4833 30.8985 40.2579 29.0673 40.6586 27.1009C40.7791 26.5097 41.2633 26.0612 41.862 25.9864L45.1875 25.5703V22.4301L41.862 22.0141C41.2633 21.9392 40.7791 21.4907 40.6586 20.8995C40.2579 18.9329 39.4833 17.1011 38.4112 15.4824C38.0779 14.979 38.103 14.3191 38.4736 13.8426L40.5335 11.1939L38.3126 8.97292L35.6639 11.0328C35.1874 11.4034 34.5276 11.4285 34.0243 11.0953C32.4045 10.023 30.5733 9.24841 28.607 8.84772C28.0157 8.72724 27.5673 8.24304 27.4924 7.64434L27.0764 4.31885H25.4062Z" fill="#D8B465"/>
<path fill-rule="evenodd" clip-rule="evenodd" d="M10.6761 6.02862C11.3326 2.5966 14.3528 0 17.975 0C22.0766 0 25.4062 3.32949 25.4062 7.43128V40.5687C25.4062 44.6705 22.0768 48.0001 17.9751 48.0001C14.3528 48.0001 11.3328 45.4034 10.6762 41.9715C10.599 41.9739 10.5215 41.9751 10.4438 41.9751C6.34207 41.9751 3.01247 38.6455 3.01247 34.5438C3.01247 33.1167 3.41608 31.7827 4.11413 30.6505C1.67553 29.4313 0 26.911 0 24C0 21.0891 1.67547 18.5688 4.11398 17.3496C3.41593 16.2174 3.01237 14.8833 3.01237 13.4563C3.01237 9.35463 6.34197 6.02503 10.4437 6.02503C10.5214 6.02503 10.5989 6.02624 10.6761 6.02862ZM17.975 2.8125C14.2937 2.8125 13.3562 4.88282 13.3562 7.43128C13.3562 7.4846 13.3568 7.53055 13.3583 7.57324C13.3739 8.01674 13.6398 8.72223 13.2937 9C12.9476 9.27777 12.0302 9.09521 11.6006 8.98401C11.2317 8.88855 10.8448 8.83753 10.4437 8.83753C7.89528 8.83753 5.82487 10.9079 5.82487 13.4563C5.82487 14.8617 6.4525 16.1214 7.44903 16.9714C7.86843 17.3292 8.04014 17.899 7.88824 18.4289C7.73634 18.9588 7.28884 19.351 6.74361 19.4322C4.52065 19.7633 2.8125 21.6855 2.8125 24C2.8125 26.3145 4.52063 28.2367 6.74374 28.5678C7.28895 28.6491 7.73643 29.0413 7.88833 29.5712C8.04023 30.1011 7.86854 30.6709 7.44916 31.0286C6.45265 31.8787 5.82497 33.1385 5.82497 34.5438C5.82497 37.0922 7.89537 39.1626 10.4438 39.1626C10.8451 39.1626 11.2319 39.1116 11.6004 39.0161C12.03 38.9049 12.487 39.0029 12.8331 39.2807C13.1793 39.5584 13.374 39.9833 13.3584 40.4269C13.3569 40.4695 13.3563 40.5155 13.3563 40.5688C13.3563 43.1172 15.4267 45.1876 17.9751 45.1876C20.5234 45.1876 22.5938 43.1172 22.5938 40.5687V7.43128C22.5938 4.88282 20.5234 2.8125 17.975 2.8125Z" fill="#D8B465"/>
<path fill-rule="evenodd" clip-rule="evenodd" d="M11.9492 6.02515C12.7259 6.02515 13.3555 6.65475 13.3555 7.4314C13.3555 9.97978 15.4259 12.0502 17.9742 12.0502C18.7509 12.0502 19.3805 12.6798 19.3805 13.4564C19.3805 14.2331 18.7509 14.8627 17.9742 14.8627C13.8726 14.8627 10.543 11.5331 10.543 7.4314C10.543 6.65475 11.1726 6.02515 11.9492 6.02515Z" fill="#D8B465"/>
<path fill-rule="evenodd" clip-rule="evenodd" d="M17.9742 35.95C15.4259 35.95 13.3555 38.0204 13.3555 40.5687C13.3555 41.3454 12.7259 41.975 11.9492 41.975C11.1726 41.975 10.543 41.3454 10.543 40.5687C10.543 36.4671 13.8726 33.1375 17.9742 33.1375C18.7509 33.1375 19.3805 33.7671 19.3805 34.5437C19.3805 35.3204 18.7509 35.95 17.9742 35.95Z" fill="#D8B465"/>
<path fill-rule="evenodd" clip-rule="evenodd" d="M18.7282 25.4063C16.1798 25.4063 14.1094 27.4767 14.1094 30.025C14.1094 30.8017 13.4798 31.4313 12.7031 31.4313C11.9265 31.4313 11.2969 30.8017 11.2969 30.025C11.2969 25.9233 14.6265 22.5938 18.7282 22.5938C19.5048 22.5938 20.1344 23.2233 20.1344 24C20.1344 24.7767 19.5048 25.4063 18.7282 25.4063Z" fill="#D8B465"/>
<path fill-rule="evenodd" clip-rule="evenodd" d="M12.7031 16.5686C13.4798 16.5686 14.1094 17.1982 14.1094 17.9749C14.1094 20.5232 16.1798 22.5936 18.7282 22.5936C19.5048 22.5936 20.1344 23.2232 20.1344 23.9999C20.1344 24.7765 19.5048 25.4061 18.7282 25.4061C14.6265 25.4061 11.2969 22.0765 11.2969 17.9749C11.2969 17.1982 11.9265 16.5686 12.7031 16.5686Z" fill="#D8B465"/>
<path fill-rule="evenodd" clip-rule="evenodd" d="M17.3203 24C17.3203 23.2233 17.9499 22.5938 18.7266 22.5938H23.9984C24.7751 22.5938 25.4047 23.2233 25.4047 24C25.4047 24.7767 24.7751 25.4062 23.9984 25.4062H18.7266C17.9499 25.4062 17.3203 24.7767 17.3203 24Z" fill="#D8B465"/>
</g>
<defs>
<clipPath id="clip0_1837_64509">
<rect width="48" height="48" fill="white"/>
</clipPath>
</defs>
</svg>
