<svg width="10" height="10" viewBox="0 0 10 10" fill="none" xmlns="http://www.w3.org/2000/svg">
<path d="M8.0101 4.28332H5.71677V1.98998C5.71677 1.59332 5.39677 1.27332 5.0001 1.27332C4.60344 1.27332 4.28344 1.59332 4.28344 1.98998V4.28332H1.9901C1.59344 4.28332 1.27344 4.60332 1.27344 4.99998C1.27344 5.39665 1.59344 5.71665 1.9901 5.71665H4.28344V8.00998C4.28344 8.40665 4.60344 8.72665 5.0001 8.72665C5.39677 8.72665 5.71677 8.40665 5.71677 8.00998V5.71665H8.0101C8.40677 5.71665 8.72677 5.39665 8.72677 4.99998C8.72677 4.60332 8.40677 4.28332 8.0101 4.28332Z" fill="black"/>
</svg>
