<svg width="33" height="32" viewBox="0 0 33 32" fill="none" xmlns="http://www.w3.org/2000/svg">
<g clip-path="url(#clip0_2111_13892)">
<path fill-rule="evenodd" clip-rule="evenodd" d="M5.50976 8.80037C6.41345 4.53843 9.84782 1.13693 14.0834 0.251869C21.2532 -1.24601 27.75 4.15156 27.75 11.2494C27.75 13.9737 26.761 16.6025 24.9651 18.6512C23.7383 20.051 23.0625 21.7727 23.0625 23.4993V25.3743C23.0625 26.6219 22.2458 27.6817 21.1192 28.0487C20.7486 30.2384 18.8481 31.9993 16.5 31.9993C14.1513 31.9993 12.2513 30.2378 11.8808 28.0487C10.7542 27.6817 9.93751 26.6219 9.93751 25.3744V23.4994C9.93751 21.7762 9.26401 20.0335 8.08957 18.7133C5.68701 16.0124 4.7467 12.3992 5.50976 8.80037ZM13.8481 28.1806C14.2383 29.2951 15.2949 30.1244 16.5 30.1244C17.7051 30.1244 18.7618 29.2951 19.1519 28.1806H13.8481ZM20.25 26.3119C20.7669 26.3119 21.1875 25.8913 21.1875 25.3744V24.4369H11.8125V25.3744C11.8125 25.8913 12.2331 26.3119 12.75 26.3119H20.25ZM21.2391 22.5619C21.4432 20.7059 22.2476 18.9071 23.5551 17.4154C25.0511 15.7087 25.875 13.5189 25.875 11.2494C25.875 5.34012 20.4685 0.833118 14.467 2.08731C10.9514 2.82187 8.08895 5.67593 7.34401 9.18931C6.70582 12.1989 7.48826 15.2161 9.49063 17.4671C10.7549 18.8884 11.5573 20.7049 11.7611 22.5619H21.2391ZM15.5616 4.68689C15.5616 4.16914 15.9813 3.74939 16.4991 3.74939C20.6351 3.74939 24 7.11389 24 11.2494C24 11.7671 23.5802 12.1869 23.0625 12.1869C22.5447 12.1869 22.125 11.7671 22.125 11.2494C22.125 8.14777 19.6012 5.62439 16.4991 5.62439C15.9813 5.62439 15.5616 5.20464 15.5616 4.68689ZM3.3125 11.2494H1.4375C0.91975 11.2494 0.5 11.6691 0.5 12.1869C0.5 12.7046 0.91975 13.1244 1.4375 13.1244H3.3125C3.83025 13.1244 4.25 12.7046 4.25 12.1869C4.25 11.6691 3.83025 11.2494 3.3125 11.2494ZM2.375 5.23602L3.70082 6.56183C4.06694 6.92796 4.06694 7.52152 3.70082 7.88765C3.33469 8.25383 2.74107 8.25377 2.375 7.88765L1.04919 6.56183C0.683066 6.19571 0.683066 5.60214 1.04919 5.23602C1.41532 4.86989 2.00894 4.86989 2.375 5.23602ZM3.70082 16.486C3.33469 16.1199 2.74107 16.1199 2.375 16.486L1.04919 17.8118C0.683066 18.178 0.683066 18.7715 1.04919 19.1376C1.41525 19.5038 2.00888 19.5038 2.375 19.1376L3.70082 17.8118C4.06694 17.4457 4.06694 16.8521 3.70082 16.486ZM29.6875 11.2494H31.5625C32.0802 11.2494 32.5 11.6691 32.5 12.1869C32.5 12.7046 32.0802 13.1244 31.5625 13.1244H29.6875C29.1698 13.1244 28.75 12.7046 28.75 12.1869C28.75 11.6691 29.1698 11.2494 29.6875 11.2494ZM31.9508 5.23602C31.5848 4.86989 30.9911 4.86989 30.625 5.23602L29.2992 6.56183C28.9331 6.92796 28.9331 7.52152 29.2992 7.88764C29.6653 8.25371 30.2589 8.25377 30.625 7.88764L31.9508 6.56183C32.3169 6.19571 32.3169 5.60214 31.9508 5.23602ZM30.625 16.486L31.9508 17.8118C32.3169 18.178 32.3169 18.7715 31.9508 19.1376C31.5847 19.5038 30.9911 19.5037 30.625 19.1376L29.2992 17.8118C28.9331 17.4457 28.9331 16.8521 29.2992 16.486C29.6653 16.1199 30.2589 16.1199 30.625 16.486Z" fill="#1B1B1B"/>
</g>
<defs>
<clipPath id="clip0_2111_13892">
<rect width="32" height="32" fill="white" transform="translate(0.5)"/>
</clipPath>
</defs>
</svg>
