<svg width="300" height="53" viewBox="0 0 300 53" fill="none" xmlns="http://www.w3.org/2000/svg">
<path d="M43.0671 13.8925C43.3408 14.0331 43.3381 14.3062 43.3864 14.5576C43.8746 17.0584 44.3709 19.5566 44.8537 22.0574C45.5834 25.8289 46.3023 29.6031 47.0293 33.3773C47.0454 33.4584 47.0991 33.5314 47.1366 33.6125C47.4049 33.6369 47.3727 33.4098 47.4022 33.2638C48.6362 27.0834 49.8648 20.9002 51.0935 14.7198C51.1096 14.636 51.1257 14.5495 51.1444 14.4657C51.3188 13.7087 51.3188 13.7222 52.1772 13.7114C56.853 13.66 61.5288 13.5951 66.2018 13.5465C67.9187 13.5276 69.6329 13.5303 71.3497 13.5384C72.4791 13.5438 72.6803 13.7411 72.7206 14.9091C72.7876 16.853 72.8413 18.7969 72.8869 20.7434C73.0478 27.962 73.2034 35.1779 73.3617 42.3965C73.4019 44.2539 73.4717 46.114 73.5066 47.9713C73.5253 49.0095 73.4985 50.0477 73.2329 51.0615C73.1578 51.3535 73.0854 51.6482 72.9727 51.9267C72.7045 52.5918 72.2189 52.954 71.4866 52.9486C70.671 52.9432 69.8555 52.9486 69.04 52.9486C66.4218 52.9486 63.8063 52.9486 61.1881 52.9486C60.8876 52.9486 60.5872 52.9432 60.2867 52.9486C59.9514 52.9513 59.7287 52.7837 59.5597 52.5052C59.3103 52.0916 59.1627 51.6401 59.0715 51.1751C58.9159 50.3694 58.7979 49.5583 58.755 48.7364C58.5994 45.6679 58.7147 42.5993 58.7147 39.5307C58.7147 37.8437 58.7362 36.1593 58.7362 34.4723C58.7362 34.2614 58.6825 34.0505 58.6476 33.8396C58.6316 33.7369 58.5591 33.7072 58.4518 33.745C58.4143 33.7585 58.3472 33.7558 58.3418 33.7748C58.2292 34.1451 58.1031 34.5155 58.0172 34.894C57.0676 39.0603 56.126 43.2265 55.1791 47.3927C54.8437 48.8662 54.4896 50.3343 54.1758 51.8104C54.0604 52.343 53.7787 52.635 53.2637 52.7648C52.8023 52.881 52.3382 52.9432 51.8634 52.9432C48.7757 52.9432 45.6853 52.9486 42.5977 52.9486C42.426 52.9486 42.2543 52.9486 42.0826 52.9243C41.2188 52.8053 40.6555 52.5431 40.4221 51.4563C39.4644 47.0278 38.4262 42.6155 37.4042 38.2005C36.8972 36.0133 36.3633 33.8342 35.8375 31.6551C35.808 31.5362 35.7544 31.4226 35.6337 31.0928C35.5451 33.4611 35.4164 35.6105 35.3922 37.7599C35.3466 42.1694 35.3574 46.579 35.3439 50.9885C35.3439 51.3346 35.3627 51.6806 35.3439 52.0267C35.3117 52.5134 35.1132 52.6891 34.5982 52.7215C34.4265 52.7323 34.2548 52.7242 34.0831 52.7242C30.6521 52.7351 27.2184 52.7513 23.7873 52.7567C23.3608 52.7567 22.9289 52.7351 22.505 52.6864C22.2234 52.6539 22.0409 52.4512 22.0222 52.1619C21.998 51.7753 22.0061 51.3833 22.0061 50.9939C22.0061 42.5182 22.0061 34.0451 22.0061 25.5694C22.0061 25.0935 21.9792 24.6204 21.9632 24.1446C22.2529 23.7688 22.6633 23.5471 23.0442 23.2902C23.9831 22.6576 24.9247 22.0249 25.8636 21.3923C27.9373 22.0601 29.9197 21.3274 31.0303 19.4646C31.3791 18.878 31.6822 18.2588 32.0041 17.6559C32.4199 17.4397 32.8384 17.2342 33.2488 17.0071C35.1642 15.95 37.1493 15.1037 39.3383 14.7874C40.5991 14.6063 41.8626 14.3765 43.0591 13.9034L43.0671 13.8925ZM58.5779 33.6585C58.7389 33.5747 58.7818 33.3936 58.7308 33.1151C58.7067 32.9907 58.6691 32.9475 58.5806 33.0232C58.417 33.161 58.2989 33.326 58.374 33.5612C58.4062 33.6639 58.476 33.6964 58.5752 33.6612L58.5779 33.6585Z" fill="#1B1B1B"/>
<path d="M124.932 34.3831C125.12 34.6751 125.066 34.9833 125.063 35.2807C125.026 39.7767 125.082 44.2728 125.184 48.7689C125.208 49.8476 125.181 50.9291 125.165 52.0105C125.157 52.4917 125.074 52.5782 124.583 52.7026C123.872 52.8783 123.145 52.9459 122.413 52.9486C119.28 52.954 116.149 52.9567 113.016 52.9567C112.844 52.9567 112.672 52.954 112.503 52.9216C112.045 52.8378 111.854 52.6107 111.833 52.1322C111.819 51.8293 111.83 51.5266 111.83 51.2237C111.83 39.3739 111.83 27.5268 111.83 15.6769C111.83 15.3741 111.822 15.0713 111.833 14.7685C111.857 14.2007 112.002 13.9953 112.56 13.8763C112.933 13.7952 113.324 13.7655 113.708 13.7655C121.388 13.7601 129.068 13.7547 136.749 13.7709C138.737 13.7763 140.684 14.1142 142.535 14.8469C145.287 15.9365 147.238 17.8263 148.034 20.7624C148.992 24.3014 148.265 27.4294 145.701 30.0844C144.676 31.1469 143.506 32.0147 142.221 32.7285C141.848 32.9366 141.47 33.1394 141.068 33.3584C141.046 33.8315 141.357 34.1614 141.553 34.5182C144.123 39.2063 146.715 43.8835 149.282 48.5715C149.778 49.4772 150.191 50.4262 150.639 51.3589C150.693 51.4725 150.725 51.6022 150.749 51.7293C150.8 52.0105 150.728 52.27 150.457 52.3782C150.1 52.5188 149.727 52.6296 149.352 52.7053C148.383 52.9054 147.399 52.9784 146.409 52.9865C144.563 53.0027 142.72 52.9865 140.88 52.8162C140.622 52.7918 140.368 52.7783 140.11 52.7621C139.6 52.7296 139.005 52.8513 138.602 52.6242C138.133 52.3593 138.095 51.6671 137.929 51.148C136.381 46.3329 134.318 41.726 132.312 37.0975C131.815 35.9512 131.343 34.7913 130.828 33.6531C130.587 33.1205 130.549 32.988 131.252 32.7339C131.574 32.6176 131.899 32.5041 132.215 32.3716C133.921 31.6633 135.579 30.8576 137.14 29.86C137.972 29.3301 138.836 28.8461 139.684 28.3405C139.861 28.2351 140.164 28.1918 140.107 27.9323C140.046 27.6538 139.759 27.789 139.579 27.816C138.857 27.9215 138.144 28.0756 137.422 28.1702C133.331 28.7055 129.38 29.9086 125.345 30.7089C123.497 31.0766 121.63 31.355 119.771 31.666C119.092 31.7795 118.424 31.9309 117.791 32.2067C117.439 32.3581 117.026 32.5203 117.024 32.9772C117.018 33.4747 117.485 33.5693 117.836 33.6747C119.741 34.2614 121.694 34.4777 123.682 34.3723C124.1 34.3506 124.524 34.229 124.929 34.3723L124.932 34.3831ZM127.738 28.6109C129.624 28.619 131.126 27.2104 131.04 25.4315C130.973 24.031 130.375 22.8604 129.24 22.0168C127.947 21.0598 126.238 21.2896 125.235 22.5521C124.538 23.4308 124.253 24.4501 124.377 25.5667C124.583 27.4105 125.906 28.6001 127.738 28.6082V28.6109Z" fill="#1B1B1B"/>
<path d="M97.7733 38.9413C96.6869 38.9684 95.5977 38.9954 94.5113 39.0197C94.353 39.0143 94.2779 39.1225 94.2752 39.2522C94.2564 39.8957 94.1867 40.5419 94.3342 41.1799C94.3745 44.3755 94.4147 47.5712 94.4496 50.7668C94.4549 51.1967 94.4442 51.632 94.4013 52.0592C94.3476 52.5945 94.1277 52.8189 93.5965 52.9C93.3444 52.9405 93.0841 52.9324 92.8266 52.9351C88.5398 52.9594 84.2557 52.9811 79.9689 53C79.7114 53 79.4539 53 79.1963 52.9946C78.9173 52.9892 78.7188 52.8729 78.5954 52.5999C78.346 52.0456 78.1528 51.4752 78.1287 50.8615C78.1099 50.4289 78.0965 49.999 78.0965 49.5664C78.0965 38.3357 78.1018 27.105 78.1045 15.8716C78.1045 15.5688 78.1367 15.2633 78.0992 14.9659C78.0214 14.3251 78.3513 14.0061 78.8959 13.8277C79.0488 13.9006 79.1856 13.8736 79.3036 13.752C80.8837 13.5627 82.4637 13.5681 84.0518 13.6195C85.6775 13.6708 87.3085 13.6005 88.9368 13.5708C93.8218 13.4789 98.7069 13.4789 103.595 13.5573C104.407 13.5708 105.223 13.5492 106.036 13.5411C106.25 13.5411 106.465 13.5221 106.68 13.533C107.753 13.5897 108.12 13.9547 108.203 15.0416C108.222 15.2984 108.214 15.5607 108.217 15.8175C108.217 18.2372 108.217 20.6542 108.217 23.0739C108.217 23.4119 108.273 23.7607 108.091 24.177C107.221 24.2365 106.331 24.3392 105.44 24.35C102.098 24.3933 98.7551 24.4041 95.4126 24.4284C94.2859 24.4365 94.2618 24.2878 94.2484 25.518C94.243 26.1236 94.2001 26.7265 94.2082 27.3294C94.2162 27.8133 94.3745 27.9377 94.8386 27.9134C96.3354 27.8323 97.835 27.7674 99.3319 27.6646C101.043 27.5484 102.758 27.543 104.472 27.5349C105.118 27.5349 105.754 27.6106 106.384 27.7457C107.16 27.9161 107.232 27.9999 107.254 28.7596C107.262 29.1057 107.254 29.4517 107.254 29.7951C107.254 32.085 107.264 34.375 107.248 36.6622C107.238 38.3195 106.814 38.744 105.167 38.6683C103.061 38.5709 100.971 38.7575 98.8759 38.8927C98.5057 38.771 98.1408 38.8197 97.776 38.9278L97.7733 38.9413Z" fill="#1B1B1B"/>
<path d="M43.0671 13.8925C41.868 14.3684 40.6072 14.5955 39.3464 14.7766C37.1547 15.0929 35.1723 15.9392 33.2569 16.9963C32.8464 17.2234 32.428 17.4288 32.0122 17.6451C32.2804 15.7337 32.8062 13.852 32.597 11.8919C32.8679 9.74252 32.6667 7.57965 32.7552 5.42489C32.7767 4.9085 32.7606 4.38671 32.7177 3.87302C32.6613 3.16198 32.2911 2.67263 31.6098 2.42931C31.0062 2.21302 30.4777 2.45905 30.3007 3.09169C30.2202 3.37556 30.2068 3.68918 30.2095 3.98658C30.2229 5.71147 30.2658 7.43906 30.2685 9.16396C30.2685 9.61546 30.4106 10.1021 30.1021 10.5212C29.512 10.4292 29.3215 9.91826 29.0881 9.48568C28.7609 8.88008 28.4819 8.24744 28.2056 7.6175C27.9802 7.10382 27.8112 6.56851 27.5805 6.05753C27.3149 5.46814 27.0011 4.90039 26.5102 4.4597C26.0729 4.06768 25.4961 4.0055 25.0991 4.29479C24.745 4.55163 24.568 5.09505 24.7557 5.56818C25.3781 7.12815 25.8368 8.75301 26.6389 10.24C27.3713 11.5918 28.2163 12.8084 29.7588 13.3194C30.0887 13.4275 30.2282 13.679 30.196 14.0196C30.0834 15.2633 29.968 16.5096 29.63 17.7181C29.5844 17.883 29.5147 18.0453 29.4342 18.1967C28.9835 19.0618 28.3531 19.6377 27.2988 19.5268C27.044 19.4998 26.7811 19.4809 26.5316 19.5133C25.8368 19.5998 25.4317 20.2406 25.6276 20.93C25.6732 21.0922 25.7859 21.2328 25.869 21.3842C24.9301 22.0168 23.9885 22.6495 23.0496 23.2821C22.6687 23.539 22.2582 23.7607 21.9685 24.1364C21.5232 24.3014 21.1181 24.5366 20.7372 24.8232C20.1846 25.2341 19.5944 25.5937 19.0659 26.029C18.4248 26.5562 17.6495 26.5967 16.8957 26.7346C16.6355 26.7833 16.386 26.6886 16.1741 26.521C15.938 26.3345 15.71 26.1371 15.4713 25.9533C14.6048 25.2936 13.9958 24.515 14.2051 23.3254C14.2265 23.2091 14.1622 23.0766 14.1407 22.9631C13.9127 22.8306 13.7088 22.8955 13.5183 22.9955C12.4963 23.5335 11.3615 23.8634 10.4977 24.6853C10.1517 25.0124 9.73051 25.0367 9.29057 24.934C8.15315 24.6609 7.46372 23.739 7.54151 22.5576C7.56029 22.2602 7.65418 21.9655 7.71857 21.6708C7.76953 21.4275 7.70515 21.2274 7.45835 21.1652C6.29142 20.8678 5.53225 20.0811 4.99036 19.0537C4.7999 18.6941 4.5692 18.4238 4.18559 18.267C3.32715 17.9155 2.80673 17.2423 2.61895 16.3501C2.50896 15.8283 2.22461 15.6526 1.75515 15.5688C0.971835 15.4282 0.413855 14.928 0.169739 14.198C-0.203142 13.0923 0.0517043 12.0541 0.802831 11.1727C1.16498 10.7483 1.61298 10.3941 2.12267 10.1535C5.62614 8.51239 9.25837 7.20926 12.9148 5.97372C13.2367 5.86557 13.58 5.82502 13.9127 5.75743C14.079 5.72228 14.2802 5.74391 14.409 5.65469C15.1708 5.1329 16.099 5.0599 16.9199 4.69492C17.4591 4.4543 18.0707 4.37049 18.6501 4.2272C22.3119 3.31338 25.9334 2.25628 29.5469 1.17214C30.6548 0.839594 31.7385 0.431352 32.8384 0.0690706C33.6298 -0.190474 35.0274 0.315098 35.4593 1.02344C35.5666 1.19917 35.6042 1.42627 35.639 1.63445C35.7249 2.14273 35.7946 2.65641 35.8644 3.17009C35.9261 3.62159 36.1299 3.75136 36.5618 3.58374C36.7604 3.50534 36.9535 3.40801 37.1359 3.29716C38.1526 2.68344 39.2579 2.64559 40.3765 2.83755C41.3852 3.01058 41.7983 3.61078 41.4978 4.59759C41.3583 5.05179 41.4334 5.32215 41.7071 5.63306C42.0451 6.01968 42.1577 6.47118 41.9646 6.95782C41.8278 7.30388 41.9646 7.56884 42.206 7.75809C42.8177 8.23933 43.0993 8.89089 43.2737 9.62086C43.3434 9.91015 43.4293 10.2211 43.5956 10.459C43.8907 10.8807 43.9122 11.3241 43.9148 11.8108C43.9175 12.4002 43.8156 12.9138 43.3649 13.3356C43.22 13.4708 43.1664 13.7033 43.0725 13.8925L43.0671 13.8925ZM18.1109 12.6002C18.0036 12.073 17.9071 11.5674 17.7998 11.0646C17.7059 10.6266 17.5127 10.2643 17.1157 10.0129C16.048 9.33428 15.3532 9.45054 14.6102 10.5076C13.7893 11.6756 13.1186 12.9301 12.5285 14.2305C12.4399 14.4251 12.3541 14.6225 12.2468 14.8064C12.2173 14.8577 12.0966 14.8956 12.0349 14.8766C11.9785 14.8604 11.9088 14.7658 11.9034 14.7009C11.8793 14.4008 11.8793 14.098 11.8578 13.7952C11.8015 12.976 11.7425 12.1568 11.6808 11.3403C11.6325 10.6942 11.3508 10.1832 10.7901 9.85067C10.2643 9.53705 9.61516 9.59653 9.11083 10.021C8.71381 10.3535 8.42677 10.8618 8.78624 11.5215C9.01694 11.9432 9.14034 12.3947 9.15107 12.8841C9.19399 14.9226 9.47298 16.926 10.0497 18.8861C10.1705 19.2997 10.259 19.7242 10.3904 20.1324C10.5487 20.6137 10.9001 20.9192 11.3562 21.1111C12.1556 21.4491 12.7216 21.2112 12.9013 20.3568C13.3145 18.4021 14.1568 16.5934 14.7496 14.6982C14.916 14.1656 15.1252 13.6384 15.5008 13.2085C15.5491 13.1518 15.659 13.1058 15.7261 13.122C15.7932 13.1382 15.8817 13.2275 15.8951 13.2977C15.9461 13.5492 15.9863 13.806 15.9997 14.0602C16.0346 14.8388 16.0346 15.6174 16.0883 16.3934C16.1178 16.8205 16.1795 17.2585 16.3136 17.6641C16.4772 18.1696 16.9226 18.3616 17.4188 18.4238C17.8588 18.4778 18.1673 18.2697 18.3577 17.8912C18.5321 17.5451 18.7011 17.1936 18.8433 16.834C19.2054 15.9094 19.5461 14.9767 19.9083 14.0521C20.1926 13.3275 20.5172 12.6219 20.9357 11.9649C21.035 11.8108 21.1718 11.6837 21.3435 11.6864C21.5205 11.6891 21.6251 11.8378 21.6949 12.0135C21.9283 12.6164 22.1563 13.222 22.4246 13.8114C22.6794 14.3738 23.0898 14.8145 23.6344 15.1173C24.8121 15.7688 25.649 15.5174 26.6389 14.5684C26.9125 14.3062 27.1352 13.9466 26.934 13.5194C26.7462 13.1247 26.4189 12.9598 25.987 13.0031C25.9012 13.0112 25.8154 13.0112 25.7295 13.0193C25.3003 13.0598 24.9864 12.8949 24.7718 12.511C24.4767 11.9838 24.1602 11.4701 23.8651 10.9429C23.6559 10.5671 23.4681 10.1778 23.2723 9.79119C22.9825 9.21262 22.4836 8.899 21.9041 8.68272C21.4615 8.5178 21.0484 8.58539 20.6916 8.87467C20.4609 9.06122 20.257 9.29102 20.0746 9.52624C19.5461 10.2102 19.1223 10.9618 18.7279 11.7324C18.5777 12.0271 18.5241 12.3975 18.1109 12.6002Z" fill="#D8B465"/>
<path d="M135.861 52.5891C134.941 52.7323 127.861 52.5809 126.947 52.3944C126.973 52.2268 126.981 52.051 127.032 51.8915C128.025 48.8121 128.709 45.657 129.412 42.5047C129.439 42.3803 129.487 42.2586 129.535 42.1397C129.549 42.1045 129.597 42.0586 129.626 42.0613C129.699 42.064 129.785 42.0748 129.836 42.118C129.897 42.1721 129.932 42.2586 129.973 42.3343C131.668 45.7733 133.602 49.0717 135.764 52.2349C135.834 52.3349 135.931 52.4404 135.858 52.5864L135.861 52.5891Z" fill="#1B1B1B"/>
<path d="M25.8717 21.3815C25.7885 21.2301 25.6759 21.0895 25.6303 20.9273C25.4344 20.2406 25.8395 19.5998 26.5343 19.5106C26.7865 19.4782 27.0494 19.4971 27.3015 19.5241C28.3585 19.635 28.9862 19.0618 29.4369 18.194C29.5173 18.0426 29.5871 17.8803 29.6327 17.7154C29.9707 16.5069 30.0861 15.2606 30.1987 14.0169C30.2309 13.6763 30.0914 13.4248 29.7615 13.3167C28.219 12.8057 27.3713 11.5891 26.6416 10.2373C25.8368 8.75031 25.3808 7.12545 24.7584 5.56547C24.568 5.08964 24.745 4.54892 25.1018 4.29208C25.4988 4.0028 26.0783 4.06768 26.5128 4.457C27.0037 4.89769 27.3176 5.46274 27.5832 6.05482C27.8139 6.5658 27.9829 7.10112 28.2082 7.6148C28.4845 8.24473 28.7662 8.87737 29.0908 9.48298C29.3242 9.91555 29.5147 10.4265 30.1048 10.5185C30.4133 10.0994 30.2712 9.61275 30.2712 9.16125C30.2712 7.43636 30.2282 5.70876 30.2121 3.98387C30.2121 3.68377 30.2229 3.37286 30.3033 3.08898C30.4804 2.45905 31.0089 2.21302 31.6124 2.4266C32.2911 2.66722 32.6613 3.15928 32.7204 3.87032C32.7633 4.38671 32.7794 4.9058 32.7579 5.42218C32.6694 7.57695 32.8733 9.73982 32.5996 11.8892C32.8089 13.8493 32.2831 15.7337 32.0148 17.6424C31.6902 18.2453 31.3898 18.8644 31.0411 19.4511C29.9331 21.3139 27.948 22.0466 25.8744 21.3788L25.8717 21.3815Z" fill="white"/>
<path d="M58.5806 33.6585C58.4813 33.6936 58.4116 33.6612 58.3794 33.5585C58.3016 33.3233 58.4196 33.161 58.586 33.0205C58.6745 32.9448 58.7147 32.988 58.7362 33.1124C58.7871 33.3908 58.7442 33.572 58.5833 33.6558L58.5806 33.6585Z" fill="#1B1B1B"/>
<path d="M18.1109 12.6002C18.5241 12.3975 18.5777 12.0271 18.7279 11.7324C19.1196 10.9618 19.5434 10.2102 20.0746 9.52624C20.257 9.29102 20.4609 9.06122 20.6916 8.87467C21.0484 8.58539 21.4615 8.5178 21.9041 8.68272C22.4836 8.899 22.9825 9.21262 23.2723 9.79119C23.4654 10.1778 23.6559 10.5644 23.8651 10.9429C24.1575 11.4701 24.4767 11.9838 24.7718 12.511C24.9864 12.8922 25.3003 13.0598 25.7295 13.0193C25.8154 13.0112 25.9012 13.0112 25.987 13.0031C26.4189 12.9598 26.7462 13.1247 26.934 13.5194C27.1379 13.9466 26.9125 14.3062 26.6389 14.5684C25.649 15.5174 24.8121 15.7688 23.6344 15.1173C23.0898 14.8172 22.6794 14.3765 22.4246 13.8114C22.159 13.222 21.9283 12.6164 21.6949 12.0135C21.6278 11.8378 21.5205 11.6891 21.3435 11.6864C21.1718 11.6837 21.035 11.8108 20.9357 11.9649C20.5172 12.6246 20.1926 13.3302 19.9083 14.0521C19.5461 14.9767 19.2054 15.9094 18.8433 16.834C18.7011 17.1936 18.5348 17.5451 18.3577 17.8912C18.1646 18.2724 17.8561 18.4778 17.4188 18.4238C16.9226 18.3616 16.4799 18.1696 16.3136 17.6641C16.1822 17.2585 16.1178 16.8205 16.0883 16.3934C16.0346 15.6174 16.0346 14.8388 15.9997 14.0602C15.989 13.8033 15.9461 13.5492 15.8951 13.2977C15.8817 13.2275 15.7932 13.1382 15.7261 13.122C15.659 13.1058 15.5517 13.1518 15.5008 13.2085C15.1225 13.6384 14.9133 14.1656 14.7496 14.6982C14.1595 16.5934 13.3145 18.3994 12.9013 20.3568C12.7216 21.2112 12.1583 21.4491 11.3562 21.1111C10.9001 20.9192 10.546 20.6137 10.3904 20.1324C10.2563 19.7242 10.1705 19.2997 10.0497 18.8861C9.47567 16.926 9.19399 14.9226 9.15107 12.8841C9.14034 12.3947 9.01694 11.9432 8.78624 11.5215C8.42677 10.8645 8.71381 10.3562 9.11083 10.021C9.61516 9.59653 10.2617 9.53705 10.7901 9.85067C11.3508 10.1832 11.6325 10.6942 11.6808 11.3403C11.7425 12.1595 11.8015 12.976 11.8578 13.7952C11.8793 14.098 11.8766 14.4008 11.9034 14.7009C11.9088 14.7658 11.9758 14.8604 12.0349 14.8766C12.0966 14.8929 12.2146 14.8577 12.2468 14.8064C12.3568 14.6225 12.4399 14.4251 12.5285 14.2305C13.1186 12.9301 13.792 11.6756 14.6102 10.5076C15.3532 9.45054 16.048 9.33428 17.1157 10.0129C17.51 10.2643 17.7059 10.6266 17.7998 11.0646C17.9071 11.5674 18.0036 12.073 18.1109 12.6002Z" fill="white"/>
<path d="M168.654 31.8038V30.747L169.584 30.5659V24.2553L168.654 24.0741V23.0113H172.811C173.479 23.0113 174.055 23.13 174.539 23.3676C175.023 23.6011 175.395 23.9292 175.655 24.3519C175.915 24.7706 176.044 25.2597 176.044 25.8193C176.044 26.3789 175.915 26.8701 175.655 27.2928C175.395 27.7115 175.023 28.0376 174.539 28.2711C174.055 28.5006 173.479 28.6153 172.811 28.6153H171.336V30.5659L172.271 30.747V31.8038H168.654ZM171.336 27.2566H172.811C173.299 27.2566 173.667 27.1237 173.915 26.858C174.167 26.5883 174.293 26.2461 174.293 25.8314C174.293 25.4087 174.167 25.0604 173.915 24.7867C173.667 24.5089 173.299 24.37 172.811 24.37H171.336V27.2566Z" fill="#1B1B1B"/>
<path d="M180.609 31.9307C180.022 31.9307 179.486 31.8199 179.002 31.5985C178.518 31.3771 178.1 31.0671 177.748 30.6685C177.4 30.2659 177.132 29.7949 176.944 29.2554C176.756 28.7119 176.662 28.1181 176.662 27.474V27.3411C176.662 26.701 176.756 26.1112 176.944 25.5717C177.132 25.0282 177.4 24.5552 177.748 24.1526C178.096 23.75 178.512 23.438 178.996 23.2166C179.48 22.9952 180.016 22.8844 180.603 22.8844C181.195 22.8844 181.735 22.9952 182.223 23.2166C182.711 23.438 183.131 23.75 183.483 24.1526C183.835 24.5552 184.105 25.0282 184.293 25.5717C184.485 26.1112 184.581 26.701 184.581 27.3411V27.474C184.581 28.1181 184.485 28.7119 184.293 29.2554C184.105 29.7949 183.835 30.2659 183.483 30.6685C183.131 31.0671 182.711 31.3771 182.223 31.5985C181.739 31.8199 181.201 31.9307 180.609 31.9307ZM180.609 30.5598C181.105 30.5598 181.517 30.431 181.845 30.1733C182.173 29.9157 182.419 29.5554 182.583 29.0924C182.751 28.6294 182.835 28.0899 182.835 27.474V27.329C182.835 26.7211 182.751 26.1877 182.583 25.7287C182.415 25.2658 182.165 24.9054 181.833 24.6478C181.505 24.3901 181.095 24.2613 180.603 24.2613C180.116 24.2613 179.71 24.3901 179.386 24.6478C179.062 24.9014 178.818 25.2577 178.654 25.7167C178.494 26.1756 178.414 26.7131 178.414 27.329V27.474C178.414 28.0899 178.494 28.6294 178.654 29.0924C178.818 29.5554 179.062 29.9157 179.386 30.1733C179.714 30.431 180.122 30.5598 180.609 30.5598Z" fill="#1B1B1B"/>
<path d="M185.282 31.8038V30.747L186.212 30.5659V24.2553L185.282 24.0741V23.0113H189.421C190.093 23.0113 190.669 23.1159 191.149 23.3253C191.629 23.5346 191.997 23.8346 192.253 24.2251C192.513 24.6156 192.643 25.0846 192.643 25.6321C192.643 26.1474 192.515 26.6084 192.259 27.015C192.003 27.4216 191.647 27.7417 191.191 27.9752C190.735 28.2087 190.209 28.3275 189.613 28.3315H187.964V30.5659L188.9 30.747V31.8038H185.282ZM190.903 31.8038L189.433 28.0054L191.011 27.6129L192.283 30.5719L193.027 30.747V31.8038H190.903ZM187.964 26.9728H189.391C189.895 26.9728 190.271 26.8661 190.519 26.6527C190.771 26.4353 190.897 26.1213 190.897 25.7106C190.897 25.304 190.773 24.9799 190.525 24.7384C190.277 24.4928 189.909 24.37 189.421 24.37H187.964V26.9728Z" fill="#1B1B1B"/>
<path d="M195.438 31.8038V30.747L196.374 30.5659V24.37H194.784L194.688 25.4208H193.363V23.0113H201.155V25.4208H199.823L199.727 24.37H198.125V30.5659L199.067 30.747V31.8038H195.438Z" fill="#1B1B1B"/>
<path d="M200.597 31.8038V30.747L201.221 30.6565L203.998 23.0113H205.792L208.551 30.6565L209.175 30.747V31.8038H206.2V30.747L206.805 30.6383L206.421 29.4306H203.35L202.966 30.6383L203.572 30.747V31.8038H200.597ZM203.764 28.1322H206.008L204.988 25.1188L204.904 24.8531H204.868L204.778 25.1369L203.764 28.1322Z" fill="#1B1B1B"/>
<path d="M209.757 31.8038V30.747L210.687 30.5659V24.2553L209.757 24.0741V23.0113H213.368V24.0741L212.438 24.2553V30.5659L213.368 30.747V31.8038H209.757Z" fill="#1B1B1B"/>
<path d="M214.04 31.8038V30.747L214.97 30.5659V24.2553L214.04 24.0741V23.0113H217.777V24.0741L216.721 24.2553V30.4511H219.187L219.271 29.1649H220.608V31.8038H214.04Z" fill="#1B1B1B"/>
<path d="M227.039 31.9307C226.459 31.9307 225.955 31.826 225.527 31.6166C225.099 31.4073 224.767 31.1154 224.531 30.741C224.299 30.3666 224.183 29.9318 224.183 29.4366C224.183 28.9817 224.303 28.5871 224.543 28.253C224.783 27.9148 225.147 27.5706 225.635 27.2203C225.655 27.2042 225.675 27.1881 225.695 27.172C225.719 27.1559 225.741 27.1418 225.761 27.1298C225.489 26.7594 225.285 26.4212 225.149 26.1152C225.017 25.8093 224.951 25.4973 224.951 25.1792C224.951 24.7122 225.049 24.3076 225.245 23.9654C225.441 23.6232 225.717 23.3575 226.073 23.1683C226.433 22.9791 226.853 22.8844 227.333 22.8844C227.757 22.8844 228.129 22.977 228.448 23.1622C228.772 23.3434 229.024 23.587 229.204 23.8929C229.388 24.1989 229.48 24.5411 229.48 24.9195C229.48 25.3141 229.382 25.6744 229.186 26.0005C228.99 26.3266 228.722 26.6124 228.382 26.858L227.825 27.2566L229.48 29.2011C229.624 28.9595 229.736 28.6979 229.816 28.416C229.896 28.1342 229.936 27.8363 229.936 27.5223H231.244C231.244 28.0779 231.176 28.5892 231.04 29.0562C230.904 29.5232 230.696 29.9378 230.416 30.3002L231.664 31.7736L231.652 31.8038H229.708L229.246 31.2664C228.906 31.4878 228.556 31.6549 228.197 31.7676C227.837 31.8763 227.451 31.9307 227.039 31.9307ZM227.129 30.5779C227.341 30.5779 227.553 30.5518 227.765 30.4994C227.977 30.4431 228.18 30.3605 228.376 30.2519L226.577 28.1503L226.463 28.2288C226.259 28.4221 226.119 28.6113 226.043 28.7965C225.971 28.9777 225.935 29.1608 225.935 29.346C225.935 29.7043 226.045 30.0002 226.265 30.2337C226.485 30.4632 226.773 30.5779 227.129 30.5779ZM227.033 26.3024L227.549 25.9643C227.773 25.8193 227.923 25.6704 227.999 25.5174C228.079 25.3644 228.119 25.1973 228.119 25.0162C228.119 24.8149 228.045 24.6357 227.897 24.4787C227.753 24.3217 227.563 24.2432 227.327 24.2432C227.067 24.2432 226.867 24.3318 226.727 24.5089C226.587 24.682 226.517 24.8994 226.517 25.1611C226.517 25.3342 226.559 25.5134 226.643 25.6986C226.731 25.8797 226.861 26.081 227.033 26.3024Z" fill="#1B1B1B"/>
<path d="M234.927 31.8038V30.747L235.857 30.5659V24.2553L234.927 24.0741V23.0113H238.538V24.0741L237.608 24.2553V30.5659L238.538 30.747V31.8038H234.927Z" fill="#1B1B1B"/>
<path d="M239.21 31.8038V30.747L240.14 30.5659V24.2553L239.21 24.0741V23.0113H241.915L245.718 29.1105L245.754 29.1045V24.2553L244.639 24.0741V23.0113H248.256V24.0741L247.32 24.2553V31.8038H245.628L241.741 25.765L241.705 25.771V30.5659L242.827 30.747V31.8038H239.21Z" fill="#1B1B1B"/>
<path d="M250.841 31.8038V30.747L251.777 30.5659V24.37H250.187L250.091 25.4208H248.766V23.0113H256.558V25.4208H255.226L255.13 24.37H253.529V30.5659L254.47 30.747V31.8038H250.841Z" fill="#1B1B1B"/>
<path d="M257.17 31.8038V30.747L258.1 30.5659V24.2553L257.17 24.0741V23.0113H261.309C261.981 23.0113 262.557 23.1159 263.036 23.3253C263.516 23.5346 263.884 23.8346 264.14 24.2251C264.4 24.6156 264.53 25.0846 264.53 25.6321C264.53 26.1474 264.402 26.6084 264.146 27.015C263.89 27.4216 263.534 27.7417 263.078 27.9752C262.623 28.2087 262.097 28.3275 261.501 28.3315H259.851V30.5659L260.787 30.747V31.8038H257.17ZM262.791 31.8038L261.321 28.0054L262.899 27.6129L264.17 30.5719L264.914 30.747V31.8038H262.791ZM259.851 26.9728H261.279C261.783 26.9728 262.159 26.8661 262.407 26.6527C262.659 26.4353 262.785 26.1213 262.785 25.7106C262.785 25.304 262.661 24.9799 262.413 24.7384C262.165 24.4928 261.797 24.37 261.309 24.37H259.851V26.9728Z" fill="#1B1B1B"/>
<path d="M265.526 31.8038V30.747L266.15 30.6565L268.927 23.0113H270.721L273.48 30.6565L274.104 30.747V31.8038H271.129V30.747L271.734 30.6383L271.351 29.4306H268.279L267.895 30.6383L268.501 30.747V31.8038H265.526ZM268.693 28.1322H270.937L269.917 25.1188L269.833 24.8531H269.797L269.707 25.1369L268.693 28.1322Z" fill="#1B1B1B"/>
<path d="M274.686 31.8038V30.747L275.616 30.5659V24.2553L274.686 24.0741V23.0113H277.391L281.194 29.1105L281.23 29.1045V24.2553L280.115 24.0741V23.0113H283.732V24.0741L282.796 24.2553V31.8038H281.104L277.217 25.765L277.181 25.771V30.5659L278.303 30.747V31.8038H274.686Z" fill="#1B1B1B"/>
<path d="M284.308 31.8038V30.747L285.237 30.5659V24.2553L284.308 24.0741V23.0113H291.086V25.3845H289.742L289.664 24.37H286.989V26.5802H289.946V27.939H286.989V30.4511H289.808L289.886 29.4004H291.218V31.8038H284.308Z" fill="#1B1B1B"/>
<path d="M294.283 31.8038V30.747L295.219 30.5659V24.37H293.629L293.533 25.4208H292.208V23.0113H300V25.4208H298.668L298.572 24.37H296.971V30.5659L297.912 30.747V31.8038H294.283Z" fill="#1B1B1B"/>
<path d="M171.069 50.3552L169.321 43.5537L168.688 43.4761V42.8187H171.115V43.4761L170.339 43.5951L171.316 47.7412L171.542 48.7092L171.573 48.7144L171.871 47.7464L173.378 42.8187H174.267L175.789 47.7464L176.082 48.7713H176.113L176.38 47.7464L177.347 43.5951L176.509 43.4761V42.8187H178.895V43.4761L178.303 43.5537L176.627 50.3552H175.666L174.041 45.1376L173.835 44.3767H173.804L173.604 45.1376L171.974 50.3552H171.069Z" fill="#646363"/>
<path d="M179.615 50.3552V49.703L180.453 49.5581V45.5569L179.615 45.412V44.7546H181.466V49.5581L182.304 49.703V50.3552H179.615ZM180.401 43.3726V42.2804H181.466V43.3726H180.401Z" fill="#646363"/>
<path d="M182.951 50.3552V49.703L183.79 49.5581V43.0827L182.951 42.9378V42.2804H184.802V49.5581L185.641 49.703V50.3552H182.951ZM186.525 50.3552V49.703L187.091 49.6357L187.075 49.615L185.466 47.5238L185.99 46.7112L188.237 49.5788L189.039 49.703V50.3552H186.525ZM184.73 48.7351L184.355 47.9328L186.772 45.5103L186.797 45.4793L186.201 45.412V44.7546H188.597V45.412L187.882 45.5466L184.73 48.7351Z" fill="#646363"/>
<path d="M189.589 50.3552V49.703L190.427 49.5581V45.5569L189.589 45.412V44.7546H191.44V49.5581L192.278 49.703V50.3552H189.589ZM190.376 43.3726V42.2804H191.44V43.3726H190.376Z" fill="#646363"/>
<path d="M195.219 51.0022L198.346 42.8187H199.199L196.078 51.0022H195.219Z" fill="#646363"/>
<path d="M204.341 50.3552V49.703L205.179 49.5581V43.59H203.482L203.333 44.6356H202.572V42.8187H208.794V44.6356H208.043L207.889 43.59H206.192V49.5581L207.03 49.703V50.3552H204.341Z" fill="#646363"/>
<path d="M211.637 50.4639C211.123 50.4639 210.679 50.3431 210.305 50.1016C209.935 49.8566 209.649 49.5201 209.447 49.0922C209.244 48.6609 209.143 48.1691 209.143 47.617V47.5031C209.143 46.951 209.244 46.461 209.447 46.0331C209.649 45.6018 209.935 45.2636 210.305 45.0186C210.679 44.7736 211.119 44.6511 211.627 44.6511C212.141 44.6511 212.583 44.7736 212.953 45.0186C213.327 45.2636 213.615 45.6 213.817 46.0279C214.019 46.4558 214.12 46.9476 214.12 47.5031V47.617C214.12 48.1726 214.019 48.6661 213.817 49.0974C213.615 49.5253 213.328 49.86 212.958 50.1016C212.588 50.3431 212.148 50.4639 211.637 50.4639ZM211.637 49.6668C211.959 49.6668 212.228 49.5788 212.444 49.4028C212.663 49.2234 212.828 48.9801 212.938 48.673C213.051 48.3624 213.107 48.0104 213.107 47.617V47.5031C213.107 47.1098 213.051 46.7595 212.938 46.4524C212.828 46.1418 212.663 45.8985 212.444 45.7225C212.225 45.5431 211.952 45.4534 211.627 45.4534C211.304 45.4534 211.034 45.5431 210.814 45.7225C210.595 45.8985 210.43 46.1418 210.321 46.4524C210.211 46.7595 210.156 47.1098 210.156 47.5031V47.617C210.156 48.0104 210.211 48.3624 210.321 48.673C210.43 48.9801 210.595 49.2234 210.814 49.4028C211.037 49.5788 211.311 49.6668 211.637 49.6668Z" fill="#646363"/>
<path d="M217.601 50.4639C217.087 50.4639 216.643 50.3431 216.27 50.1016C215.899 49.8566 215.613 49.5201 215.411 49.0922C215.209 48.6609 215.107 48.1691 215.107 47.617V47.5031C215.107 46.951 215.209 46.461 215.411 46.0331C215.613 45.6018 215.899 45.2636 216.27 45.0186C216.643 44.7736 217.084 44.6511 217.591 44.6511C218.105 44.6511 218.547 44.7736 218.917 45.0186C219.291 45.2636 219.579 45.6 219.781 46.0279C219.984 46.4558 220.085 46.9476 220.085 47.5031V47.617C220.085 48.1726 219.984 48.6661 219.781 49.0974C219.579 49.5253 219.293 49.86 218.923 50.1016C218.552 50.3431 218.112 50.4639 217.601 50.4639ZM217.601 49.6668C217.923 49.6668 218.193 49.5788 218.408 49.4028C218.628 49.2234 218.792 48.9801 218.902 48.673C219.015 48.3624 219.072 48.0104 219.072 47.617V47.5031C219.072 47.1098 219.015 46.7595 218.902 46.4524C218.792 46.1418 218.628 45.8985 218.408 45.7225C218.189 45.5431 217.917 45.4534 217.591 45.4534C217.269 45.4534 216.998 45.5431 216.779 45.7225C216.559 45.8985 216.395 46.1418 216.285 46.4524C216.175 46.7595 216.12 47.1098 216.12 47.5031V47.617C216.12 48.0104 216.175 48.3624 216.285 48.673C216.395 48.9801 216.559 49.2234 216.779 49.4028C217.001 49.5788 217.276 49.6668 217.601 49.6668Z" fill="#646363"/>
<path d="M220.712 50.3552V49.703L221.55 49.5581V43.0827L220.712 42.9378V42.2804H222.563V49.5581L223.401 49.703V50.3552H220.712Z" fill="#646363"/>
<path d="M227.082 50.4639C226.719 50.4639 226.404 50.3949 226.136 50.2569C225.869 50.1154 225.646 49.9083 225.468 49.6357L225.375 50.3552H224.501V43.0827L223.663 42.9378V42.2804H225.514V45.4172C225.689 45.1687 225.905 44.9789 226.162 44.8478C226.423 44.7166 226.726 44.6511 227.072 44.6511C227.532 44.6511 227.922 44.777 228.244 45.0289C228.57 45.2774 228.819 45.6276 228.99 46.0797C229.165 46.5318 229.252 47.058 229.252 47.6584V47.7671C229.252 48.3055 229.165 48.7765 228.99 49.1802C228.819 49.584 228.57 49.8997 228.244 50.1275C227.922 50.3518 227.535 50.4639 227.082 50.4639ZM226.825 49.6357C227.302 49.6357 227.655 49.4649 227.885 49.1233C228.118 48.7817 228.234 48.3296 228.234 47.7671V47.6584C228.234 47.2271 228.183 46.8492 228.08 46.5248C227.977 46.197 227.821 45.9417 227.612 45.7588C227.403 45.5724 227.137 45.4793 226.815 45.4793C226.503 45.4793 226.239 45.5552 226.023 45.707C225.811 45.8589 225.641 46.0624 225.514 46.3178V48.792C225.641 49.0508 225.812 49.2561 226.028 49.408C226.248 49.5598 226.513 49.6357 226.825 49.6357Z" fill="#646363"/>
<path d="M232.738 50.4639C232.224 50.4639 231.78 50.3431 231.407 50.1016C231.036 49.8566 230.75 49.5201 230.548 49.0922C230.346 48.6609 230.245 48.1691 230.245 47.617V47.5031C230.245 46.951 230.346 46.461 230.548 46.0331C230.75 45.6018 231.036 45.2636 231.407 45.0186C231.78 44.7736 232.221 44.6511 232.728 44.6511C233.242 44.6511 233.684 44.7736 234.055 45.0186C234.428 45.2636 234.716 45.6 234.918 46.0279C235.121 46.4558 235.222 46.9476 235.222 47.5031V47.617C235.222 48.1726 235.121 48.6661 234.918 49.0974C234.716 49.5253 234.43 49.86 234.06 50.1016C233.69 50.3431 233.249 50.4639 232.738 50.4639ZM232.738 49.6668C233.061 49.6668 233.33 49.5788 233.546 49.4028C233.765 49.2234 233.929 48.9801 234.039 48.673C234.152 48.3624 234.209 48.0104 234.209 47.617V47.5031C234.209 47.1098 234.152 46.7595 234.039 46.4524C233.929 46.1418 233.765 45.8985 233.546 45.7225C233.326 45.5431 233.054 45.4534 232.728 45.4534C232.406 45.4534 232.135 45.5431 231.916 45.7225C231.696 45.8985 231.532 46.1418 231.422 46.4524C231.312 46.7595 231.258 47.1098 231.258 47.5031V47.617C231.258 48.0104 231.312 48.3624 231.422 48.673C231.532 48.9801 231.696 49.2234 231.916 49.4028C232.138 49.5788 232.413 49.6668 232.738 49.6668Z" fill="#646363"/>
<path d="M235.726 50.3552V49.703L236.343 49.584L238.003 47.5238L236.379 45.531L235.828 45.412V44.7546H238.009V45.412L237.453 45.4741L238.595 46.9027L239.705 45.4689L239.109 45.412V44.7546H241.253V45.412L240.687 45.531L239.181 47.5083L240.914 49.584L241.489 49.703V50.3552H239.129V49.703L239.798 49.6461L238.579 48.1502L237.397 49.6461L237.998 49.703V50.3552H235.726Z" fill="#646363"/>
<path d="M246.888 50.4639C246.436 50.4639 246.047 50.3518 245.721 50.1275C245.399 49.8997 245.152 49.584 244.981 49.1802C244.809 48.7765 244.724 48.3055 244.724 47.7671V47.6584C244.724 47.058 244.809 46.5318 244.981 46.0797C245.152 45.6276 245.401 45.2774 245.726 45.0289C246.052 44.777 246.443 44.6511 246.898 44.6511C247.228 44.6511 247.517 44.7132 247.767 44.8374C248.021 44.9582 248.237 45.1342 248.415 45.3654V43.0827L247.577 42.9378V42.2804H249.428V49.5581L250.266 49.703V50.3552H248.549L248.467 49.6875C248.285 49.9428 248.062 50.1361 247.798 50.2672C247.538 50.3983 247.234 50.4639 246.888 50.4639ZM247.145 49.6357C247.447 49.6357 247.701 49.5667 247.906 49.4287C248.112 49.2906 248.282 49.0957 248.415 48.8438V46.2453C248.285 46.0107 248.115 45.8243 247.906 45.6863C247.697 45.5483 247.447 45.4793 247.156 45.4793C246.833 45.4793 246.568 45.5724 246.359 45.7588C246.15 45.9417 245.994 46.197 245.891 46.5248C245.788 46.8492 245.736 47.2271 245.736 47.6584V47.7671C245.736 48.3296 245.851 48.7817 246.081 49.1233C246.311 49.4649 246.665 49.6357 247.145 49.6357Z" fill="#646363"/>
<path d="M253.47 50.4639C252.955 50.4639 252.508 50.3466 252.128 50.1119C251.747 49.8738 251.452 49.5443 251.243 49.1233C251.038 48.7023 250.935 48.2157 250.935 47.6636V47.4359C250.935 46.9044 251.043 46.43 251.259 46.0124C251.478 45.5914 251.768 45.2601 252.128 45.0186C252.491 44.7736 252.887 44.6511 253.315 44.6511C253.816 44.6511 254.234 44.7546 254.57 44.9616C254.909 45.1687 255.165 45.4603 255.336 45.8364C255.507 46.2091 255.593 46.6491 255.593 47.1563V47.793H251.984L251.968 47.8189C251.975 48.1778 252.037 48.497 252.153 48.7765C252.273 49.0525 252.445 49.2699 252.667 49.4287C252.89 49.5874 253.158 49.6668 253.47 49.6668C253.812 49.6668 254.112 49.6185 254.369 49.5219C254.63 49.4218 254.854 49.2855 255.043 49.1129L255.439 49.7755C255.24 49.9687 254.976 50.1326 254.647 50.2672C254.321 50.3983 253.929 50.4639 253.47 50.4639ZM252.014 46.9959H254.58V46.8613C254.58 46.5921 254.532 46.3523 254.436 46.1418C254.344 45.9279 254.203 45.7605 254.015 45.6397C253.829 45.5155 253.596 45.4534 253.315 45.4534C253.089 45.4534 252.883 45.5207 252.698 45.6553C252.513 45.7864 252.361 45.9658 252.241 46.1936C252.121 46.4213 252.042 46.6801 252.004 46.97L252.014 46.9959Z" fill="#646363"/>
<path d="M259.11 50.3552V49.703L259.948 49.5581V43.621L259.11 43.4761V42.8187H261.3L263.712 48.5384H263.743L266.077 42.8187H268.334V43.4761L267.496 43.621V49.5581L268.334 49.703V50.3552H265.645V49.703L266.529 49.5581V44.2111L266.504 44.2059L264.072 50.0861H263.398L260.884 44.2163L260.858 44.2215L260.894 47.3737V49.5581L261.799 49.703V50.3552H259.11Z" fill="#646363"/>
<path d="M269.234 50.3552V49.703L270.072 49.5581V43.621L269.234 43.4761V42.8187H274.864V44.6304H274.052L273.939 43.6107H271.085V46.2195H273.825V47.0218H271.085V49.5581L271.923 49.703V50.3552H269.234Z" fill="#646363"/>
<path d="M275.692 50.3552V49.703L276.53 49.5581V43.621L275.692 43.4761V42.8239H279.029C279.574 42.8239 280.033 42.9067 280.407 43.0723C280.784 43.2345 281.07 43.4709 281.265 43.7815C281.461 44.0921 281.559 44.4716 281.559 44.9202C281.559 45.3619 281.463 45.7329 281.271 46.0331C281.082 46.3333 280.813 46.5611 280.463 46.7164C280.114 46.8682 279.699 46.9493 279.219 46.9596L277.543 46.9907V49.5581L278.381 49.703V50.3552H275.692ZM280.633 50.3552L278.967 46.5921L279.98 46.5818L281.363 49.5943L281.882 49.6875V50.3552H280.633ZM277.543 46.1884H278.926C279.492 46.1884 279.903 46.0797 280.16 45.8623C280.417 45.6449 280.546 45.3274 280.546 44.9099C280.546 44.513 280.422 44.199 280.175 43.9678C279.929 43.7366 279.546 43.621 279.029 43.621H277.543V46.1884Z" fill="#646363"/>
</svg>
