<svg width="172" height="60" viewBox="0 0 172 60" fill="none" xmlns="http://www.w3.org/2000/svg">
<g clip-path="url(#clip0_1171_12045)">
<path d="M49.1748 15.7246C49.4866 15.8837 49.4835 16.1928 49.5386 16.4774C50.0949 19.3084 50.6605 22.1362 51.2108 24.9671C52.0423 29.2364 52.8616 33.5088 53.69 37.7812C53.7084 37.873 53.7695 37.9556 53.8123 38.0474C54.118 38.075 54.0813 37.8179 54.115 37.6526C55.5212 30.6565 56.9213 23.6572 58.3215 16.6611C58.3398 16.5662 58.3581 16.4683 58.3795 16.3734C58.5782 15.5165 58.5782 15.5318 59.5565 15.5195C64.8849 15.4614 70.2134 15.3879 75.5387 15.3328C77.4952 15.3114 79.4487 15.3145 81.4052 15.3237C82.6922 15.3298 82.9215 15.5532 82.9674 16.8753C83.0438 19.0758 83.1049 21.2762 83.1569 23.4797C83.3403 31.6511 83.5176 39.8194 83.698 47.9908C83.7438 50.0934 83.8233 52.1989 83.8631 54.3015C83.8845 55.4767 83.8539 56.6519 83.5513 57.7996C83.4657 58.1301 83.3831 58.4637 83.2547 58.7789C82.949 59.5318 82.3957 59.9419 81.5611 59.9357C80.6318 59.9296 79.7024 59.9357 78.7731 59.9357C75.7894 59.9357 72.8088 59.9357 69.8251 59.9357C69.4827 59.9357 69.1403 59.9296 68.798 59.9357C68.4158 59.9388 68.1621 59.7491 67.9695 59.4338C67.6852 58.9656 67.517 58.4545 67.4131 57.9281C67.2358 57.0161 67.1013 56.0979 67.0524 55.1676C66.8751 51.694 67.0065 48.2204 67.0065 44.7468C67.0065 42.837 67.031 40.9304 67.031 39.0207C67.031 38.782 66.9698 38.5432 66.9301 38.3045C66.9118 38.1882 66.8292 38.1546 66.7069 38.1974C66.6641 38.2127 66.5877 38.2097 66.5816 38.2311C66.4532 38.6504 66.3095 39.0696 66.2117 39.4981C65.1295 44.2142 64.0565 48.9304 62.9773 53.6465C62.5952 55.3145 62.1917 56.9763 61.834 58.6473C61.7025 59.2502 61.3816 59.5807 60.7946 59.7276C60.2688 59.8592 59.7399 59.9296 59.1988 59.9296C55.6802 59.9296 52.1585 59.9357 48.6398 59.9357C48.4441 59.9357 48.2485 59.9357 48.0528 59.9082C47.0685 59.7735 46.4265 59.4767 46.1605 58.2464C45.0692 53.2334 43.8861 48.2387 42.7214 43.241C42.1436 40.7651 41.5352 38.2984 40.936 35.8317C40.9024 35.697 40.8413 35.5685 40.7037 35.1951C40.6028 37.8761 40.4561 40.3091 40.4286 42.7422C40.3766 47.7338 40.3888 52.7253 40.3735 57.7169C40.3735 58.1087 40.3949 58.5004 40.3735 58.8921C40.3369 59.443 40.1106 59.6419 39.5237 59.6787C39.328 59.6909 39.1324 59.6817 38.9367 59.6817C35.0268 59.694 31.1138 59.7123 27.2038 59.7185C26.7177 59.7185 26.2255 59.694 25.7425 59.6389C25.4215 59.6021 25.2137 59.3726 25.1923 59.0452C25.1647 58.6075 25.1739 58.1637 25.1739 57.723C25.1739 48.1285 25.1739 38.5371 25.1739 28.9426C25.1739 28.404 25.1433 27.8684 25.125 27.3298C25.4552 26.9044 25.9229 26.6534 26.357 26.3627C27.427 25.6465 28.5 24.9304 29.5699 24.2142C31.933 24.9702 34.1922 24.1408 35.4578 22.0321C35.8552 21.368 36.2007 20.6672 36.5675 19.9847C37.0414 19.7399 37.5183 19.5073 37.986 19.2502C40.1687 18.0536 42.4309 17.0957 44.9255 16.7376C46.3623 16.5325 47.8022 16.2724 49.1656 15.7368L49.1748 15.7246ZM66.8506 38.0995C67.034 38.0046 67.0829 37.7996 67.0249 37.4843C66.9973 37.3435 66.9546 37.2946 66.8537 37.3803C66.6672 37.5364 66.5327 37.723 66.6183 37.9893C66.655 38.1056 66.7344 38.1423 66.8476 38.1025L66.8506 38.0995Z" fill="#D8B465"/>
<path d="M142.466 38.9198C142.68 39.2503 142.619 39.5992 142.616 39.9358C142.573 45.0254 142.638 50.1149 142.754 55.2044C142.781 56.4255 142.751 57.6497 142.732 58.8739C142.723 59.4186 142.629 59.5166 142.069 59.6573C141.259 59.8563 140.43 59.9328 139.596 59.9358C136.025 59.942 132.458 59.945 128.887 59.945C128.691 59.945 128.496 59.942 128.303 59.9052C127.78 59.8104 127.563 59.5533 127.539 59.0116C127.524 58.6688 127.536 58.326 127.536 57.9833C127.536 44.5694 127.536 31.1585 127.536 17.7446C127.536 17.4018 127.527 17.059 127.539 16.7163C127.566 16.0736 127.732 15.841 128.367 15.7063C128.792 15.6145 129.239 15.5808 129.676 15.5808C138.428 15.5747 147.18 15.5686 155.933 15.5869C158.198 15.5931 160.417 15.9756 162.527 16.805C165.663 18.0384 167.886 20.1776 168.794 23.5013C169.885 27.5074 169.057 31.0483 166.134 34.0537C164.966 35.2564 163.633 36.2388 162.169 37.0468C161.744 37.2824 161.313 37.512 160.855 37.7599C160.83 38.2954 161.185 38.6688 161.408 39.0728C164.337 44.3796 167.29 49.6742 170.215 54.981C170.781 56.0062 171.252 57.0805 171.762 58.1363C171.823 58.2648 171.86 58.4117 171.887 58.5556C171.946 58.8739 171.863 59.1677 171.554 59.2901C171.148 59.4492 170.723 59.5747 170.295 59.6604C169.191 59.8869 168.069 59.9695 166.941 59.9787C164.838 59.9971 162.738 59.9787 160.641 59.7859C160.347 59.7583 160.057 59.743 159.763 59.7247C159.182 59.6879 158.504 59.8257 158.045 59.5686C157.51 59.2687 157.467 58.4852 157.278 57.8976C155.514 52.4469 153.163 47.2319 150.876 41.9925C150.311 40.6948 149.773 39.3819 149.186 38.0935C148.911 37.4905 148.868 37.3406 149.669 37.0529C150.036 36.9213 150.406 36.7928 150.766 36.6428C152.711 35.841 154.6 34.929 156.379 33.7997C157.327 33.1998 158.311 32.652 159.277 32.0797C159.479 31.9603 159.824 31.9114 159.76 31.6176C159.69 31.3023 159.363 31.4553 159.158 31.486C158.336 31.6053 157.522 31.7798 156.7 31.8869C152.038 32.4928 147.535 33.8547 142.937 34.7606C140.831 35.1769 138.703 35.4921 136.585 35.844C135.811 35.9726 135.05 36.144 134.329 36.4561C133.928 36.6275 133.457 36.8111 133.454 37.3283C133.448 37.8915 133.98 37.9986 134.381 38.1179C136.551 38.7821 138.777 39.0269 141.042 38.9075C141.519 38.883 142.002 38.7453 142.463 38.9075L142.466 38.9198ZM145.664 32.3857C147.813 32.3949 149.525 30.8004 149.427 28.7866C149.351 27.2013 148.669 25.8762 147.376 24.9213C145.903 23.8379 143.955 24.098 142.812 25.5273C142.017 26.5219 141.693 27.6757 141.834 28.9397C142.069 31.0269 143.576 32.3735 145.664 32.3827V32.3857Z" fill="#D8B465"/>
<path d="M111.519 44.0795C110.281 44.1101 109.04 44.1408 107.802 44.1683C107.621 44.1622 107.536 44.2846 107.533 44.4315C107.511 45.1599 107.432 45.8913 107.6 46.6136C107.646 50.231 107.692 53.8485 107.732 57.4659C107.738 57.9525 107.725 58.4453 107.676 58.9288C107.615 59.5348 107.365 59.7888 106.759 59.8806C106.472 59.9265 106.175 59.9173 105.882 59.9204C100.997 59.9479 96.1147 59.9724 91.2296 59.9939C90.9361 59.9939 90.6426 59.9939 90.3492 59.9877C90.0312 59.9816 89.805 59.85 89.6644 59.5409C89.3801 58.9135 89.16 58.2678 89.1325 57.573C89.1111 57.0834 89.0958 56.5968 89.0958 56.1071C89.0958 43.394 89.1019 30.6809 89.1049 17.9648C89.1049 17.622 89.1416 17.2762 89.0988 16.9395C89.0102 16.2142 89.3862 15.8531 90.0068 15.6511C90.181 15.7337 90.3369 15.7031 90.4714 15.5654C92.272 15.3512 94.0726 15.3573 95.8824 15.4154C97.735 15.4736 99.5937 15.394 101.449 15.3603C107.016 15.2563 112.583 15.2563 118.153 15.345C119.079 15.3603 120.009 15.3359 120.935 15.3267C121.179 15.3267 121.424 15.3053 121.669 15.3175C122.891 15.3818 123.31 15.7949 123.405 17.0252C123.426 17.316 123.417 17.6128 123.42 17.9036C123.42 20.6427 123.42 23.3787 123.42 26.1178C123.42 26.5004 123.484 26.8952 123.277 27.3665C122.286 27.4338 121.271 27.5501 120.256 27.5623C116.447 27.6113 112.638 27.6235 108.829 27.6511C107.545 27.6603 107.518 27.4919 107.502 28.8844C107.496 29.57 107.447 30.2525 107.456 30.9349C107.466 31.4828 107.646 31.6235 108.175 31.596C109.881 31.5042 111.59 31.4307 113.295 31.3144C115.246 31.1828 117.199 31.1767 119.153 31.1675C119.889 31.1675 120.614 31.2532 121.332 31.4062C122.216 31.5991 122.298 31.6939 122.323 32.5539C122.332 32.9457 122.323 33.3374 122.323 33.7261C122.323 36.3183 122.335 38.9105 122.317 41.4996C122.304 43.3756 121.821 43.8561 119.944 43.7704C117.545 43.6603 115.163 43.8714 112.776 44.0245C112.354 43.8867 111.938 43.9418 111.522 44.0642L111.519 44.0795Z" fill="#D8B465"/>
<path d="M49.1802 15.7245C47.8137 16.2632 46.3769 16.5202 44.9401 16.7253C42.4425 17.0834 40.1833 18.0413 38.0006 19.2379C37.5329 19.495 37.056 19.7276 36.5821 19.9724C36.8878 17.8087 37.487 15.6786 37.2486 13.4598C37.5573 11.0267 37.328 8.57839 37.4289 6.13922C37.4534 5.55467 37.435 4.96401 37.3861 4.38252C37.3219 3.57763 36.9001 3.02369 36.1236 2.74825C35.4357 2.50341 34.8335 2.78191 34.6317 3.49805C34.54 3.8194 34.5247 4.17441 34.5278 4.51106C34.5431 6.46362 34.592 8.41925 34.595 10.3718C34.595 10.8829 34.7571 11.4338 34.4055 11.9082C33.733 11.8041 33.5159 11.2257 33.2499 10.736C32.877 10.0505 32.5591 9.33432 32.2442 8.62124C31.9874 8.03975 31.7948 7.43378 31.5319 6.85536C31.2292 6.18818 30.8716 5.54549 30.3121 5.04664C29.8138 4.60287 29.1566 4.53248 28.7041 4.85995C28.3006 5.15069 28.0988 5.76584 28.3128 6.30142C29.0221 8.0673 29.5448 9.90662 30.4589 11.5899C31.2934 13.1201 32.2564 14.4973 34.0142 15.0757C34.3902 15.1981 34.5492 15.4828 34.5125 15.8684C34.3841 17.2762 34.2527 18.687 33.8675 20.0551C33.8155 20.2417 33.736 20.4254 33.6443 20.5968C33.1307 21.5761 32.4123 22.228 31.2109 22.1025C30.9205 22.0719 30.6209 22.0505 30.3366 22.0872C29.5448 22.1851 29.0832 22.9104 29.3064 23.6909C29.3583 23.8745 29.4867 24.0336 29.5815 24.205C28.5115 24.9212 27.4385 25.6373 26.3685 26.3534C25.9344 26.6442 25.4667 26.8951 25.1365 27.3205C24.6291 27.5072 24.1675 27.7735 23.7334 28.0979C23.1036 28.5631 22.4311 28.9701 21.8288 29.4629C21.0982 30.0596 20.2147 30.1056 19.3557 30.2616C19.0591 30.3167 18.7748 30.2096 18.5333 30.0199C18.2643 29.8087 18.0045 29.5853 17.7324 29.3772C16.745 28.6304 16.051 27.749 16.2895 26.4024C16.3139 26.2708 16.2405 26.1209 16.2161 25.9923C15.9562 25.8424 15.7239 25.9158 15.5069 26.029C14.3421 26.6381 13.049 27.0114 12.0646 27.9418C11.6703 28.3121 11.1903 28.3397 10.6889 28.2234C9.39276 27.9143 8.6071 26.8707 8.69576 25.5332C8.71715 25.1966 8.82415 24.863 8.89752 24.5294C8.9556 24.254 8.88224 24.0275 8.60099 23.9571C7.27117 23.6205 6.40603 22.7299 5.78851 21.5669C5.57146 21.1599 5.30855 20.8538 4.87139 20.6763C3.89314 20.2785 3.30007 19.5164 3.08608 18.5065C2.96074 17.9158 2.63669 17.7169 2.10171 17.622C1.20905 17.4629 0.573185 16.8967 0.294994 16.0704C-0.129935 14.8186 0.160484 13.6434 1.01646 12.6457C1.42916 12.1652 1.93968 11.7643 2.52052 11.4919C6.51302 9.63424 10.6523 8.15911 14.819 6.76049C15.1859 6.63807 15.5772 6.59216 15.9562 6.51565C16.1458 6.47587 16.3751 6.50035 16.5218 6.39936C17.39 5.80869 18.4477 5.72606 19.3832 5.3129C19.9977 5.04052 20.6947 4.94564 21.355 4.78344C25.5278 3.74901 29.6549 2.55238 33.7727 1.32514C35.0353 0.948705 36.2703 0.486578 37.5237 0.0764783C38.4255 -0.217324 40.0182 0.354979 40.5104 1.15681C40.6327 1.35574 40.6755 1.61282 40.7153 1.84848C40.8131 2.42384 40.8926 3.00532 40.972 3.58681C41.0424 4.0979 41.2747 4.2448 41.7669 4.05506C41.9931 3.9663 42.2132 3.85613 42.4211 3.73065C43.5797 3.03593 44.8392 2.99308 46.114 3.21037C47.2634 3.40624 47.7342 4.08566 47.3918 5.20272C47.2329 5.71688 47.3185 6.02292 47.6303 6.37487C48.0155 6.81252 48.1439 7.32361 47.9238 7.87449C47.7679 8.26623 47.9238 8.56615 48.1989 8.78038C48.8959 9.32514 49.2169 10.0627 49.4156 10.889C49.4951 11.2165 49.5929 11.5684 49.7824 11.8378C50.1187 12.3152 50.1432 12.8171 50.1462 13.368C50.1493 14.0352 50.0331 14.6166 49.5195 15.0941C49.3545 15.2471 49.2933 15.5103 49.1863 15.7245H49.1802ZM20.7405 14.2616C20.6182 13.6648 20.5082 13.0925 20.3859 12.5233C20.2789 12.0275 20.0588 11.6174 19.6063 11.3328C18.3896 10.5646 17.5979 10.6962 16.7511 11.8929C15.8156 13.215 15.0514 14.635 14.3788 16.1071C14.2779 16.3274 14.1801 16.5508 14.0578 16.759C14.0242 16.8171 13.8866 16.86 13.8163 16.8385C13.7521 16.8202 13.6726 16.7131 13.6665 16.6396C13.639 16.2999 13.639 15.9571 13.6145 15.6144C13.5503 14.687 13.4831 13.7597 13.4128 12.8355C13.3577 12.104 13.0368 11.5256 12.3978 11.1492C11.7987 10.7942 11.0589 10.8615 10.4841 11.342C10.0317 11.7184 9.70458 12.2938 10.1142 13.0405C10.3771 13.5179 10.5178 14.029 10.53 14.583C10.5789 16.8906 10.8968 19.1583 11.5541 21.3772C11.6917 21.8454 11.7925 22.3259 11.9423 22.788C12.1227 23.3328 12.5232 23.6786 13.0429 23.8959C13.9539 24.2785 14.5989 24.0091 14.8037 23.042C15.2745 20.8293 16.2344 18.7819 16.91 16.6365C17.0996 16.0336 17.338 15.4368 17.766 14.9502C17.821 14.886 17.9464 14.8339 18.0228 14.8523C18.0992 14.8707 18.2001 14.9717 18.2154 15.0512C18.2735 15.3359 18.3193 15.6266 18.3346 15.9143C18.3744 16.7957 18.3744 17.6771 18.4355 18.5554C18.4691 19.039 18.5394 19.5348 18.6923 19.9938C18.8788 20.5662 19.3862 20.7834 19.9518 20.8538C20.4532 20.915 20.8047 20.6794 21.0218 20.2509C21.2205 19.8592 21.4131 19.4613 21.5751 19.0543C21.9878 18.0076 22.376 16.9518 22.7887 15.9051C23.1128 15.0849 23.4827 14.2861 23.9596 13.5424C24.0727 13.368 24.2286 13.2241 24.4243 13.2272C24.626 13.2303 24.7452 13.3986 24.8247 13.5975C25.0907 14.28 25.3505 14.9655 25.6562 15.6327C25.9467 16.2693 26.4144 16.7681 27.035 17.1109C28.377 17.8485 29.3308 17.5639 30.4589 16.4896C30.7707 16.1928 31.0244 15.7857 30.7951 15.3022C30.5811 14.8554 30.2082 14.6687 29.716 14.7176C29.6182 14.7268 29.5204 14.7268 29.4225 14.736C28.9334 14.7819 28.5757 14.5952 28.3312 14.1606C27.9949 13.5639 27.6342 12.9824 27.2979 12.3856C27.0594 11.9602 26.8454 11.5195 26.6223 11.0818C26.2921 10.4269 25.7235 10.0719 25.0632 9.82705C24.5588 9.64037 24.088 9.71688 23.6814 10.0443C23.4185 10.2555 23.1862 10.5157 22.9783 10.7819C22.376 11.5562 21.893 12.407 21.4436 13.2792C21.2724 13.6128 21.2113 14.0321 20.7405 14.2616Z" fill="#1B1B1B"/>
<path d="M154.924 59.5286C153.876 59.6908 145.808 59.5194 144.766 59.3082C144.796 59.1185 144.805 58.9195 144.863 58.739C145.995 55.2531 146.774 51.6816 147.575 48.1131C147.606 47.9723 147.661 47.8346 147.716 47.7C147.731 47.6602 147.786 47.6082 147.82 47.6112C147.902 47.6143 148 47.6265 148.058 47.6755C148.128 47.7367 148.168 47.8346 148.214 47.9203C150.146 51.8132 152.35 55.5469 154.814 59.1277C154.894 59.2409 155.004 59.3603 154.921 59.5255L154.924 59.5286Z" fill="#D8B465"/>
<path d="M29.5838 24.2021C29.489 24.0307 29.3606 23.8715 29.3086 23.6879C29.0855 22.9105 29.5471 22.1852 30.3388 22.0842C30.6262 22.0475 30.9258 22.0689 31.2132 22.0995C32.4176 22.225 33.133 21.5762 33.6466 20.5938C33.7383 20.4224 33.8178 20.2388 33.8697 20.0521C34.2549 18.6841 34.3864 17.2732 34.5148 15.8654C34.5515 15.4798 34.3925 15.1952 34.0165 15.0728C32.2587 14.4943 31.2926 13.1171 30.4611 11.5869C29.544 9.90366 29.0243 8.06434 28.3151 6.29846C28.098 5.75982 28.2998 5.14773 28.7064 4.85699C29.1588 4.52952 29.8191 4.60297 30.3144 5.04368C30.8738 5.54253 31.2315 6.18216 31.5341 6.8524C31.7971 7.43082 31.9896 8.03679 32.2464 8.61828C32.5613 9.33136 32.8823 10.0475 33.2522 10.733C33.5182 11.2227 33.7352 11.8011 34.4078 11.9052C34.7593 11.4308 34.5973 10.8799 34.5973 10.3689C34.5973 8.41629 34.5484 6.46066 34.5301 4.5081C34.5301 4.16839 34.5423 3.81644 34.634 3.49509C34.8358 2.78201 35.438 2.50351 36.1258 2.74528C36.8993 3.01766 37.3211 3.57467 37.3884 4.37956C37.4373 4.96411 37.4556 5.55171 37.4312 6.13626C37.3303 8.57543 37.5626 11.0238 37.2508 13.4568C37.4893 15.6757 36.8901 17.8088 36.5844 19.9695C36.2145 20.6519 35.8721 21.3528 35.4747 22.0169C34.2121 24.1255 31.9499 24.9549 29.5868 24.199L29.5838 24.2021Z" fill="white"/>
<path d="M66.8587 38.0994C66.7456 38.1392 66.6662 38.1024 66.6295 37.9861C66.5408 37.7199 66.6753 37.5363 66.8649 37.3771C66.9657 37.2914 67.0116 37.3404 67.0361 37.4812C67.0941 37.7964 67.0452 38.0014 66.8618 38.0963L66.8587 38.0994Z" fill="#D8B465"/>
<path d="M20.7351 14.2617C21.2059 14.0322 21.2671 13.6129 21.4383 13.2793C21.8846 12.4071 22.3676 11.5563 22.9729 10.782C23.1808 10.5158 23.4131 10.2556 23.676 10.0445C24.0826 9.71698 24.5534 9.64047 25.0578 9.82716C25.7181 10.072 26.2867 10.427 26.6169 11.0819C26.837 11.5196 27.054 11.9572 27.2925 12.3857C27.6257 12.9825 27.9895 13.564 28.3258 14.1607C28.5703 14.5923 28.928 14.782 29.4171 14.7361C29.515 14.7269 29.6128 14.7269 29.7106 14.7178C30.2028 14.6688 30.5758 14.8555 30.7897 15.3023C31.0221 15.7858 30.7653 16.1929 30.4535 16.4897C29.3254 17.564 28.3716 17.8486 27.0296 17.111C26.409 16.7713 25.9413 16.2725 25.6509 15.6328C25.3482 14.9656 25.0853 14.2801 24.8193 13.5976C24.7429 13.3987 24.6206 13.2304 24.4189 13.2273C24.2232 13.2243 24.0673 13.3681 23.9542 13.5425C23.4773 14.2893 23.1074 15.0881 22.7834 15.9052C22.3707 16.9519 21.9824 18.0077 21.5697 19.0544C21.4077 19.4614 21.2181 19.8593 21.0164 20.251C20.7963 20.6826 20.4447 20.9151 19.9464 20.8539C19.3809 20.7836 18.8764 20.5663 18.6869 19.994C18.5371 19.5349 18.4637 19.0391 18.4301 18.5555C18.369 17.6772 18.369 16.7958 18.3292 15.9144C18.317 15.6236 18.2681 15.336 18.21 15.0513C18.1947 14.9718 18.0938 14.8708 18.0174 14.8524C17.941 14.834 17.8187 14.8861 17.7606 14.9503C17.3296 15.437 17.0911 16.0337 16.9047 16.6366C16.2321 18.782 15.2691 20.8264 14.7983 23.0422C14.5935 24.0093 13.9515 24.2786 13.0375 23.896C12.5178 23.6787 12.1143 23.3329 11.937 22.7881C11.7841 22.326 11.6863 21.8455 11.5487 21.3773C10.8945 19.1585 10.5735 16.8907 10.5246 14.5831C10.5124 14.0292 10.3717 13.5181 10.1088 13.0406C9.6992 12.2969 10.0263 11.7216 10.4787 11.3421C11.0535 10.8616 11.7902 10.7943 12.3925 11.1493C13.0314 11.5257 13.3524 12.1041 13.4074 12.8356C13.4777 13.7629 13.545 14.6871 13.6092 15.6145C13.6336 15.9572 13.6306 16.3 13.6611 16.6397C13.6672 16.7132 13.7437 16.8203 13.8109 16.8386C13.8812 16.857 14.0157 16.8172 14.0524 16.7591C14.1778 16.551 14.2725 16.3275 14.3734 16.1072C15.046 14.6351 15.8133 13.2151 16.7457 11.893C17.5925 10.6963 18.3843 10.5647 19.601 11.3329C20.0504 11.6175 20.2735 12.0276 20.3805 12.5234C20.5028 13.0927 20.6128 13.665 20.7351 14.2617Z" fill="white"/>
</g>
<defs>
<clipPath id="clip0_1171_12045">
<rect width="171.818" height="60" fill="white" transform="translate(0.09375)"/>
</clipPath>
</defs>
</svg>
