<svg width="203" height="72" viewBox="0 0 203 72" fill="none" xmlns="http://www.w3.org/2000/svg">
<g clip-path="url(#clip0_1202_12866)">
<path d="M8.98386 68.1881C8.91504 68.7863 8.76151 69.3104 8.51268 69.771C8.26386 70.2316 7.95151 70.6022 7.56504 70.8934C7.17857 71.1792 6.73915 71.3963 6.25209 71.5445C5.75974 71.6928 5.22503 71.7669 4.64797 71.7669C4.10798 71.7669 3.61562 71.7087 3.17092 71.5922C2.72621 71.4757 2.35033 71.3169 2.04327 71.1263C1.73621 70.9304 1.46621 70.6922 1.23327 70.4116C1.00033 70.131 0.80974 69.8451 0.672093 69.5487C0.534446 69.2522 0.42327 68.9292 0.33327 68.5798C0.248564 68.2304 0.190328 67.9022 0.158563 67.5951C0.126798 67.2934 0.116211 66.9757 0.116211 66.6422V66.1181C0.15327 65.5357 0.290917 65.0169 0.523858 64.551C0.7568 64.0904 1.03209 63.7145 1.36562 63.4287C1.69386 63.1428 2.07503 62.9098 2.49856 62.7192C2.92209 62.5287 3.33504 62.4016 3.73739 62.3275C4.13974 62.2534 4.5368 62.2163 4.93386 62.2163C5.57445 62.2163 6.14092 62.2904 6.62798 62.444C7.11504 62.5975 7.51739 62.8145 7.82974 63.0898C8.14209 63.3704 8.38033 63.6881 8.55504 64.0481C8.72974 64.4081 8.84092 64.8104 8.88857 65.2551V65.8269C8.88857 65.954 8.44915 66.0175 7.57562 66.0175C7.36915 66.0175 7.08327 66.0122 6.71268 66.0069C6.34209 66.0016 6.10386 65.9963 5.98739 65.9963C5.96621 65.9963 5.93974 65.9963 5.89739 66.0016C5.86033 66.0069 5.82856 66.0069 5.80739 66.0069C5.70151 66.0069 5.62739 65.9645 5.57445 65.8798C5.5215 65.7951 5.48445 65.6893 5.46856 65.5675C5.45268 65.4457 5.4315 65.3239 5.40503 65.1969C5.37856 65.0751 5.32562 64.9692 5.24621 64.8845C5.1668 64.7998 5.05033 64.7575 4.90739 64.7575C4.76445 64.7575 4.63739 64.784 4.53151 64.8316C4.42562 64.8793 4.34092 64.9534 4.27739 65.054C4.21386 65.1545 4.16092 65.2604 4.11856 65.361C4.07621 65.4616 4.04445 65.5992 4.02856 65.7634C4.01268 65.9275 3.9968 66.0651 3.99151 66.1816C3.98621 66.2928 3.98092 66.4463 3.97562 66.6369C3.97033 66.8275 3.96504 66.9651 3.96504 67.0498C3.96504 67.0975 3.95974 67.1875 3.95445 67.3145C3.94915 67.4416 3.94386 67.5475 3.94386 67.6269C3.94386 68.6169 4.20856 69.1251 4.73268 69.1516C4.87562 69.1516 4.99209 69.0987 5.08209 68.9981C5.17209 68.8975 5.23562 68.781 5.26739 68.6539C5.29915 68.5269 5.3415 68.3945 5.38386 68.2516C5.42621 68.1087 5.47386 68.0134 5.5268 67.9604H8.7668C8.90445 67.9657 8.97327 68.0451 8.98386 68.1881Z" fill="#D8B465"/>
<path d="M10.6777 68.4159C10.6936 66.4624 10.7042 65.0012 10.7042 64.043V63.9689C10.7042 63.9424 10.6989 63.8418 10.6936 63.6724C10.683 63.503 10.683 63.3601 10.683 63.2383C10.683 62.7618 10.7201 62.4918 10.8048 62.4283C10.826 62.4283 10.8524 62.4283 10.8948 62.4336C10.9319 62.4389 10.9636 62.4389 10.9848 62.4389C11.6519 62.4071 12.4248 62.3912 13.3089 62.3912H14.1189C14.1507 62.3965 14.193 62.4071 14.246 62.4283C14.2989 62.4495 14.336 62.4601 14.3571 62.4601C14.3624 62.6559 14.3677 62.9895 14.3836 63.4659C14.3995 63.9424 14.4101 64.3554 14.4154 64.7048C14.4207 65.0542 14.4207 65.3983 14.4207 65.7371V68.0612C14.4207 68.2095 14.426 68.326 14.4313 68.4212C14.4366 68.5165 14.4577 68.6171 14.4895 68.7442C14.5213 68.866 14.5742 68.9612 14.6483 69.0195C14.7224 69.0777 14.823 69.1095 14.9448 69.1095C15.1142 69.1095 15.2466 69.0407 15.3524 68.8977C15.4583 68.7548 15.506 68.5907 15.506 68.4054V66.2242C15.5007 65.9595 15.506 65.5412 15.5166 64.9642C15.5271 64.3871 15.5271 63.9424 15.5219 63.6248V63.1959C15.5219 63.1536 15.5166 63.0848 15.5113 62.9948C15.506 62.9048 15.5007 62.8359 15.5007 62.7883V62.5024C15.5113 62.4124 15.5642 62.3542 15.6542 62.333C16.4166 62.333 17.5601 62.3383 19.0848 62.3595V62.4707H19.3495C19.3177 63.3177 19.3019 64.3024 19.3019 65.4248V66.7589C19.3019 66.9389 19.2966 67.2142 19.2913 67.5795C19.2807 67.9501 19.2807 68.2254 19.2807 68.4001C19.2807 68.9189 19.2013 69.3742 19.0371 69.7712C18.873 70.1683 18.6613 70.486 18.3913 70.7295C18.1266 70.973 17.8036 71.1689 17.4277 71.3277C17.0519 71.4812 16.6707 71.5924 16.2842 71.6507C15.8977 71.7089 15.4848 71.7407 15.0401 71.7407C14.6113 71.7407 14.2089 71.7142 13.833 71.6612C13.4571 71.6083 13.076 71.5024 12.6895 71.3489C12.303 71.1954 11.9748 70.9995 11.6942 70.7612C11.4136 70.523 11.186 70.2054 11.0007 69.803C10.7995 69.406 10.6989 68.9401 10.6777 68.4159Z" fill="#D8B465"/>
<path d="M21.335 63.4235C21.335 62.7776 21.4038 62.4123 21.5361 62.3382C21.5732 62.3435 21.6314 62.3488 21.7055 62.3488H21.8961C22.0179 62.3488 22.2244 62.3435 22.505 62.3382C22.7855 62.3329 23.0026 62.3276 23.1508 62.3276C23.7173 62.3276 24.1726 62.3488 24.5167 62.3965C24.8661 62.4441 25.062 62.5288 25.1044 62.6506L25.0303 68.8024H25.1626C25.4803 68.7865 25.7026 68.7812 25.8297 68.7812C25.9567 68.7812 26.1897 68.7918 26.5285 68.8076C26.8673 68.8235 27.1956 68.8235 27.5079 68.8235C27.7673 68.8235 27.9579 68.8394 28.085 68.8659C28.212 68.8924 28.2703 68.9559 28.2703 69.0459V71.3329C28.2173 71.4759 27.3332 71.55 25.6126 71.55H21.4885C21.3932 71.4123 21.3456 71.19 21.3456 70.8829V69.1888C21.3456 68.6912 21.3508 67.9553 21.3561 66.9812C21.3614 66.0071 21.3667 65.2712 21.3667 64.7735C21.3667 64.6835 21.3614 64.4771 21.3508 64.1647C21.3403 63.8523 21.335 63.6088 21.335 63.4235Z" fill="#D8B465"/>
<path d="M28.0479 64.2441C28.0479 64.17 28.0531 64.0641 28.0584 63.9265C28.069 63.7835 28.069 63.6882 28.069 63.6353C28.069 63.6141 28.0637 63.5453 28.0584 63.4182C28.0531 63.2912 28.0479 63.1853 28.0479 63.0953C28.0479 62.6718 28.0849 62.4653 28.1696 62.4653C28.2014 62.4653 28.2279 62.4706 28.2543 62.4759C29.0855 62.4759 30.3137 62.4653 31.9443 62.4441C33.5749 62.4229 34.7979 62.4124 35.6079 62.4124C35.809 62.4124 35.9361 62.4282 35.9943 62.4653C36.0473 62.5024 36.0737 62.5712 36.0737 62.6718V62.8412C36.0737 63.0476 36.0737 63.3547 36.079 63.7571C36.0843 64.1594 36.0843 64.4665 36.0843 64.6782C36.0843 64.8847 36.0261 64.9906 35.9149 64.9906C35.6926 64.9906 35.359 64.9853 34.9196 64.98C34.4802 64.9747 34.1467 64.9694 33.9243 64.9694V71.3594C33.8979 71.4812 33.829 71.5447 33.7231 71.55C33.5855 71.55 33.379 71.55 33.1143 71.5447C32.8496 71.5394 32.6431 71.5394 32.5055 71.5394C32.4949 71.5394 32.4896 71.5447 32.479 71.55C32.3043 71.55 32.0608 71.55 31.7431 71.5447C31.4255 71.5394 31.1926 71.5394 31.039 71.5394H30.6843C30.6049 71.5447 30.4884 71.55 30.3402 71.55L30.102 71.2641C30.102 70.6606 30.1231 69.7606 30.1602 68.5694C30.1973 67.3782 30.2184 66.4782 30.2184 65.8747C30.2184 65.8482 30.2184 65.8006 30.2131 65.7371C30.2131 65.6735 30.2079 65.6206 30.2079 65.5835C30.2079 65.5412 30.2026 65.4935 30.1973 65.4353C30.192 65.3771 30.1814 65.3294 30.1655 65.2871C30.1496 65.2447 30.1337 65.2129 30.1126 65.1759C30.0914 65.1388 30.0649 65.1124 30.0331 65.0912C30.0014 65.0753 29.959 65.0647 29.9114 65.0647H28.2067C28.1061 65.0382 28.0479 64.7629 28.0479 64.2441Z" fill="#D8B465"/>
<path d="M37.4658 71.5393C37.4817 70.3852 37.5082 69.5381 37.5505 68.9981C37.5505 67.3305 37.577 65.6363 37.6246 63.9211C37.6088 63.5875 37.5982 63.3387 37.5982 63.1799V62.9999C37.5823 62.8252 37.5717 62.6822 37.5717 62.5711C37.5717 62.4969 37.6088 62.4281 37.6776 62.3699C38.3288 62.4175 39.3241 62.444 40.6582 62.444C40.9758 62.444 41.1929 62.4387 41.3146 62.4175V71.534H37.4658V71.5393Z" fill="#D8B465"/>
<path d="M42.7607 62.5924C42.7607 62.4759 42.8296 62.4177 42.9619 62.4177C43.3484 62.4177 43.9096 62.4124 44.6507 62.4071C45.3919 62.4018 45.9425 62.3965 46.3131 62.3965C46.4243 62.3965 46.5196 62.4494 46.599 62.5659L47.626 68.5006C47.6896 68.1194 47.8007 67.5794 47.9649 66.8859C48.129 66.1924 48.2349 65.7318 48.2825 65.5041L48.8807 62.5236C48.9125 62.4283 49.7278 62.3806 51.3266 62.3806H52.2796C52.3537 62.4071 52.4013 62.4759 52.4225 62.5818L51.0884 67.41C51.0619 67.5159 51.009 67.7541 50.9296 68.1247C50.8502 68.4953 50.776 68.8447 50.6966 69.1783C50.6172 69.5118 50.5325 69.8665 50.4319 70.2318C50.3313 70.5971 50.2255 70.8989 50.1143 71.1371C50.0031 71.3753 49.8919 71.513 49.7913 71.55C49.6484 71.55 49.4366 71.5447 49.156 71.5341C48.8755 71.5236 48.6637 71.5183 48.5207 71.5183H48.0919C47.8219 71.5447 47.5255 71.5606 47.2078 71.5659C46.8902 71.5712 46.546 71.5818 46.186 71.5818C45.826 71.5871 45.5349 71.5924 45.3178 71.5977L42.7607 62.5924Z" fill="#D8B465"/>
<path d="M53.1367 66.9018V66.2454C53.1738 65.6895 53.2955 65.1812 53.502 64.7206C53.7032 64.2601 53.9626 63.8736 54.275 63.5612C54.5873 63.2489 54.9473 62.9842 55.3549 62.7671C55.7626 62.5501 56.1914 62.3912 56.6414 62.2959C57.0861 62.1954 57.552 62.1477 58.0285 62.1477C58.2932 62.1477 58.5632 62.1689 58.8491 62.2112C59.135 62.2536 59.4314 62.3224 59.7544 62.4177C60.072 62.513 60.3791 62.6506 60.6702 62.8359C60.9614 63.0212 61.2049 63.2383 61.3955 63.4871C61.7873 63.9689 62.0732 64.4718 62.2532 64.9959C62.4279 65.5201 62.5179 66.1077 62.5179 66.7536C62.5285 68.0983 62.2373 69.1783 61.6338 69.9936L61.3691 70.3536C61.1361 70.6712 60.8079 70.9359 60.3791 71.1477C59.9502 71.3595 59.5214 71.5077 59.0926 71.5871C58.6638 71.6665 58.2297 71.7089 57.7955 71.7089C57.282 71.7089 56.8108 71.6559 56.3767 71.5554C55.9426 71.4548 55.572 71.3118 55.2544 71.1371C54.9367 70.9624 54.6614 70.7506 54.4126 70.5018C54.1638 70.253 53.9626 69.9883 53.8091 69.7077C53.6502 69.4271 53.5232 69.1254 53.4226 68.8024C53.322 68.4742 53.2479 68.1565 53.2055 67.8495C53.1579 67.5477 53.1367 67.2301 53.1367 66.9018ZM57.8802 64.5406C57.7161 64.5406 57.5732 64.5777 57.4408 64.6518C57.3138 64.7259 57.2079 64.8212 57.1232 64.9271C57.0438 65.033 56.9697 65.1812 56.9114 65.3612C56.8532 65.5412 56.8055 65.7054 56.7791 65.8483C56.7526 65.9912 56.7314 66.1765 56.7155 66.3989C56.6997 66.6212 56.6891 66.7906 56.6891 66.9124C56.6891 67.0342 56.6838 67.1877 56.6838 67.3783C56.6838 67.5636 56.6891 67.733 56.7049 67.9024C56.7208 68.0665 56.7473 68.2412 56.7949 68.4265C56.8426 68.6118 56.9008 68.7706 56.975 68.9083C57.0491 69.0459 57.1497 69.1624 57.2767 69.2524C57.4038 69.3424 57.552 69.3954 57.7214 69.4059C57.8961 69.4059 58.0497 69.3795 58.1873 69.3212C58.3197 69.263 58.4361 69.1889 58.5261 69.0989C58.6161 69.0089 58.6955 68.8871 58.7591 68.7389C58.8226 68.5906 58.8702 68.4424 58.9073 68.3048C58.9391 68.1671 58.9655 67.9924 58.9867 67.7859C59.0079 67.5795 59.0132 67.3995 59.0185 67.2512C59.0238 67.103 59.0238 66.9124 59.0238 66.6901C59.0238 66.5206 59.0185 66.3671 59.0079 66.2242C58.9973 66.0812 58.9814 65.9224 58.9549 65.7477C58.9285 65.573 58.8914 65.4195 58.8332 65.2871C58.775 65.1548 58.7114 65.0277 58.632 64.9112C58.5526 64.7948 58.4467 64.7048 58.3197 64.6412C58.1926 64.5777 58.0497 64.5406 57.8802 64.5406Z" fill="#D8B465"/>
<path d="M64.244 71.407V68.7123C64.2334 67.7276 64.2704 65.8482 64.3393 63.0741V62.587C64.3393 62.497 64.3552 62.4493 64.3869 62.4335H68.4899C68.5269 62.4335 68.6116 62.5817 68.7334 62.8888C68.8552 63.1905 69.0034 63.577 69.1728 64.0535C69.3475 64.5299 69.4693 64.8529 69.5381 65.0329L70.3746 67.2141V64.9005C70.3746 64.7046 70.3799 64.3393 70.3904 63.8046C70.401 63.2752 70.401 62.8623 70.401 62.5605C70.401 62.4493 70.7187 62.3911 71.354 62.3911C71.5551 62.3911 71.8252 62.3964 72.1693 62.4017C72.5134 62.407 72.7252 62.4123 72.8046 62.4123H73.2599C73.3234 62.4123 73.3551 62.4229 73.3551 62.4493C73.3816 63.5558 73.3922 65.1335 73.3922 67.1929V71.3276C73.3657 71.4282 73.2387 71.4811 73.011 71.4811H72.8575C72.651 71.4811 72.3493 71.4864 71.9469 71.4917C71.5446 71.497 71.2428 71.5023 71.0363 71.5023H69.284C69.2257 71.4811 69.1146 71.2323 68.9399 70.7505C68.7546 70.2317 68.474 69.4746 68.1034 68.4899C67.7328 67.5052 67.5263 66.9546 67.484 66.8382C67.484 67.0711 67.484 67.4205 67.4787 67.8864C67.4734 68.3523 67.4734 68.7017 67.4734 68.9346C67.4734 69.1093 67.4787 69.3741 67.484 69.7235C67.4893 70.0729 67.4946 70.3376 67.4946 70.5123V71.2641C67.4946 71.4493 67.4152 71.5393 67.2563 71.5393H64.514L64.244 71.407Z" fill="#D8B465"/>
<path d="M79.3691 71.7405C78.898 71.7193 78.4797 71.6822 78.1038 71.6187C77.728 71.5552 77.368 71.4599 77.0238 71.3222C76.6744 71.1846 76.3832 71.0099 76.1503 70.8034C75.9121 70.5969 75.7162 70.3269 75.5627 70.004C75.4038 69.6757 75.3085 69.2999 75.2715 68.871C75.2715 68.7969 75.3085 68.7493 75.3932 68.7387C75.4197 68.744 75.4568 68.7493 75.515 68.7493C75.8432 68.7493 76.3462 68.744 77.0185 68.7228C77.6909 68.7016 78.1885 68.6963 78.5221 68.6963C78.6068 68.6963 78.6703 68.7228 78.718 68.7757C78.7656 68.8287 78.8027 68.8975 78.8344 68.9716C78.8662 69.0457 78.898 69.1252 78.9403 69.2046C78.9827 69.284 79.0515 69.3475 79.1574 69.4005C79.258 69.4534 79.3903 69.4799 79.5491 69.4799C79.745 69.4799 79.9144 69.4269 80.0627 69.3157C80.2109 69.2046 80.285 69.0563 80.285 68.871C80.285 68.7493 80.2215 68.6328 80.0944 68.5322C79.9674 68.4316 79.798 68.3469 79.5915 68.2781C79.385 68.2146 79.1838 68.1563 78.9933 68.1087C78.8027 68.061 78.6121 68.024 78.4109 67.9869C78.2097 67.9552 78.0985 67.934 78.0668 67.9234C77.1033 67.6587 76.4044 67.3357 75.9862 66.944C75.5627 66.5522 75.3509 66.0228 75.3509 65.3452C75.3509 64.8687 75.4356 64.4399 75.6156 64.0587C75.7903 63.6775 76.018 63.3705 76.2985 63.1269C76.5791 62.8887 76.9127 62.6875 77.2991 62.5234C77.6856 62.3646 78.0721 62.2481 78.4691 62.1846C78.8609 62.121 79.2685 62.084 79.6921 62.084C80.8091 62.084 81.6986 62.2905 82.3603 62.7034C82.6038 62.9469 82.7786 63.1269 82.895 63.254C83.0115 63.381 83.1174 63.524 83.2233 63.6934C83.3291 63.8628 83.4033 64.0216 83.4456 64.1858C83.488 64.3446 83.5144 64.5457 83.5303 64.7787L83.3133 64.9957C82.498 65.0275 81.5874 65.0434 80.5709 65.0434C80.4438 65.0434 80.3433 65.0275 80.2638 65.001C80.1844 64.9746 80.1368 64.9375 80.1103 64.8952C80.0838 64.8528 80.0574 64.8052 80.0309 64.7575C80.0044 64.7099 79.9833 64.6622 79.9568 64.6199C79.9303 64.5775 79.888 64.5405 79.8191 64.514C79.7503 64.4875 79.655 64.4716 79.5438 64.4716C79.5121 64.4716 79.4591 64.4769 79.3903 64.4875C79.3215 64.4981 79.2368 64.5193 79.1468 64.5457C79.0515 64.5722 78.9721 64.6093 78.9033 64.6675C78.8344 64.7204 78.8027 64.784 78.8027 64.8528C78.8027 64.9428 78.845 65.0222 78.935 65.091C79.025 65.1652 79.1203 65.2128 79.2156 65.2446C79.3109 65.2763 79.438 65.3134 79.5862 65.3505C79.7344 65.3875 79.8244 65.414 79.8615 65.4246C80.7297 65.6416 81.2433 65.7793 81.4127 65.8322C82.2809 66.1075 82.9003 66.4675 83.2603 66.9122C83.5939 67.3252 83.7633 67.844 83.7633 68.4687C83.7633 68.8446 83.7156 69.1887 83.615 69.501C83.5197 69.8134 83.3874 70.0728 83.2286 70.2899C83.0697 70.5069 82.8686 70.6975 82.6303 70.8616C82.3921 71.031 82.1486 71.1634 81.905 71.2587C81.6615 71.354 81.3809 71.444 81.0738 71.5075C80.7615 71.5763 80.4809 71.624 80.2162 71.6558C79.9515 71.6875 79.6762 71.7246 79.3691 71.7405Z" fill="#D8B465"/>
<path d="M90.1113 63.4235C90.1113 62.7776 90.1801 62.4123 90.3125 62.3382C90.3496 62.3435 90.4078 62.3488 90.4819 62.3488H90.6725C90.7943 62.3488 91.0007 62.3435 91.2813 62.3382C91.5619 62.3329 91.779 62.3276 91.9272 62.3276C92.4937 62.3276 92.949 62.3488 93.2931 62.3965C93.6425 62.4441 93.8384 62.5288 93.8807 62.6506L93.8066 68.8024H93.939C94.2566 68.7865 94.479 68.7812 94.606 68.7812C94.7331 68.7812 94.966 68.7918 95.3048 68.8076C95.6437 68.8235 95.9719 68.8288 96.2843 68.8288C96.5437 68.8288 96.7343 68.8447 96.8613 68.8712C96.9884 68.9029 97.0466 68.9612 97.0466 69.0512V71.3382C96.9937 71.4812 96.1096 71.5553 94.389 71.5553H90.2649C90.1696 71.4176 90.1219 71.1953 90.1219 70.8882V69.1941C90.1219 68.6965 90.1272 67.9606 90.1325 66.9865C90.1378 66.0123 90.1431 65.2765 90.1431 64.7788C90.1431 64.6888 90.1378 64.4823 90.1272 64.17C90.1166 63.8576 90.1113 63.6088 90.1113 63.4235Z" fill="#D8B465"/>
<path d="M98.5605 71.1689V70.9412C98.5605 70.2636 98.5711 69.2577 98.587 67.9289C98.6029 66.6 98.6135 65.5995 98.6135 64.9165V62.4495H105.549V64.403C105.549 64.4136 105.549 64.4453 105.549 64.493C105.549 64.5406 105.549 64.5724 105.549 64.5883C105.549 64.6042 105.549 64.6306 105.543 64.673C105.538 64.7153 105.533 64.7418 105.522 64.7577C105.512 64.7736 105.496 64.7948 105.48 64.8265C105.464 64.8583 105.443 64.8795 105.416 64.8901C105.39 64.9006 105.358 64.9112 105.321 64.9218C105.284 64.9324 105.236 64.9377 105.189 64.9377H105.019C103.992 64.9377 103.05 64.9218 102.208 64.8901C102.198 64.9536 102.187 65.0542 102.171 65.1865C102.155 65.3189 102.139 65.4353 102.129 65.5359C102.118 65.6365 102.113 65.7371 102.113 65.8324H104.951C105.072 65.8324 105.152 65.8483 105.189 65.88C105.226 65.9118 105.247 65.9648 105.247 66.0336C105.247 66.0548 105.247 66.0865 105.242 66.1289C105.236 66.1712 105.236 66.203 105.236 66.2242C105.236 66.4148 105.242 66.6953 105.252 67.0712C105.263 67.4471 105.268 67.7277 105.268 67.9183C105.258 67.9977 105.226 68.04 105.173 68.04C105.146 68.04 105.131 68.0348 105.115 68.0136C103.86 68.0771 102.928 68.1089 102.325 68.1089H102.171V68.9665C102.526 68.9665 103.034 68.9506 103.706 68.9189C104.373 68.8871 104.876 68.8712 105.21 68.8712C105.475 68.8712 105.623 68.9242 105.665 69.0406V69.4959C105.665 69.6865 105.671 69.9671 105.676 70.343C105.686 70.7189 105.686 70.9995 105.686 71.19C105.686 71.3859 105.607 71.4865 105.448 71.4865C105.242 71.4865 104.924 71.4865 104.495 71.4812C104.066 71.4759 103.738 71.4759 103.516 71.4759C102.944 71.4759 102.123 71.4918 101.059 71.5183C99.9953 71.55 99.2223 71.5659 98.7458 71.5712L98.5764 71.3806C98.5658 71.2748 98.5605 71.2006 98.5605 71.1689Z" fill="#D8B465"/>
<path d="M111.112 71.7405C110.641 71.7193 110.223 71.6822 109.847 71.6187C109.471 71.5552 109.111 71.4599 108.767 71.3222C108.418 71.1846 108.126 71.0099 107.893 70.8034C107.655 70.5969 107.459 70.3269 107.306 70.004C107.147 69.6757 107.052 69.2999 107.015 68.871C107.015 68.7969 107.052 68.7493 107.136 68.7387C107.163 68.744 107.2 68.7493 107.258 68.7493C107.586 68.7493 108.089 68.744 108.762 68.7228C109.434 68.7016 109.932 68.6963 110.265 68.6963C110.35 68.6963 110.413 68.7228 110.461 68.7757C110.509 68.8287 110.546 68.8975 110.578 68.9716C110.609 69.0457 110.641 69.1252 110.683 69.2046C110.726 69.284 110.795 69.3475 110.901 69.4005C111.001 69.4534 111.133 69.4799 111.292 69.4799C111.488 69.4799 111.658 69.4269 111.806 69.3157C111.954 69.2046 112.028 69.0563 112.028 68.871C112.028 68.7493 111.965 68.6328 111.838 68.5322C111.711 68.4316 111.541 68.3469 111.335 68.2781C111.128 68.2146 110.927 68.1563 110.736 68.1087C110.546 68.061 110.355 68.024 110.154 67.9869C109.953 67.9552 109.842 67.934 109.81 67.9234C108.846 67.6587 108.148 67.3357 107.729 66.944C107.306 66.5522 107.094 66.0228 107.094 65.3452C107.094 64.8687 107.179 64.4399 107.359 64.0587C107.533 63.6775 107.761 63.3705 108.042 63.1269C108.322 62.8887 108.656 62.6875 109.042 62.5234C109.429 62.3646 109.815 62.2481 110.212 62.1846C110.604 62.121 111.012 62.084 111.435 62.084C112.552 62.084 113.442 62.2905 114.103 62.7034C114.347 62.9469 114.522 63.1269 114.638 63.254C114.755 63.381 114.861 63.524 114.966 63.6934C115.072 63.8628 115.146 64.0216 115.189 64.1858C115.231 64.3446 115.258 64.5457 115.273 64.7787L115.056 64.9957C114.241 65.0275 113.331 65.0434 112.314 65.0434C112.187 65.0434 112.086 65.0275 112.007 65.001C111.928 64.9746 111.88 64.9375 111.853 64.8952C111.827 64.8528 111.801 64.8052 111.774 64.7575C111.748 64.7099 111.726 64.6622 111.7 64.6199C111.673 64.5775 111.631 64.5405 111.562 64.514C111.493 64.4875 111.398 64.4716 111.287 64.4716C111.255 64.4716 111.202 64.4769 111.133 64.4875C111.065 64.4981 110.98 64.5193 110.89 64.5457C110.795 64.5722 110.715 64.6093 110.646 64.6675C110.578 64.7204 110.546 64.784 110.546 64.8528C110.546 64.9428 110.588 65.0222 110.678 65.091C110.768 65.1652 110.863 65.2128 110.959 65.2446C111.054 65.2763 111.181 65.3134 111.329 65.3505C111.478 65.3875 111.568 65.414 111.605 65.4246C112.473 65.6416 112.986 65.7793 113.156 65.8322C114.024 66.1075 114.643 66.4675 115.003 66.9122C115.337 67.3252 115.506 67.844 115.506 68.4687C115.506 68.8446 115.459 69.1887 115.358 69.501C115.263 69.8134 115.131 70.0728 114.972 70.2899C114.813 70.5069 114.612 70.6975 114.373 70.8616C114.135 71.031 113.892 71.1634 113.648 71.2587C113.405 71.354 113.124 71.444 112.817 71.5075C112.505 71.5763 112.224 71.624 111.959 71.6558C111.695 71.6875 111.414 71.7246 111.112 71.7405Z" fill="#D8B465"/>
<path d="M130.489 71.4071C130.405 71.4971 130.219 71.5447 129.939 71.5606C129.658 71.5765 129.314 71.5712 128.906 71.55C128.499 71.5235 128.282 71.5129 128.25 71.5129C127.98 71.5129 127.784 71.5076 127.668 71.5024H127.069C126.985 71.4759 126.911 71.3435 126.847 71.1106C126.789 70.8777 126.731 70.5441 126.672 70.11C126.614 69.6759 126.582 69.4429 126.577 69.4165C126.561 69.0247 126.498 68.7653 126.386 68.6382C126.275 68.5112 126.074 68.4529 125.778 68.4529H125.513V71.3594C125.508 71.4071 125.465 71.4494 125.386 71.4812C125.312 71.5129 125.201 71.5341 125.063 71.5447C124.92 71.5553 124.798 71.5606 124.687 71.5606C124.576 71.5606 124.433 71.5606 124.253 71.5553C124.073 71.55 123.967 71.55 123.925 71.55H123.067C122.58 71.55 122.215 71.5553 121.971 71.5606C121.913 71.5341 121.86 71.5076 121.802 71.4759V62.5818C121.802 62.4706 121.961 62.4124 122.278 62.4124H127.477C128.377 62.4388 129.065 62.6506 129.536 63.0582C130.008 63.4659 130.241 64.0377 130.241 64.7735C130.241 65.7371 129.759 66.4359 128.785 66.8859C128.965 66.9388 129.124 67.0182 129.266 67.1188C129.409 67.2194 129.531 67.3253 129.626 67.4365C129.722 67.5477 129.806 67.6853 129.875 67.8441C129.949 68.0029 130.002 68.1512 130.045 68.2888C130.087 68.4265 130.119 68.5906 130.151 68.7812C130.182 68.9718 130.198 69.1359 130.214 69.2735C130.225 69.4112 130.241 69.5806 130.262 69.7712C130.278 69.9618 130.294 70.1153 130.304 70.2265V70.7506C130.315 70.8141 130.352 70.9041 130.415 71.0206C130.474 71.1371 130.516 71.2218 130.532 71.2747C130.537 71.37 130.521 71.4071 130.489 71.4071ZM125.481 64.9482C125.481 65.1865 125.481 65.3612 125.486 65.4776C125.492 65.5941 125.513 65.7424 125.55 65.9329C125.592 66.1182 125.651 66.2506 125.73 66.33C125.899 66.33 126.053 66.3141 126.206 66.2771C126.36 66.24 126.498 66.1818 126.641 66.1024C126.778 66.0229 126.889 65.9065 126.974 65.7476C127.054 65.5888 127.096 65.4035 127.096 65.1865C127.096 65.0647 127.075 64.9535 127.032 64.8635C126.99 64.7682 126.926 64.6941 126.842 64.6412C126.757 64.5882 126.678 64.5406 126.593 64.5088C126.508 64.4771 126.413 64.4506 126.296 64.4347C126.18 64.4188 126.085 64.4135 126.021 64.4082C125.952 64.4029 125.873 64.4029 125.778 64.4029H125.635C125.576 64.4294 125.539 64.4876 125.518 64.5724C125.497 64.6571 125.481 64.7788 125.481 64.9482Z" fill="#D8B465"/>
<path d="M132.062 71.1688V70.9411C132.062 70.2635 132.067 69.2576 132.088 67.9288C132.109 66.5999 132.114 65.5994 132.114 64.9164V62.4494H139.05V64.4029C139.05 64.4135 139.05 64.4452 139.05 64.4929C139.05 64.5405 139.05 64.5723 139.05 64.5882C139.05 64.6041 139.05 64.6305 139.044 64.6729C139.039 64.7152 139.034 64.7417 139.023 64.7576C139.013 64.7735 138.997 64.7946 138.981 64.8264C138.965 64.8582 138.944 64.8794 138.917 64.8899C138.891 64.9005 138.864 64.9111 138.822 64.9217C138.78 64.9323 138.737 64.9376 138.69 64.9376H138.52C137.493 64.9376 136.551 64.9217 135.709 64.8899C135.704 64.9535 135.688 65.0541 135.672 65.1864C135.656 65.3188 135.64 65.4352 135.63 65.5358C135.619 65.6364 135.614 65.737 135.614 65.8323H138.452C138.573 65.8323 138.647 65.8482 138.69 65.8799C138.732 65.9117 138.748 65.9646 138.748 66.0335C138.748 66.0546 138.748 66.0864 138.743 66.1288C138.737 66.1711 138.737 66.2029 138.737 66.2241C138.737 66.4146 138.743 66.6952 138.753 67.0711C138.764 67.447 138.769 67.7276 138.769 67.9182C138.759 67.9976 138.727 68.0399 138.674 68.0399C138.647 68.0399 138.632 68.0347 138.616 68.0135C137.361 68.077 136.429 68.1088 135.826 68.1088H135.672V68.9664C136.027 68.9664 136.535 68.9505 137.207 68.9188C137.874 68.887 138.377 68.8711 138.711 68.8711C138.976 68.8711 139.124 68.9241 139.166 69.0405V69.4958C139.166 69.6864 139.172 69.967 139.177 70.3429C139.182 70.7188 139.187 70.9994 139.187 71.1899C139.187 71.3858 139.108 71.4864 138.949 71.4864C138.743 71.4864 138.425 71.4864 137.996 71.4811C137.567 71.4758 137.239 71.4758 137.017 71.4758C136.445 71.4758 135.624 71.4917 134.56 71.5182C133.496 71.5499 132.723 71.5658 132.247 71.5711L132.077 71.3805C132.072 71.2747 132.062 71.2005 132.062 71.1688ZM133.3 60.2629L134.587 58.0764L135.73 58.1082C135.762 58.1082 135.826 58.1082 135.916 58.1135C136.011 58.1188 136.112 58.1188 136.217 58.1241C136.329 58.1294 136.45 58.1294 136.583 58.1347C136.715 58.1399 136.842 58.1452 136.964 58.1558C137.086 58.1664 137.197 58.177 137.292 58.1929C137.393 58.2088 137.472 58.2247 137.536 58.2458C137.599 58.267 137.626 58.2882 137.626 58.3094L136.011 60.1199C135.942 60.1941 135.879 60.2576 135.815 60.3052C135.752 60.3529 135.699 60.3899 135.656 60.4164C135.609 60.4429 135.55 60.4641 135.471 60.4799C135.392 60.4958 135.328 60.5011 135.286 60.5064C135.238 60.5064 135.153 60.5117 135.032 60.517C134.904 60.5223 134.804 60.5223 134.73 60.5276H133.443L133.3 60.2629Z" fill="#D8B465"/>
<path d="M140.823 68.4159C140.839 66.4624 140.85 65.0012 140.85 64.043V63.9689C140.85 63.9424 140.844 63.8418 140.839 63.6724C140.834 63.503 140.829 63.3601 140.829 63.2383C140.829 62.7618 140.871 62.4918 140.95 62.4283C140.971 62.4283 140.998 62.4283 141.04 62.4336C141.083 62.4389 141.109 62.4389 141.13 62.4389C141.797 62.4071 142.57 62.3912 143.454 62.3912H144.264C144.296 62.3965 144.339 62.4071 144.391 62.4283C144.444 62.4495 144.481 62.4601 144.503 62.4601C144.508 62.6559 144.513 62.9895 144.529 63.4659C144.545 63.9424 144.556 64.3554 144.561 64.7048C144.566 65.0542 144.566 65.3983 144.566 65.7371V68.0612C144.566 68.2095 144.571 68.326 144.577 68.4212C144.582 68.5165 144.603 68.6171 144.635 68.7442C144.667 68.866 144.72 68.9612 144.794 69.0195C144.873 69.083 144.969 69.1095 145.09 69.1095C145.26 69.1095 145.392 69.0407 145.498 68.8977C145.599 68.7548 145.651 68.5907 145.651 68.4054V66.2242C145.646 65.9595 145.651 65.5412 145.662 64.9642C145.673 64.3871 145.673 63.9424 145.667 63.6248V63.1959C145.667 63.1536 145.662 63.0848 145.657 62.9948C145.651 62.9048 145.646 62.8359 145.646 62.7883V62.5024C145.657 62.4124 145.71 62.3542 145.8 62.333C146.562 62.333 147.706 62.3383 149.23 62.3595V62.4707H149.495C149.463 63.3177 149.447 64.3024 149.447 65.4248V66.7589C149.447 66.9389 149.442 67.2142 149.437 67.5795C149.431 67.9501 149.426 68.2254 149.426 68.4001C149.426 68.9189 149.347 69.3742 149.183 69.7712C149.019 70.1683 148.807 70.486 148.537 70.7295C148.272 70.973 147.949 71.1689 147.573 71.3277C147.197 71.4812 146.816 71.5924 146.43 71.6507C146.043 71.7089 145.63 71.7407 145.186 71.7407C144.757 71.7407 144.354 71.7142 143.979 71.6612C143.603 71.6083 143.221 71.5024 142.835 71.3489C142.449 71.1954 142.12 70.9995 141.84 70.7612C141.559 70.523 141.331 70.2054 141.146 69.803C140.945 69.406 140.844 68.9401 140.823 68.4159Z" fill="#D8B465"/>
<path d="M155.207 71.7405C154.736 71.7193 154.318 71.6822 153.942 71.6187C153.566 71.5552 153.206 71.4599 152.862 71.3222C152.512 71.1846 152.221 71.0099 151.988 70.8034C151.75 70.5969 151.554 70.3269 151.401 70.004C151.242 69.6757 151.146 69.2999 151.109 68.871C151.109 68.7969 151.152 68.7493 151.231 68.7387C151.258 68.744 151.295 68.7493 151.353 68.7493C151.681 68.7493 152.184 68.744 152.856 68.7228C153.529 68.7016 154.026 68.6963 154.36 68.6963C154.445 68.6963 154.508 68.7228 154.556 68.7757C154.603 68.8287 154.641 68.8975 154.672 68.9716C154.704 69.051 154.736 69.1252 154.778 69.2046C154.821 69.284 154.889 69.3475 154.995 69.4005C155.101 69.4534 155.228 69.4799 155.387 69.4799C155.583 69.4799 155.752 69.4269 155.901 69.3157C156.049 69.2046 156.123 69.0563 156.123 68.871C156.123 68.7493 156.059 68.6328 155.932 68.5322C155.805 68.4316 155.636 68.3469 155.429 68.2781C155.223 68.2146 155.022 68.1563 154.831 68.1087C154.641 68.061 154.45 68.024 154.249 67.9869C154.053 67.9552 153.936 67.934 153.905 67.9234C152.941 67.6587 152.242 67.3357 151.824 66.944C151.401 66.5522 151.189 66.0228 151.189 65.3452C151.189 64.8687 151.279 64.4399 151.454 64.0587C151.628 63.6775 151.856 63.3705 152.136 63.1269C152.417 62.8887 152.751 62.6875 153.137 62.5234C153.523 62.3593 153.91 62.2481 154.307 62.1846C154.699 62.121 155.106 62.084 155.53 62.084C156.647 62.084 157.536 62.2905 158.198 62.7034C158.442 62.9469 158.616 63.1269 158.733 63.254C158.849 63.381 158.955 63.524 159.061 63.6934C159.167 63.8628 159.241 64.0216 159.283 64.1858C159.326 64.3446 159.352 64.5457 159.368 64.7787L159.151 64.9957C158.336 65.0275 157.425 65.0434 156.409 65.0434C156.282 65.0434 156.181 65.0275 156.102 65.001C156.022 64.9746 155.975 64.9375 155.948 64.8952C155.922 64.8528 155.895 64.8052 155.869 64.7575C155.842 64.7099 155.821 64.6622 155.795 64.6199C155.773 64.5775 155.726 64.5405 155.657 64.514C155.588 64.4875 155.493 64.4716 155.382 64.4716C155.35 64.4716 155.297 64.4769 155.228 64.4875C155.159 64.4981 155.08 64.5193 154.985 64.5457C154.889 64.5722 154.81 64.6093 154.741 64.6675C154.672 64.7204 154.641 64.784 154.641 64.8528C154.641 64.9428 154.683 65.0222 154.773 65.091C154.863 65.1652 154.958 65.2128 155.053 65.2446C155.154 65.2763 155.276 65.3134 155.424 65.3505C155.572 65.3875 155.662 65.414 155.699 65.4246C156.568 65.6416 157.081 65.7793 157.251 65.8322C158.119 66.1075 158.738 66.4675 159.098 66.9122C159.432 67.3252 159.601 67.844 159.601 68.4687C159.601 68.8446 159.553 69.1887 159.453 69.501C159.352 69.8134 159.225 70.0728 159.066 70.2899C158.908 70.5069 158.706 70.6975 158.468 70.8616C158.23 71.031 157.986 71.1634 157.743 71.2587C157.499 71.3593 157.219 71.444 156.912 71.5075C156.599 71.5763 156.319 71.624 156.054 71.6558C155.8 71.7034 155.514 71.7246 155.207 71.7405Z" fill="#D8B465"/>
<path d="M165.028 71.7405C164.557 71.7193 164.139 71.6822 163.763 71.6187C163.387 71.5552 163.027 71.4599 162.683 71.3222C162.334 71.1846 162.042 71.0099 161.809 70.8034C161.571 70.5969 161.375 70.3269 161.222 70.004C161.063 69.6757 160.968 69.2999 160.931 68.871C160.931 68.7969 160.973 68.7493 161.052 68.7387C161.079 68.744 161.116 68.7493 161.174 68.7493C161.502 68.7493 162.005 68.744 162.678 68.7228C163.35 68.7016 163.848 68.6963 164.181 68.6963C164.266 68.6963 164.329 68.7228 164.377 68.7757C164.425 68.8287 164.462 68.8975 164.494 68.9716C164.525 69.051 164.557 69.1252 164.599 69.2046C164.642 69.284 164.711 69.3475 164.817 69.4005C164.922 69.4534 165.049 69.4799 165.208 69.4799C165.404 69.4799 165.574 69.4269 165.722 69.3157C165.87 69.2046 165.944 69.0563 165.944 68.871C165.944 68.7493 165.881 68.6328 165.754 68.5322C165.627 68.4316 165.457 68.3469 165.251 68.2781C165.044 68.2146 164.843 68.1563 164.652 68.1087C164.462 68.061 164.271 68.024 164.07 67.9869C163.874 67.9552 163.758 67.934 163.726 67.9234C162.762 67.6587 162.064 67.3357 161.645 66.944C161.222 66.5522 161.01 66.0228 161.01 65.3452C161.01 64.8687 161.1 64.4399 161.275 64.0587C161.449 63.6775 161.677 63.3705 161.958 63.1269C162.238 62.8887 162.572 62.6875 162.958 62.5234C163.345 62.3593 163.731 62.2481 164.128 62.1846C164.52 62.121 164.928 62.084 165.351 62.084C166.468 62.084 167.358 62.2905 168.019 62.7034C168.263 62.9469 168.438 63.1269 168.554 63.254C168.671 63.381 168.777 63.524 168.882 63.6934C168.988 63.8628 169.062 64.0216 169.105 64.1858C169.147 64.3446 169.174 64.5457 169.189 64.7787L168.972 64.9957C168.157 65.0275 167.247 65.0434 166.23 65.0434C166.103 65.0434 166.002 65.0275 165.923 65.001C165.844 64.9746 165.796 64.9375 165.769 64.8952C165.743 64.8528 165.717 64.8052 165.69 64.7575C165.664 64.7099 165.642 64.6622 165.616 64.6199C165.595 64.5775 165.547 64.5405 165.478 64.514C165.409 64.4875 165.314 64.4716 165.203 64.4716C165.171 64.4716 165.118 64.4769 165.049 64.4875C164.981 64.4981 164.901 64.5193 164.806 64.5457C164.711 64.5722 164.631 64.6093 164.562 64.6675C164.494 64.7204 164.462 64.784 164.462 64.8528C164.462 64.9428 164.504 65.0222 164.594 65.091C164.684 65.1652 164.779 65.2128 164.875 65.2446C164.975 65.2763 165.097 65.3134 165.245 65.3505C165.394 65.3875 165.484 65.414 165.521 65.4246C166.389 65.6416 166.902 65.7793 167.072 65.8322C167.94 66.1075 168.559 66.4675 168.919 66.9122C169.253 67.3252 169.422 67.844 169.422 68.4687C169.422 68.8446 169.375 69.1887 169.274 69.501C169.174 69.8134 169.047 70.0728 168.888 70.2899C168.729 70.5069 168.528 70.6975 168.289 70.8616C168.051 71.031 167.808 71.1634 167.564 71.2587C167.321 71.3593 167.04 71.444 166.733 71.5075C166.421 71.5763 166.14 71.624 165.875 71.6558C165.621 71.7034 165.335 71.7246 165.028 71.7405Z" fill="#D8B465"/>
<path d="M171 71.5393C171.016 70.3852 171.042 69.5381 171.085 68.9981C171.085 67.3305 171.111 65.6363 171.159 63.9211C171.143 63.5875 171.132 63.3387 171.132 63.1799V62.9999C171.116 62.8252 171.106 62.6822 171.106 62.5711C171.106 62.4969 171.143 62.4281 171.212 62.3699C171.863 62.4175 172.858 62.444 174.192 62.444C174.51 62.444 174.727 62.4387 174.849 62.4175V71.534H171V71.5393Z" fill="#D8B465"/>
<path d="M176.41 64.2441C176.41 64.17 176.415 64.0641 176.421 63.9265C176.426 63.7835 176.431 63.6882 176.431 63.6353C176.431 63.6141 176.426 63.5453 176.421 63.4182C176.415 63.2965 176.41 63.1853 176.41 63.0953C176.41 62.6718 176.453 62.4653 176.532 62.4653C176.564 62.4653 176.59 62.4706 176.617 62.4759C177.448 62.4759 178.676 62.4653 180.307 62.4441C181.937 62.4229 183.16 62.4124 183.97 62.4124C184.171 62.4124 184.298 62.4282 184.357 62.4653C184.41 62.5024 184.436 62.5712 184.436 62.6718V62.8412C184.436 63.0476 184.436 63.3547 184.441 63.7571C184.447 64.1594 184.447 64.4665 184.447 64.6782C184.447 64.8847 184.394 64.9906 184.277 64.9906C184.055 64.9906 183.721 64.9853 183.282 64.98C182.843 64.9747 182.509 64.9694 182.287 64.9694V71.3594C182.26 71.4812 182.191 71.5447 182.085 71.55C181.948 71.55 181.741 71.55 181.477 71.5447C181.212 71.5394 181.005 71.5394 180.868 71.5394C180.863 71.5394 180.852 71.5447 180.841 71.55C180.667 71.55 180.423 71.55 180.105 71.5447C179.788 71.5394 179.555 71.5394 179.401 71.5394H179.041C178.962 71.5447 178.845 71.55 178.697 71.55L178.459 71.2641C178.459 70.6606 178.48 69.7606 178.517 68.5694C178.56 67.3782 178.575 66.4782 178.575 65.8747C178.575 65.8482 178.575 65.8006 178.57 65.7371C178.57 65.6735 178.565 65.6206 178.565 65.5835C178.565 65.5412 178.56 65.4935 178.554 65.4353C178.549 65.3771 178.538 65.3294 178.523 65.2871C178.507 65.25 178.491 65.2129 178.47 65.1759C178.448 65.1388 178.422 65.1124 178.39 65.0912C178.358 65.0753 178.316 65.0647 178.268 65.0647H176.564C176.468 65.0382 176.41 64.7629 176.41 64.2441Z" fill="#D8B465"/>
<path d="M185.887 71.1689V70.9412C185.887 70.2636 185.892 69.2577 185.913 67.9289C185.934 66.6 185.94 65.5995 185.94 64.9165V62.4495H192.875V64.403C192.875 64.4136 192.875 64.4453 192.875 64.493C192.875 64.5406 192.875 64.5724 192.875 64.5883C192.875 64.6042 192.875 64.6306 192.87 64.673C192.864 64.7153 192.859 64.7418 192.848 64.7577C192.838 64.7736 192.822 64.7948 192.806 64.8265C192.79 64.8583 192.769 64.8795 192.743 64.8901C192.716 64.9006 192.69 64.9112 192.647 64.9218C192.605 64.9324 192.563 64.9377 192.515 64.9377H192.346C191.318 64.9377 190.376 64.9218 189.534 64.8901C189.529 64.9536 189.513 65.0542 189.497 65.1865C189.481 65.3189 189.466 65.4353 189.455 65.5359C189.444 65.6365 189.439 65.7371 189.439 65.8324H192.277C192.398 65.8324 192.473 65.8483 192.515 65.88C192.557 65.9118 192.573 65.9648 192.573 66.0336C192.573 66.0548 192.573 66.0865 192.568 66.1289C192.563 66.1712 192.563 66.203 192.563 66.2242C192.563 66.4148 192.568 66.6953 192.578 67.0712C192.589 67.4471 192.594 67.7277 192.594 67.9183C192.584 67.9977 192.552 68.04 192.499 68.04C192.473 68.04 192.457 68.0348 192.441 68.0136C191.186 68.0771 190.254 68.1089 189.651 68.1089H189.497V68.9665C189.852 68.9665 190.36 68.9506 191.033 68.9189C191.7 68.8871 192.203 68.8712 192.536 68.8712C192.801 68.8712 192.949 68.9242 192.991 69.0406V69.4959C192.991 69.6865 192.997 69.9671 193.002 70.343C193.007 70.7189 193.013 70.9995 193.013 71.19C193.013 71.3859 192.933 71.4865 192.774 71.4865C192.568 71.4865 192.25 71.4865 191.821 71.4812C191.393 71.4759 191.064 71.4759 190.842 71.4759C190.27 71.4759 189.45 71.4918 188.386 71.5183C187.321 71.55 186.548 71.5659 186.072 71.5712L185.903 71.3806C185.892 71.2748 185.887 71.2006 185.887 71.1689Z" fill="#D8B465"/>
<path d="M198.439 71.7405C197.968 71.7193 197.55 71.6822 197.174 71.6187C196.798 71.5552 196.438 71.4599 196.094 71.3222C195.745 71.1846 195.454 71.0099 195.221 70.8034C194.982 70.5969 194.787 70.3269 194.633 70.004C194.474 69.6757 194.379 69.2999 194.342 68.871C194.342 68.7969 194.384 68.7493 194.464 68.7387C194.49 68.744 194.527 68.7493 194.585 68.7493C194.914 68.7493 195.417 68.744 196.089 68.7228C196.761 68.7016 197.259 68.6963 197.592 68.6963C197.677 68.6963 197.741 68.7228 197.788 68.7757C197.836 68.8287 197.873 68.8975 197.905 68.9716C197.937 69.051 197.968 69.1252 198.011 69.2046C198.053 69.284 198.122 69.3475 198.228 69.4005C198.328 69.4534 198.461 69.4799 198.619 69.4799C198.815 69.4799 198.985 69.4269 199.133 69.3157C199.281 69.2046 199.355 69.0563 199.355 68.871C199.355 68.7493 199.292 68.6328 199.165 68.5322C199.038 68.4316 198.868 68.3469 198.662 68.2781C198.455 68.2146 198.254 68.1563 198.064 68.1087C197.873 68.061 197.682 68.024 197.481 67.9869C197.285 67.9552 197.169 67.934 197.137 67.9234C196.174 67.6587 195.475 67.3357 195.057 66.944C194.633 66.5522 194.421 66.0228 194.421 65.3452C194.421 64.8687 194.511 64.4399 194.686 64.0587C194.861 63.6775 195.088 63.3705 195.369 63.1269C195.649 62.8887 195.983 62.6875 196.369 62.5234C196.756 62.3593 197.142 62.2481 197.539 62.1846C197.931 62.121 198.339 62.084 198.762 62.084C199.879 62.084 200.769 62.2905 201.431 62.7034C201.674 62.9469 201.849 63.1269 201.965 63.254C202.082 63.381 202.188 63.524 202.294 63.6934C202.399 63.8628 202.474 64.0216 202.516 64.1858C202.558 64.3499 202.585 64.5457 202.601 64.7787L202.384 64.9957C201.568 65.0275 200.658 65.0434 199.641 65.0434C199.514 65.0434 199.414 65.0275 199.334 65.001C199.255 64.9746 199.207 64.9375 199.181 64.8952C199.154 64.8528 199.128 64.8052 199.101 64.7575C199.075 64.7099 199.054 64.6622 199.027 64.6199C199.001 64.5775 198.958 64.5405 198.889 64.514C198.821 64.4875 198.725 64.4716 198.614 64.4716C198.582 64.4716 198.529 64.4769 198.461 64.4875C198.392 64.4981 198.312 64.5193 198.217 64.5457C198.122 64.5722 198.042 64.6093 197.974 64.6675C197.905 64.7204 197.873 64.784 197.873 64.8528C197.873 64.9428 197.915 65.0222 198.005 65.091C198.095 65.1652 198.191 65.2128 198.286 65.2446C198.387 65.2763 198.508 65.3134 198.657 65.3505C198.805 65.3875 198.895 65.414 198.932 65.4246C199.8 65.6416 200.314 65.7793 200.483 65.8322C201.351 66.1075 201.971 66.4675 202.331 66.9122C202.664 67.3252 202.834 67.844 202.834 68.4687C202.834 68.8446 202.786 69.1887 202.685 69.501C202.59 69.8134 202.458 70.0728 202.299 70.2899C202.14 70.5069 201.939 70.6975 201.701 70.8616C201.462 71.0258 201.219 71.1634 200.975 71.2587C200.732 71.3593 200.451 71.444 200.144 71.5075C199.832 71.5763 199.551 71.624 199.287 71.6558C199.027 71.7034 198.741 71.7246 198.439 71.7405Z" fill="#D8B465"/>
<path d="M83.2765 39.044C83.2765 39.4517 83.2977 40.0817 83.3453 40.934C83.393 41.7864 83.4248 42.6017 83.4459 43.3693C83.4671 44.1422 83.483 44.9999 83.4989 45.9422C83.5095 46.8846 83.4777 47.737 83.3983 48.4993C83.3189 49.2617 83.1971 49.9764 83.0383 50.6487C82.8795 51.3211 82.6359 51.8346 82.3077 52.1999C81.9795 52.5652 81.5771 52.7452 81.0953 52.7452H65.5571C64.4665 51.9034 63.9212 48.7693 63.9212 43.3375C63.9212 41.3628 63.9318 38.9805 63.953 36.2011C63.9742 33.4217 63.9848 31.4364 63.9848 30.2558V27.8681C63.9848 27.6617 63.9689 27.2699 63.9318 26.6928C63.9 26.1158 63.8895 25.6658 63.9159 25.3481C63.0053 28.6411 61.8936 33.3581 60.5753 39.4887C59.2571 45.6246 58.3465 49.7223 57.8489 51.7923C57.6212 52.4275 56.5783 52.7452 54.7148 52.7452H42.6495C41.1724 52.7452 40.3095 52.3587 40.0606 51.5858L36.7889 37.3393C36.4924 35.8887 36.1695 34.3746 35.8201 32.8075C35.4653 31.2405 35.0524 29.4564 34.5759 27.4552C34.0995 25.4593 33.7448 23.977 33.5171 23.024C33.2471 30.2928 33.1095 35.8358 33.1095 39.6528V45.6511C33.1095 48.3299 33.1306 50.3522 33.1783 51.7181C33.0406 52.2158 32.7918 52.4699 32.4265 52.4699H29.2236C27.8842 52.4699 25.9201 52.4805 23.3259 52.5017C20.7371 52.5228 18.773 52.5334 17.4283 52.5334C16.2001 52.5334 15.5859 52.327 15.5859 51.9193V1.35519C15.5859 1.14872 15.6389 0.974011 15.7395 0.825776C15.8401 0.677541 15.9989 0.566364 16.2159 0.486952C16.433 0.40754 16.6395 0.34401 16.8459 0.301658C17.0524 0.25401 17.3118 0.22754 17.6295 0.216952C17.9471 0.206363 18.2065 0.195776 18.413 0.185187C18.6195 0.174599 18.8789 0.174599 19.1965 0.185187C19.5142 0.195776 19.7206 0.201069 19.8106 0.201069H23.8342C30.3089 0.201069 34.8671 0.291069 37.5142 0.471069C40.1612 0.656363 42.1889 0.74107 43.5971 0.74107C44.1424 3.78519 45.0053 8.30636 46.1859 14.3046L48.7748 27.8681L54.2277 0.333422C54.593 0.423422 54.8206 0.471069 54.9106 0.471069C57.3406 0.471069 60.93 0.439305 65.6789 0.370482C70.4277 0.301658 74.0171 0.269893 76.4471 0.269893H81.4924C82.1277 0.338717 82.4453 0.974011 82.4453 2.17578C82.9589 24.1834 83.2289 36.4764 83.2765 39.044Z" fill="#D8B465"/>
<path d="M89.55 47.017V1.49286C89.55 0.719918 91.3236 0.333447 94.8653 0.333447C95.2518 0.333447 95.8024 0.344036 96.5171 0.365212C97.2318 0.386389 97.7294 0.396977 97.9994 0.396977C99.7942 0.396977 102.468 0.365212 106.025 0.296388C109.583 0.227565 112.267 0.195801 114.083 0.195801C115.332 0.195801 117.191 0.216977 119.652 0.264624C122.119 0.312271 124.031 0.333447 125.396 0.333447C125.576 0.333447 125.852 0.322859 126.212 0.301683C126.572 0.280506 126.847 0.269918 127.027 0.269918C127.842 0.269918 128.414 0.423448 128.732 0.730507C129.049 1.03757 129.208 1.6358 129.208 2.51992V14.4476C127.89 14.564 126.519 14.6329 125.084 14.6699C123.655 14.7017 121.834 14.7334 119.631 14.7546C117.429 14.7758 116.052 14.7864 115.507 14.7864H110.806C110.806 15.2205 110.795 15.8452 110.774 16.6605C110.753 17.4758 110.742 18.1058 110.742 18.5346V19.0111C110.79 19.1011 110.811 19.2599 110.811 19.4876C115.968 19.1276 120.33 18.9423 123.898 18.9423C124.968 18.9423 125.915 19.0217 126.741 19.1805C127.572 19.3393 127.985 19.5776 127.985 19.8952V31.2776C127.985 32.2782 127.795 32.9452 127.408 33.2893C127.022 33.6282 126.418 33.8029 125.603 33.8029C125.418 33.8029 125.089 33.7817 124.613 33.734C124.137 33.6864 123.761 33.6652 123.491 33.6652C118.879 33.9617 114.676 34.1417 110.88 34.2105C110.88 35.5976 110.912 37.6887 110.981 40.4787C111.049 43.2687 111.081 45.3652 111.081 46.747V50.9717C111.081 51.6334 111.012 52.0676 110.875 52.2846C110.737 52.5017 110.398 52.6552 109.853 52.7452C107.672 52.7452 104.448 52.7664 100.175 52.814C95.903 52.8617 92.6789 52.8829 90.4977 52.8829C90.3177 52.6129 90.1642 52.3164 90.0371 51.9987C89.91 51.6811 89.8147 51.3952 89.7459 51.1464C89.6771 50.8976 89.6241 50.5482 89.5924 50.1087C89.5606 49.664 89.5342 49.3464 89.5236 49.1558C89.513 48.9652 89.513 48.5946 89.5236 48.0493C89.5447 47.4935 89.55 47.1546 89.55 47.017Z" fill="#D8B465"/>
<path d="M161.079 44.5552C160.258 43.1258 159.453 41.6857 158.665 40.2352C158.4 39.7428 157.939 38.361 157.458 37.9216C157.452 37.9322 157.452 37.9375 157.447 37.9481C157.293 38.234 157.283 38.684 157.214 39.0069C156.902 40.4152 156.573 41.8234 156.24 43.2263C155.52 46.2334 154.842 49.3357 153.768 52.2528C157.426 52.2422 163.721 52.3534 164.081 52.4699H166.05C164.165 49.9975 162.614 47.2287 161.079 44.5552Z" fill="#D8B465"/>
<path d="M184.743 49.7752C184.389 49.1188 184.182 48.6053 184.113 48.24L172.376 26.6982C177.919 24.157 182.271 19.5247 182.271 14.0294C182.271 9.80467 180.926 6.5329 178.232 4.21408C175.542 1.89526 171.614 0.672315 166.458 0.534668H136.747C134.931 0.534668 134.021 0.852317 134.021 1.48761V52.3323C134.338 52.5123 134.656 52.6711 134.973 52.8088C136.382 52.7611 136.969 52.74 139.743 52.74H142.851C143.079 52.74 143.703 52.7505 144.725 52.7717C145.747 52.7929 146.568 52.7982 147.198 52.7876C147.822 52.777 148.537 52.74 149.347 52.687C150.152 52.6288 150.771 52.5123 151.205 52.327C151.248 52.3111 151.396 52.2953 151.623 52.2847C151.496 50.7705 151.661 48.8647 151.639 48.1129C151.491 43.0517 151.438 34.1258 151.496 27.8947C151.158 27.9317 150.824 27.9688 150.485 27.9953C147.833 28.2017 145.091 28.0323 142.533 27.27C142.078 27.1376 140.887 26.9311 140.808 26.2535C140.628 24.7923 145.313 24.2947 146.234 24.1147C147.833 23.8023 149.448 23.58 151.057 23.3364L158.771 21.5576C160.825 21.0441 162.646 20.5941 162.773 20.5729C165.632 20.1017 168.491 19.6253 171.344 19.1541C171.349 19.1541 171.355 19.1541 171.36 19.1541C171.371 19.1541 171.376 19.1541 171.386 19.1594C171.445 19.1753 171.498 19.2388 171.535 19.3182C171.54 19.3288 171.545 19.3341 171.545 19.3447C171.551 19.3553 171.556 19.3658 171.556 19.3817C171.593 19.4823 171.598 19.5829 171.529 19.6147C169.078 20.7688 166.865 22.5211 164.43 23.7441C162.598 24.6653 160.692 25.4964 158.744 26.1794C159.279 27.4817 159.851 28.8953 159.893 28.9853C160.316 29.9488 160.735 30.9123 161.153 31.8811C163.763 37.927 166.436 44.0205 168.432 50.2994C168.565 50.7176 168.935 51.607 169.195 52.5123C169.671 52.5176 170.216 52.5229 170.836 52.5229C170.995 52.5229 172.244 52.5917 174.584 52.7294C176.924 52.867 178.893 52.8882 180.498 52.7982C182.096 52.7082 184.648 52.4117 185.151 51.9141C185.331 51.9141 185.426 51.6864 185.426 51.2311C185.321 50.9241 185.098 50.437 184.743 49.7752ZM159.311 16.9464C159.205 17.55 158.961 18.1482 158.575 18.6511C158.188 19.1541 157.68 19.5776 157.113 19.8741C155.97 20.4829 154.562 20.5253 153.386 20.0806C152.793 19.8582 152.248 19.5247 151.809 19.0853C151.364 18.6511 151.046 18.1111 150.829 17.5605C150.411 16.4382 150.406 15.2417 150.723 14.1405C151.036 13.05 151.682 11.9276 152.772 11.2817C153.307 10.9641 153.932 10.7735 154.562 10.747C155.192 10.7153 155.816 10.8635 156.362 11.1335C157.463 11.6894 158.199 12.6264 158.707 13.5953C159.199 14.5694 159.506 15.7235 159.311 16.9464Z" fill="#D8B465"/>
</g>
<defs>
<clipPath id="clip0_1202_12866">
<rect width="202.765" height="72" fill="white"/>
</clipPath>
</defs>
</svg>
