<svg width="16" height="16" viewBox="0 0 16 16" fill="none" xmlns="http://www.w3.org/2000/svg">
<path d="M7.99772 0C4.80256 0 2.20312 2.59944 2.20312 5.79456C2.20312 9.75981 7.38872 15.581 7.6095 15.8269C7.81687 16.0579 8.17894 16.0575 8.38594 15.8269C8.60672 15.581 13.7923 9.75981 13.7923 5.79456C13.7922 2.59944 11.1928 0 7.99772 0ZM7.99772 14.679C6.2525 12.606 3.24662 8.516 3.24662 5.79462C3.24662 3.17481 5.37794 1.0435 7.99772 1.0435C10.6175 1.0435 12.7488 3.17481 12.7488 5.79459C12.7488 8.51609 9.74337 12.6053 7.99772 14.679Z" fill="#646363"/>
<path d="M8.00131 2.87915C6.39375 2.87915 5.08594 4.18699 5.08594 5.79456C5.08594 7.40212 6.39378 8.70996 8.00131 8.70996C9.60884 8.70996 10.9167 7.40212 10.9167 5.79456C10.9167 4.18699 9.60884 2.87915 8.00131 2.87915ZM8.00131 7.66646C6.96913 7.66646 6.12944 6.82674 6.12944 5.79456C6.12944 4.76237 6.96916 3.92265 8.00131 3.92265C9.03347 3.92265 9.87319 4.76237 9.87319 5.79456C9.87319 6.82674 9.03347 7.66646 8.00131 7.66646Z" fill="#646363"/>
</svg>
