<svg width="48" height="48" viewBox="0 0 48 48" fill="none" xmlns="http://www.w3.org/2000/svg">
<path d="M25.3528 28.8085C25.2337 28.8085 25.1162 28.7809 25.0095 28.7279L3.40645 17.9267C3.27895 17.8629 3.17173 17.7649 3.0968 17.6436C3.02187 17.5223 2.98218 17.3825 2.98218 17.2399C2.98218 17.0974 3.02187 16.9576 3.0968 16.8363C3.17173 16.715 3.27895 16.617 3.40645 16.5531L24.925 5.75199C25.0317 5.69866 25.1493 5.6709 25.2685 5.6709C25.3878 5.6709 25.5054 5.69866 25.612 5.75199L47.298 16.5505C47.4258 16.6142 47.5333 16.7122 47.6085 16.8336C47.6836 16.9551 47.7235 17.095 47.7235 17.2378C47.7235 17.3806 47.6836 17.5206 47.6085 17.642C47.5333 17.7634 47.4258 17.8615 47.298 17.9252L25.6965 28.7279C25.5897 28.781 25.4721 28.8086 25.3528 28.8085ZM5.4643 17.2382L25.3528 27.1838L45.2352 17.2417L25.2714 7.29606L5.4643 17.2382Z" fill="#90B68A"/>
<path d="M25.3524 39.1546C20.7444 39.1546 16.5331 38.3029 13.7994 36.8184C11.3192 35.4667 10.7985 33.9883 10.7985 32.9857V21.2541H12.3345V32.9857C12.3345 33.8147 13.1151 34.6964 14.5332 35.469C17.0112 36.813 21.0563 37.6194 25.3524 37.6194C29.6486 37.6194 33.6937 36.8157 36.1732 35.469C37.5898 34.6971 38.3704 33.8155 38.3704 32.9864V21.132H39.9064V32.9857C39.9064 33.9883 39.3857 35.4667 36.907 36.8176C34.1718 38.3029 29.9604 39.1546 25.3524 39.1546Z" fill="#90B68A"/>
<path d="M3.75012 16.4717H25.3532V18.0077H3.75012V16.4717Z" fill="#90B68A"/>
<path d="M2.98212 17.2396H4.51812V24.5387H2.98212V17.2396Z" fill="#90B68A"/>
<path d="M5.0162 35.1939H2.4818C1.89673 35.1928 1.33598 34.9597 0.92256 34.5457C0.509138 34.1317 0.276793 33.5706 0.276489 32.9855V27.2471C0.276489 26.3254 0.642625 25.4414 1.29435 24.7897C1.94608 24.138 2.83001 23.7719 3.75169 23.7719C4.67337 23.7719 5.5573 24.138 6.20903 24.7897C6.86075 25.4414 7.22689 26.3254 7.22689 27.2471V32.9855C7.22618 33.5714 6.99296 34.1331 6.57847 34.5471C6.16397 34.9612 5.60208 35.1938 5.0162 35.1939ZM3.74977 25.3055C3.23555 25.3066 2.74275 25.5116 2.37954 25.8756C2.01632 26.2396 1.81239 26.7328 1.81249 27.2471V32.9855C1.81269 33.1634 1.88342 33.334 2.00918 33.4598C2.13493 33.5856 2.30544 33.6565 2.48334 33.6568H5.01774C5.19577 33.6565 5.36645 33.5857 5.49244 33.4599C5.61844 33.3341 5.68951 33.1636 5.69012 32.9855V27.2471C5.68982 26.7324 5.48533 26.2389 5.12154 25.8749C4.75775 25.5109 4.26439 25.3062 3.74977 25.3055Z" fill="#90B68A"/>
</svg>
