<svg width="48" height="48" viewBox="0 0 48 48" fill="none" xmlns="http://www.w3.org/2000/svg">
<path d="M42.4134 19.9578L42.4235 19.953C42.5772 19.9485 42.7231 19.8838 42.8306 19.7725C42.9381 19.6613 42.9988 19.5121 43 19.3564C43.0008 19.2777 42.9863 19.1997 42.9572 19.1267C42.928 19.0538 42.8849 18.9875 42.8303 18.9315C42.7757 18.8756 42.7107 18.8312 42.639 18.8009C42.5674 18.7706 42.4905 18.755 42.4128 18.755C42.2454 18.7009 41.8061 17.9689 41.8061 16.6501C41.8061 15.3312 42.246 14.5993 42.4134 14.5451L42.4217 14.5409C42.5674 14.5304 42.7041 14.4659 42.8058 14.3597C42.9074 14.2535 42.9669 14.1131 42.9727 13.9653C42.9786 13.8174 42.9305 13.6726 42.8376 13.5585C42.7447 13.4443 42.6136 13.3689 42.4692 13.3465L23.3366 11.0672C22.5918 10.9776 21.8392 10.9776 21.0944 11.0672L7.30395 12.7451H7.29504C6.17839 12.8233 5.59365 14.4435 5.59365 16.0487C5.55481 17.0031 5.80325 17.9469 6.30602 18.755C5.80307 19.563 5.55462 20.5069 5.59365 21.4613C5.56176 22.38 5.78823 23.2889 6.24666 24.0822C5.42683 24.9182 5 26.6527 5 28.3775C5 30.7482 5.80202 33.1485 7.33541 33.1887L27.4891 35.5908C27.5122 35.5935 27.5354 35.5947 27.5586 35.5944C27.5822 35.5945 27.6058 35.5931 27.6292 35.5902L32.3078 35.0212V37.3986C32.3077 37.5301 32.3503 37.6581 32.4289 37.7628C32.5075 37.8675 32.6178 37.9432 32.7429 37.9783C32.7946 37.9926 32.8479 37.9999 32.9014 38C33.0039 38 33.1045 37.9731 33.1937 37.922C33.2829 37.8709 33.3574 37.7973 33.4102 37.7083L34.737 35.4681L35.9884 37.158C36.0632 37.259 36.1674 37.3336 36.2863 37.3712C36.4052 37.4089 36.5328 37.4076 36.651 37.3677C36.7692 37.3278 36.872 37.2512 36.9449 37.1488C37.0178 37.0464 37.057 36.9234 37.057 36.7972V34.4445L42.4704 33.7859C42.6208 33.7678 42.7586 33.6922 42.8557 33.5745C42.9529 33.4568 43.0019 33.306 42.9929 33.1529C42.9839 32.9998 42.9174 32.8559 42.8072 32.7508C42.6969 32.6457 42.5512 32.5872 42.3998 32.5873C41.9842 32.5873 41.2125 31.2173 41.2125 28.9789C41.2125 26.7597 41.9415 25.4751 42.3998 25.3705C42.558 25.3709 42.7099 25.3079 42.8224 25.1952C42.9349 25.0825 42.9987 24.9293 43 24.7691C43.0012 24.622 42.9487 24.4798 42.8526 24.3696C42.7565 24.2595 42.6235 24.1892 42.4793 24.1725C42.4559 24.1696 42.4323 24.168 42.4087 24.1676C42.2383 24.1015 41.8061 23.3714 41.8061 22.0627C41.8061 20.7396 42.246 20.0119 42.4134 19.9578ZM24.1671 33.9832C23.6067 32.8444 23.3436 31.5791 23.4031 30.308C23.3596 29.0877 23.5938 27.8737 24.0875 26.7597L26.0424 26.9925C25.4366 28.1592 25.1408 29.4655 25.184 30.7831C25.1639 31.95 25.3864 33.1082 25.837 34.1823L24.1671 33.9832ZM21.7711 33.6975C21.2292 32.5647 20.974 31.3131 21.0285 30.0554C20.9808 28.8248 21.2221 27.6002 21.7325 26.4825L22.8427 26.6148C22.4008 27.7934 22.188 29.0475 22.2158 30.308C22.1972 31.5024 22.3875 32.6907 22.778 33.8178L21.7711 33.6975ZM12.1754 32.5549C11.7233 31.4717 11.5072 30.3024 11.542 29.1268C11.4726 27.8217 11.7584 26.5223 12.3684 25.3705L20.42 26.3285C20.4378 26.3285 20.4538 26.3393 20.4716 26.3393C20.4762 26.3396 20.4807 26.3396 20.4853 26.3393C20.035 27.5241 19.8163 28.7861 19.8412 30.0554C19.824 31.2382 20.01 32.4151 20.3909 33.5334L12.1754 32.5549ZM9.80498 32.2728C9.34835 31.1873 9.13078 30.014 9.1674 28.8346C9.0971 27.5321 9.38044 26.235 9.98664 25.0842L11.092 25.2159C10.571 26.45 10.3187 27.7833 10.3523 29.125C10.3384 30.2338 10.4988 31.3378 10.8272 32.3955L9.80498 32.2728ZM7.38765 23.5662C7.22024 23.5121 6.78094 22.7802 6.78094 21.4613C6.78094 20.1539 7.21193 19.425 7.36984 19.36L10.1819 19.692C10.192 19.692 10.1998 19.6998 10.2093 19.701L22.1499 21.1203C21.8842 21.9071 21.7558 22.7348 21.7705 23.5662C21.769 24.1488 21.8305 24.7299 21.954 25.2989L20.8183 25.1642C20.5396 24.4664 20.409 23.7171 20.4348 22.9648C20.4343 22.6056 20.4741 22.2474 20.5536 21.8973C20.5711 21.8204 20.5735 21.7407 20.5606 21.6628C20.5478 21.5849 20.5199 21.5103 20.4786 21.4433C20.4373 21.3763 20.3833 21.3182 20.3198 21.2723C20.2564 21.2265 20.1846 21.1937 20.1086 21.176C20.0327 21.1582 19.954 21.1557 19.8771 21.1688C19.8002 21.1818 19.7266 21.2101 19.6604 21.2519C19.5943 21.2938 19.537 21.3484 19.4917 21.4127C19.4464 21.477 19.4141 21.5497 19.3965 21.6267C19.2972 22.0656 19.2472 22.5145 19.2475 22.9648C19.2411 23.6552 19.328 24.3432 19.5058 25.0096L12.1517 24.134H12.1392L9.77292 23.8513C9.76758 23.8513 9.76283 23.8513 9.75749 23.8513L7.38765 23.5662ZM10.7228 14.3455L13.0279 14.6191H13.0338L26.2247 16.1942C25.9162 16.906 25.7637 17.6771 25.7777 18.4543C25.7728 19.1091 25.8782 19.7599 26.0893 20.3788L13.241 18.8506C13.0831 18.2302 13.0068 17.5914 13.0142 16.9508C13.0134 16.5744 13.0362 16.1984 13.0825 15.8249C13.0925 15.7466 13.0871 15.667 13.0668 15.5908C13.0464 15.5145 13.0114 15.4431 12.9638 15.3805C12.9161 15.318 12.8568 15.2656 12.7892 15.2262C12.7215 15.1869 12.6469 15.1615 12.5696 15.1514C12.4923 15.1413 12.4137 15.1467 12.3385 15.1673C12.2632 15.188 12.1927 15.2234 12.1309 15.2717C12.0692 15.3199 12.0174 15.38 11.9786 15.4485C11.9398 15.517 11.9147 15.5926 11.9047 15.671C11.852 16.0955 11.826 16.5229 11.8269 16.9508C11.8252 17.5385 11.8795 18.1249 11.989 18.7021L10.664 18.5445C10.4288 17.838 10.32 17.0946 10.3428 16.3494C10.3422 15.663 10.4711 14.9828 10.7228 14.3455ZM27.5586 16.3494C27.582 16.3494 27.6054 16.348 27.6287 16.3452L40.9264 14.7304C40.7171 15.348 40.6131 15.9971 40.6188 16.6501C40.6046 17.4289 40.758 18.2016 41.0682 18.9144L27.5651 20.5538C27.393 20.4846 26.965 19.7611 26.965 18.4543C26.965 17.1354 27.4043 16.4035 27.5586 16.3494ZM23.225 25.4498C23.0405 24.8397 22.9504 24.2043 22.9578 23.5662C22.9159 22.7758 23.0651 21.987 23.3924 21.2683L26.2265 21.6051C25.9168 22.3172 25.7637 23.0889 25.7777 23.8669C25.7728 24.5217 25.8782 25.1726 26.0893 25.7914L23.225 25.4498ZM27.5669 25.9671C27.3936 25.8979 26.965 25.1744 26.965 23.8669C26.965 22.5481 27.4043 21.8161 27.5586 21.762C27.5822 21.7621 27.6058 21.7607 27.6292 21.7578L40.9269 20.143C40.7175 20.7606 40.6133 21.4098 40.6188 22.0627C40.6072 22.8422 40.7653 23.6147 41.0819 24.3252L27.5669 25.9671ZM21.2351 12.2598C21.8868 12.1816 22.5453 12.1816 23.1971 12.2598L37.3734 13.9485L27.5586 15.1423L13.1727 13.4247H13.1668L12.4135 13.3351L21.2351 12.2598ZM7.36687 13.9437L9.50875 14.1981C9.27532 14.8907 9.15598 15.6175 9.15553 16.3494C9.14997 17.0352 9.22429 17.7193 9.37696 18.3875L7.38765 18.1536C7.22024 18.0995 6.78094 17.3675 6.78094 16.0487C6.78094 14.7508 7.20599 14.0219 7.36687 13.9467V13.9437ZM7.37459 31.9859C6.95904 31.9859 6.18729 30.6159 6.18729 28.3775C6.18729 26.1523 6.94598 24.7895 7.36568 24.7721L8.71564 24.9326C8.19775 26.165 7.94693 27.4956 7.98011 28.8346C7.96672 29.9457 8.12886 31.0518 8.46037 32.111L7.44405 31.9907C7.42102 31.9876 7.39782 31.986 7.37459 31.9859ZM35.1573 34.0307C35.0995 33.951 35.0229 33.8873 34.9346 33.8453C34.8462 33.8033 34.7489 33.7843 34.6515 33.7902C34.5549 33.7958 34.4612 33.8253 34.3784 33.876C34.2956 33.9267 34.2263 33.9972 34.1766 34.0812L33.4951 35.2275V30.0686L35.8697 29.7788V34.993L35.1573 34.0307ZM37.057 33.2327V29.6338L37.4298 29.5881C37.5862 29.5692 37.7288 29.4881 37.8262 29.3627C37.9236 29.2373 37.9679 29.0778 37.9492 28.9194C37.9305 28.7609 37.8505 28.6164 37.7267 28.5177C37.6029 28.4191 37.4455 28.3742 37.2891 28.3931L36.3986 28.5026H36.3944L32.8326 28.9356C32.826 28.9356 32.8207 28.9404 32.8142 28.941L32.0745 29.0318C31.9243 29.0499 31.7866 29.1254 31.6895 29.2428C31.5924 29.3602 31.5432 29.5107 31.5519 29.6637C31.5606 29.8166 31.6266 29.9604 31.7364 30.0657C31.8462 30.171 31.9915 30.23 32.1427 30.2304C32.1662 30.2305 32.1896 30.2291 32.2128 30.2262L32.3078 30.2142V33.81L27.5586 34.3874L27.5064 34.3813C27.0967 34.2809 26.3713 32.9981 26.3713 30.7831C26.3713 28.5447 27.143 27.1747 27.5586 27.1747C27.5822 27.1748 27.6058 27.1734 27.6292 27.1705L40.6782 25.5858C40.2282 26.6579 40.0057 27.814 40.0252 28.9789C39.9822 30.2954 40.2765 31.6007 40.8795 32.7678L37.057 33.2327Z" fill="#90B68A"/>
</svg>
