<svg width="48" height="48" viewBox="0 0 48 48" fill="none" xmlns="http://www.w3.org/2000/svg">
<path fill-rule="evenodd" clip-rule="evenodd" d="M13.6343 37.4658C16.5053 39.681 20.1015 41 24 41C33.3739 41 41 33.3739 41 24C41 22.3954 40.7765 20.8419 40.3591 19.3692C38.6087 13.1254 33.439 8.4187 27.0364 7.27158C26.0509 7.09317 25.0361 7 24 7C18.6011 7 13.782 9.52968 10.6658 13.466C10.654 13.4785 10.6427 13.4916 10.6319 13.5053C9.14687 15.3944 8.08829 17.5563 7.51077 19.856C7.1772 21.1828 7 22.5711 7 24C7 28.0909 8.45243 31.8489 10.8687 34.7854C11.6668 35.7586 12.5758 36.6478 13.5835 37.4306C13.5999 37.4434 13.6169 37.4551 13.6343 37.4658ZM14.5298 36.7231C17.1749 38.697 20.4534 39.8667 24 39.8667C32.7488 39.8667 39.8667 32.7488 39.8667 24C39.8667 23.5299 39.8461 23.0644 39.8059 22.6046C39.5372 22.6494 39.2643 22.6902 38.9897 22.7266C38.903 22.7374 38.8164 22.7432 38.7313 22.7432C37.8411 22.7432 37.0444 22.1323 36.8188 21.2386C36.6857 20.7105 36.5192 20.2576 36.3246 19.8916C36.2011 19.6592 35.9791 19.5108 35.7145 19.4835C35.4248 19.4547 35.1425 19.5725 34.955 19.7992C33.8144 21.1779 32.7031 21.8155 31.6492 21.6965C30.3719 21.5502 29.752 20.3388 29.726 20.2872C27.0999 15.0346 22.4086 15.4885 22.3622 15.4971C22.3412 15.4994 22.3207 15.5005 22.2997 15.5005C21.9848 15.5005 21.6351 15.5765 21.2615 15.7254C20.0092 16.2265 18.6255 15.8507 17.818 14.791C17.0269 13.7519 17.0315 12.4009 17.83 11.3503L17.8956 11.2647C18.2935 10.7535 18.9021 10.4282 19.5638 10.3745C21.3631 10.2283 22.7736 9.47629 23.7694 8.13497C19.0561 8.20245 14.8334 10.3356 11.9679 13.6678L13.4578 14.4126C14.3468 14.8575 14.9758 15.7086 15.139 16.6894L15.1828 16.9485C15.4087 18.3073 14.7333 19.6343 13.5014 20.2504L12.393 20.8045C12.0848 20.9588 11.8207 21.1923 11.629 21.4789C11.0495 22.3477 10.0799 22.8667 9.03427 22.8667H8.17336C8.14682 23.2411 8.13332 23.619 8.13332 24C8.13332 24.2265 8.13809 24.4518 8.14753 24.676C9.30036 24.2447 10.588 24.5207 11.4658 25.3984L12.5158 26.4485C12.797 26.7296 13.1516 26.9195 13.5415 26.9976C15.0048 27.2907 16.066 28.5854 16.066 30.0774V30.2344C16.066 31.0883 15.8162 31.9145 15.3425 32.624C15.0618 33.0445 14.8846 33.5329 14.8284 34.0346L14.5298 36.7231ZM13.4848 35.8723L13.7026 33.9088C13.7783 33.2276 14.0193 32.5656 14.3996 31.9944C14.7485 31.4715 14.9326 30.8629 14.9326 30.2339V30.0769C14.9326 29.1231 14.2543 28.2954 13.3189 28.1083C12.7085 27.9864 12.1532 27.6894 11.714 27.2492L10.664 26.1992C10.0798 25.616 9.21288 25.4485 8.45414 25.773L8.2448 25.8638C8.60368 28.9132 9.85595 31.7917 11.8037 34.1382C12.3196 34.7578 12.8818 35.3376 13.4848 35.8723ZM12.9512 15.4253L11.2453 14.5724C9.71687 16.6347 8.67605 19.079 8.29473 21.7334H9.03427C9.69963 21.7334 10.3173 21.4029 10.6861 20.8494C10.9865 20.3983 11.4018 20.0323 11.8864 19.7897L12.9948 19.2354C13.7792 18.844 14.2093 17.9986 14.0653 17.1337L14.0217 16.8749V16.8741C13.9175 16.2497 13.5172 15.7086 12.9512 15.4253ZM26.4702 8.32533C26.0205 8.25553 25.5647 8.20448 25.1035 8.17295C24.2332 9.62584 22.6073 11.2634 19.6561 11.5039C19.3101 11.5322 18.9944 11.6987 18.7897 11.9617L18.7337 12.0341C18.1477 12.8048 18.3433 13.6084 18.7202 14.1041C19.102 14.6058 19.8862 15.0564 20.8411 14.6732C21.3386 14.4743 21.8198 14.3718 22.2714 14.3671C22.5004 14.3461 23.7884 14.2662 25.3896 14.8239C26.9753 15.376 29.1909 16.6831 30.7397 19.7806C30.7413 19.7844 31.1187 20.5001 31.7846 20.5717C32.4243 20.6516 33.2165 20.124 34.0818 19.0773C34.4678 18.6109 35.0338 18.3458 35.6271 18.3458C35.6945 18.3458 35.762 18.3497 35.8294 18.3565C36.4766 18.4223 37.0216 18.7884 37.3254 19.3595C37.563 19.806 37.7625 20.345 37.9176 20.9608C38.0242 21.3826 38.4203 21.6591 38.8395 21.6028C39.1168 21.566 39.392 21.5242 39.6623 21.4788C39.5655 20.87 39.4348 20.2735 39.2723 19.6914C37.6081 13.8007 32.6193 9.29065 26.4702 8.32533ZM24.1289 34.915C24.4293 35.6665 25.1541 36.13 25.9242 36.13C26.1266 36.13 26.3323 36.0984 26.5323 36.0297C26.9691 35.8841 27.3403 35.5861 27.5771 35.1918L28.9309 32.9353C28.9644 32.8798 29.0046 32.8282 29.051 32.7817L29.6653 32.1675C30.0251 31.8082 30.2313 31.3099 30.2313 30.8012V29.0121C30.2313 28.8321 30.2938 28.6547 30.4064 28.5136L31.3981 27.2736C31.7462 26.8384 31.8894 26.2742 31.7908 25.725C31.6922 25.1769 31.3612 24.6975 30.8837 24.4109L29.7672 23.7404C29.6251 23.656 29.5107 23.5245 29.4448 23.3715L28.3551 20.8289C27.9976 19.9936 27.0921 19.5166 26.2008 19.695L24.9715 19.9415C24.7767 19.9811 24.5748 19.9461 24.4044 19.8429L22.3489 18.61C22.0498 18.4297 21.7059 18.334 21.3547 18.334H20.1684C19.5464 18.334 18.9586 18.6359 18.5965 19.143L16.4258 22.1821C16.1905 22.5113 16.0658 22.8989 16.0658 23.304V23.911C16.0658 24.5004 16.3298 25.0501 16.7905 25.4194L18.584 26.8537C19.0517 27.2282 19.6779 27.3644 20.2597 27.2192L20.8084 27.0822C21.1749 26.9937 21.5471 27.1626 21.7155 27.4998L22.2924 28.6529C22.3183 28.705 22.3388 28.7595 22.3531 28.816L23.4275 33.1143C23.449 33.1994 23.4755 33.2826 23.5079 33.3625L24.1289 34.915ZM22.7297 26.9932C22.3948 26.3235 21.7274 25.9237 21.0099 25.9237C20.8525 25.9237 20.6927 25.9432 20.5339 25.9839L19.9861 26.1206C19.7459 26.1816 19.4862 26.124 19.293 25.9691L17.5 24.5354C17.3096 24.3826 17.2004 24.1554 17.2004 23.9116V23.3048C17.2004 23.1375 17.252 22.9772 17.3493 22.8413L19.5202 19.8022C19.6699 19.5931 19.9124 19.4678 20.1697 19.4678H21.3557C21.5007 19.4678 21.6423 19.507 21.7666 19.5817L23.8228 20.8154C24.2361 21.0631 24.7235 21.1492 25.1961 21.0532L26.4257 20.8068C26.794 20.7344 27.1681 20.9303 27.3159 21.2755L28.4062 23.8187C28.5678 24.1948 28.8381 24.5043 29.1875 24.7134L30.3034 25.3831C30.5039 25.5035 30.637 25.6965 30.6785 25.9266C30.7192 26.1567 30.6622 26.3839 30.5159 26.5665L29.5237 27.8064C29.2505 28.1481 29.1003 28.5758 29.1003 29.0126V30.8017C29.1003 31.0118 29.0152 31.2175 28.8663 31.3662L28.2516 31.9815C28.1398 32.0933 28.0422 32.2183 27.9613 32.3527L26.608 34.6087C26.5094 34.7724 26.3559 34.8953 26.1759 34.956C25.774 35.0886 25.3388 34.8862 25.1818 34.4953L24.5603 32.941C24.5471 32.908 24.5359 32.8746 24.5274 32.8401L23.4529 28.5418C23.419 28.4054 23.3697 28.2721 23.3066 28.1463L22.7297 26.9932ZM32.4999 35.3334C32.3502 35.3334 32.2062 35.2743 32.0994 35.1674L30.9658 34.0341C30.8322 33.9002 30.7738 33.708 30.8112 33.5223L31.378 30.6888C31.4 30.5796 31.4537 30.4787 31.5326 30.3994L33.2327 28.6993C33.3805 28.5514 33.5982 28.4964 33.7976 28.5576C33.9976 28.6178 34.1478 28.7838 34.1886 28.989L34.7551 31.8222C34.7828 31.9604 34.7579 32.1039 34.6856 32.2253L32.9855 35.0584C32.896 35.2081 32.7419 35.3077 32.5691 35.3292C32.5458 35.3316 32.5224 35.3334 32.4999 35.3334ZM31.9813 33.4468L32.387 33.8533L33.601 31.8302L33.2848 30.2497L32.4545 31.08L31.9813 33.4468Z" fill="#90B68A"/>
</svg>
