<svg width="25" height="24" viewBox="0 0 25 24" fill="none" xmlns="http://www.w3.org/2000/svg">
<g clip-path="url(#clip0_2126_11913)">
<path d="M12.5 0C5.8828 0 0.5 5.38331 0.5 12C0.5 18.6167 5.8828 24 12.5 24C19.1172 24 24.5 18.6167 24.5 12C24.5 5.38331 19.1172 0 12.5 0ZM17.2705 12.4204L10.2705 16.9204C10.1885 16.9736 10.0938 17 10 17C9.91798 17 9.83497 16.9795 9.76077 16.939C9.59961 16.8511 9.5 16.6831 9.5 16.5V7.5C9.5 7.31691 9.59961 7.14891 9.76077 7.06102C9.91897 6.97411 10.1172 6.97945 10.2705 7.07958L17.2705 11.5796C17.4131 11.6714 17.5 11.8301 17.5 12C17.5 12.1699 17.4131 12.3286 17.2705 12.4204Z" fill="#1B1B1B"/>
</g>
<defs>
<clipPath id="clip0_2126_11913">
<rect width="24" height="24" fill="white" transform="translate(0.5)"/>
</clipPath>
</defs>
</svg>
