<svg width="64" height="64" viewBox="0 0 64 64" fill="none" xmlns="http://www.w3.org/2000/svg">
<circle cx="32" cy="32" r="31.7557" stroke="white" stroke-width="0.48855" stroke-dasharray="0.98 0.98"/>
<circle cx="31.9997" cy="31.9997" r="23.6947" stroke="white" stroke-width="2.9313"/>
<g clip-path="url(#clip0_1645_1308)">
<path d="M37.0317 31.1692H32.3417V26.479C32.3417 26.1555 32.079 25.8928 31.7554 25.8928C31.4318 25.8928 31.1692 26.1555 31.1692 26.479V31.1692H26.479C26.1555 31.1692 25.8928 31.4318 25.8928 31.7554C25.8928 32.079 26.1555 32.3417 26.479 32.3417H31.1692V37.0317C31.1692 37.3554 31.4318 37.618 31.7554 37.618C32.079 37.618 32.3417 37.3554 32.3417 37.0317V32.3417H37.0317C37.3554 32.3417 37.618 32.079 37.618 31.7554C37.618 31.4318 37.3554 31.1692 37.0317 31.1692Z" fill="white"/>
</g>
<defs>
<clipPath id="clip0_1645_1308">
<rect width="11.7252" height="11.7252" fill="white" transform="translate(25.8928 25.8928)"/>
</clipPath>
</defs>
</svg>
