<svg width="33" height="32" viewBox="0 0 33 32" fill="none" xmlns="http://www.w3.org/2000/svg">
<g clip-path="url(#clip0_1882_16838)">
<path d="M0.711494 15.4873L7.98405 8.21467C8.2453 7.90962 8.70442 7.87405 9.00947 8.13536C9.31453 8.39661 9.35009 8.85572 9.08879 9.16078C9.06441 9.18922 9.03791 9.21578 9.00947 9.24009L2.98052 15.2764H31.7728C32.1744 15.2764 32.5 15.602 32.5 16.0037C32.5 16.4053 32.1744 16.7309 31.7728 16.7309H2.98052L9.00947 22.7599C9.31453 23.0211 9.35009 23.4802 9.08879 23.7853C8.82748 24.0903 8.36842 24.1259 8.06337 23.8646C8.03493 23.8402 8.00837 23.8137 7.98405 23.7853L0.711432 16.5127C0.429501 16.2291 0.429501 15.771 0.711494 15.4873Z" fill="#D8B465"/>
</g>
<defs>
<clipPath id="clip0_1882_16838">
<rect width="32" height="32" fill="white" transform="matrix(-1 0 0 1 32.5 0)"/>
</clipPath>
</defs>
</svg>
