<svg width="16" height="17" viewBox="0 0 16 17" fill="none" xmlns="http://www.w3.org/2000/svg">
<g clip-path="url(#clip0_1754_53537)">
<path d="M15.68 12.4564C15.6218 12.3982 15.5572 12.347 15.4873 12.3036L12.4073 9.91093C12.2029 9.70627 11.9256 9.59118 11.6364 9.59093C11.3995 9.59302 11.1698 9.67214 10.9818 9.81639L10.1164 10.6819C9.84801 10.9807 9.3882 11.0055 9.08935 10.7371C9.04913 10.701 9.01307 10.6605 8.98185 10.6164V10.6382C7.79101 9.77836 6.74404 8.73512 5.88005 7.5473H5.90551C5.56202 7.33912 5.4523 6.8919 5.66048 6.5484C5.70252 6.47906 5.75583 6.41724 5.81823 6.36549L6.67276 5.51821C6.82236 5.3325 6.90554 5.10212 6.90914 4.86368C6.90889 4.57447 6.79379 4.29715 6.58914 4.09278L4.19642 1.01278C4.15392 0.943284 4.10392 0.878659 4.04733 0.820065C3.84202 0.614472 3.56324 0.499316 3.27274 0.500003C1.81821 0.500003 2.60345e-05 2.20909 2.60345e-05 4.31818C-0.00206771 4.8839 0.122151 5.44296 0.36365 5.95456C2.58599 10.3467 6.15333 13.914 10.5454 16.1364C11.0548 16.3768 11.6113 16.501 12.1745 16.5C14.2909 16.5 16 14.6818 16 13.2273C15.9997 12.938 15.8846 12.6607 15.68 12.4564ZM15.2727 13.3C15.2145 14.2964 13.9054 15.7727 12.1818 15.7727C11.7251 15.7729 11.2741 15.671 10.8618 15.4745C10.8233 15.4563 10.7831 15.4417 10.7418 15.4309C6.58598 13.2996 3.20399 9.91764 1.07274 5.76181C1.06077 5.71924 1.04496 5.67787 1.02546 5.63818C0.828962 5.2259 0.727087 4.7749 0.727275 4.31818C0.727275 2.55456 2.27274 1.22728 3.27274 1.22728C3.36939 1.22672 3.4623 1.26466 3.53093 1.33275C3.55011 1.35275 3.56714 1.37469 3.58183 1.39822L3.62183 1.45641L6.0182 4.5364L6.07639 4.6055C6.14445 4.67412 6.18239 4.76703 6.18186 4.86368C6.18248 4.9279 6.16483 4.99096 6.13095 5.0455L5.32005 5.84912C4.7337 6.39824 4.70355 7.31871 5.2527 7.90505C5.25455 7.90702 5.25639 7.90899 5.25823 7.91093L5.28733 7.95455C6.19898 9.20486 7.30367 10.3022 8.56004 11.2055L8.58914 11.2273C9.15338 11.7746 10.0504 11.7746 10.6146 11.2273L10.6546 11.1873L11.4691 10.3655C11.5198 10.3354 11.5775 10.3191 11.6364 10.3182C11.7331 10.3176 11.826 10.3556 11.8946 10.4236L11.9637 10.4855L15.0328 12.8636L15.0946 12.9073C15.1181 12.9205 15.1401 12.9364 15.1601 12.9545C15.2345 13.0254 15.2754 13.1245 15.2728 13.2273C15.2715 13.2515 15.2715 13.2758 15.2727 13.3Z" fill="#646363"/>
</g>
<defs>
<clipPath id="clip0_1754_53537">
<rect width="16" height="16" fill="white" transform="translate(0 0.5)"/>
</clipPath>
</defs>
</svg>
