<svg width="408" height="653" viewBox="0 0 408 653" fill="none" xmlns="http://www.w3.org/2000/svg">
<g opacity="0.5" clip-path="url(#clip0_2075_23957)">
<path d="M420.756 85.0517C416.901 87.1362 412.903 89.4694 409.049 91.5539C407.679 92.0893 406.564 93.1031 405.194 93.6385C403.283 94.193 400.577 94.2883 399.462 95.302C398.059 96.813 396.8 98.0752 395 99.3566L394.569 100.103C394.569 100.103 392.228 101.403 390.891 100.963C390.494 100.733 389.809 101.001 390.461 101.709C390.825 102.914 390.141 103.182 388.661 102.99C387.181 102.799 386.098 102.837 384.618 102.646C383.138 102.454 382.31 102.97 381.879 103.716C381.448 104.462 380.333 105.476 380.443 106.203C381.062 107.886 379.151 108.441 379.372 109.895C379.339 110.87 378.798 110.889 377.716 110.927C374.358 110.315 374.358 110.315 374.711 107.866C375.142 107.12 375.175 106.145 374.125 105.208C372.645 105.016 373.264 106.699 372.038 106.986C369.045 107.579 368.835 109.779 369.023 112.208C369.023 112.208 367.4 112.265 366.715 112.533C364.948 112.839 365.931 115.727 363.369 115.574C363.369 115.574 363.336 116.549 363.446 117.276C363.413 118.252 362.728 118.52 362.187 118.539C361.248 118.328 360.453 117.869 359.801 117.161C359.801 117.161 359.691 116.434 359.293 116.205C358.674 114.521 360.187 113.737 361.303 112.724C359.425 112.302 358.486 112.092 357.15 111.652C355.67 111.46 354.841 111.977 355.062 113.431C354.919 113.679 355.571 114.387 355.427 114.636C356.333 115.822 356.046 116.319 354.82 116.606C353.594 116.893 353.02 117.887 351.683 117.447C350.888 116.988 350.601 117.485 349.916 117.753C348.513 119.264 346.857 120.297 349.066 122.898C349.718 123.606 350.624 124.792 350.049 125.787C348.967 125.825 348.426 125.844 347.774 125.136C346.979 124.677 347.299 123.204 346.216 123.242C345.675 123.261 344.847 123.778 344.162 124.045C343.731 124.791 343.301 125.537 342.87 126.283C341.722 128.273 339.667 129.076 338.265 130.587C338.265 130.587 337.326 130.376 336.928 130.147C336.928 130.147 336.276 129.439 336.42 129.19C337.281 127.698 337.602 126.225 336.585 124.312C336.475 123.585 336.762 123.088 337.303 123.069C339.357 122.266 340.075 121.023 339.6 119.091C338.871 116.68 339.478 114.71 340.626 112.721C341.775 110.732 343.575 109.451 344.978 107.94C345.265 107.442 345.839 106.448 345.044 105.989C343.994 105.051 343.564 105.797 343.276 106.294C342.846 107.04 342.415 107.786 341.587 108.303C341.443 108.551 340.361 108.589 340.361 108.589C340.361 108.589 339.709 107.882 339.455 107.403C339.377 105.701 340.239 104.209 339.62 102.526C339.62 102.526 339.366 102.047 338.825 102.066C338.825 102.066 337.886 101.856 337.742 102.105C334.794 105.375 331.193 107.938 329.04 111.668C328.035 113.408 327.03 115.149 325.627 116.66L325.484 116.909L324.689 116.449C325.55 114.957 325.76 112.758 326.223 111.036C327.085 109.544 328.09 107.804 328.951 106.312C330.099 104.323 331.391 102.085 329.867 99.2154C329.359 98.2589 329.646 97.7616 330.076 97.0156C330.938 95.5238 331.512 94.5291 329.811 92.8839C329.016 92.4247 328.651 91.2196 328.938 90.7223C329.943 88.9818 328.385 87.0879 328.308 85.3855C327.833 83.4535 327.755 81.751 326.054 80.1058C324.861 79.4171 325.038 78.1929 325.468 77.4469C326.33 75.955 325.711 74.2716 324.408 72.856C323.899 71.8995 323.535 70.6944 322.485 69.757C321.325 68.0927 320.707 66.4094 320.773 64.4583C320.839 62.5072 318.408 58.4517 316.166 56.8256C313.78 55.4481 311.825 53.3246 310.554 50.9334C309.903 50.2256 309.394 49.2692 308.169 49.5559C307.086 49.5941 307.594 50.5506 307.307 51.0479C307.672 52.253 307.639 53.2285 308.147 54.185L308.942 54.6442C310.566 54.587 312.444 55.008 312.919 56.94C313.283 58.1451 316.1 58.7767 315.382 60.0199C315.173 62.2197 316.587 64.3621 317.062 66.2942C317.537 68.2262 316.278 69.4885 315.019 70.7508C314.875 70.9995 313.936 70.789 313.793 71.0376C313.793 71.0376 313.506 71.5349 313.362 71.7836C313.362 71.7836 313.616 72.2618 314.014 72.4914C315.207 73.1801 316.289 73.142 317.482 73.8308C319.217 74.5004 319.471 74.9787 318.753 76.222C318.322 76.9679 317.096 77.2547 317.461 78.4598C317.428 79.4353 318.621 80.1241 319.272 80.8319C320.576 82.2475 321.051 84.1796 323.326 84.8302C323.326 84.8302 323.183 85.0788 323.437 85.557L323.293 85.8057C323.293 85.8057 322.211 85.8438 321.813 85.6142C320.62 84.9255 319.538 84.9636 319.759 86.4174C319.616 86.666 319.328 87.1634 319.185 87.412C318.898 87.9093 318.754 88.158 319.152 88.3876C319.152 88.3876 319.693 88.3685 320.234 88.3494C320.234 88.3494 321.46 88.0626 321.858 88.2922C322.256 88.5218 321.968 89.0191 321.825 89.2678C319.738 91.0465 318.048 93.0547 320.511 96.1346C320.511 96.1346 320.511 96.1346 320.368 96.3833C319.363 98.1239 320.777 100.266 321.252 102.198C320.965 102.696 321.075 103.423 321.329 103.901C320.755 104.895 319.021 104.226 318.59 104.972C318.016 105.966 319.176 107.631 317.807 108.166C317.663 108.415 316.978 108.682 316.437 108.701C315.752 108.969 314.813 108.759 314.129 109.026C312.936 108.338 313.764 107.821 314.195 107.075C315.2 105.335 315.487 104.837 313.068 104.435C310.649 104.033 309.599 103.096 308.694 101.91C308.042 101.202 308.616 100.208 309.555 100.418C310.637 100.38 311.974 100.82 313.31 101.26L313.598 100.763C313.885 100.266 313.631 99.7874 313.089 99.8064C311.609 99.615 310.273 99.1748 310.339 97.2238C310.769 96.4778 309.433 96.0377 308.351 96.0759C307.268 96.114 305.136 95.2148 305.357 96.6685C305.435 98.371 303.635 99.6523 305.049 101.795C306.463 103.937 304.729 103.268 303.392 102.828C302.994 102.598 302.31 102.866 302.166 103.114C301.879 103.612 302.133 104.09 302.531 104.319C304.011 104.511 304.519 105.467 304.884 106.673C304.884 106.673 305.281 106.902 305.679 107.132C308.065 108.509 308.065 108.509 307.601 110.231C307.314 110.728 306.883 111.474 306.596 111.971C304.718 111.55 304.718 111.55 303.702 109.637C303.592 108.91 302.796 108.451 302.399 108.222C301.206 107.533 300.41 107.074 299.504 105.888C298.201 104.472 297.439 103.037 298.698 101.775C299.272 100.78 299.846 99.7858 300.42 98.7912C300.884 97.0697 301.348 95.3482 302.861 94.5641C304.374 93.78 304.694 92.3072 303.534 90.6429C302.374 88.9786 302.694 87.5058 304.208 86.7217C304.638 85.9757 305.069 85.2298 305.897 84.7134C307.521 84.6562 309.144 84.599 311.276 85.4983C310.768 84.5418 309.862 83.3558 310.149 82.8585C310.47 81.3856 310.646 80.1614 308.371 79.5108C307.973 79.2812 307.719 78.803 308.006 78.3057C308.47 76.5842 309.331 75.0923 310.844 74.3082C311.131 73.8109 311.562 73.0649 310.767 72.6058C309.176 71.6874 308.922 71.2092 309.242 69.7364C309.816 68.7418 307.541 68.0912 306.746 67.632C306.922 66.4078 307.099 65.1836 304.967 64.2843C303.774 63.5956 303.012 62.1609 302.504 61.2044C302.647 60.9557 303.619 60.1908 303.652 59.2152C303.652 59.2152 303.939 58.7179 304.083 58.4693C304.944 56.9773 304.547 56.7478 302.558 55.5998C300.968 54.6815 300.423 53.4828 300.923 52.0035L301.067 51.7549C301.067 51.7549 301.1 50.7793 300.304 50.3202C299.907 50.0906 299.112 49.6314 298.824 50.1287C298.537 50.626 298.25 51.1233 297.963 51.6206C296.815 53.6098 294.76 54.413 292.198 54.2597L291.402 53.8005L291.292 53.0736C293.92 51.2759 294.45 47.6033 298.923 47.2021L299.211 46.7048C299.211 46.7048 298.813 46.4752 298.415 46.2456C295.963 46.8192 294.053 47.3737 292.65 48.8847C291.247 50.3956 288.033 49.5345 286.631 51.0455C286.631 51.0455 286.631 51.0455 286.487 51.2942C285.482 53.0347 283.571 53.5892 281.915 54.622C281.086 55.1383 280.656 55.8843 281.705 56.8217C282.5 57.2809 281.816 57.5486 281.274 57.5676C280.479 57.1085 279.397 57.1466 278.966 57.8926C276.702 60.8954 273.787 63.1905 270.871 65.4856C266.553 69.2916 263.284 74.035 259.363 78.0706C258.789 79.0652 257.674 80.0789 256.702 80.8439C253.831 85.8169 248.717 89.1638 245.846 94.1368L245.702 94.3855C241.064 99.6643 236.426 104.943 231.787 110.222C227.149 115.501 222.908 121.009 218.27 126.288C217.408 127.78 215.608 129.062 214.747 130.553C212.163 135.029 207.988 138.587 205.26 143.311C202.389 148.284 198.469 152.32 195.598 157.293C195.167 158.039 194.593 159.033 194.162 159.779C188.519 166.799 183.417 173.799 178.569 181.277C177.277 183.515 175.985 185.753 173.897 187.532C173.467 188.278 173.036 189.024 172.605 189.77C170.308 193.748 168.011 197.727 165.714 201.705C164.135 204.44 162.158 206.946 160.579 209.681C159.431 211.67 159.332 214.597 156.339 215.189C156.339 215.189 155.908 215.935 155.764 216.184C155.698 218.135 154.042 219.168 153.18 220.66C152.032 222.649 150.74 224.887 149.591 226.876C148.156 229.362 146.577 232.098 145.141 234.584C143.275 237.817 141.409 241.049 139.145 244.052C139.001 244.301 138.714 244.798 138.57 245.047C139.333 246.481 138.504 246.998 137.676 247.514C135.047 249.312 133.468 252.047 132.287 255.012C131.282 256.752 130.133 258.741 129.129 260.482C127.693 262.968 125.716 265.474 124.678 268.19C124.391 268.687 124.104 269.185 123.817 269.682C121.045 271.728 119.466 274.464 118.284 277.428C115.236 283.626 111.393 289.364 107.948 295.331C103.785 302.542 99.2238 309.523 96.3971 317.174C95.9665 317.92 95.3922 318.915 94.9615 319.661C93.3824 322.396 91.4056 324.902 90.2241 327.866C89.904 329.339 88.645 330.602 87.5295 331.615C85.5858 333.145 84.4373 335.134 83.9406 337.831C83.3333 339.802 82.726 341.772 80.9258 343.053C80.0645 344.545 78.8055 345.807 79.2806 347.739C79.3912 348.466 79.104 348.964 78.5628 348.983C77.8781 349.25 77.5909 349.748 77.3038 350.245C76.8071 352.942 74.7198 354.721 73.4277 356.959C72.9971 357.705 72.4228 358.699 71.9922 359.445C72.3568 360.65 71.5285 361.167 70.5566 361.932C69.7282 362.448 68.2151 363.232 69.121 364.418C69.9938 366.58 68.7678 366.866 67.6524 367.88C67.0781 368.875 66.3603 370.118 66.1838 371.342C66.4048 372.796 65.8306 373.791 64.3175 374.575C62.8044 375.359 62.0866 376.602 62.0206 378.553C62.2416 380.007 61.6674 381.001 60.4414 381.288C59.6131 381.805 59.4365 383.029 59.0058 383.775C58.7187 384.272 58.288 385.018 58.0009 385.515C55.8031 386.567 56.4218 388.25 57.4381 390.163C58.7086 392.555 58.7086 392.555 56.5107 393.606C55.5389 394.371 53.374 394.448 54.788 396.59C55.0421 397.068 54.3574 397.336 54.3574 397.336C52.082 396.686 52.1595 398.388 51.5853 399.383C50.5804 401.123 53.0768 403.227 51.8178 404.49C50.9564 405.982 48.7916 406.058 47.5326 407.32C47.1019 408.066 46.5277 409.061 46.097 409.807C45.6663 410.553 45.3792 411.05 45.0921 411.547C41.094 413.881 40.1336 418.299 38.7755 422.488C37.9142 423.98 39.8694 426.103 42.1448 426.754C44.4201 427.405 47.2367 428.036 49.1475 427.482C50.517 426.946 51.9971 427.138 53.4441 428.305C54.6371 428.993 55.3219 428.726 56.1502 428.209C56.4373 427.712 57.3762 427.923 57.9174 427.903C58.7127 428.363 58.9668 428.841 58.6797 429.338C57.8183 430.83 59.4089 431.748 60.1712 433.183C60.2817 433.91 61.7618 434.101 62.1925 433.356C63.0538 431.864 63.1974 431.615 64.8985 433.26C66.202 434.676 68.3669 434.6 69.8469 434.791C70.7858 435.002 72.1553 434.466 73.2047 435.403C74 435.863 74.5412 435.844 74.8283 435.346C75.259 434.6 75.5461 434.103 75.4356 433.376C75.1815 432.898 74.3862 432.439 74.1321 431.961C73.2263 430.774 73.5464 429.302 75.5677 429.474C77.1913 429.417 78.6714 429.608 79.8974 429.321C80.8032 430.508 81.8526 431.445 82.7585 432.631C83.9184 434.295 81.7535 434.372 81.1793 435.366L81.0357 435.615C81.0357 435.615 81.4004 436.82 82.1957 437.279C82.5933 437.509 83.1345 437.49 83.6758 437.471C84.7582 437.432 84.6807 435.73 86.4148 436.4C85.9511 438.121 86.2827 440.302 84.4825 441.583C84.1954 442.08 83.9083 442.578 85.3884 442.769C85.786 442.999 86.6143 442.482 87.2661 443.19C88.6801 445.333 91.3862 445.237 92.8002 447.38C93.3084 448.336 94.3908 448.298 95.1861 448.758C96.2685 448.719 97.4615 449.408 98.1132 450.116C99.7038 451.034 101.294 451.953 103.316 452.125C103.713 452.355 104.796 452.316 105.591 452.776C106.386 453.235 107.182 453.694 107.149 454.669C107.226 456.372 106.365 457.864 105.647 459.107C101.373 465.591 98.5466 473.242 95.4658 480.415C93.8536 484.125 93.0368 488.295 91.8223 492.236C91.5351 492.733 91.248 493.23 91.3586 493.957C89.8239 499.37 91.1058 505.415 91.1948 510.771C91.4159 512.225 91.7805 513.43 92.5428 514.864C93.305 516.299 94.498 516.988 96.2652 516.682C98.5736 516.357 99.5785 514.617 101.235 513.584C101.235 513.584 100.871 512.379 100.616 511.9C103.057 507.673 103.763 502.777 103.133 497.44L103.277 497.191C102.58 493.805 103.762 490.841 104.8 488.125C105.231 487.379 105.661 486.633 106.998 487.073C108.732 487.742 109.163 486.996 109.88 485.753C111.382 481.316 113.138 477.356 114.639 472.919C114.926 472.421 115.07 472.173 115.468 472.402C115.865 472.632 116.119 473.11 115.832 473.607C114.938 476.075 114.044 478.542 113.69 480.991C112.796 483.458 111.758 486.174 112.2 489.082C112.245 491.76 112.035 493.959 110.345 495.968C109.915 496.714 110.279 497.919 111.218 498.129C112.809 499.048 113.604 499.507 113.825 500.961C113.538 501.458 113.649 502.185 114.3 502.893C115.604 504.308 115.681 506.011 117.128 507.178C119.039 506.623 118.42 504.94 119.138 503.697C119.138 503.697 120.265 506.336 119.404 507.828C117.681 510.812 118.73 511.75 122.375 511.865C122.375 511.865 123.458 511.827 123.601 511.578C123.888 511.081 123.491 510.851 122.696 510.392C121.9 509.933 121.503 509.703 121.536 508.728C121.536 508.728 121.823 508.23 121.966 507.982C122.253 507.484 122.651 507.714 123.446 508.173C125.435 509.321 125.976 509.302 125.898 507.599C125.997 504.673 126.892 502.205 127.388 499.508C127.565 498.284 128.25 498.017 129.476 497.73C131.033 499.624 130.967 501.575 130.901 503.526C130.051 508.671 128.804 513.587 125.966 517.584C124.53 520.071 123.095 522.557 121.261 524.814C119.108 528.544 117.209 532.752 113.862 535.793C113.575 536.29 113.144 537.036 112.857 537.534C111.852 539.274 112.725 541.436 115.111 542.813C116.304 543.502 117.497 544.191 118.69 544.88C119.485 545.339 120.568 545.301 121.65 545.263C123.815 545.186 125.472 544.154 128.034 544.307C130.597 544.46 130.597 544.46 131.491 541.993L130.773 543.236C130.773 543.236 129.569 538.894 130.176 536.924C130.75 535.929 131.579 535.413 132.407 534.896C132.981 533.902 132.219 532.467 133.986 532.161C135.212 531.874 135.135 530.172 136.106 529.407C139.342 525.639 139.938 520.015 144.367 516.936C144.51 516.688 144.798 516.19 144.543 515.712C145.692 513.723 145.979 513.225 149.337 513.838C150.132 514.297 150.927 514.756 150.099 515.273C148.012 517.051 146.576 519.538 146.079 522.235C145.903 523.459 144.82 523.497 143.594 523.784C141.684 524.339 142.302 526.022 144.147 527.418C144.545 527.648 144.942 527.878 145.627 527.61C145.914 527.113 146.345 526.367 147.538 527.055C148.333 527.515 147.759 528.509 146.389 529.045C145.561 529.561 144.622 529.35 143.429 528.662C142.634 528.203 142.126 527.246 141.552 528.241C141.552 528.241 141.662 528.968 142.06 529.197C144.81 531.78 144.203 533.75 142.911 535.988C142.624 536.485 142.193 537.231 141.906 537.728C140.249 538.761 140.183 540.712 139.322 542.204C138.891 542.95 139.4 543.906 140.195 544.366C140.99 544.825 142.216 544.538 142.901 544.27C143.586 544.003 143.475 543.276 143.221 542.797C142.713 541.841 142.459 541.363 143.828 540.827C145.629 539.546 147.031 538.035 147.782 535.816C148.246 534.095 148.389 533.846 150.377 534.994C151.57 535.683 152.653 535.645 153.625 534.88C154.199 533.885 155.712 533.101 156.286 532.106C156.861 531.112 157.435 530.117 158.009 529.122C158.009 529.122 157.898 528.396 157.501 528.166C157.501 528.166 157.103 527.936 156.562 527.955C156.418 528.204 155.844 529.199 155.192 528.491C154.795 528.261 154.43 527.056 154.574 526.808C155.148 525.813 155.722 524.818 156.296 523.824C156.584 523.326 157.522 523.537 157.489 524.512C157.202 525.01 157.313 525.737 158.252 525.947C159.047 526.406 159.875 525.89 160.162 525.393C161.024 523.901 162.824 522.619 162.89 520.668C163.177 520.171 163.21 519.195 163.895 518.928C164.182 518.43 164.867 518.163 165.662 518.622C166.457 519.081 166.027 519.827 165.883 520.076C165.309 521.07 165.53 522.524 164.956 523.519C164.238 524.762 163.664 525.756 164.967 527.172C165.873 528.358 165.696 529.582 164.979 530.826C164.548 531.572 163.466 531.61 162.383 531.648C160.76 531.705 159.644 532.719 159.865 534.172C159.656 536.372 159.446 538.572 156.85 539.394L156.707 539.643C156.707 539.643 156.784 541.345 157.977 542.034C159.17 542.723 159.457 542.225 159.888 541.479C160.462 540.485 161.037 539.49 161.611 538.496C161.611 538.496 161.898 537.998 162.296 538.228C163.091 538.687 163.091 538.687 162.804 539.184C162.053 541.403 161.159 543.871 160.408 546.089C159.513 548.557 159.16 551.005 157.868 553.243C157.437 553.989 157.007 554.735 157.515 555.692C158.785 558.083 158.576 560.282 157.969 562.253C157.041 565.696 156.909 569.598 157.285 574.456C158.721 571.97 159.328 570 159.394 568.049C159.825 567.303 160.399 566.308 161.879 566.499C163.359 566.691 164.044 566.423 164.22 565.199C164.541 563.726 165.004 562.005 165.722 560.761C166.009 560.264 166.838 559.748 168.031 560.437C168.826 560.896 169.223 561.125 169.19 562.101C168.87 563.574 169.489 565.257 168.374 566.271C168.086 566.768 168.341 567.246 168.451 567.973C168.562 568.7 169.357 569.159 169.755 569.389C170.55 569.848 170.837 569.351 171.268 568.605C171.985 567.361 172.449 565.64 173.565 564.626C175.266 566.271 173.466 567.553 175.023 569.447C175.884 567.955 176.348 566.233 176.812 564.512C177.099 564.015 177.386 563.517 177.673 563.02L178.469 563.479C178.469 563.479 178.69 564.933 178.8 565.66C178.734 567.611 178.414 569.084 177.95 570.805C177.232 572.048 178.138 573.234 179.188 574.172C180.237 575.109 180.889 575.817 182.225 576.257C184.755 577.386 187.682 578.744 190.244 578.898C191.724 579.089 193.205 579.281 194.795 580.199C198.374 582.265 201.842 583.605 205.741 584.198C206.68 584.409 206.791 585.135 206.36 585.881C206.073 586.379 205.642 587.125 205.355 587.622C204.637 588.865 206.339 590.51 208.106 590.205C209.188 590.166 209.873 589.899 210.414 589.88C211.607 590.568 210.635 591.333 210.889 591.812C210.889 591.812 211.685 592.271 212.082 592.5C213.275 593.189 214.501 592.902 215.727 592.616C216.412 592.348 216.666 592.826 217.318 593.534C217.903 596.193 219.494 597.111 222.057 597.265C223.68 597.207 225.05 596.672 227.182 597.571C228.374 598.26 230.396 598.432 231.445 599.37C232.163 598.126 233.532 597.591 235.046 596.807C235.189 596.558 235.476 596.061 236.017 596.042C236.161 595.793 236.846 595.526 237.243 595.755C240.171 597.114 242.512 595.813 244.82 595.488L244.103 596.731C244.103 596.731 242.987 597.745 244.18 598.434C246.091 597.879 247.604 597.095 248.465 595.603C249.183 594.36 250.044 592.868 251.955 592.314C251.955 592.314 252.64 592.046 253.038 592.276C253.435 592.505 253.833 592.735 253.943 593.462C253.557 596.886 253.027 600.558 252.641 603.982C252.222 608.381 252.742 612.991 254.2 617.812C254.675 619.744 255.294 621.427 256.995 623.073C257.647 623.78 258.696 624.718 259.779 624.68C262.628 624.336 265.191 624.489 267.864 625.369C268.659 625.828 269.09 625.082 268.979 624.355C268.361 622.672 268.791 621.926 270.415 621.869C271.497 621.831 272.326 621.314 272.502 620.09C270.481 619.918 268.714 620.224 266.803 620.778C265.577 621.065 264.892 621.333 263.556 620.893C264.274 619.649 263.511 618.215 264.627 617.201C266.062 614.714 267.498 612.228 267.199 609.072C267.487 608.574 267.917 607.829 267.807 607.102C267.95 606.853 268.237 606.356 269.033 606.815C269.033 606.815 269.828 607.274 269.684 607.523C269.872 609.952 269.917 612.63 269.564 615.078C269.277 615.576 268.989 616.073 270.182 616.762C271.375 617.45 271.408 616.475 271.839 615.729C273.562 612.745 275.285 609.761 273.395 605.687C273.395 605.687 273.682 605.189 273.826 604.941C274.257 604.195 274.257 604.195 275.306 605.132C275.306 605.132 275.704 605.362 276.101 605.591C276.963 604.1 278.443 604.291 280.177 604.961C282.165 606.109 283.535 605.573 284.65 604.56C286.373 601.576 290.305 601.194 292.425 598.439C293.574 596.45 294.91 596.89 298.091 598.727C299.671 595.992 302.189 593.467 306.121 593.085C306.121 593.085 306.805 592.817 306.949 592.569C308.097 590.579 310.804 590.484 312.968 590.408C315.277 590.083 315.707 589.337 315.232 587.405C314.868 586.2 315.298 585.454 316.668 584.918C319.153 583.369 320.445 581.131 321.339 578.664C322.344 576.923 323.636 574.686 325.691 573.882C328.142 573.309 328.893 571.09 331.345 570.517C332.781 568.03 335.663 566.711 335.508 563.306C335.431 561.603 336.292 560.111 336.612 558.638C337.043 557.893 337.474 557.147 338.159 556.879C339.926 556.573 340.5 555.578 338.942 553.685C338.147 553.225 338.721 552.231 339.66 552.441C342.079 552.843 342.94 551.351 344.199 550.089C345.746 548.329 347.833 546.551 349.379 544.791C350.925 543.031 352.869 541.501 353.222 539.053C353.542 537.58 354.404 536.088 355.519 535.075C356.635 534.061 356.955 532.588 357.672 531.345C358.103 530.599 358.534 529.853 358.964 529.107C358.964 529.107 359.252 528.61 359.649 528.839C360.047 529.069 360.412 530.274 361.24 529.758C361.527 529.26 361.814 528.763 362.101 528.266C362.675 527.271 362.852 526.047 363.029 524.823C363.172 524.574 363.459 524.077 363.603 523.828C367.06 521.514 368.672 517.803 370.682 514.322C373.409 509.598 376.678 504.854 380.201 500.589C381.062 499.097 382.321 497.835 382.785 496.113C384.651 492.881 386.518 489.649 388.384 486.416C390.394 482.935 392.404 479.454 394.413 475.973C397.494 468.8 401.37 462.086 406.98 456.043C407.268 455.545 407.698 454.799 407.985 454.302C411 449.08 414.81 444.318 416.091 438.426C416.091 438.426 416.091 438.426 416.234 438.178C415.726 437.221 414.423 435.806 415.538 434.792C415.969 434.046 416.399 433.3 416.432 432.325C417.216 429.13 418.795 426.395 421.026 424.368C423.257 422.34 425.09 420.083 427.067 417.578C429.651 413.102 432.633 408.856 435.217 404.38C438.088 399.407 440.959 394.434 443.831 389.461C444.979 387.472 446.128 385.483 447.674 383.723C450.655 379.477 453.637 375.231 456.221 370.755C458.662 366.528 461.102 362.301 463.543 358.074C466.844 352.355 470.29 346.387 472.796 340.209C476.451 332.042 480.504 324.104 482.966 315.248C484.644 309.586 487.261 304.135 489.879 298.684C493.677 290.268 497.873 282.081 501.418 273.187C501.705 272.69 501.992 272.193 501.197 271.733C499.253 273.263 498.248 275.004 497.895 277.452C496.537 281.641 493.588 284.912 491.578 288.393C491.578 288.393 491.291 288.89 490.894 288.661C490.496 288.431 490.098 288.202 489.988 287.475C490.484 284.778 491.776 282.54 493.72 281.01C495.123 279.499 496.128 277.758 496.735 275.788C497.375 272.842 498.811 270.356 501.042 268.329C502.444 266.818 503.99 265.058 504.2 262.858C503.979 261.404 504.84 259.913 506.21 259.377C508.551 258.077 509.302 255.858 509.512 253.658C509.898 250.234 511.477 247.499 513.995 244.974C515.828 242.718 517.264 240.231 516.965 237.075C516.921 234.397 517.274 231.948 519.218 230.418C519.505 229.921 519.792 229.424 520.079 228.927C521.183 224.259 524.817 220.721 526.318 216.283C527.323 214.543 528.328 212.802 528.681 210.354C526.803 209.933 525.942 211.425 524.606 210.985C523.81 210.526 523.413 210.296 522.617 209.837C522.109 208.88 522.794 208.613 523.622 208.096C524.959 208.536 525.643 208.269 525.82 207.044C526.251 206.299 526.681 205.553 527.112 204.807C529.023 204.252 528.691 202.071 529.409 200.828C529.84 200.082 529.188 199.374 528.536 198.667C527.343 197.978 527.233 197.251 527.807 196.256C528.525 195.013 528.017 194.057 526.967 193.119C526.57 192.89 526.315 192.411 525.774 192.43C524.184 191.512 523.819 190.307 523.598 188.853C523.907 183.727 524.613 178.83 526.656 174.373C528.666 170.892 528.4 166.761 526.511 162.686C524.876 159.09 522.269 156.259 519.662 153.427C517.707 151.304 515.067 149.448 511.996 148.338C511.201 147.879 509.721 147.688 509.069 146.98C506.429 145.124 503.899 143.995 500.829 142.885C500.033 142.426 498.553 142.235 497.902 141.527C495.549 139.174 493.494 139.977 491.075 139.575C491.075 139.575 489.993 139.613 489.706 140.111C488.988 141.354 487.475 142.138 487.552 143.84C487.519 144.816 487.884 146.021 486.515 146.556C485.289 146.843 484.317 147.608 482.837 147.417C482.041 146.958 481.644 146.728 481.533 146.001C481.82 145.504 482.251 144.758 482.14 144.031C481.632 143.075 480.66 143.84 479.721 143.629C479.324 143.399 478.926 143.17 478.672 142.692C477.656 140.779 477.976 139.306 479.776 138.024C480.748 137.259 480.494 136.781 478.903 135.863C477.71 135.174 476.23 134.983 474.861 135.518C473.491 136.054 472.122 136.589 471.15 137.354C470.719 138.1 469.493 138.387 468.3 137.698C465.627 136.818 463.606 136.645 461.297 136.97C461.154 137.219 460.358 136.76 460.104 136.282C459.85 135.803 459.74 135.076 459.486 134.598C458.978 133.642 458.039 133.431 456.813 133.718C455.3 134.502 455.3 134.502 453.201 132.627C452.803 132.398 452.008 131.939 451.721 132.436C451.577 132.684 451.29 133.182 451.544 133.66C452.306 135.095 454.328 135.267 455.344 137.18C453.511 139.437 451.28 141.464 449.447 143.721C448.585 145.213 446.675 145.768 444.764 146.322C442.853 146.877 443.041 149.306 441.13 149.86C438.391 150.931 437.21 153.896 433.565 153.781C433.024 153.8 432.991 154.776 432.704 155.273C430.583 158.027 427.668 160.322 425.801 163.555C425.658 163.803 425.371 164.301 424.575 163.841C424.178 163.612 423.924 163.134 424.211 162.636C425.359 160.647 426.508 158.658 427.656 156.669C429.489 154.412 431.466 151.906 432.504 149.19C431.057 148.023 429.942 149.037 428.605 148.597C428.384 147.143 429.212 146.626 429.787 145.632C431.079 143.394 433.707 141.596 433.806 138.67C433.806 138.67 434.093 138.172 434.237 137.924C436.148 137.369 436.468 135.896 437.727 134.634C438.157 133.888 438.699 133.869 439.748 134.806C441.306 136.7 441.847 136.681 442.852 134.941C443.426 133.946 443.746 132.473 443.923 131.249C444.353 130.503 443.702 129.795 442.906 129.336C442.509 129.107 442.111 128.877 442.542 128.131C442.829 127.634 442.972 127.385 443.768 127.844C446.871 127.978 447.269 128.208 446.142 125.568L445.015 122.928C445.015 122.928 444.507 121.972 443.822 122.24C443.822 122.24 443.535 122.737 443.392 122.986C443.038 125.434 439.902 126.275 439.151 128.494C439.007 128.743 437.925 128.781 437.384 128.8C436.699 129.068 435.76 128.857 435.219 128.876C438.002 130.483 438.002 130.483 436.313 132.491C435.882 133.237 435.308 134.232 434.877 134.978C434.303 135.973 433.872 136.719 432.646 137.005C431.818 137.522 430.481 137.082 429.83 136.374C428.924 135.188 428.018 134.002 427.112 132.816C426.715 132.586 426.46 132.108 425.919 132.127C425.776 132.375 425.091 132.643 425.345 133.121C425.422 134.824 424.053 135.359 422.827 135.646L422.032 135.187C422.749 133.944 423.213 132.222 422.992 130.768C423.279 130.271 423.566 129.774 424.505 129.984C425.985 130.176 426.957 129.411 427.531 128.416C429 124.954 430.469 121.492 431.396 118.049C431.97 117.054 431.352 115.371 432.467 114.357C433.726 113.095 432.964 111.66 432.201 110.226C432.201 110.226 431.693 109.269 431.152 109.288C430.611 109.307 429.926 109.575 429.639 110.072C429.352 110.57 430.258 111.756 429.429 112.272C428.999 113.018 426.756 111.392 426.69 113.343C426.69 113.343 425.464 113.63 424.923 113.649C423.443 113.457 422.935 112.501 423.365 111.755C424.227 110.263 425.629 108.752 426.888 107.49C428.435 105.73 430.378 104.2 431.781 102.689C431.924 102.44 432.212 101.943 432.355 101.695C432.245 100.968 431.162 101.006 430.764 100.776C428.202 100.623 426.291 101.177 425.286 102.918C424.425 104.41 423.088 103.97 421.895 103.281C421.1 102.822 419.907 102.133 419.112 101.674C418.317 101.215 417.091 101.502 416.328 100.067C418.129 98.7854 419.785 97.7527 421.585 96.4713C422.701 95.4576 424.612 94.9031 423.739 92.7415C423.485 92.2633 424.026 92.2442 424.711 91.9765C427.163 91.403 428.072 89.8282 427.438 87.2522C427.438 87.2522 427.184 86.7739 426.93 86.2957C425.307 86.3529 424.081 86.6397 423.109 87.4047L420.756 85.0517ZM334.021 112.223C334.883 110.731 335.026 110.482 335.822 110.942C336.727 112.128 336.297 112.874 335.866 113.62C335.292 114.614 334.861 115.36 333.635 115.647C333.668 114.671 333.304 113.466 334.419 112.453L334.021 112.223ZM331.614 115.475C331.614 115.475 332.442 114.958 333.237 115.417L333.348 116.144C333.204 116.393 332.917 116.89 332.774 117.139C331.978 116.68 331.724 116.201 332.011 115.704L331.614 115.475ZM331.084 119.147C331.084 119.147 331.736 119.855 331.449 120.352C331.018 121.098 329.936 121.136 329.284 120.429C329.284 120.429 328.632 119.721 328.776 119.472C329.206 118.726 329.891 118.458 330.686 118.918L331.084 119.147ZM313.665 110.748C313.665 110.748 315.178 109.964 316.006 109.447C316.802 109.907 317.995 110.595 317.42 111.59C316.846 112.585 315.366 112.393 314.571 111.934C314.173 111.704 313.919 111.226 314.206 110.729L313.665 110.748ZM304.536 65.0303C304.536 65.0303 307.574 67.1156 308.623 68.053C307.906 69.2963 306.967 69.0858 306.171 68.6266C304.979 67.9379 304.757 66.4841 304.536 65.0303ZM306.503 70.8072C306.503 70.8072 306.216 71.3045 305.818 71.075C305.421 70.8454 305.023 70.6158 305.31 70.1185C305.31 70.1185 305.851 70.0994 306.249 70.329C306.249 70.329 306.105 70.5776 306.36 71.0559L306.503 70.8072ZM289.006 60.7055L289.294 60.2082C289.294 60.2082 289.945 60.9161 290.199 61.3943C290.454 61.8725 289.912 61.8916 289.912 61.8916C289.515 61.662 289.117 61.4324 289.006 60.7055ZM282.081 61.6803C282.081 61.6803 282.479 61.9099 283.02 61.8908C283.418 62.1204 283.528 62.8473 283.385 63.0959C283.098 63.5932 282.7 63.3636 282.446 62.8854C282.048 62.6558 281.938 61.929 282.622 61.6613L282.081 61.6803ZM300.053 73.714C300.053 73.714 301.423 73.1786 302.218 73.6377C302.218 73.6377 302.616 73.8673 302.87 74.3456C302.439 75.0915 301.5 74.881 300.705 74.4219C300.705 74.4219 299.91 73.9627 300.053 73.714ZM307.62 81.7296C307.62 81.7296 309.321 83.3749 308.603 84.6181C308.46 84.8667 308.173 85.364 308.029 85.6127C307.234 85.1535 306.041 84.4648 305.245 84.0056C304.45 83.5464 304.483 82.5709 304.77 82.0736C305.201 81.3277 306.681 81.5191 307.333 82.2269L307.62 81.7296ZM282.137 68.0117C282.137 68.0117 282.932 68.4709 282.645 68.9682C282.358 69.4655 281.817 69.4846 281.563 69.0064C281.165 68.7768 280.514 68.069 280.259 67.5907C280.657 67.8203 281.74 67.7822 282.281 67.7631L282.137 68.0117ZM275.643 68.2406C276.648 66.5 276.648 66.5 280.116 67.8394C279.542 68.834 278.713 69.3503 277.741 70.1153C277.454 70.6127 276.372 70.6508 276.118 70.1726C275.323 69.7134 275.753 68.9675 276.04 68.4702L275.643 68.2406ZM119.105 504.672C119.105 504.672 118.519 502.013 119.094 501.019C119.458 502.224 119.679 503.678 119.105 504.672ZM151.381 521.317C151.351 519.532 152.091 517.638 153.6 515.637C153.645 518.314 152.386 519.577 151.381 521.317ZM162.364 560.149C162.364 560.149 161.79 561.144 161.138 560.436C161.138 560.436 160.884 559.957 160.63 559.479C160.774 559.231 161.061 558.733 161.204 558.485C161.348 558.236 161.746 558.466 162 558.944C161.856 559.192 162.11 559.671 161.967 559.919L162.364 560.149ZM207.243 579.761C207.243 579.761 206.812 580.506 206.415 580.277C206.415 580.277 205.619 579.818 205.763 579.569C205.906 579.32 206.194 578.823 206.591 579.053C206.591 579.053 206.989 579.282 207.243 579.761ZM209.474 577.733L208.679 577.274C208.822 577.025 209.109 576.528 209.253 576.279C209.253 576.279 209.794 576.26 210.335 576.241C210.733 576.471 210.843 577.198 210.302 577.217C210.159 577.465 209.617 577.485 209.076 577.504L209.474 577.733ZM217.637 580.125L217.349 580.622C217.349 580.622 216.952 580.393 216.554 580.163C215.759 579.704 215.648 578.977 214.997 578.269C216.079 578.231 216.587 579.188 217.382 579.647L217.637 580.125ZM245.67 590.343C245.67 590.343 246.576 591.529 246.83 592.007C248.642 594.379 248.642 594.379 245.505 595.22C245.284 593.767 245.748 592.045 242.501 592.16C243.362 590.668 244.334 589.903 244.654 588.43C246.134 588.621 245.56 589.616 246.211 590.324L245.67 590.343ZM264.241 620.625L263.953 621.122C263.953 621.122 261.214 622.193 259.767 621.026C258.718 620.089 259.436 618.845 259.215 617.392C259.502 616.894 260.187 616.627 260.838 617.334C262.429 618.253 263.335 619.439 264.241 620.625ZM129.84 498.935C129.84 498.935 128.283 497.041 128.316 496.065C127.808 495.109 128.89 495.071 129.321 494.325C130.006 494.057 131.198 494.746 131.309 495.473C131.53 496.927 131.354 498.151 129.984 498.686L129.84 498.935ZM156.041 511.409C156.041 511.409 155.787 510.931 155.93 510.683C156.074 510.434 156.361 509.937 156.902 509.918C157.698 510.377 157.41 510.874 157.267 511.123C157.123 511.371 156.836 511.869 156.041 511.409ZM172.653 515.696C172.653 515.696 171.792 517.188 171.074 518.431C170.997 516.729 171.03 515.753 171.46 515.007C171.46 515.007 171.747 514.51 172.543 514.969C172.543 514.969 173.338 515.428 173.195 515.677L172.653 515.696ZM165.385 510.837C165.385 510.837 164.811 511.831 163.872 511.621C163.872 511.621 163.618 511.143 163.761 510.894C164.049 510.397 164.336 509.899 165.275 510.11C165.275 510.11 165.529 510.588 165.385 510.837ZM170.079 511.889C170.079 511.889 169.792 512.387 169.395 512.157C169.395 512.157 168.378 510.244 167.87 509.288C167.616 508.809 167.505 508.082 168.588 508.044C169.129 508.025 169.924 508.484 170.178 508.963C170.687 509.919 170.654 510.895 170.079 511.889ZM158.425 500.851C158.425 500.851 157.851 501.846 157.31 501.865C156.228 501.903 156.117 501.176 155.863 500.698C155.863 500.698 155.211 499.99 154.957 499.512C154.162 499.052 154.195 498.077 155.134 498.287C156.614 498.479 157.586 497.714 159.353 497.408C158.779 498.403 159 499.856 158.425 500.851ZM119.212 469.591C118.494 470.834 116.87 470.891 115.423 469.724C114.23 469.036 114.407 467.811 115.633 467.525C116.859 467.238 118.085 466.951 119.454 466.416C120.217 467.85 119.642 468.845 119.212 469.591ZM109.049 462.398C105.825 469.819 101.805 476.781 99.5198 484.413C97.6981 490.323 96.6716 496.693 98.8593 503.924C99.5886 506.334 99.379 508.534 99.7106 510.714C99.4235 511.212 100.075 511.92 100.727 512.627L96.5078 513.507C96.5078 513.507 94.0889 513.105 94.1219 512.129C93.9339 509.7 93.3482 507.041 94.4966 505.052C95.0709 504.057 94.165 502.871 95.1369 502.106C96.2524 501.093 94.6618 500.174 94.6948 499.199C95.1255 498.453 94.6173 497.496 94.6503 496.521C94.4623 494.091 94.4178 491.413 95.1686 489.195C96.6042 486.708 96.8468 483.533 97.6306 480.339C99.1983 473.95 103.295 468.69 105.802 462.512C106.089 462.015 106.52 461.269 106.807 460.771C107.779 460.006 107.701 458.304 109.579 458.725C110.341 460.16 108.972 460.695 108.795 461.919L109.049 462.398ZM122.436 462.17C122.436 462.17 120.525 462.724 119.874 462.016C119.476 461.787 118.968 460.83 118.714 460.352L119.001 459.855L120.194 460.543C120.194 460.543 120.591 460.773 120.989 461.003C123.187 459.951 122.347 456.814 125.086 455.743C124.733 458.191 123.839 460.659 122.436 462.17ZM70.1657 421.382C70.1657 421.382 69.5915 422.377 68.7962 421.918C68.7962 421.918 69.3704 420.923 69.514 420.674C69.514 420.674 70.1657 421.382 70.0221 421.631L70.1657 421.382ZM330.075 568.125C330.075 568.125 329.644 568.871 328.849 568.412C328.053 567.953 328.484 567.207 328.771 566.71C328.915 566.461 329.202 565.964 329.6 566.193C330.793 566.882 329.821 567.647 329.677 567.896L330.075 568.125ZM88.2797 421.231C88.2797 421.231 88.4893 419.031 87.0423 417.864C86.6446 417.635 86.3905 417.157 86.1365 416.678C86.28 416.43 86.5671 415.932 86.7107 415.684C86.8543 415.435 87.539 415.167 87.9367 415.397C89.5273 416.315 91.2284 417.961 91.0518 419.185C90.334 420.428 90.5551 421.882 89.042 422.666C88.2467 422.207 88.5338 421.709 88.2797 421.231ZM99.1154 424.503C99.1154 424.503 98.9718 424.752 99.2259 425.23L98.4306 424.771L97.6353 424.312C97.9224 423.815 98.3201 424.044 98.5742 424.522L99.1154 424.503ZM155.085 459.801C155.085 459.801 154.511 460.796 153.97 460.815C153.97 460.815 153.572 460.585 153.174 460.356L153.318 460.107C153.318 460.107 154.036 458.864 154.577 458.845C154.577 458.845 155.372 459.304 154.831 459.323L155.085 459.801ZM141.488 450.293C141.488 450.293 141.344 450.542 140.803 450.561C140.803 450.561 140.295 449.604 140.438 449.356C141.299 447.864 142.017 446.62 144.072 445.817C143.21 447.309 142.349 448.801 141.631 450.044L141.488 450.293ZM81.1207 405.163L80.8335 405.66C80.8335 405.66 79.2429 404.742 79.276 403.766L79.4195 403.517C79.4195 403.517 81.0101 404.436 81.2642 404.914L81.1207 405.163ZM106.051 415.246C106.051 415.246 104.538 416.03 104.284 415.552C104.284 415.552 104.714 414.806 105.653 415.016C105.653 415.016 106.051 415.246 106.448 415.476L106.051 415.246ZM158.452 440.195C158.452 440.195 157.734 441.438 157.193 441.458C156.652 441.477 156.685 440.501 157.259 439.506C157.546 439.009 157.977 438.263 158.915 438.474C159.424 439.43 158.739 439.698 158.308 440.444L158.452 440.195ZM161.466 434.974C161.466 434.974 161.036 435.72 160.097 435.509C159.302 435.05 159.589 434.553 159.876 434.055C160.163 433.558 160.307 433.309 161.102 433.768C161.499 433.998 161.754 434.476 161.323 435.222L161.466 434.974ZM108.203 399.58C108.203 399.58 108.711 400.537 108.026 400.804C107.739 401.302 106.8 401.091 105.861 400.881C105.861 400.881 105.21 400.173 105.099 399.446C105.099 399.446 105.132 398.47 105.673 398.451C105.817 398.203 106.358 398.184 106.756 398.413C107.551 398.872 107.949 399.102 108.203 399.58ZM159.333 422.138C159.333 422.138 159.013 423.611 159.124 424.338C158.98 424.587 158.693 425.084 158.549 425.333L157.754 424.873C157.39 423.668 157.566 422.444 158.538 421.679C158.538 421.679 158.825 421.182 159.62 421.641L160.416 422.1L159.333 422.138ZM121.223 386.211C121.223 386.211 120.87 388.659 119.07 389.941C119.136 387.99 119.313 386.766 120.285 386.001L121.08 386.46L121.223 386.211ZM180.67 402.63C180.67 402.63 180.24 403.376 180.096 403.624C180.096 403.624 179.875 402.171 180.814 402.381C180.814 402.381 181.068 402.859 180.924 403.108L180.67 402.63ZM138.485 367.333C138.485 367.333 137.944 367.353 137.69 366.874C136.894 366.415 136.784 365.688 137.468 365.421C137.468 365.421 138.01 365.401 138.407 365.631C139.203 366.09 138.772 366.836 138.485 367.333ZM142.714 358.172C142.714 358.172 141.996 359.415 141.455 359.434C140.947 358.477 142.029 358.439 142.316 357.942C142.316 357.942 142.46 357.693 143.001 357.674C143.001 357.674 142.858 357.923 142.714 358.172ZM147.319 353.868C147.319 353.868 146.635 354.136 146.237 353.906C145.839 353.677 145.729 352.95 146.27 352.931C146.27 352.931 146.811 352.912 147.209 353.141C147.607 353.371 148.004 353.6 147.574 354.346L147.319 353.868ZM107.211 325.076C107.211 325.076 106.924 325.573 106.526 325.343C106.129 325.114 105.731 324.884 106.018 324.387C106.018 324.387 106.559 324.368 106.957 324.597C106.957 324.597 107.211 325.076 107.465 325.554L107.211 325.076ZM153.813 341.703C153.813 341.703 153.415 341.474 153.017 341.244C152.62 341.015 152.366 340.536 152.653 340.039C152.653 340.039 153.194 340.02 153.448 340.498C153.846 340.728 154.1 341.206 153.813 341.703ZM156.971 336.233C156.971 336.233 156.253 337.476 155.568 337.744C155.568 337.744 155.171 337.514 154.773 337.285C153.978 336.826 154.408 336.08 154.552 335.831C154.983 335.085 155.27 334.588 156.463 335.277C156.86 335.506 157.258 335.736 157.369 336.463L156.971 336.233ZM217.468 261.754C217.468 261.754 217.181 262.252 217.037 262.5C216.894 262.749 215.811 262.787 215.159 262.079C214.762 261.85 215.192 261.104 215.734 261.085C216.418 260.817 217.07 261.525 217.324 262.003L217.468 261.754ZM255.013 186.623C255.013 186.623 254.726 187.12 254.328 186.891C253.93 186.661 253.533 186.432 253.82 185.934C253.82 185.934 253.963 185.686 254.505 185.667C254.902 185.896 255.3 186.126 255.013 186.623ZM482.744 301.858C482.744 301.858 482.457 302.356 482.059 302.126C482.059 302.126 481.661 301.896 481.407 301.418C481.981 300.424 482.556 299.429 483.561 297.688C483.351 299.888 482.777 300.883 482.203 301.877L482.744 301.858ZM487.912 292.907C487.912 292.907 487.481 293.653 487.194 294.15C486.907 294.647 486.763 294.896 486.079 295.164C486.079 295.164 485.681 294.934 485.283 294.705C485.283 294.705 485.493 292.505 486.719 292.218C486.719 292.218 487.26 292.199 487.658 292.429C487.658 292.429 488.055 292.658 488.166 293.385L487.912 292.907ZM273.853 165.01C273.853 165.01 273.456 164.781 272.914 164.8L272.119 164.34C272.119 164.34 273.091 163.575 273.743 164.283C273.743 164.283 273.997 164.762 273.456 164.781L273.853 165.01ZM290.133 155.18C290.133 155.18 289.559 156.175 288.763 155.716C288.366 155.486 288.111 155.008 288.399 154.51C288.686 154.013 288.973 153.516 289.514 153.497C290.309 153.956 290.563 154.434 290.276 154.931L290.133 155.18ZM290.518 139.82C290.518 139.82 289.402 140.834 288.209 140.145C287.812 139.916 287.16 139.208 287.845 138.94C288.275 138.194 289.214 138.405 290.153 138.615C290.551 138.845 290.805 139.323 290.518 139.82ZM243.009 110.07C243.009 110.07 242.578 110.816 241.783 110.357C240.988 109.898 241.418 109.152 241.706 108.655C241.706 108.655 241.993 108.157 242.39 108.387C243.186 108.846 242.898 109.343 242.611 109.841L243.009 110.07ZM286.518 130.217C286.518 130.217 286.805 129.72 287.203 129.95C287.203 129.95 287.059 130.198 286.916 130.447L286.772 130.696L286.264 129.739L286.518 130.217ZM396.38 194.309C396.049 192.129 396.877 191.612 397.451 190.618C398.644 191.307 398.357 191.804 396.38 194.309ZM390.945 187.193L390.802 187.442C390.802 187.442 389.609 186.753 389.498 186.026C389.498 186.026 389.498 186.026 389.642 185.777C389.786 185.529 389.929 185.28 390.437 186.237C390.437 186.237 390.945 187.193 391.2 187.671L390.945 187.193ZM300.778 132.151C300.778 132.151 299.695 132.189 299.441 131.711C299.441 131.711 298.679 130.276 299.077 130.506C300.446 129.97 300.766 128.497 302.39 128.44C302.467 130.143 301.893 131.137 300.778 132.151ZM250.33 97.3892L250.043 97.8864C250.043 97.8864 249.502 97.9055 249.105 97.6759C249.105 97.6759 248.85 97.1977 248.994 96.949C249.138 96.7004 249.822 96.4327 250.076 96.9109L250.33 97.3892ZM337.703 147.171L337.019 147.439C336.223 146.979 336.51 146.482 336.797 145.985C336.797 145.985 336.941 145.736 337.482 145.717C338.278 146.176 337.99 146.673 337.703 147.171ZM301.758 111.167C301.758 111.167 302.045 110.67 302.443 110.9C302.443 110.9 303.238 111.359 302.951 111.856C302.664 112.353 302.521 112.602 301.725 112.143C301.725 112.143 301.471 111.665 302.012 111.646L301.758 111.167ZM308.287 121.899C306.995 124.137 306.995 124.137 304.068 122.778C302.477 121.86 301.682 121.401 302.113 120.655C302.543 119.909 303.736 120.598 304.278 120.579C306.553 121.229 307.525 120.464 307.447 118.762C307.48 117.786 306.829 117.078 305.492 116.638C304.697 116.179 303.869 116.696 303.073 116.236C302.676 116.007 302.278 115.777 302.565 115.28C303.426 113.788 304.509 113.75 306.099 114.668C306.497 114.898 306.895 115.127 307.69 115.587C308.883 116.275 309.711 115.759 309.744 114.783C310.031 114.286 309.38 113.578 309.667 113.081C310.064 113.311 310.462 113.54 310.86 113.77C313.246 115.147 314.008 116.582 312.208 117.863C310.949 119.126 309.292 120.158 308.287 121.899ZM414.381 169.56L413.586 169.1C414.447 167.608 415.022 166.614 416.789 166.308C416.469 167.781 415.497 168.546 414.381 169.56ZM421.991 168.317C421.991 168.317 421.561 169.063 421.13 169.809C420.412 171.052 419.186 171.339 419.076 170.612C418.567 169.656 418.855 169.158 419.285 168.412C419.572 167.915 419.859 167.418 420.544 167.15C420.544 167.15 421.229 166.882 421.627 167.112C421.627 167.112 421.881 167.59 421.737 167.839L421.991 168.317ZM405.466 157.45C405.466 157.45 405.036 158.196 404.241 157.737C403.445 157.278 403.732 156.781 404.019 156.283L404.307 155.786C404.848 155.767 405.499 156.475 405.069 157.221L405.466 157.45ZM470.346 157.113C470.346 157.113 471.03 156.846 471.428 157.075C471.826 157.305 472.223 157.534 471.793 158.28C471.649 158.529 471.506 158.778 470.71 158.319C470.313 158.089 470.202 157.362 470.743 157.343L470.346 157.113ZM476.211 163.484C476.211 163.484 475.482 161.074 476.598 160.06C476.885 159.563 477.315 158.817 478.254 159.027C479.447 159.716 482.132 164.25 481.414 165.493C480.983 166.239 479.901 166.277 479.249 165.569C478.851 165.34 478.741 164.613 478.343 164.383C477.691 163.675 476.035 164.708 475.814 163.254L476.211 163.484ZM490.185 177.851C490.185 177.851 490.042 178.099 489.5 178.118C489.5 178.118 489.246 177.64 488.992 177.162C489.279 176.665 489.423 176.416 490.218 176.875L490.329 177.602L490.185 177.851ZM474.456 167.443C474.456 167.443 475.03 166.449 475.825 166.908C476.62 167.367 476.333 167.864 476.046 168.361C475.759 168.859 475.472 169.356 474.677 168.897C473.881 168.438 474.169 167.94 474.456 167.443ZM468.679 166.429C468.679 166.429 469.761 166.391 470.557 166.85C470.557 166.85 470.811 167.328 470.667 167.577C470.38 168.074 469.441 167.863 468.646 167.404C468.248 167.175 467.994 166.696 468.281 166.199L468.679 166.429ZM480.288 174.789C480.288 174.789 481.326 172.073 482.298 171.308C482.298 171.308 482.839 171.289 483.237 171.518C483.237 171.518 484.032 171.978 483.745 172.475C483.314 173.221 482.884 173.967 482.74 174.215C482.31 174.961 482.022 175.459 481.735 175.956C481.735 175.956 481.448 176.453 480.653 175.994C480.255 175.765 479.858 175.535 479.747 174.808L480.288 174.789ZM477.074 173.928L477.218 173.679L478.013 174.138L477.726 174.636C477.726 174.636 476.93 174.177 477.218 173.679L477.074 173.928ZM466.526 170.158C466.526 170.158 467.067 170.139 467.464 170.369C467.862 170.599 468.26 170.828 467.973 171.325C467.973 171.325 467.431 171.344 466.89 171.364C466.493 171.134 466.095 170.904 466.526 170.158ZM464.946 172.894C464.946 172.894 465.233 172.396 465.631 172.626C466.029 172.855 466.283 173.334 465.996 173.831C465.996 173.831 465.709 174.328 465.311 174.099C464.913 173.869 464.659 173.391 464.946 172.894ZM353.142 122.268C353.142 122.268 354.401 121.005 355.627 120.718C355.594 121.694 355.958 122.899 354.732 123.186C354.589 123.435 353.65 123.224 353.65 123.224C353.252 122.994 352.998 122.516 353.285 122.019L353.142 122.268ZM406.637 150.832L407.432 151.291C407.829 151.521 408.338 152.477 408.051 152.975L407.907 153.223C407.907 153.223 406.603 151.808 406.493 151.081L406.637 150.832ZM419.262 161.105C419.262 161.105 419.87 159.135 420.985 158.122C421.206 159.575 419.837 160.111 419.262 161.105ZM355.77 120.47C355.77 120.47 355.693 118.767 357.029 119.207C357.029 119.207 356.311 120.451 355.77 120.47ZM417.759 153.607C417.759 153.607 417.472 154.104 416.677 153.645C416.279 153.415 415.882 153.186 416.312 152.44C416.312 152.44 416.456 152.191 416.997 152.172C417.395 152.402 417.792 152.631 417.362 153.377L417.759 153.607ZM410.38 148.021C410.38 148.021 410.093 148.518 409.696 148.288L409.983 147.791C409.983 147.791 410.381 148.021 410.635 148.499L410.38 148.021ZM421.325 140.084C421.325 140.084 421.469 139.835 422.01 139.816C422.01 139.816 422.408 140.046 422.121 140.543L421.834 141.04C421.436 140.811 421.038 140.581 421.325 140.084ZM366.119 118.156C366.119 118.156 366.55 117.41 367.599 118.348C367.599 118.348 368.251 119.056 367.964 119.553C367.677 120.05 367.533 120.299 366.881 119.591C366.484 119.362 366.23 118.883 366.517 118.386L366.119 118.156ZM416.93 142.187C416.93 142.187 416.499 142.933 416.355 143.182C415.383 143.947 414.412 144.712 413.296 145.726C413.009 146.223 412.468 146.242 412.214 145.764C411.816 145.534 411.562 145.056 411.849 144.559C411.849 144.559 411.849 144.559 412.136 144.061C413.252 143.048 413.572 141.575 415.483 141.02C415.483 141.02 416.024 141.001 416.278 141.479C416.278 141.479 416.676 141.709 416.786 142.436L416.93 142.187ZM368.339 112.476C368.339 112.476 370.249 111.921 370.758 112.878L370.614 113.126C370.614 113.126 369.134 112.935 368.482 112.227L368.339 112.476ZM427.577 143.03C427.577 143.03 427.29 143.527 427.147 143.776C427.003 144.025 426.716 144.522 426.031 144.79C426.031 144.79 425.49 144.809 425.092 144.579C424.297 144.12 424.584 143.623 424.474 142.896C424.904 142.15 425.191 141.653 426.528 142.093L427.323 142.552L427.577 143.03ZM424.561 136.316C424.561 136.316 425.102 136.297 425.5 136.526C425.898 136.756 426.008 137.483 425.467 137.502C425.467 137.502 425.069 137.272 424.528 137.291C424.13 137.062 424.02 136.335 424.561 136.316Z" fill="black"/>
<path d="M147.761 540.445C147.761 540.445 146.756 542.186 146.723 543.161L149.905 544.998L150.7 545.457C152.147 546.624 153.627 546.816 155.03 545.305C155.46 544.559 155.891 543.813 156.322 543.067C156.465 542.818 156.355 542.091 155.957 541.862C155.162 541.402 154.874 541.9 154.587 542.397C154.3 542.894 154.013 543.392 153.074 543.181C151.197 542.76 150.942 542.282 150.213 539.872C149.418 539.412 148.335 539.451 148.048 539.948L147.761 540.445Z" fill="black"/>
<path d="M134.131 543.848C134.131 543.848 134.308 542.624 134.992 542.356C135.821 541.84 136.185 543.045 136.981 543.504C136.981 543.504 137.776 543.964 137.919 543.715C138.781 542.223 136.715 539.373 134.583 538.473C133.788 538.014 133.103 538.282 133.214 539.009C132.894 540.482 132.43 542.203 131.966 543.925C133.159 544.613 133.811 545.321 134.926 544.308L134.131 543.848Z" fill="black"/>
<path d="M280.146 617.872C280.146 617.872 280.433 617.375 280.577 617.126C280.323 616.648 279.782 616.667 279.384 616.437C276.932 617.011 275.673 618.273 274.127 620.033C277.341 620.894 278.744 619.383 280.29 617.623L280.146 617.872Z" fill="black"/>
<path d="M319.772 102.007C319.772 102.007 320.17 102.237 320.568 102.466L320.855 101.969C320.855 101.969 319.871 99.0804 319.253 97.397C319.396 97.1484 318.457 96.9379 318.06 96.7083C317.916 96.9569 317.231 97.2247 317.485 97.7029C317.198 98.2002 318.977 101.548 320.026 102.485L319.772 102.007Z" fill="black"/>
<path d="M108.346 491.166L107.551 490.707C107.551 490.707 107.407 490.956 107.264 491.205C106.833 491.951 106.656 493.175 106.226 493.921C105.795 494.667 105.508 495.164 106.557 496.101C106.955 496.331 107.927 495.566 107.96 494.59C107.993 493.615 108.026 492.639 108.059 491.664L108.346 491.166Z" fill="black"/>
<path d="M140.525 534.61C140.525 534.61 139.332 533.922 139.045 534.419C138.216 534.935 137.896 536.408 138.15 536.886L138.946 537.345C140.028 537.307 140.459 536.561 140.492 535.586C140.492 535.586 140.238 535.108 140.381 534.859L140.525 534.61Z" fill="black"/>
<path d="M309.521 89.4578C309.521 89.4578 310.46 89.6683 310.747 89.171C311.034 88.6737 311.178 88.4251 310.382 87.9659C309.587 87.5067 309.189 87.2771 308.759 88.0231C308.472 88.5204 308.726 88.9986 309.521 89.4578Z" fill="black"/>
<path d="M239.308 598.605C239.308 598.605 239.021 599.103 239.419 599.332C240.071 600.04 240.722 600.748 241.805 600.71L241.948 600.461L242.235 599.964C241.838 599.734 241.44 599.505 241.043 599.275L240.247 598.816C240.247 598.816 239.452 598.357 239.308 598.605Z" fill="black"/>
<path d="M311.728 68.1874C311.728 68.1874 312.523 68.6465 312.92 68.8761C313.318 69.1057 314.146 68.5894 314.434 68.092C314.434 68.092 314.323 67.3652 313.925 67.1356C313.13 66.6764 312.445 66.9441 312.302 67.1928C312.158 67.4414 311.473 67.7091 311.728 68.1874Z" fill="black"/>
<path d="M151.758 538.112C151.758 538.112 151.504 537.634 151.25 537.156C151.25 537.156 150.709 537.175 150.565 537.423C150.135 538.169 149.704 538.915 150.069 540.12C150.897 539.604 151.725 539.088 151.361 537.882L151.758 538.112Z" fill="black"/>
<path d="M376.964 101.21C376.964 101.21 377.759 101.669 377.903 101.421C377.903 101.421 378.046 101.172 377.792 100.694L376.997 100.234L376.71 100.732L376.964 101.21Z" fill="black"/>
<path d="M307.826 43.7218C307.826 43.7218 307.03 43.2627 306.489 43.2817C306.346 43.5304 306.059 44.0277 306.456 44.2573C306.854 44.4869 307.252 44.7165 307.539 44.2191L307.826 43.7218Z" fill="black"/>
<path d="M350.047 101.915C350.047 101.915 350.08 100.939 349.539 100.958C349.539 100.958 349.396 101.207 349.252 101.456C349.108 101.704 349.362 102.182 349.76 102.412C349.76 102.412 350.301 102.393 350.047 101.915Z" fill="black"/>
<path d="M163.04 568.164C163.04 568.164 162.753 568.661 162.609 568.91C162.466 569.158 162.179 569.656 162.433 570.134C162.433 570.134 163.405 569.369 163.294 568.642L163.04 568.164Z" fill="black"/>
<path d="M108.956 513.068C108.956 513.068 108.669 513.565 109.751 513.527C109.751 513.527 109.895 513.279 110.436 513.26C110.579 513.011 110.723 512.762 109.641 512.8C109.641 512.8 109.099 512.82 108.956 513.068Z" fill="black"/>
<path d="M282.399 611.216C282.399 611.216 283.084 610.948 282.686 610.719C282.686 610.719 282.034 610.011 281.78 609.533C281.382 609.303 280.985 609.074 281.095 609.8C280.808 610.298 281.46 611.006 282.255 611.465L282.399 611.216Z" fill="black"/>
<path d="M289.368 612.919C289.368 612.919 290.053 612.651 290.594 612.632C290.881 612.135 291.168 611.638 290.229 611.427C290.229 611.427 289.942 611.925 289.257 612.192C288.97 612.69 288.827 612.938 289.766 613.149L289.368 612.919Z" fill="black"/>
</g>
<defs>
<clipPath id="clip0_2075_23957">
<rect width="557.869" height="338.866" fill="white" transform="translate(0.5 483.273) rotate(-60)"/>
</clipPath>
</defs>
</svg>
