<svg width="772" height="801" viewBox="0 0 772 801" fill="none" xmlns="http://www.w3.org/2000/svg">
<g clip-path="url(#clip0_2075_24131)">
<path d="M566.896 76.554C561.705 79.3615 556.32 82.5038 551.129 85.3113C549.284 86.0324 547.782 87.3977 545.937 88.1188C543.364 88.8656 539.719 88.994 538.217 90.3592C536.328 92.3942 534.633 94.0942 532.208 95.82L531.628 96.8247C531.628 96.8247 528.475 98.5761 526.675 97.9834C526.139 97.6742 525.217 98.0347 526.095 98.9881C526.586 100.611 525.663 100.972 523.67 100.714C521.677 100.456 520.219 100.507 518.225 100.249C516.232 99.9916 515.117 100.687 514.537 101.692C513.956 102.696 512.454 104.062 512.603 105.041C513.436 107.308 510.863 108.054 511.161 110.012C511.116 111.326 510.387 111.352 508.929 111.403C504.407 110.578 504.407 110.578 504.883 107.281C505.463 106.276 505.507 104.962 504.094 103.7C502.101 103.442 502.934 105.709 501.283 106.096C497.252 106.894 496.969 109.856 497.223 113.128C497.223 113.128 495.036 113.205 494.114 113.566C491.734 113.978 493.058 117.868 489.607 117.661C489.607 117.661 489.562 118.975 489.711 119.954C489.667 121.268 488.744 121.629 488.016 121.654C486.751 121.371 485.68 120.752 484.802 119.799C484.802 119.799 484.653 118.82 484.118 118.511C483.284 116.244 485.322 115.188 486.825 113.822C484.296 113.255 483.031 112.972 481.231 112.379C479.238 112.121 478.122 112.817 478.42 114.775C478.227 115.11 479.104 116.063 478.911 116.398C480.131 117.995 479.744 118.665 478.093 119.051C476.442 119.437 475.669 120.777 473.869 120.184C472.798 119.566 472.411 120.235 471.489 120.596C469.6 122.631 467.369 124.022 470.344 127.526C471.222 128.479 472.442 130.077 471.668 131.416C470.211 131.467 469.482 131.493 468.604 130.54C467.533 129.921 467.964 127.938 466.506 127.989C465.777 128.015 464.662 128.71 463.739 129.071C463.159 130.076 462.579 131.08 461.999 132.085C460.453 134.764 457.686 135.846 455.797 137.881C455.797 137.881 454.532 137.597 453.997 137.288C453.997 137.288 453.119 136.335 453.312 136C454.473 133.99 454.904 132.007 453.535 129.43C453.386 128.451 453.773 127.782 454.502 127.756C457.268 126.674 458.235 125 457.595 122.398C456.613 119.152 457.431 116.498 458.977 113.819C460.524 111.14 462.949 109.414 464.838 107.379C465.224 106.71 465.998 105.37 464.927 104.752C463.513 103.489 462.933 104.494 462.547 105.164C461.967 106.168 461.387 107.173 460.271 107.868C460.078 108.203 458.62 108.255 458.62 108.255C458.62 108.255 457.742 107.301 457.4 106.657C457.295 104.364 458.456 102.355 457.622 100.088C457.622 100.088 457.28 99.444 456.551 99.4696C456.551 99.4696 455.287 99.1861 455.093 99.5209C451.122 103.926 446.273 107.377 443.373 112.401C442.019 114.745 440.666 117.089 438.777 119.124L438.584 119.459L437.513 118.84C438.673 116.831 438.955 113.869 439.579 111.55C440.739 109.541 442.093 107.197 443.253 105.187C444.8 102.508 446.54 99.4942 444.487 95.6297C443.802 94.3416 444.189 93.6718 444.769 92.6671C445.929 90.6578 446.702 89.3183 444.411 87.1025C443.34 86.4841 442.849 84.861 443.236 84.1913C444.589 81.8471 442.491 79.2964 442.387 77.0036C441.747 74.4016 441.643 72.1087 439.352 69.893C437.745 68.9654 437.983 67.3166 438.563 66.312C439.723 64.3027 438.89 62.0355 437.134 60.1289C436.45 58.8408 435.959 57.2177 434.545 55.9552C432.983 53.7137 432.15 51.4466 432.239 48.8189C432.328 46.1912 429.054 40.7293 426.034 38.5392C422.821 36.684 420.188 33.8241 418.477 30.6037C417.599 29.6503 416.914 28.3622 415.263 28.7484C413.805 28.7998 414.49 30.088 414.103 30.7578C414.594 32.3808 414.55 33.6947 415.234 34.9829L416.305 35.6013C418.492 35.5242 421.021 36.0912 421.661 38.6933C422.152 40.3163 425.945 41.1669 424.979 42.8413C424.696 45.8039 426.601 48.6895 427.241 51.2915C427.881 53.8935 426.185 55.5936 424.489 57.2937C424.296 57.6286 423.032 57.3451 422.838 57.6799C422.838 57.6799 422.452 58.3497 422.258 58.6846C422.258 58.6846 422.6 59.3287 423.136 59.6379C424.743 60.5655 426.2 60.5141 427.807 61.4417C430.143 62.3437 430.485 62.9878 429.518 64.6622C428.938 65.6668 427.287 66.0531 427.778 67.6761C427.734 68.99 429.34 69.9175 430.218 70.8709C431.974 72.7774 432.614 75.3795 435.678 76.2557C435.678 76.2557 435.485 76.5906 435.827 77.2347L435.634 77.5696C435.634 77.5696 434.176 77.6209 433.64 77.3117C432.034 76.3841 430.576 76.4355 430.873 78.3934C430.68 78.7283 430.293 79.3981 430.1 79.733C429.713 80.4027 429.52 80.7377 430.056 81.0469C430.056 81.0469 430.784 81.0212 431.513 80.9955C431.513 80.9955 433.165 80.6092 433.7 80.9184C434.236 81.2276 433.849 81.8974 433.656 82.2323C430.844 84.6278 428.569 87.3326 431.886 91.4806C431.886 91.4806 431.886 91.4806 431.693 91.8155C430.34 94.1597 432.244 97.0452 432.884 99.6472C432.497 100.317 432.646 101.296 432.988 101.94C432.215 103.28 429.88 102.378 429.299 103.382C428.526 104.722 430.088 106.963 428.244 107.684C428.05 108.019 427.128 108.38 426.399 108.406C425.477 108.766 424.213 108.483 423.29 108.843C421.684 107.916 422.799 107.22 423.379 106.216C424.733 103.871 425.119 103.201 421.862 102.66C418.604 102.119 417.19 100.856 415.97 99.2589C415.093 98.3056 415.866 96.966 417.131 97.2496C418.588 97.1982 420.388 97.791 422.188 98.3837L422.575 97.7139C422.962 97.0442 422.62 96.4001 421.891 96.4258C419.897 96.1679 418.097 95.5752 418.186 92.9475C418.766 91.9428 416.966 91.3501 415.508 91.4014C414.051 91.4528 411.179 90.2417 411.477 92.1996C411.582 94.4925 409.157 96.2183 411.061 99.1038C412.966 101.989 410.63 101.087 408.83 100.495C408.295 100.185 407.372 100.546 407.179 100.881C406.792 101.551 407.135 102.195 407.67 102.504C409.664 102.762 410.348 104.05 410.839 105.673C410.839 105.673 411.375 105.982 411.91 106.291C415.124 108.147 415.124 108.147 414.499 110.465C414.112 111.135 413.532 112.14 413.146 112.809C410.617 112.242 410.617 112.242 409.248 109.666C409.099 108.687 408.028 108.069 407.492 107.759C405.886 106.832 404.815 106.213 403.595 104.616C401.839 102.709 400.812 100.777 402.508 99.077C403.281 97.7375 404.055 96.398 404.828 95.0585C405.453 92.74 406.077 90.4215 408.115 89.3654C410.153 88.3094 410.584 86.3258 409.022 84.0843C407.46 81.8428 407.891 79.8593 409.929 78.8032C410.509 77.7986 411.089 76.7939 412.204 76.0985C414.391 76.0215 416.578 75.9445 419.449 77.1556C418.764 75.8674 417.544 74.27 417.931 73.6003C418.362 71.6167 418.6 69.9678 415.536 69.0916C415 68.7824 414.658 68.1384 415.045 67.4686C415.669 65.1501 416.829 63.1408 418.867 62.0848C419.254 61.415 419.834 60.4103 418.763 59.7919C416.62 58.5551 416.278 57.911 416.709 55.9274C417.483 54.5879 414.418 53.7116 413.347 53.0932C413.585 51.4445 413.823 49.7957 410.952 48.5846C409.345 47.657 408.318 45.7248 407.634 44.4366C407.827 44.1017 409.136 43.0714 409.181 41.7575C409.181 41.7575 409.567 41.0877 409.761 40.7529C410.921 38.7435 410.385 38.4344 407.707 36.8884C405.565 35.6515 404.831 34.037 405.505 32.0449L405.699 31.71C405.699 31.71 405.743 30.3961 404.672 29.7777C404.136 29.4685 403.065 28.8501 402.679 29.5198C402.292 30.1896 401.905 30.8594 401.519 31.5291C399.972 34.2082 397.205 35.2899 393.754 35.0834L392.683 34.465L392.534 33.486C396.074 31.0648 396.788 26.1186 402.812 25.5783L403.199 24.9085C403.199 24.9085 402.663 24.5993 402.128 24.2901C398.825 25.0626 396.252 25.8094 394.363 27.8444C392.474 29.8793 388.145 28.7196 386.256 30.7546C386.256 30.7546 386.256 30.7546 386.063 31.0894C384.709 33.4336 382.136 34.1804 379.905 35.5713C378.789 36.2668 378.209 37.2714 379.622 38.5339C380.694 39.1523 379.771 39.5129 379.042 39.5386C377.971 38.9202 376.514 38.9715 375.933 39.9762C372.884 44.0204 368.958 47.1114 365.031 50.2024C359.215 55.3284 354.813 61.7169 349.532 67.152C348.759 68.4916 347.257 69.8567 345.948 70.8871C342.081 77.5847 335.194 82.0923 331.327 88.7899L331.134 89.1248C324.887 96.2344 318.64 103.344 312.393 110.454C306.146 117.563 300.435 124.982 294.188 132.092C293.028 134.101 290.603 135.827 289.443 137.836C285.963 143.864 280.34 148.655 276.667 155.018C272.8 161.715 267.52 167.15 263.653 173.848C263.073 174.853 262.299 176.192 261.719 177.197C254.119 186.651 247.247 196.079 240.718 206.151C238.978 209.165 237.238 212.179 234.427 214.574C233.847 215.579 233.267 216.584 232.687 217.588C229.593 222.946 226.5 228.305 223.406 233.663C221.279 237.346 218.617 240.721 216.49 244.405C214.943 247.084 214.81 251.025 210.779 251.823C210.779 251.823 210.199 252.828 210.005 253.163C209.916 255.791 207.685 257.182 206.525 259.191C204.978 261.87 203.238 264.884 201.692 267.563C199.758 270.912 197.631 274.596 195.698 277.944C193.184 282.298 190.671 286.651 187.622 290.696C187.429 291.03 187.042 291.7 186.849 292.035C187.875 293.967 186.76 294.663 185.644 295.358C182.104 297.78 179.977 301.463 178.386 305.456C177.032 307.8 175.486 310.479 174.132 312.824C172.199 316.172 169.536 319.547 168.139 323.205C167.752 323.875 167.365 324.544 166.979 325.214C163.245 327.97 161.118 331.654 159.527 335.647C155.422 343.993 150.246 351.721 145.606 359.759C139.999 369.47 133.857 378.873 130.05 389.177C129.47 390.182 128.696 391.521 128.116 392.526C125.989 396.209 123.327 399.584 121.736 403.577C121.305 405.561 119.609 407.261 118.107 408.626C115.489 410.686 113.942 413.366 113.273 416.998C112.455 419.651 111.637 422.305 109.213 424.03C108.053 426.04 106.357 427.74 106.997 430.342C107.146 431.321 106.759 431.991 106.03 432.016C105.108 432.377 104.721 433.047 104.335 433.716C103.666 437.349 100.855 439.744 99.1145 442.758C98.5344 443.763 97.761 445.102 97.181 446.107C97.6721 447.73 96.5565 448.426 95.2476 449.456C94.132 450.151 92.0941 451.207 93.3141 452.805C94.4896 455.716 92.8385 456.102 91.3362 457.467C90.5628 458.807 89.5961 460.481 89.3583 462.13C89.656 464.088 88.8826 465.428 86.8448 466.484C84.8069 467.54 83.8402 469.214 83.7513 471.842C84.049 473.8 83.2756 475.139 81.6245 475.525C80.5089 476.221 80.2711 477.87 79.691 478.874C79.3043 479.544 78.7243 480.549 78.3376 481.218C75.3775 482.635 76.2108 484.902 77.5797 487.478C79.2907 490.699 79.2907 490.699 76.3306 492.115C75.0217 493.146 72.1061 493.249 74.0105 496.134C74.3527 496.778 73.4305 497.139 73.4305 497.139C70.366 496.262 70.4704 498.555 69.697 499.895C68.3436 502.239 71.7058 505.073 70.0102 506.773C68.8501 508.783 65.9345 508.885 64.2389 510.585C63.6588 511.59 62.8855 512.93 62.3054 513.934C61.7254 514.939 61.3387 515.609 60.952 516.278C55.5674 519.421 54.2739 525.372 52.4448 531.013C51.2848 533.023 53.9181 535.882 56.9826 536.759C60.047 537.635 63.8404 538.486 66.4138 537.739C68.2583 537.018 70.2517 537.275 72.2005 538.847C73.8072 539.775 74.7295 539.414 75.845 538.719C76.2317 538.049 77.4962 538.332 78.2251 538.307C79.2962 538.925 79.6384 539.569 79.2517 540.239C78.0917 542.248 80.2339 543.485 81.2605 545.417C81.4094 546.396 83.4028 546.654 83.9828 545.65C85.1429 543.64 85.3362 543.305 87.6273 545.521C89.3828 547.428 92.2984 547.325 94.2918 547.583C95.5563 547.866 97.4008 547.145 98.8141 548.408C99.8852 549.026 100.614 549.001 101.001 548.331C101.581 547.326 101.968 546.656 101.819 545.677C101.476 545.033 100.405 544.415 100.063 543.771C98.8431 542.173 99.2743 540.19 101.997 540.422C104.183 540.345 106.177 540.603 107.828 540.217C109.048 541.814 110.461 543.076 111.681 544.674C113.243 546.915 110.328 547.018 109.554 548.358L109.361 548.692C109.361 548.692 109.852 550.315 110.923 550.934C111.459 551.243 112.188 551.217 112.916 551.192C114.374 551.14 114.27 548.848 116.605 549.749C115.981 552.068 116.428 555.005 114.003 556.731C113.616 557.4 113.23 558.07 115.223 558.328C115.759 558.637 116.874 557.942 117.752 558.895C119.656 561.781 123.301 561.652 125.205 564.538C125.89 565.826 127.347 565.775 128.419 566.393C129.876 566.342 131.483 567.269 132.361 568.223C134.503 569.459 136.645 570.696 139.368 570.928C139.903 571.238 141.361 571.186 142.432 571.805C143.503 572.423 144.574 573.041 144.53 574.355C144.634 576.648 143.474 578.657 142.507 580.332C136.751 589.064 132.945 599.369 128.795 609.029C126.624 614.027 125.524 619.643 123.888 624.949C123.501 625.619 123.115 626.289 123.264 627.268C121.197 634.558 122.923 642.699 123.043 649.913C123.341 651.871 123.832 653.494 124.859 655.426C125.885 657.358 127.492 658.286 129.872 657.874C132.981 657.436 134.334 655.092 136.565 653.701C136.565 653.701 136.074 652.078 135.732 651.434C139.019 645.741 139.97 639.146 139.122 631.958L139.315 631.623C138.377 627.063 139.968 623.071 141.366 619.413C141.946 618.408 142.526 617.403 144.326 617.996C146.662 618.898 147.242 617.893 148.209 616.219C150.231 610.242 152.596 604.91 154.618 598.933C155.005 598.264 155.198 597.929 155.734 598.238C156.269 598.547 156.612 599.191 156.225 599.861C155.02 603.184 153.816 606.507 153.34 609.805C152.136 613.128 150.738 616.786 151.333 620.702C151.393 624.308 151.111 627.271 148.835 629.976C148.255 630.98 148.746 632.603 150.011 632.887C152.153 634.124 153.224 634.742 153.522 636.7C153.135 637.37 153.284 638.349 154.162 639.302C155.917 641.209 156.022 643.502 157.97 645.073C160.544 644.326 159.711 642.059 160.677 640.385C160.677 640.385 162.195 643.94 161.035 645.95C158.715 649.968 160.128 651.231 165.037 651.386C165.037 651.386 166.495 651.334 166.688 651C167.075 650.33 166.539 650.021 165.468 649.402C164.397 648.784 163.862 648.475 163.906 647.161C163.906 647.161 164.293 646.491 164.486 646.156C164.873 645.486 165.408 645.795 166.479 646.414C169.157 647.96 169.886 647.934 169.782 645.641C169.915 641.7 171.12 638.377 171.789 634.744C172.027 633.096 172.949 632.735 174.6 632.349C176.698 634.899 176.609 637.527 176.52 640.155C175.375 647.085 173.695 653.705 169.873 659.089C167.939 662.438 166.006 665.787 163.537 668.826C160.636 673.85 158.079 679.517 153.572 683.613C153.185 684.282 152.605 685.287 152.218 685.957C150.865 688.301 152.04 691.212 155.254 693.067C156.86 693.995 158.467 694.923 160.074 695.85C161.145 696.469 162.603 696.417 164.06 696.366C166.976 696.263 169.207 694.872 172.658 695.079C176.11 695.285 176.11 695.285 177.314 691.962L176.347 693.637C176.347 693.637 174.725 687.788 175.543 685.135C176.316 683.796 177.432 683.1 178.548 682.405C179.321 681.065 178.294 679.133 180.674 678.721C182.326 678.335 182.221 676.042 183.53 675.012C187.888 669.937 188.691 662.363 194.655 658.216C194.849 657.881 195.235 657.211 194.893 656.567C196.44 653.888 196.826 653.218 201.349 654.043C202.42 654.662 203.491 655.28 202.375 655.976C199.564 658.371 197.631 661.72 196.962 665.352C196.724 667.001 195.266 667.052 193.615 667.439C191.042 668.186 191.875 670.453 194.359 672.334C194.895 672.643 195.43 672.952 196.353 672.591C196.739 671.922 197.319 670.917 198.926 671.845C199.997 672.463 199.224 673.803 197.379 674.524C196.264 675.219 194.999 674.936 193.393 674.008C192.321 673.39 191.637 672.101 190.864 673.441C190.864 673.441 191.013 674.42 191.548 674.729C195.253 678.207 194.435 680.861 192.695 683.875C192.308 684.544 191.728 685.549 191.341 686.219C189.11 687.61 189.021 690.237 187.861 692.247C187.281 693.251 187.965 694.54 189.036 695.158C190.108 695.776 191.759 695.39 192.681 695.03C193.603 694.669 193.454 693.69 193.112 693.046C192.428 691.758 192.085 691.114 193.93 690.393C196.354 688.667 198.243 686.632 199.255 683.644C199.879 681.325 200.073 680.99 202.75 682.536C204.357 683.464 205.815 683.412 207.124 682.382C207.897 681.043 209.935 679.987 210.708 678.647C211.482 677.308 212.255 675.968 213.028 674.628C213.028 674.628 212.88 673.65 212.344 673.34C212.344 673.34 211.808 673.031 211.08 673.057C210.886 673.392 210.113 674.731 209.235 673.778C208.7 673.469 208.208 671.846 208.402 671.511C209.175 670.171 209.949 668.832 210.722 667.492C211.109 666.822 212.373 667.106 212.329 668.42C211.942 669.09 212.091 670.069 213.355 670.352C214.426 670.97 215.542 670.275 215.929 669.605C217.089 667.596 219.513 665.87 219.602 663.242C219.989 662.573 220.033 661.259 220.956 660.898C221.342 660.229 222.265 659.868 223.336 660.486C224.407 661.105 223.827 662.109 223.633 662.444C222.86 663.784 223.158 665.742 222.384 667.081C221.418 668.756 220.644 670.095 222.4 672.002C223.62 673.599 223.382 675.248 222.415 676.922C221.835 677.927 220.377 677.978 218.92 678.03C216.733 678.107 215.231 679.472 215.528 681.43C215.246 684.392 214.964 687.355 211.468 688.462L211.275 688.797C211.275 688.797 211.379 691.09 212.986 692.018C214.592 692.945 214.979 692.276 215.559 691.271C216.333 689.931 217.106 688.592 217.879 687.252C217.879 687.252 218.266 686.583 218.802 686.892C219.873 687.51 219.873 687.51 219.486 688.18C218.475 691.168 217.27 694.491 216.259 697.48C215.055 700.803 214.579 704.1 212.839 707.114C212.259 708.119 211.679 709.124 212.363 710.412C214.074 713.632 213.792 716.595 212.974 719.248C211.725 723.885 211.547 729.141 212.054 735.684C213.987 732.335 214.805 729.682 214.894 727.054C215.474 726.05 216.247 724.71 218.241 724.968C220.234 725.226 221.156 724.865 221.394 723.216C221.825 721.233 222.45 718.914 223.416 717.24C223.803 716.57 224.919 715.875 226.525 716.802C227.597 717.421 228.132 717.73 228.088 719.044C227.656 721.027 228.49 723.295 226.987 724.66C226.601 725.329 226.943 725.974 227.092 726.953C227.241 727.932 228.312 728.55 228.847 728.859C229.919 729.478 230.305 728.808 230.885 727.803C231.852 726.129 232.476 723.81 233.979 722.445C236.27 724.661 233.845 726.387 235.943 728.937C237.103 726.928 237.728 724.609 238.352 722.291C238.739 721.621 239.126 720.951 239.512 720.282L240.583 720.9C240.583 720.9 240.881 722.858 241.03 723.837C240.941 726.465 240.51 728.448 239.885 730.767C238.919 732.441 240.139 734.039 241.552 735.301C242.965 736.564 243.843 737.517 245.643 738.11C249.05 739.63 252.992 741.459 256.443 741.666C258.436 741.924 260.43 742.182 262.572 743.418C267.392 746.201 272.063 748.005 277.314 748.804C278.579 749.088 278.728 750.067 278.148 751.072C277.761 751.741 277.181 752.746 276.794 753.416C275.828 755.09 278.119 757.306 280.499 756.894C281.957 756.843 282.879 756.482 283.608 756.456C285.214 757.384 283.905 758.414 284.248 759.058C284.248 759.058 285.319 759.677 285.854 759.986C287.461 760.914 289.112 760.527 290.763 760.141C291.685 759.781 292.028 760.425 292.905 761.378C293.694 764.959 295.837 766.196 299.288 766.402C301.474 766.325 303.319 765.604 306.19 766.815C307.797 767.743 310.519 767.975 311.932 769.238C312.899 767.563 314.743 766.842 316.781 765.786C316.975 765.451 317.361 764.781 318.09 764.756C318.284 764.421 319.206 764.06 319.741 764.369C323.684 766.199 326.837 764.447 329.946 764.01L328.979 765.684C328.979 765.684 327.477 767.05 329.084 767.977C331.657 767.23 333.695 766.174 334.855 764.165C335.822 762.491 336.982 760.481 339.555 759.734C339.555 759.734 340.477 759.374 341.013 759.683C341.549 759.992 342.084 760.302 342.233 761.281C341.713 765.892 340.999 770.838 340.479 775.449C339.915 781.375 340.615 787.583 342.579 794.075C343.219 796.677 344.052 798.945 346.343 801.16C347.221 802.114 348.634 803.376 350.092 803.325C353.93 802.862 357.381 803.068 360.981 804.254C362.052 804.872 362.632 803.867 362.483 802.888C361.65 800.621 362.23 799.617 364.417 799.539C365.875 799.488 366.99 798.793 367.228 797.144C364.506 796.912 362.126 797.324 359.552 798.071C357.901 798.457 356.979 798.817 355.179 798.225C356.146 796.55 355.119 794.618 356.621 793.253C358.555 789.904 360.488 786.555 360.086 782.304C360.473 781.635 361.053 780.63 360.904 779.651C361.097 779.316 361.484 778.646 362.555 779.265C362.555 779.265 363.626 779.883 363.433 780.218C363.686 783.49 363.746 787.096 363.27 790.394C362.884 791.064 362.497 791.733 364.104 792.661C365.71 793.589 365.755 792.275 366.335 791.27C368.655 787.252 370.975 783.233 368.431 777.745C368.431 777.745 368.817 777.076 369.011 776.741C369.591 775.736 369.591 775.736 371.004 776.999C371.004 776.999 371.54 777.308 372.075 777.617C373.235 775.608 375.229 775.866 377.564 776.767C380.242 778.313 382.087 777.592 383.589 776.227C385.909 772.209 391.205 771.694 394.06 767.984C395.607 765.305 397.407 765.898 401.692 768.372C403.818 764.688 407.21 761.288 412.505 760.773C412.505 760.773 413.427 760.413 413.621 760.078C415.168 757.399 418.812 757.27 421.728 757.168C424.837 756.73 425.417 755.725 424.777 753.123C424.286 751.5 424.866 750.496 426.71 749.775C430.057 747.688 431.797 744.674 433.002 741.351C434.355 739.007 436.095 735.993 438.862 734.911C442.164 734.139 443.175 731.151 446.478 730.378C448.411 727.029 452.293 725.252 452.085 720.666C451.98 718.374 453.14 716.364 453.572 714.381C454.152 713.376 454.732 712.371 455.654 712.011C458.034 711.599 458.807 710.259 456.71 707.709C455.638 707.09 456.412 705.751 457.676 706.034C460.934 706.576 462.094 704.566 463.79 702.866C465.872 700.496 468.683 698.101 470.766 695.731C472.848 693.361 475.466 691.3 475.941 688.003C476.373 686.019 477.533 684.01 479.035 682.645C480.537 681.28 480.968 679.296 481.935 677.622C482.515 676.617 483.095 675.612 483.675 674.608C483.675 674.608 484.062 673.938 484.597 674.247C485.133 674.556 485.624 676.179 486.74 675.484C487.126 674.814 487.513 674.144 487.9 673.475C488.673 672.135 488.911 670.486 489.149 668.838C489.342 668.503 489.729 667.833 489.922 667.498C494.578 664.381 496.749 659.384 499.456 654.696C503.13 648.333 507.532 641.944 512.277 636.2C513.437 634.191 515.132 632.491 515.757 630.172C518.27 625.819 520.784 621.465 523.297 617.112C526.004 612.423 528.711 607.735 531.418 603.046C535.567 593.386 540.787 584.344 548.343 576.204C548.73 575.535 549.31 574.53 549.697 573.86C553.757 566.828 558.888 560.414 560.613 552.479C560.613 552.479 560.613 552.479 560.806 552.144C560.122 550.856 558.366 548.95 559.869 547.584C560.449 546.58 561.029 545.575 561.073 544.261C562.129 539.959 564.256 536.275 567.26 533.545C570.265 530.814 572.734 527.775 575.396 524.4C578.876 518.372 582.892 512.654 586.372 506.626C590.239 499.928 594.106 493.231 597.973 486.533C599.52 483.854 601.066 481.175 603.149 478.805C607.164 473.086 611.18 467.367 614.66 461.34C617.947 455.647 621.234 449.954 624.521 444.261C628.968 436.558 633.608 428.521 636.984 420.2C641.907 409.201 647.365 398.51 650.681 386.583C652.941 378.957 656.466 371.615 659.99 364.274C665.106 352.939 670.758 341.914 675.531 329.935C675.918 329.265 676.305 328.595 675.234 327.977C672.616 330.038 671.262 332.382 670.787 335.679C668.958 341.321 664.986 345.726 662.28 350.414C662.28 350.414 661.893 351.084 661.357 350.775C660.822 350.466 660.286 350.156 660.137 349.177C660.806 345.545 662.546 342.531 665.164 340.47C667.053 338.435 668.407 336.091 669.225 333.438C670.087 329.471 672.02 326.122 675.025 323.391C676.914 321.356 678.996 318.986 679.278 316.024C678.981 314.066 680.141 312.057 681.985 311.335C685.139 309.584 686.15 306.596 686.432 303.633C686.952 299.022 689.079 295.338 692.47 291.938C694.939 288.898 696.873 285.55 696.471 281.299C696.411 277.692 696.886 274.395 699.504 272.334C699.891 271.664 700.278 270.994 700.664 270.325C702.151 264.039 707.045 259.274 709.067 253.297C710.421 250.953 711.774 248.609 712.25 245.311C709.721 244.744 708.561 246.753 706.761 246.161C705.69 245.542 705.154 245.233 704.083 244.615C703.398 243.326 704.321 242.966 705.436 242.27C707.236 242.863 708.159 242.503 708.396 240.854C708.976 239.849 709.556 238.845 710.136 237.84C712.71 237.093 712.263 234.156 713.23 232.482C713.81 231.477 712.932 230.524 712.054 229.571C710.448 228.643 710.299 227.664 711.072 226.324C712.039 224.65 711.355 223.362 709.941 222.099C709.406 221.79 709.064 221.146 708.335 221.172C706.192 219.935 705.701 218.312 705.404 216.354C705.819 209.45 706.771 202.855 709.522 196.853C712.229 192.164 711.871 186.6 709.327 181.112C707.125 176.269 703.614 172.455 700.102 168.642C697.469 165.782 693.914 163.283 689.778 161.788C688.707 161.17 686.713 160.912 685.836 159.959C682.28 157.46 678.873 155.939 674.738 154.445C673.667 153.826 671.673 153.568 670.796 152.615C667.627 149.446 664.86 150.528 661.602 149.986C661.602 149.986 660.144 150.038 659.758 150.707C658.791 152.382 656.753 153.438 656.858 155.731C656.813 157.044 657.304 158.668 655.46 159.389C653.809 159.775 652.5 160.805 650.506 160.547C649.435 159.929 648.9 159.62 648.751 158.641C649.137 157.971 649.717 156.966 649.569 155.987C648.884 154.699 647.575 155.73 646.311 155.446C645.775 155.137 645.24 154.828 644.897 154.184C643.529 151.607 643.96 149.624 646.384 147.898C647.693 146.868 647.351 146.223 645.209 144.987C643.602 144.059 641.609 143.801 639.764 144.522C637.92 145.243 636.075 145.965 634.766 146.995C634.186 148 632.535 148.386 630.928 147.458C627.328 146.273 624.606 146.041 621.497 146.478C621.304 146.813 620.233 146.195 619.891 145.551C619.548 144.906 619.399 143.927 619.057 143.283C618.373 141.995 617.108 141.712 615.457 142.098C613.419 143.154 613.419 143.154 610.593 140.629C610.057 140.32 608.986 139.701 608.599 140.371C608.406 140.706 608.019 141.376 608.362 142.02C609.388 143.952 612.11 144.184 613.479 146.761C611.01 149.8 608.006 152.531 605.537 155.57C604.377 157.58 601.803 158.326 599.23 159.073C596.656 159.82 596.91 163.092 594.336 163.839C590.647 165.281 589.056 169.274 584.147 169.119C583.418 169.144 583.374 170.458 582.987 171.128C580.131 174.837 576.205 177.928 573.691 182.282C573.498 182.617 573.111 183.286 572.04 182.668C571.504 182.359 571.162 181.715 571.549 181.045C573.096 178.366 574.642 175.687 576.189 173.008C578.658 169.968 581.321 166.594 582.718 162.936C580.77 161.364 579.267 162.729 577.467 162.136C577.169 160.178 578.285 159.483 579.058 158.143C580.799 155.129 584.339 152.708 584.472 148.767C584.472 148.767 584.859 148.097 585.052 147.762C587.626 147.015 588.057 145.032 589.752 143.332C590.332 142.327 591.061 142.301 592.475 143.564C594.572 146.114 595.301 146.089 596.655 143.745C597.428 142.405 597.859 140.421 598.097 138.773C598.677 137.768 597.799 136.815 596.728 136.196C596.193 135.887 595.657 135.578 596.237 134.573C596.624 133.903 596.817 133.569 597.888 134.187C602.068 134.368 602.604 134.677 601.086 131.122L599.568 127.566C599.568 127.566 598.884 126.278 597.962 126.639C597.962 126.639 597.575 127.308 597.382 127.643C596.906 130.941 592.682 132.074 591.67 135.062C591.477 135.397 590.019 135.448 589.29 135.474C588.368 135.835 587.104 135.551 586.375 135.577C590.124 137.741 590.124 137.741 587.848 140.446C587.268 141.451 586.495 142.79 585.914 143.795C585.141 145.134 584.561 146.139 582.91 146.525C581.794 147.221 579.994 146.628 579.117 145.675C577.897 144.077 576.677 142.48 575.457 140.883C574.921 140.573 574.579 139.929 573.85 139.955C573.657 140.29 572.734 140.65 573.076 141.294C573.181 143.587 571.336 144.308 569.685 144.695L568.614 144.076C569.581 142.402 570.205 140.083 569.908 138.125C570.294 137.456 570.681 136.786 571.946 137.069C573.939 137.327 575.248 136.297 576.021 134.957C577.999 130.295 579.977 125.632 581.226 120.995C581.999 119.655 581.166 117.388 582.668 116.023C584.364 114.323 583.337 112.391 582.311 110.458C582.311 110.458 581.626 109.17 580.897 109.196C580.169 109.222 579.246 109.582 578.86 110.252C578.473 110.922 579.693 112.519 578.577 113.215C577.997 114.219 574.977 112.029 574.888 114.657C574.888 114.657 573.237 115.043 572.508 115.069C570.515 114.811 569.83 113.523 570.411 112.518C571.571 110.509 573.46 108.474 575.155 106.774C577.237 104.404 579.855 102.343 581.744 100.308C581.938 99.9733 582.324 99.3035 582.518 98.9687C582.369 97.9897 580.911 98.0411 580.375 97.7319C576.924 97.5254 574.351 98.2721 572.998 100.616C571.837 102.626 570.037 102.033 568.431 101.105C567.36 100.487 565.753 99.5593 564.682 98.9409C563.611 98.3225 561.96 98.7087 560.933 96.7765C563.357 95.0507 565.589 93.6598 568.013 91.934C569.515 90.5688 572.089 89.822 570.913 86.9108C570.571 86.2667 571.3 86.241 572.222 85.8804C575.525 85.1079 576.749 82.9871 575.896 79.5177C575.896 79.5177 575.554 78.8736 575.211 78.2295C573.025 78.3066 571.374 78.6928 570.065 79.7232L566.896 76.554ZM450.082 113.148C451.242 111.139 451.435 110.804 452.506 111.423C453.726 113.02 453.146 114.025 452.566 115.029C451.793 116.369 451.213 117.374 449.562 117.76C449.606 116.446 449.115 114.823 450.617 113.458L450.082 113.148ZM446.839 117.528C446.839 117.528 447.955 116.832 449.026 117.451L449.175 118.43C448.982 118.764 448.595 119.434 448.402 119.769C447.331 119.151 446.988 118.507 447.375 117.837L446.839 117.528ZM446.126 122.474C446.126 122.474 447.004 123.427 446.617 124.097C446.037 125.102 444.579 125.153 443.701 124.2C443.701 124.2 442.824 123.246 443.017 122.911C443.597 121.907 444.519 121.546 445.59 122.165L446.126 122.474ZM422.666 111.162C422.666 111.162 424.704 110.106 425.819 109.41C426.89 110.029 428.497 110.956 427.724 112.296C426.95 113.635 424.957 113.377 423.886 112.759C423.35 112.45 423.008 111.806 423.395 111.136L422.666 111.162ZM410.372 49.5893C410.372 49.5893 414.463 52.3978 415.876 53.6603C414.909 55.3347 413.645 55.0512 412.574 54.4328C410.967 53.5052 410.669 51.5472 410.372 49.5893ZM413.02 57.3697C413.02 57.3697 412.634 58.0394 412.098 57.7302C411.563 57.421 411.027 57.1118 411.414 56.4421C411.414 56.4421 412.143 56.4164 412.678 56.7256C412.678 56.7256 412.485 57.0605 412.827 57.7045L413.02 57.3697ZM389.456 43.7647L389.843 43.0949C389.843 43.0949 390.72 44.0482 391.062 44.6923C391.405 45.3364 390.676 45.3621 390.676 45.3621C390.14 45.0529 389.605 44.7437 389.456 43.7647ZM380.129 45.0775C380.129 45.0775 380.665 45.3867 381.393 45.3611C381.929 45.6703 382.078 46.6492 381.884 46.9841C381.498 47.6539 380.962 47.3446 380.62 46.7005C380.085 46.3913 379.936 45.4124 380.858 45.0519L380.129 45.0775ZM404.333 61.2845C404.333 61.2845 406.178 60.5634 407.249 61.1818C407.249 61.1818 407.785 61.491 408.127 62.1351C407.547 63.1397 406.282 62.8562 405.211 62.2378C405.211 62.2378 404.14 61.6194 404.333 61.2845ZM414.524 72.0799C414.524 72.0799 416.816 74.2957 415.849 75.9701C415.655 76.305 415.269 76.9747 415.075 77.3096C414.004 76.6912 412.398 75.7636 411.327 75.1452C410.255 74.5268 410.3 73.213 410.687 72.5432C411.267 71.5385 413.26 71.7963 414.138 72.7497L414.524 72.0799ZM380.204 53.6047C380.204 53.6047 381.275 54.2231 380.889 54.8929C380.502 55.5627 379.773 55.5884 379.431 54.9442C378.895 54.635 378.018 53.6818 377.675 53.0377C378.211 53.3469 379.669 53.2955 380.398 53.2698L380.204 53.6047ZM371.457 53.9129C372.811 51.5687 372.811 51.5687 377.482 53.3726C376.709 54.7121 375.593 55.4075 374.284 56.4378C373.897 57.1076 372.44 57.159 372.097 56.5149C371.026 55.8965 371.606 54.8919 371.993 54.2221L371.457 53.9129ZM160.633 641.699C160.633 641.699 159.844 638.118 160.617 636.778C161.108 638.401 161.406 640.359 160.633 641.699ZM204.102 664.117C204.062 661.712 205.058 659.162 207.091 656.466C207.151 660.072 205.455 661.772 204.102 664.117ZM218.894 716.415C218.894 716.415 218.121 717.755 217.243 716.801C217.243 716.801 216.901 716.157 216.559 715.513C216.752 715.178 217.139 714.508 217.332 714.174C217.525 713.839 218.061 714.148 218.403 714.792C218.21 715.127 218.552 715.771 218.359 716.106L218.894 716.415ZM279.337 742.828C279.337 742.828 278.757 743.832 278.221 743.523C278.221 743.523 277.15 742.905 277.343 742.57C277.537 742.235 277.923 741.565 278.459 741.875C278.459 741.875 278.995 742.184 279.337 742.828ZM282.341 740.097L281.27 739.479C281.464 739.144 281.85 738.474 282.044 738.139C282.044 738.139 282.773 738.114 283.501 738.088C284.037 738.397 284.186 739.376 283.457 739.402C283.264 739.737 282.535 739.763 281.806 739.788L282.341 740.097ZM293.335 743.319L292.948 743.989C292.948 743.989 292.413 743.679 291.877 743.37C290.806 742.752 290.657 741.773 289.779 740.82C291.237 740.768 291.921 742.056 292.993 742.675L293.335 743.319ZM331.091 757.08C331.091 757.08 332.311 758.677 332.653 759.322C335.093 762.516 335.093 762.516 330.868 763.649C330.571 761.691 331.195 759.373 326.822 759.527C327.982 757.518 329.291 756.487 329.722 754.504C331.715 754.762 330.942 756.101 331.82 757.054L331.091 757.08ZM356.101 797.864L355.714 798.534C355.714 798.534 352.026 799.976 350.077 798.404C348.663 797.142 349.63 795.467 349.332 793.509C349.719 792.84 350.641 792.479 351.519 793.432C353.661 794.669 354.881 796.267 356.101 797.864ZM175.091 633.972C175.091 633.972 172.993 631.421 173.038 630.107C172.353 628.819 173.811 628.768 174.391 627.763C175.313 627.403 176.92 628.33 177.069 629.309C177.367 631.267 177.129 632.916 175.284 633.637L175.091 633.972ZM210.378 650.773C210.378 650.773 210.036 650.129 210.229 649.794C210.422 649.459 210.809 648.789 211.538 648.763C212.609 649.382 212.222 650.052 212.029 650.386C211.836 650.721 211.449 651.391 210.378 650.773ZM232.751 656.546C232.751 656.546 231.591 658.555 230.625 660.23C230.52 657.937 230.565 656.623 231.145 655.618C231.145 655.618 231.531 654.948 232.603 655.567C232.603 655.567 233.674 656.185 233.48 656.52L232.751 656.546ZM222.963 650.001C222.963 650.001 222.189 651.341 220.925 651.057C220.925 651.057 220.583 650.413 220.776 650.078C221.163 649.408 221.549 648.739 222.814 649.022C222.814 649.022 223.156 649.666 222.963 650.001ZM229.285 651.419C229.285 651.419 228.898 652.089 228.363 651.779C228.363 651.779 226.994 649.203 226.309 647.915C225.967 647.271 225.818 646.292 227.276 646.24C228.005 646.215 229.076 646.833 229.418 647.477C230.103 648.765 230.058 650.079 229.285 651.419ZM213.589 636.552C213.589 636.552 212.816 637.892 212.087 637.918C210.629 637.969 210.48 636.99 210.138 636.346C210.138 636.346 209.26 635.393 208.918 634.749C207.847 634.13 207.892 632.816 209.156 633.1C211.149 633.358 212.458 632.327 214.838 631.915C214.065 633.255 214.363 635.213 213.589 636.552ZM160.776 594.451C159.809 596.126 157.623 596.203 155.674 594.631C154.067 593.704 154.305 592.055 155.956 591.669C157.607 591.282 159.258 590.896 161.103 590.175C162.13 592.107 161.356 593.447 160.776 594.451ZM147.09 584.763C142.747 594.759 137.333 604.135 134.255 614.414C131.802 622.374 130.419 630.953 133.366 640.691C134.348 643.937 134.066 646.9 134.512 649.837C134.126 650.506 135.003 651.46 135.881 652.413L130.199 653.597C130.199 653.597 126.941 653.056 126.985 651.742C126.732 648.47 125.943 644.889 127.49 642.21C128.263 640.871 127.043 639.273 128.352 638.243C129.855 636.878 127.712 635.641 127.757 634.327C128.337 633.322 127.653 632.034 127.697 630.72C127.444 627.449 127.384 623.842 128.395 620.854C130.328 617.505 130.655 613.228 131.711 608.926C133.822 600.322 139.34 593.238 142.716 584.917C143.103 584.248 143.683 583.243 144.07 582.573C145.378 581.543 145.274 579.25 147.803 579.817C148.83 581.749 146.985 582.471 146.747 584.119L147.09 584.763ZM165.119 584.456C165.119 584.456 162.545 585.203 161.668 584.25C161.132 583.941 160.448 582.652 160.105 582.008L160.492 581.339L162.099 582.266C162.099 582.266 162.634 582.575 163.17 582.885C166.13 581.468 164.999 577.243 168.688 575.801C168.212 579.098 167.008 582.421 165.119 584.456ZM94.7211 529.524C94.7211 529.524 93.9478 530.863 92.8766 530.245C92.8766 530.245 93.65 528.905 93.8434 528.571C93.8434 528.571 94.7211 529.524 94.5278 529.859L94.7211 529.524ZM444.767 727.158C444.767 727.158 444.187 728.162 443.115 727.544C442.044 726.925 442.624 725.921 443.011 725.251C443.204 724.916 443.591 724.246 444.127 724.556C445.733 725.483 444.424 726.514 444.231 726.848L444.767 727.158ZM119.117 529.321C119.117 529.321 119.399 526.358 117.451 524.786C116.915 524.477 116.573 523.833 116.231 523.189C116.424 522.854 116.811 522.184 117.004 521.849C117.197 521.514 118.12 521.154 118.655 521.463C120.797 522.7 123.088 524.916 122.851 526.564C121.884 528.239 122.182 530.197 120.144 531.253C119.073 530.634 119.459 529.965 119.117 529.321ZM133.711 533.727C133.711 533.727 133.517 534.062 133.859 534.706L132.788 534.088L131.717 533.47C132.104 532.8 132.639 533.109 132.982 533.753L133.711 533.727ZM209.091 581.267C209.091 581.267 208.317 582.606 207.588 582.632C207.588 582.632 207.053 582.323 206.517 582.014L206.711 581.679C206.711 581.679 207.677 580.004 208.406 579.979C208.406 579.979 209.477 580.597 208.748 580.623L209.091 581.267ZM190.777 568.461C190.777 568.461 190.584 568.796 189.855 568.822C189.855 568.822 189.171 567.533 189.364 567.199C190.524 565.189 191.491 563.515 194.258 562.433C193.097 564.442 191.937 566.452 190.971 568.126L190.777 568.461ZM109.475 507.679L109.089 508.349C109.089 508.349 106.946 507.112 106.991 505.799L107.184 505.464C107.184 505.464 109.326 506.7 109.669 507.345L109.475 507.679ZM143.051 521.26C143.051 521.26 141.013 522.316 140.671 521.672C140.671 521.672 141.251 520.667 142.515 520.951C142.515 520.951 143.051 521.26 143.587 521.569L143.051 521.26ZM213.625 554.861C213.625 554.861 212.658 556.536 211.929 556.561C211.2 556.587 211.245 555.273 212.018 553.934C212.405 553.264 212.985 552.259 214.249 552.543C214.934 553.831 214.011 554.192 213.431 555.196L213.625 554.861ZM217.685 547.829C217.685 547.829 217.105 548.833 215.84 548.55C214.769 547.932 215.156 547.262 215.543 546.592C215.929 545.922 216.123 545.587 217.194 546.206C217.729 546.515 218.072 547.159 217.492 548.164L217.685 547.829ZM145.949 500.161C145.949 500.161 146.634 501.449 145.712 501.81C145.325 502.48 144.06 502.196 142.796 501.913C142.796 501.913 141.918 500.959 141.769 499.98C141.769 499.98 141.814 498.666 142.543 498.641C142.736 498.306 143.465 498.28 144.001 498.589C145.072 499.208 145.607 499.517 145.949 500.161ZM214.812 530.542C214.812 530.542 214.381 532.526 214.53 533.505C214.336 533.84 213.95 534.509 213.756 534.844L212.685 534.226C212.194 532.603 212.432 530.954 213.741 529.924C213.741 529.924 214.128 529.254 215.199 529.872L216.27 530.491L214.812 530.542ZM163.486 482.155C163.486 482.155 163.01 485.453 160.586 487.179C160.674 484.551 160.912 482.902 162.221 481.872L163.292 482.49L163.486 482.155ZM243.549 504.268C243.549 504.268 242.969 505.273 242.775 505.608C242.775 505.608 242.478 503.65 243.742 503.933C243.742 503.933 244.084 504.578 243.891 504.912L243.549 504.268ZM186.733 456.731C186.733 456.731 186.004 456.757 185.662 456.113C184.591 455.494 184.442 454.515 185.365 454.155C185.365 454.155 186.093 454.129 186.629 454.438C187.7 455.057 187.12 456.061 186.733 456.731ZM192.429 444.392C192.429 444.392 191.463 446.066 190.734 446.092C190.049 444.804 191.507 444.752 191.894 444.083C191.894 444.083 192.087 443.748 192.816 443.722C192.816 443.722 192.623 444.057 192.429 444.392ZM198.632 438.596C198.632 438.596 197.71 438.957 197.174 438.647C196.638 438.338 196.49 437.359 197.218 437.334C197.218 437.334 197.947 437.308 198.483 437.617C199.018 437.926 199.554 438.236 198.974 439.24L198.632 438.596ZM144.614 399.818C144.614 399.818 144.227 400.488 143.692 400.179C143.156 399.87 142.621 399.56 143.007 398.891C143.007 398.891 143.736 398.865 144.272 399.174C144.272 399.174 144.614 399.818 144.956 400.462L144.614 399.818ZM207.377 422.212C207.377 422.212 206.841 421.903 206.306 421.594C205.77 421.285 205.428 420.641 205.815 419.971C205.815 419.971 206.543 419.945 206.886 420.589C207.421 420.899 207.763 421.543 207.377 422.212ZM211.63 414.845C211.63 414.845 210.664 416.519 209.741 416.88C209.741 416.88 209.206 416.571 208.67 416.262C207.599 415.643 208.179 414.639 208.373 414.304C208.953 413.299 209.339 412.629 210.946 413.557C211.481 413.866 212.017 414.175 212.166 415.154L211.63 414.845ZM293.108 314.537C293.108 314.537 292.721 315.207 292.528 315.542C292.334 315.877 290.876 315.928 289.999 314.975C289.463 314.666 290.043 313.661 290.772 313.635C291.694 313.275 292.572 314.228 292.914 314.872L293.108 314.537ZM343.673 213.35C343.673 213.35 343.286 214.02 342.751 213.711C342.215 213.402 341.68 213.092 342.066 212.423C342.066 212.423 342.26 212.088 342.989 212.062C343.524 212.371 344.06 212.681 343.673 213.35ZM650.381 368.549C650.381 368.549 649.994 369.219 649.459 368.91C649.459 368.91 648.923 368.601 648.581 367.956C649.354 366.617 650.128 365.277 651.481 362.933C651.199 365.896 650.426 367.235 649.652 368.575L650.381 368.549ZM657.342 356.493C657.342 356.493 656.761 357.498 656.375 358.168C655.988 358.838 655.795 359.172 654.873 359.533C654.873 359.533 654.337 359.224 653.801 358.915C653.801 358.915 654.084 355.952 655.735 355.566C655.735 355.566 656.464 355.54 656.999 355.849C656.999 355.849 657.535 356.159 657.684 357.137L657.342 356.493ZM369.048 184.242C369.048 184.242 368.512 183.933 367.783 183.959L366.712 183.34C366.712 183.34 368.021 182.31 368.899 183.263C368.899 183.263 369.241 183.907 368.512 183.933L369.048 184.242ZM390.973 171.003C390.973 171.003 390.199 172.343 389.128 171.724C388.593 171.415 388.25 170.771 388.637 170.101C389.024 169.431 389.411 168.762 390.139 168.736C391.211 169.354 391.553 169.998 391.166 170.668L390.973 171.003ZM391.491 150.316C391.491 150.316 389.989 151.681 388.382 150.754C387.847 150.445 386.969 149.491 387.891 149.131C388.471 148.126 389.735 148.41 391 148.693C391.535 149.002 391.878 149.647 391.491 150.316ZM327.506 110.249C327.506 110.249 326.926 111.254 325.855 110.635C324.784 110.017 325.364 109.012 325.751 108.343C325.751 108.343 326.138 107.673 326.673 107.982C327.744 108.6 327.358 109.27 326.971 109.94L327.506 110.249ZM386.105 137.383C386.105 137.383 386.491 136.713 387.027 137.023C387.027 137.023 386.833 137.357 386.64 137.692L386.447 138.027L385.762 136.739L386.105 137.383ZM534.067 223.702C533.621 220.766 534.736 220.07 535.51 218.731C537.116 219.658 536.73 220.328 534.067 223.702ZM526.747 214.118L526.554 214.453C526.554 214.453 524.947 213.525 524.798 212.546C524.798 212.546 524.798 212.546 524.992 212.212C525.185 211.877 525.378 211.542 526.063 212.83C526.063 212.83 526.747 214.118 527.09 214.762L526.747 214.118ZM405.309 139.987C405.309 139.987 403.851 140.039 403.509 139.395C403.509 139.395 402.483 137.462 403.018 137.772C404.863 137.05 405.294 135.067 407.481 134.99C407.585 137.283 406.812 138.622 405.309 139.987ZM337.367 93.1702L336.98 93.8399C336.98 93.8399 336.251 93.8656 335.716 93.5564C335.716 93.5564 335.374 92.9124 335.567 92.5774C335.76 92.2425 336.683 91.882 337.025 92.5261L337.367 93.1702ZM455.041 160.216L454.118 160.577C453.047 159.958 453.434 159.288 453.821 158.619C453.821 158.619 454.014 158.284 454.743 158.258C455.814 158.877 455.427 159.546 455.041 160.216ZM406.63 111.727C406.63 111.727 407.017 111.057 407.552 111.366C407.552 111.366 408.623 111.984 408.237 112.654C407.85 113.324 407.657 113.659 406.586 113.04C406.586 113.04 406.243 112.396 406.972 112.371L406.63 111.727ZM415.423 126.18C413.683 129.194 413.683 129.194 409.741 127.364C407.599 126.128 406.527 125.509 407.107 124.505C407.688 123.5 409.294 124.428 410.023 124.402C413.088 125.278 414.396 124.248 414.292 121.955C414.337 120.641 413.459 119.688 411.659 119.095C410.588 118.477 409.472 119.172 408.401 118.554C407.865 118.245 407.33 117.935 407.717 117.266C408.877 115.256 410.334 115.205 412.477 116.442C413.012 116.751 413.548 117.06 414.619 117.678C416.226 118.606 417.341 117.911 417.386 116.597C417.772 115.927 416.895 114.974 417.281 114.304C417.817 114.613 418.352 114.922 418.888 115.232C422.101 117.087 423.128 119.019 420.703 120.745C419.008 122.445 416.777 123.836 415.423 126.18ZM558.311 190.369L557.239 189.751C558.4 187.742 559.173 186.402 561.553 185.99C561.122 187.974 559.813 189.004 558.311 190.369ZM568.56 188.696C568.56 188.696 567.98 189.701 567.4 190.705C566.433 192.38 564.782 192.766 564.633 191.787C563.948 190.499 564.335 189.829 564.915 188.824C565.302 188.154 565.689 187.485 566.611 187.124C566.611 187.124 567.533 186.764 568.069 187.073C568.069 187.073 568.411 187.717 568.218 188.052L568.56 188.696ZM546.304 174.061C546.304 174.061 545.724 175.065 544.653 174.447C543.582 173.828 543.969 173.159 544.355 172.489L544.742 171.819C545.471 171.793 546.349 172.747 545.769 173.751L546.304 174.061ZM633.683 173.607C633.683 173.607 634.606 173.246 635.141 173.555C635.677 173.865 636.212 174.174 635.632 175.178C635.439 175.513 635.246 175.848 634.174 175.23C633.639 174.921 633.49 173.942 634.219 173.916L633.683 173.607ZM641.583 182.186C641.583 182.186 640.601 178.94 642.103 177.575C642.49 176.905 643.07 175.901 644.335 176.184C645.941 177.112 649.557 183.218 648.59 184.892C648.01 185.897 646.552 185.948 645.674 184.995C645.139 184.686 644.99 183.707 644.454 183.398C643.577 182.444 641.346 183.835 641.048 181.877L641.583 182.186ZM660.403 201.536C660.403 201.536 660.21 201.871 659.481 201.896C659.481 201.896 659.139 201.252 658.797 200.608C659.183 199.938 659.377 199.603 660.448 200.222L660.597 201.201L660.403 201.536ZM639.219 187.519C639.219 187.519 639.992 186.179 641.063 186.798C642.134 187.416 641.748 188.086 641.361 188.756C640.974 189.425 640.588 190.095 639.516 189.477C638.445 188.858 638.832 188.189 639.219 187.519ZM631.439 186.153C631.439 186.153 632.896 186.101 633.968 186.72C633.968 186.72 634.31 187.364 634.116 187.699C633.73 188.368 632.465 188.085 631.394 187.466C630.859 187.157 630.516 186.513 630.903 185.843L631.439 186.153ZM647.074 197.412C647.074 197.412 648.472 193.754 649.781 192.724C649.781 192.724 650.51 192.698 651.045 193.007C651.045 193.007 652.117 193.626 651.73 194.296C651.15 195.3 650.57 196.305 650.376 196.64C649.796 197.645 649.41 198.314 649.023 198.984C649.023 198.984 648.636 199.654 647.565 199.035C647.03 198.726 646.494 198.417 646.345 197.438L647.074 197.412ZM642.745 196.253L642.939 195.918L644.01 196.536L643.623 197.206C643.623 197.206 642.552 196.587 642.939 195.918L642.745 196.253ZM628.538 191.176C628.538 191.176 629.267 191.15 629.803 191.459C630.338 191.769 630.874 192.078 630.487 192.748C630.487 192.748 629.758 192.773 629.03 192.799C628.494 192.49 627.958 192.181 628.538 191.176ZM626.412 194.86C626.412 194.86 626.798 194.19 627.334 194.499C627.869 194.808 628.212 195.452 627.825 196.122C627.825 196.122 627.438 196.792 626.903 196.483C626.367 196.173 626.025 195.529 626.412 194.86ZM475.833 126.676C475.833 126.676 477.529 124.976 479.18 124.59C479.135 125.904 479.626 127.527 477.975 127.913C477.782 128.248 476.517 127.965 476.517 127.965C475.982 127.655 475.64 127.011 476.026 126.341L475.833 126.676ZM547.88 165.147L548.951 165.766C549.487 166.075 550.171 167.363 549.784 168.033L549.591 168.368C549.591 168.368 547.835 166.461 547.687 165.482L547.88 165.147ZM564.884 178.983C564.884 178.983 565.702 176.33 567.204 174.965C567.502 176.923 565.658 177.644 564.884 178.983ZM479.373 124.255C479.373 124.255 479.269 121.962 481.069 122.555C481.069 122.555 480.102 124.23 479.373 124.255ZM562.86 168.884C562.86 168.884 562.473 169.554 561.402 168.936C560.867 168.626 560.331 168.317 560.911 167.313C560.911 167.313 561.105 166.978 561.833 166.952C562.369 167.261 562.905 167.57 562.325 168.575L562.86 168.884ZM552.922 161.361C552.922 161.361 552.536 162.031 552 161.721L552.387 161.051C552.387 161.051 552.922 161.361 553.265 162.005L552.922 161.361ZM567.663 150.671C567.663 150.671 567.856 150.336 568.585 150.311C568.585 150.311 569.121 150.62 568.734 151.29L568.347 151.959C567.812 151.65 567.276 151.341 567.663 150.671ZM493.311 121.14C493.311 121.14 493.891 120.135 495.305 121.397C495.305 121.397 496.182 122.351 495.796 123.02C495.409 123.69 495.216 124.025 494.338 123.072C493.802 122.763 493.46 122.119 493.847 121.449L493.311 121.14ZM561.743 153.504C561.743 153.504 561.163 154.509 560.969 154.844C559.66 155.874 558.351 156.904 556.849 158.27C556.462 158.939 555.734 158.965 555.391 158.321C554.856 158.012 554.514 157.368 554.9 156.698C554.9 156.698 554.9 156.698 555.287 156.028C556.789 154.663 557.22 152.679 559.794 151.933C559.794 151.933 560.523 151.907 560.865 152.551C560.865 152.551 561.4 152.86 561.549 153.839L561.743 153.504ZM496.3 113.489C496.3 113.489 498.874 112.742 499.558 114.03L499.365 114.365C499.365 114.365 497.371 114.107 496.494 113.154L496.3 113.489ZM576.083 154.639C576.083 154.639 575.696 155.309 575.503 155.644C575.31 155.979 574.923 156.649 574.001 157.009C574.001 157.009 573.272 157.035 572.736 156.726C571.665 156.107 572.052 155.438 571.903 154.459C572.483 153.454 572.87 152.784 574.67 153.377L575.741 153.995L576.083 154.639ZM572.021 145.597C572.021 145.597 572.75 145.571 573.285 145.88C573.821 146.189 573.97 147.168 573.241 147.194C573.241 147.194 572.705 146.885 571.976 146.91C571.441 146.601 571.292 145.622 572.021 145.597Z" fill="black"/>
<path d="M199.226 689.878C199.226 689.878 197.873 692.222 197.828 693.536L202.113 696.01L203.184 696.628C205.133 698.2 207.126 698.458 209.015 696.423C209.595 695.418 210.175 694.413 210.755 693.409C210.949 693.074 210.8 692.095 210.264 691.786C209.193 691.167 208.806 691.837 208.42 692.507C208.033 693.176 207.646 693.846 206.382 693.563C203.853 692.996 203.511 692.352 202.529 689.105C201.457 688.487 200 688.538 199.613 689.208L199.226 689.878Z" fill="black"/>
<path d="M180.869 694.461C180.869 694.461 181.107 692.813 182.029 692.452C183.145 691.757 183.636 693.38 184.707 693.998C184.707 693.998 185.778 694.617 185.972 694.282C187.132 692.272 184.349 688.434 181.478 687.222C180.407 686.604 179.485 686.965 179.634 687.944C179.203 689.927 178.578 692.246 177.954 694.564C179.56 695.492 180.438 696.445 181.94 695.08L180.869 694.461Z" fill="black"/>
<path d="M377.521 794.157C377.521 794.157 377.908 793.487 378.101 793.152C377.759 792.508 377.03 792.534 376.494 792.224C373.192 792.997 371.496 794.697 369.414 797.067C373.743 798.227 375.632 796.192 377.714 793.822L377.521 794.157Z" fill="black"/>
<path d="M430.89 99.3896C430.89 99.3896 431.426 99.6988 431.961 100.008L432.348 99.3382C432.348 99.3382 431.024 95.448 430.19 93.1808C430.384 92.8459 429.119 92.5624 428.584 92.2532C428.39 92.5881 427.468 92.9487 427.81 93.5928C427.423 94.2625 429.819 98.7712 431.232 100.034L430.89 99.3896Z" fill="black"/>
<path d="M146.141 623.509L145.07 622.891C145.07 622.891 144.877 623.226 144.683 623.561C144.103 624.565 143.866 626.214 143.285 627.219C142.705 628.224 142.319 628.893 143.732 630.156C144.268 630.465 145.577 629.435 145.621 628.121C145.666 626.807 145.71 625.493 145.754 624.179L146.141 623.509Z" fill="black"/>
<path d="M585.824 130.347C585.824 130.347 588.441 128.287 588.144 126.329C586.299 127.05 584.455 127.771 585.288 130.038L585.824 130.347Z" fill="black"/>
<path d="M189.481 682.02C189.481 682.02 187.874 681.092 187.487 681.762C186.372 682.457 185.941 684.441 186.283 685.085L187.354 685.703C188.812 685.652 189.392 684.647 189.436 683.334C189.436 683.334 189.094 682.689 189.287 682.355L189.481 682.02Z" fill="black"/>
<path d="M587.359 154.899C587.359 154.899 588.817 154.847 589.204 154.177C589.59 153.508 589.977 152.838 588.37 151.91C587.299 151.292 586.764 150.983 586.184 151.987C585.797 152.657 586.288 154.28 586.823 154.589L587.359 154.899Z" fill="black"/>
<path d="M417.083 82.4882C417.083 82.4882 418.348 82.7717 418.734 82.1019C419.121 81.4321 419.314 81.0973 418.243 80.4789C417.172 79.8605 416.637 79.5512 416.057 80.5559C415.67 81.2256 416.012 81.8697 417.083 82.4882Z" fill="black"/>
<path d="M322.522 768.208C322.522 768.208 322.135 768.878 322.671 769.187C323.549 770.141 324.426 771.094 325.884 771.042L326.078 770.708L326.464 770.038C325.929 769.729 325.393 769.419 324.858 769.11L323.787 768.492C323.787 768.492 322.715 767.873 322.522 768.208Z" fill="black"/>
<path d="M420.056 53.8412C420.056 53.8412 421.127 54.4596 421.663 54.7688C422.199 55.078 423.314 54.3826 423.701 53.7128C423.701 53.7128 423.552 52.7338 423.016 52.4246C421.945 51.8062 421.023 52.1668 420.83 52.5017C420.636 52.8365 419.714 53.1971 420.056 53.8412Z" fill="black"/>
<path d="M204.61 686.736C204.61 686.736 204.268 686.092 203.926 685.448C203.926 685.448 203.197 685.473 203.004 685.808C202.424 686.813 201.844 687.817 202.335 689.44C203.45 688.745 204.566 688.05 204.075 686.426L204.61 686.736Z" fill="black"/>
<path d="M561.191 551.475C562.158 549.8 565.267 549.363 566.085 546.709C562.932 548.461 562.738 548.796 561.191 551.475Z" fill="black"/>
<path d="M584.116 159.278C584.116 159.278 582.851 158.994 582.465 159.664C582.078 160.334 582.227 161.313 582.376 162.292C583.298 161.931 584.756 161.88 584.607 160.901C584.8 160.566 585.187 159.896 584.116 159.278Z" fill="black"/>
<path d="M581.941 132.124C581.941 132.124 581.555 132.794 581.361 133.129C580.975 133.799 582.046 134.417 582.775 134.391C583.31 134.701 584.039 134.675 584.768 134.649C584.768 134.649 584.084 133.361 583.741 132.717C583.206 132.408 582.67 132.099 582.135 131.789L581.941 132.124Z" fill="black"/>
<path d="M584.232 134.34L584.575 134.984L584.768 134.649L584.232 134.34Z" fill="black"/>
<path d="M507.916 98.3162C507.916 98.3162 508.988 98.9346 509.181 98.5997C509.181 98.5997 509.374 98.2648 509.032 97.6207L507.961 97.0023L507.574 97.6721L507.916 98.3162Z" fill="black"/>
<path d="M414.8 20.8909C414.8 20.8909 413.729 20.2725 413 20.2982C412.807 20.6331 412.42 21.3029 412.955 21.6121C413.491 21.9213 414.027 22.2305 414.413 21.5607L414.8 20.8909Z" fill="black"/>
<path d="M471.665 99.2653C471.665 99.2653 471.709 97.9514 470.98 97.9771C470.98 97.9771 470.787 98.312 470.594 98.6469C470.4 98.9818 470.743 99.6259 471.278 99.9351C471.278 99.9351 472.007 99.9094 471.665 99.2653Z" fill="black"/>
<path d="M219.803 727.209C219.803 727.209 219.416 727.879 219.223 728.214C219.029 728.549 218.643 729.219 218.985 729.863C218.985 729.863 220.294 728.832 220.145 727.853L219.803 727.209Z" fill="black"/>
<path d="M146.963 653.007C146.963 653.007 146.576 653.676 148.034 653.625C148.034 653.625 148.227 653.29 148.956 653.265C149.15 652.93 149.343 652.595 147.885 652.646C147.885 652.646 147.156 652.672 146.963 653.007Z" fill="black"/>
<path d="M380.555 785.192C380.555 785.192 381.478 784.832 380.942 784.522C380.942 784.522 380.064 783.569 379.722 782.925C379.187 782.616 378.651 782.307 378.8 783.286C378.413 783.955 379.291 784.909 380.362 785.527L380.555 785.192Z" fill="black"/>
<path d="M389.941 787.486C389.941 787.486 390.864 787.125 391.593 787.1C391.979 786.43 392.366 785.76 391.102 785.477C391.102 785.477 390.715 786.146 389.793 786.507C389.406 787.177 389.213 787.512 390.477 787.795L389.941 787.486Z" fill="black"/>
</g>
<defs>
<clipPath id="clip0_2075_24131">
<rect width="751.338" height="456.385" fill="white" transform="translate(0.894531 612.879) rotate(-60)"/>
</clipPath>
</defs>
</svg>
