<svg width="383" height="653" viewBox="0 0 383 653" fill="none" xmlns="http://www.w3.org/2000/svg">
<g opacity="0.5" clip-path="url(#clip0_2075_23986)">
<path d="M230.756 85.0517C226.901 87.1362 222.903 89.4694 219.049 91.5539C217.679 92.0893 216.564 93.1031 215.194 93.6385C213.283 94.193 210.577 94.2883 209.462 95.302C208.059 96.813 206.8 98.0752 205 99.3566L204.569 100.103C204.569 100.103 202.228 101.403 200.891 100.963C200.494 100.733 199.809 101.001 200.461 101.709C200.825 102.914 200.141 103.182 198.661 102.99C197.181 102.799 196.098 102.837 194.618 102.646C193.138 102.454 192.31 102.97 191.879 103.716C191.448 104.462 190.333 105.476 190.443 106.203C191.062 107.886 189.151 108.441 189.372 109.895C189.339 110.87 188.798 110.889 187.716 110.927C184.358 110.315 184.358 110.315 184.711 107.866C185.142 107.12 185.175 106.145 184.125 105.208C182.645 105.016 183.264 106.699 182.038 106.986C179.045 107.579 178.835 109.779 179.023 112.208C179.023 112.208 177.4 112.265 176.715 112.533C174.948 112.839 175.931 115.727 173.369 115.574C173.369 115.574 173.336 116.549 173.446 117.276C173.413 118.252 172.728 118.52 172.187 118.539C171.248 118.328 170.453 117.869 169.801 117.161C169.801 117.161 169.691 116.434 169.293 116.205C168.674 114.521 170.187 113.737 171.303 112.724C169.425 112.302 168.486 112.092 167.15 111.652C165.67 111.46 164.841 111.977 165.062 113.431C164.919 113.679 165.571 114.387 165.427 114.636C166.333 115.822 166.046 116.319 164.82 116.606C163.594 116.893 163.02 117.887 161.683 117.447C160.888 116.988 160.601 117.485 159.916 117.753C158.513 119.264 156.857 120.297 159.066 122.898C159.718 123.606 160.624 124.792 160.049 125.787C158.967 125.825 158.426 125.844 157.774 125.136C156.979 124.677 157.299 123.204 156.216 123.242C155.675 123.261 154.847 123.778 154.162 124.045C153.731 124.791 153.301 125.537 152.87 126.283C151.722 128.273 149.667 129.076 148.265 130.587C148.265 130.587 147.326 130.376 146.928 130.147C146.928 130.147 146.276 129.439 146.42 129.19C147.281 127.698 147.602 126.225 146.585 124.312C146.475 123.585 146.762 123.088 147.303 123.069C149.357 122.266 150.075 121.023 149.6 119.091C148.871 116.68 149.478 114.71 150.626 112.721C151.775 110.732 153.575 109.451 154.978 107.94C155.265 107.442 155.839 106.448 155.044 105.989C153.994 105.051 153.564 105.797 153.276 106.294C152.846 107.04 152.415 107.786 151.587 108.303C151.443 108.551 150.361 108.589 150.361 108.589C150.361 108.589 149.709 107.882 149.455 107.403C149.377 105.701 150.239 104.209 149.62 102.526C149.62 102.526 149.366 102.047 148.825 102.066C148.825 102.066 147.886 101.856 147.742 102.105C144.794 105.375 141.193 107.938 139.04 111.668C138.035 113.408 137.03 115.149 135.627 116.66L135.484 116.909L134.689 116.449C135.55 114.957 135.76 112.758 136.223 111.036C137.085 109.544 138.09 107.804 138.951 106.312C140.099 104.323 141.391 102.085 139.867 99.2154C139.359 98.2589 139.646 97.7616 140.076 97.0156C140.938 95.5238 141.512 94.5291 139.811 92.8839C139.016 92.4247 138.651 91.2196 138.938 90.7223C139.943 88.9818 138.385 87.0879 138.308 85.3855C137.833 83.4535 137.755 81.751 136.054 80.1058C134.861 79.4171 135.038 78.1929 135.468 77.4469C136.33 75.955 135.711 74.2716 134.408 72.856C133.899 71.8995 133.535 70.6944 132.485 69.757C131.325 68.0927 130.707 66.4094 130.773 64.4583C130.839 62.5072 128.408 58.4517 126.166 56.8256C123.78 55.4481 121.825 53.3246 120.554 50.9334C119.903 50.2256 119.394 49.2692 118.169 49.5559C117.086 49.5941 117.594 50.5506 117.307 51.0479C117.672 52.253 117.639 53.2285 118.147 54.185L118.942 54.6442C120.566 54.587 122.444 55.008 122.919 56.94C123.283 58.1451 126.1 58.7767 125.382 60.0199C125.173 62.2197 126.587 64.3621 127.062 66.2942C127.537 68.2262 126.278 69.4885 125.019 70.7508C124.875 70.9995 123.936 70.789 123.793 71.0376C123.793 71.0376 123.506 71.5349 123.362 71.7836C123.362 71.7836 123.616 72.2618 124.014 72.4914C125.207 73.1801 126.289 73.142 127.482 73.8308C129.217 74.5004 129.471 74.9787 128.753 76.222C128.322 76.9679 127.096 77.2547 127.461 78.4598C127.428 79.4353 128.621 80.1241 129.272 80.8319C130.576 82.2475 131.051 84.1796 133.326 84.8302C133.326 84.8302 133.183 85.0788 133.437 85.557L133.293 85.8057C133.293 85.8057 132.211 85.8438 131.813 85.6142C130.62 84.9255 129.538 84.9636 129.759 86.4174C129.616 86.666 129.328 87.1634 129.185 87.412C128.898 87.9093 128.754 88.158 129.152 88.3876C129.152 88.3876 129.693 88.3685 130.234 88.3494C130.234 88.3494 131.46 88.0626 131.858 88.2922C132.256 88.5218 131.968 89.0191 131.825 89.2678C129.738 91.0465 128.048 93.0547 130.511 96.1346C130.511 96.1346 130.511 96.1346 130.368 96.3833C129.363 98.1239 130.777 100.266 131.252 102.198C130.965 102.696 131.075 103.423 131.329 103.901C130.755 104.895 129.021 104.226 128.59 104.972C128.016 105.966 129.176 107.631 127.807 108.166C127.663 108.415 126.978 108.682 126.437 108.701C125.752 108.969 124.813 108.759 124.129 109.026C122.936 108.338 123.764 107.821 124.195 107.075C125.2 105.335 125.487 104.837 123.068 104.435C120.649 104.033 119.599 103.096 118.694 101.91C118.042 101.202 118.616 100.208 119.555 100.418C120.637 100.38 121.974 100.82 123.31 101.26L123.598 100.763C123.885 100.266 123.631 99.7874 123.089 99.8064C121.609 99.615 120.273 99.1748 120.339 97.2238C120.769 96.4778 119.433 96.0377 118.351 96.0759C117.268 96.114 115.136 95.2148 115.357 96.6685C115.435 98.371 113.635 99.6523 115.049 101.795C116.463 103.937 114.729 103.268 113.392 102.828C112.994 102.598 112.31 102.866 112.166 103.114C111.879 103.612 112.133 104.09 112.531 104.319C114.011 104.511 114.519 105.467 114.884 106.673C114.884 106.673 115.281 106.902 115.679 107.132C118.065 108.509 118.065 108.509 117.601 110.231C117.314 110.728 116.883 111.474 116.596 111.971C114.718 111.55 114.718 111.55 113.702 109.637C113.592 108.91 112.796 108.451 112.399 108.222C111.206 107.533 110.41 107.074 109.504 105.888C108.201 104.472 107.439 103.037 108.698 101.775C109.272 100.78 109.846 99.7858 110.42 98.7912C110.884 97.0697 111.348 95.3482 112.861 94.5641C114.374 93.78 114.694 92.3072 113.534 90.6429C112.374 88.9786 112.694 87.5058 114.208 86.7217C114.638 85.9757 115.069 85.2298 115.897 84.7134C117.521 84.6562 119.144 84.599 121.276 85.4983C120.768 84.5418 119.862 83.3558 120.149 82.8585C120.47 81.3856 120.646 80.1614 118.371 79.5108C117.973 79.2812 117.719 78.803 118.006 78.3057C118.47 76.5842 119.331 75.0923 120.844 74.3082C121.131 73.8109 121.562 73.0649 120.767 72.6058C119.176 71.6874 118.922 71.2092 119.242 69.7364C119.816 68.7418 117.541 68.0912 116.746 67.632C116.922 66.4078 117.099 65.1836 114.967 64.2843C113.774 63.5956 113.012 62.1609 112.504 61.2044C112.647 60.9557 113.619 60.1908 113.652 59.2152C113.652 59.2152 113.939 58.7179 114.083 58.4693C114.944 56.9773 114.547 56.7478 112.558 55.5998C110.968 54.6815 110.423 53.4828 110.923 52.0035L111.067 51.7549C111.067 51.7549 111.1 50.7793 110.304 50.3202C109.907 50.0906 109.112 49.6314 108.824 50.1287C108.537 50.626 108.25 51.1233 107.963 51.6206C106.815 53.6098 104.76 54.413 102.198 54.2597L101.402 53.8005L101.292 53.0736C103.92 51.2759 104.45 47.6033 108.923 47.2021L109.211 46.7048C109.211 46.7048 108.813 46.4752 108.415 46.2456C105.963 46.8192 104.053 47.3737 102.65 48.8847C101.247 50.3956 98.0332 49.5345 96.6306 51.0455C96.6306 51.0455 96.6306 51.0455 96.4871 51.2942C95.4822 53.0347 93.5714 53.5892 91.9148 54.622C91.0864 55.1383 90.6558 55.8843 91.7052 56.8217C92.5005 57.2809 91.8157 57.5486 91.2745 57.5676C90.4792 57.1085 89.3968 57.1466 88.9661 57.8926C86.7022 60.8954 83.7865 63.1905 80.8709 65.4856C76.5526 69.2916 73.2838 74.035 69.3632 78.0706C68.789 79.0652 67.6736 80.0789 66.7017 80.8439C63.8305 85.8169 58.717 89.1638 55.8458 94.1368L55.7022 94.3855C51.0639 99.6643 46.4255 104.943 41.7872 110.222C37.1488 115.501 32.9081 121.009 28.2697 126.288C27.4084 127.78 25.6082 129.062 24.7468 130.553C22.1627 135.029 17.9881 138.587 15.2605 143.311C12.3893 148.284 8.46872 152.32 5.59755 157.293C5.16687 158.039 4.59265 159.033 4.16197 159.779C-1.4813 166.799 -6.58337 173.799 -11.4313 181.277C-12.7234 183.515 -14.0154 185.753 -16.1027 187.532C-16.5334 188.278 -16.9641 189.024 -17.3948 189.77C-19.6917 193.748 -21.9886 197.727 -24.2856 201.705C-25.8647 204.44 -27.8415 206.946 -29.4207 209.681C-30.5691 211.67 -30.6682 214.597 -33.6614 215.189C-33.6614 215.189 -34.092 215.935 -34.2356 216.184C-34.3017 218.135 -35.9583 219.168 -36.8197 220.66C-37.9681 222.649 -39.2602 224.887 -40.4086 226.876C-41.8442 229.362 -43.4234 232.098 -44.859 234.584C-46.7252 237.817 -48.5915 241.049 -50.8554 244.052C-50.9989 244.301 -51.2861 244.798 -51.4296 245.047C-50.6673 246.481 -51.4957 246.998 -52.324 247.514C-54.9525 249.312 -56.5317 252.047 -57.7132 255.012C-58.7181 256.752 -59.8666 258.741 -60.8715 260.482C-62.3071 262.968 -64.2839 265.474 -65.3218 268.19C-65.6089 268.687 -65.896 269.185 -66.1831 269.682C-68.9553 271.728 -70.5344 274.464 -71.7159 277.428C-74.7636 283.626 -78.6067 289.364 -82.0521 295.331C-86.2153 302.542 -90.7762 309.523 -93.6029 317.174C-94.0335 317.92 -94.6078 318.915 -95.0385 319.661C-96.6176 322.396 -98.5944 324.902 -99.7759 327.866C-100.096 329.339 -101.355 330.602 -102.47 331.615C-104.414 333.145 -105.563 335.134 -106.059 337.831C-106.667 339.802 -107.274 341.772 -109.074 343.053C-109.936 344.545 -111.195 345.807 -110.719 347.739C-110.609 348.466 -110.896 348.964 -111.437 348.983C-112.122 349.25 -112.409 349.748 -112.696 350.245C-113.193 352.942 -115.28 354.721 -116.572 356.959C-117.003 357.705 -117.577 358.699 -118.008 359.445C-117.643 360.65 -118.472 361.167 -119.443 361.932C-120.272 362.448 -121.785 363.232 -120.879 364.418C-120.006 366.58 -121.232 366.866 -122.348 367.88C-122.922 368.875 -123.64 370.118 -123.816 371.342C-123.595 372.796 -124.169 373.791 -125.683 374.575C-127.196 375.359 -127.913 376.602 -127.979 378.553C-127.758 380.007 -128.333 381.001 -129.559 381.288C-130.387 381.805 -130.563 383.029 -130.994 383.775C-131.281 384.272 -131.712 385.018 -131.999 385.515C-134.197 386.567 -133.578 388.25 -132.562 390.163C-131.291 392.555 -131.291 392.555 -133.489 393.606C-134.461 394.371 -136.626 394.448 -135.212 396.59C-134.958 397.068 -135.643 397.336 -135.643 397.336C-137.918 396.686 -137.841 398.388 -138.415 399.383C-139.42 401.123 -136.923 403.227 -138.182 404.49C-139.044 405.982 -141.208 406.058 -142.467 407.32C-142.898 408.066 -143.472 409.061 -143.903 409.807C-144.334 410.553 -144.621 411.05 -144.908 411.547C-148.906 413.881 -149.866 418.299 -151.224 422.488C-152.086 423.98 -150.131 426.103 -147.855 426.754C-145.58 427.405 -142.763 428.036 -140.853 427.482C-139.483 426.946 -138.003 427.138 -136.556 428.305C-135.363 428.993 -134.678 428.726 -133.85 428.209C-133.563 427.712 -132.624 427.923 -132.083 427.903C-131.287 428.363 -131.033 428.841 -131.32 429.338C-132.182 430.83 -130.591 431.748 -129.829 433.183C-129.718 433.91 -128.238 434.101 -127.808 433.356C-126.946 431.864 -126.803 431.615 -125.101 433.26C-123.798 434.676 -121.633 434.6 -120.153 434.791C-119.214 435.002 -117.845 434.466 -116.795 435.403C-116 435.863 -115.459 435.844 -115.172 435.346C-114.741 434.6 -114.454 434.103 -114.564 433.376C-114.818 432.898 -115.614 432.439 -115.868 431.961C-116.774 430.774 -116.454 429.302 -114.432 429.474C-112.809 429.417 -111.329 429.608 -110.103 429.321C-109.197 430.508 -108.147 431.445 -107.242 432.631C-106.082 434.295 -108.246 434.372 -108.821 435.366L-108.964 435.615C-108.964 435.615 -108.6 436.82 -107.804 437.279C-107.407 437.509 -106.865 437.49 -106.324 437.471C-105.242 437.432 -105.319 435.73 -103.585 436.4C-104.049 438.121 -103.717 440.302 -105.517 441.583C-105.805 442.08 -106.092 442.578 -104.612 442.769C-104.214 442.999 -103.386 442.482 -102.734 443.19C-101.32 445.333 -98.6138 445.237 -97.1998 447.38C-96.6916 448.336 -95.6092 448.298 -94.8139 448.758C-93.7315 448.719 -92.5385 449.408 -91.8868 450.116C-90.2962 451.034 -88.7056 451.953 -86.6843 452.125C-86.2867 452.355 -85.2042 452.316 -84.4089 452.776C-83.6136 453.235 -82.8183 453.694 -82.8513 454.669C-82.7738 456.372 -83.6352 457.864 -84.353 459.107C-88.6267 465.591 -91.4534 473.242 -94.5342 480.415C-96.1464 484.125 -96.9632 488.295 -98.1777 492.236C-98.4649 492.733 -98.752 493.23 -98.6414 493.957C-100.176 499.37 -98.8942 505.415 -98.8052 510.771C-98.5841 512.225 -98.2195 513.43 -97.4572 514.864C-96.695 516.299 -95.502 516.988 -93.7348 516.682C-91.4264 516.357 -90.4215 514.617 -88.7649 513.584C-88.7649 513.584 -89.1295 512.379 -89.3836 511.9C-86.9431 507.673 -86.2367 502.777 -86.8669 497.44L-86.7234 497.191C-87.4196 493.805 -86.2381 490.841 -85.2002 488.125C-84.7695 487.379 -84.3388 486.633 -83.0023 487.073C-81.2681 487.742 -80.8375 486.996 -80.1197 485.753C-78.618 481.316 -76.8623 477.356 -75.3607 472.919C-75.0735 472.421 -74.93 472.173 -74.5323 472.402C-74.1347 472.632 -73.8806 473.11 -74.1677 473.607C-75.0621 476.075 -75.9565 478.542 -76.3096 480.991C-77.204 483.458 -78.2419 486.174 -77.7998 489.082C-77.7553 491.76 -77.9649 493.959 -79.6546 495.968C-80.0853 496.714 -79.7207 497.919 -78.7818 498.129C-77.1912 499.048 -76.3959 499.507 -76.1748 500.961C-76.4619 501.458 -76.3514 502.185 -75.6997 502.893C-74.3962 504.308 -74.3187 506.011 -72.8716 507.178C-70.9609 506.623 -71.5796 504.94 -70.8618 503.697C-70.8618 503.697 -69.7349 506.336 -70.5962 507.828C-72.3189 510.812 -71.2695 511.75 -67.6246 511.865C-67.6246 511.865 -66.5422 511.827 -66.3986 511.578C-66.1115 511.081 -66.5092 510.851 -67.3045 510.392C-68.0998 509.933 -68.4974 509.703 -68.4644 508.728C-68.4644 508.728 -68.1773 508.23 -68.0337 507.982C-67.7466 507.484 -67.349 507.714 -66.5537 508.173C-64.5654 509.321 -64.0242 509.302 -64.1017 507.599C-64.0026 504.673 -63.1083 502.205 -62.6115 499.508C-62.435 498.284 -61.7502 498.017 -60.5242 497.73C-58.9666 499.624 -59.0327 501.575 -59.0987 503.526C-59.9486 508.671 -61.1962 513.587 -64.0343 517.584C-65.4699 520.071 -66.9055 522.557 -68.7387 524.814C-70.8921 528.544 -72.7914 532.752 -76.1377 535.793C-76.4248 536.29 -76.8555 537.036 -77.1426 537.534C-78.1475 539.274 -77.2747 541.436 -74.8888 542.813C-73.6959 543.502 -72.5029 544.191 -71.31 544.88C-70.5146 545.339 -69.4322 545.301 -68.3498 545.263C-66.185 545.186 -64.5283 544.154 -61.9658 544.307C-59.4033 544.46 -59.4033 544.46 -58.509 541.993L-59.2267 543.236C-59.2267 543.236 -60.4312 538.894 -59.8239 536.924C-59.2497 535.929 -58.4213 535.413 -57.593 534.896C-57.0188 533.902 -57.7811 532.467 -56.0139 532.161C-54.7879 531.874 -54.8654 530.172 -53.8935 529.407C-50.6577 525.639 -50.0619 520.015 -45.6332 516.936C-45.4896 516.688 -45.2025 516.19 -45.4566 515.712C-44.3081 513.723 -44.021 513.225 -40.6632 513.838C-39.8679 514.297 -39.0726 514.756 -39.9009 515.273C-41.9882 517.051 -43.4238 519.538 -43.9205 522.235C-44.0971 523.459 -45.1796 523.497 -46.4055 523.784C-48.3163 524.339 -47.6976 526.022 -45.8529 527.418C-45.4552 527.648 -45.0576 527.878 -44.3728 527.61C-44.0857 527.113 -43.655 526.367 -42.462 527.055C-41.6667 527.515 -42.241 528.509 -43.6105 529.045C-44.4388 529.561 -45.3777 529.35 -46.5707 528.662C-47.366 528.203 -47.8742 527.246 -48.4484 528.241C-48.4484 528.241 -48.3378 528.968 -47.9402 529.197C-45.1897 531.78 -45.7969 533.75 -47.0889 535.988C-47.3761 536.485 -47.8067 537.231 -48.0939 537.728C-49.7505 538.761 -49.8166 540.712 -50.6779 542.204C-51.1086 542.95 -50.6004 543.906 -49.8051 544.366C-49.0098 544.825 -47.7838 544.538 -47.0991 544.27C-46.4143 544.003 -46.5248 543.276 -46.7789 542.797C-47.2871 541.841 -47.5412 541.363 -46.1717 540.827C-44.3714 539.546 -42.9689 538.035 -42.2181 535.816C-41.7544 534.095 -41.6108 533.846 -39.6225 534.994C-38.4296 535.683 -37.3472 535.645 -36.3753 534.88C-35.801 533.885 -34.288 533.101 -33.7137 532.106C-33.1395 531.112 -32.5652 530.117 -31.991 529.122C-31.991 529.122 -32.1015 528.396 -32.4992 528.166C-32.4992 528.166 -32.8968 527.936 -33.4381 527.955C-33.5816 528.204 -34.1558 529.199 -34.8076 528.491C-35.2052 528.261 -35.5699 527.056 -35.4263 526.808C-34.8521 525.813 -34.2778 524.818 -33.7036 523.824C-33.4165 523.326 -32.4776 523.537 -32.5107 524.512C-32.7978 525.01 -32.6872 525.737 -31.7484 525.947C-30.9531 526.406 -30.1248 525.89 -29.8376 525.393C-28.9763 523.901 -27.1761 522.619 -27.11 520.668C-26.8229 520.171 -26.7899 519.195 -26.1051 518.928C-25.818 518.43 -25.1332 518.163 -24.3379 518.622C-23.5426 519.081 -23.9733 519.827 -24.1169 520.076C-24.6911 521.07 -24.47 522.524 -25.0443 523.519C-25.762 524.762 -26.3363 525.756 -25.0328 527.172C-24.127 528.358 -24.3035 529.582 -25.0213 530.826C-25.452 531.572 -26.5344 531.61 -27.6168 531.648C-29.2405 531.705 -30.3559 532.719 -30.1349 534.172C-30.3445 536.372 -30.5541 538.572 -33.1496 539.394L-33.2932 539.643C-33.2932 539.643 -33.2156 541.345 -32.0227 542.034C-30.8297 542.723 -30.5426 542.225 -30.1119 541.479C-29.5377 540.485 -28.9635 539.49 -28.3892 538.496C-28.3892 538.496 -28.1021 537.998 -27.7045 538.228C-26.9091 538.687 -26.9091 538.687 -27.1963 539.184C-27.9471 541.403 -28.8415 543.871 -29.5923 546.089C-30.4867 548.557 -30.8398 551.005 -32.1319 553.243C-32.5625 553.989 -32.9932 554.735 -32.485 555.692C-31.2146 558.083 -31.4242 560.282 -32.0314 562.253C-32.9588 565.696 -33.0909 569.598 -32.7148 574.456C-31.2793 571.97 -30.672 570 -30.6059 568.049C-30.1753 567.303 -29.601 566.308 -28.121 566.499C-26.6409 566.691 -25.9561 566.423 -25.7795 565.199C-25.4594 563.726 -24.9957 562.005 -24.2779 560.761C-23.9908 560.264 -23.1624 559.748 -21.9695 560.437C-21.1742 560.896 -20.7765 561.125 -20.8096 562.101C-21.1297 563.574 -20.511 565.257 -21.6264 566.271C-21.9135 566.768 -21.6594 567.246 -21.5489 567.973C-21.4384 568.7 -20.6431 569.159 -20.2454 569.389C-19.4501 569.848 -19.163 569.351 -18.7323 568.605C-18.0145 567.361 -17.5508 565.64 -16.4354 564.626C-14.7342 566.271 -16.5345 567.553 -14.9769 569.447C-14.1155 567.955 -13.6518 566.233 -13.1881 564.512C-12.901 564.015 -12.6139 563.517 -12.3268 563.02L-11.5315 563.479C-11.5315 563.479 -11.3104 564.933 -11.1999 565.66C-11.2659 567.611 -11.5861 569.084 -12.0498 570.805C-12.7676 572.048 -11.8617 573.234 -10.8123 574.172C-9.76292 575.109 -9.11118 575.817 -7.77467 576.257C-5.24521 577.386 -2.31809 578.744 0.244397 578.898C1.72448 579.089 3.20454 579.281 4.79515 580.199C8.37401 582.265 11.8423 583.605 15.7413 584.198C16.6802 584.409 16.7908 585.135 16.3601 585.881C16.073 586.379 15.6423 587.125 15.3552 587.622C14.6374 588.865 16.3385 590.51 18.1057 590.205C19.1881 590.166 19.8729 589.899 20.4141 589.88C21.6071 590.568 20.6352 591.333 20.8893 591.812C20.8893 591.812 21.6846 592.271 22.0822 592.5C23.2752 593.189 24.5011 592.902 25.7271 592.616C26.4119 592.348 26.666 592.826 27.3177 593.534C27.9034 596.193 29.494 597.111 32.0565 597.265C33.6802 597.207 35.0497 596.672 37.1815 597.571C38.3745 598.26 40.3958 598.432 41.4451 599.37C42.1629 598.126 43.5325 597.591 45.0456 596.807C45.1891 596.558 45.4762 596.061 46.0175 596.042C46.161 595.793 46.8458 595.526 47.2434 595.755C50.1705 597.114 52.512 595.813 54.8204 595.488L54.1026 596.731C54.1026 596.731 52.9871 597.745 54.1801 598.434C56.0909 597.879 57.6039 597.095 58.4653 595.603C59.1831 594.36 60.0444 592.868 61.9552 592.314C61.9552 592.314 62.64 592.046 63.0376 592.276C63.4353 592.505 63.8329 592.735 63.9434 593.462C63.5573 596.886 63.0275 600.558 62.6413 603.982C62.2221 608.381 62.7418 612.991 64.2003 617.812C64.6754 619.744 65.2941 621.427 66.9953 623.073C67.647 623.78 68.6964 624.718 69.7788 624.68C72.6284 624.336 75.1909 624.489 77.864 625.369C78.6593 625.828 79.0899 625.082 78.9794 624.355C78.3607 622.672 78.7914 621.926 80.415 621.869C81.4974 621.831 82.3257 621.314 82.5023 620.09C80.481 619.918 78.7139 620.224 76.8031 620.778C75.5771 621.065 74.8924 621.333 73.5558 620.893C74.2736 619.649 73.5114 618.215 74.6268 617.201C76.0624 614.714 77.498 612.228 77.1994 609.072C77.4865 608.574 77.9172 607.829 77.8067 607.102C77.9502 606.853 78.2373 606.356 79.0326 606.815C79.0326 606.815 79.8279 607.274 79.6844 607.523C79.8724 609.952 79.9169 612.63 79.5638 615.078C79.2766 615.576 78.9895 616.073 80.1825 616.762C81.3754 617.45 81.4085 616.475 81.8391 615.729C83.5618 612.745 85.2845 609.761 83.3953 605.687C83.3953 605.687 83.6824 605.189 83.826 604.941C84.2567 604.195 84.2567 604.195 85.3061 605.132C85.3061 605.132 85.7038 605.362 86.1014 605.591C86.9628 604.1 88.4428 604.291 90.177 604.961C92.1652 606.109 93.5348 605.573 94.6502 604.56C96.3729 601.576 100.305 601.194 102.425 598.439C103.574 596.45 104.91 596.89 108.091 598.727C109.671 595.992 112.189 593.467 116.121 593.085C116.121 593.085 116.805 592.817 116.949 592.569C118.097 590.579 120.804 590.484 122.968 590.408C125.277 590.083 125.707 589.337 125.232 587.405C124.868 586.2 125.298 585.454 126.668 584.918C129.153 583.369 130.445 581.131 131.339 578.664C132.344 576.923 133.636 574.686 135.691 573.882C138.142 573.309 138.893 571.09 141.345 570.517C142.781 568.03 145.663 566.711 145.508 563.306C145.431 561.603 146.292 560.111 146.612 558.638C147.043 557.893 147.474 557.147 148.159 556.879C149.926 556.573 150.5 555.578 148.942 553.685C148.147 553.225 148.721 552.231 149.66 552.441C152.079 552.843 152.94 551.351 154.199 550.089C155.746 548.329 157.833 546.551 159.379 544.791C160.925 543.031 162.869 541.501 163.222 539.053C163.542 537.58 164.404 536.088 165.519 535.075C166.635 534.061 166.955 532.588 167.672 531.345C168.103 530.599 168.534 529.853 168.964 529.107C168.964 529.107 169.252 528.61 169.649 528.839C170.047 529.069 170.412 530.274 171.24 529.758C171.527 529.26 171.814 528.763 172.101 528.266C172.675 527.271 172.852 526.047 173.029 524.823C173.172 524.574 173.459 524.077 173.603 523.828C177.06 521.514 178.672 517.803 180.682 514.322C183.409 509.598 186.678 504.854 190.201 500.589C191.062 499.097 192.321 497.835 192.785 496.113C194.651 492.881 196.518 489.649 198.384 486.416C200.394 482.935 202.404 479.454 204.413 475.973C207.494 468.8 211.37 462.086 216.98 456.043C217.268 455.545 217.698 454.799 217.985 454.302C221 449.08 224.81 444.318 226.091 438.426C226.091 438.426 226.091 438.426 226.234 438.178C225.726 437.221 224.423 435.806 225.538 434.792C225.969 434.046 226.399 433.3 226.432 432.325C227.216 429.13 228.795 426.395 231.026 424.368C233.257 422.34 235.09 420.083 237.067 417.578C239.651 413.102 242.633 408.856 245.217 404.38C248.088 399.407 250.959 394.434 253.831 389.461C254.979 387.472 256.128 385.483 257.674 383.723C260.655 379.477 263.637 375.231 266.221 370.755C268.662 366.528 271.102 362.301 273.543 358.074C276.844 352.355 280.29 346.387 282.796 340.209C286.451 332.042 290.504 324.104 292.966 315.248C294.644 309.586 297.261 304.135 299.879 298.684C303.677 290.268 307.873 282.081 311.418 273.187C311.705 272.69 311.992 272.193 311.197 271.733C309.253 273.263 308.248 275.004 307.895 277.452C306.537 281.641 303.588 284.912 301.578 288.393C301.578 288.393 301.291 288.89 300.894 288.661C300.496 288.431 300.098 288.202 299.988 287.475C300.484 284.778 301.776 282.54 303.72 281.01C305.123 279.499 306.128 277.758 306.735 275.788C307.375 272.842 308.811 270.356 311.042 268.329C312.444 266.818 313.99 265.058 314.2 262.858C313.979 261.404 314.84 259.913 316.21 259.377C318.551 258.077 319.302 255.858 319.512 253.658C319.898 250.234 321.477 247.499 323.995 244.974C325.828 242.718 327.264 240.231 326.965 237.075C326.921 234.397 327.274 231.948 329.218 230.418C329.505 229.921 329.792 229.424 330.079 228.927C331.183 224.259 334.817 220.721 336.318 216.283C337.323 214.543 338.328 212.802 338.681 210.354C336.803 209.933 335.942 211.425 334.606 210.985C333.81 210.526 333.413 210.296 332.617 209.837C332.109 208.88 332.794 208.613 333.622 208.096C334.959 208.536 335.643 208.269 335.82 207.044C336.251 206.299 336.681 205.553 337.112 204.807C339.023 204.252 338.691 202.071 339.409 200.828C339.84 200.082 339.188 199.374 338.536 198.667C337.343 197.978 337.233 197.251 337.807 196.256C338.525 195.013 338.017 194.057 336.967 193.119C336.57 192.89 336.315 192.411 335.774 192.43C334.184 191.512 333.819 190.307 333.598 188.853C333.907 183.727 334.613 178.83 336.656 174.373C338.666 170.892 338.4 166.761 336.511 162.686C334.876 159.09 332.269 156.259 329.662 153.427C327.707 151.304 325.067 149.448 321.996 148.338C321.201 147.879 319.721 147.688 319.069 146.98C316.429 145.124 313.899 143.995 310.829 142.885C310.033 142.426 308.553 142.235 307.902 141.527C305.549 139.174 303.494 139.977 301.075 139.575C301.075 139.575 299.993 139.613 299.706 140.111C298.988 141.354 297.475 142.138 297.552 143.84C297.519 144.816 297.884 146.021 296.515 146.556C295.289 146.843 294.317 147.608 292.837 147.417C292.041 146.958 291.644 146.728 291.533 146.001C291.82 145.504 292.251 144.758 292.14 144.031C291.632 143.075 290.66 143.84 289.721 143.629C289.324 143.399 288.926 143.17 288.672 142.692C287.656 140.779 287.976 139.306 289.776 138.024C290.748 137.259 290.494 136.781 288.903 135.863C287.71 135.174 286.23 134.983 284.861 135.518C283.491 136.054 282.122 136.589 281.15 137.354C280.719 138.1 279.493 138.387 278.3 137.698C275.627 136.818 273.606 136.645 271.297 136.97C271.154 137.219 270.358 136.76 270.104 136.282C269.85 135.803 269.74 135.076 269.486 134.598C268.978 133.642 268.039 133.431 266.813 133.718C265.3 134.502 265.3 134.502 263.201 132.627C262.803 132.398 262.008 131.939 261.721 132.436C261.577 132.684 261.29 133.182 261.544 133.66C262.306 135.095 264.328 135.267 265.344 137.18C263.511 139.437 261.28 141.464 259.447 143.721C258.585 145.213 256.675 145.768 254.764 146.322C252.853 146.877 253.041 149.306 251.13 149.86C248.391 150.931 247.21 153.896 243.565 153.781C243.024 153.8 242.991 154.776 242.704 155.273C240.583 158.027 237.668 160.322 235.801 163.555C235.658 163.803 235.371 164.301 234.575 163.841C234.178 163.612 233.924 163.134 234.211 162.636C235.359 160.647 236.508 158.658 237.656 156.669C239.489 154.412 241.466 151.906 242.504 149.19C241.057 148.023 239.942 149.037 238.605 148.597C238.384 147.143 239.212 146.626 239.787 145.632C241.079 143.394 243.707 141.596 243.806 138.67C243.806 138.67 244.093 138.172 244.237 137.924C246.148 137.369 246.468 135.896 247.727 134.634C248.157 133.888 248.699 133.869 249.748 134.806C251.306 136.7 251.847 136.681 252.852 134.941C253.426 133.946 253.746 132.473 253.923 131.249C254.353 130.503 253.702 129.795 252.906 129.336C252.509 129.107 252.111 128.877 252.542 128.131C252.829 127.634 252.972 127.385 253.768 127.844C256.871 127.978 257.269 128.208 256.142 125.568L255.015 122.928C255.015 122.928 254.507 121.972 253.822 122.24C253.822 122.24 253.535 122.737 253.392 122.986C253.038 125.434 249.902 126.275 249.151 128.494C249.007 128.743 247.925 128.781 247.384 128.8C246.699 129.068 245.76 128.857 245.219 128.876C248.002 130.483 248.002 130.483 246.313 132.491C245.882 133.237 245.308 134.232 244.877 134.978C244.303 135.973 243.872 136.719 242.646 137.005C241.818 137.522 240.481 137.082 239.83 136.374C238.924 135.188 238.018 134.002 237.112 132.816C236.715 132.586 236.46 132.108 235.919 132.127C235.776 132.375 235.091 132.643 235.345 133.121C235.422 134.824 234.053 135.359 232.827 135.646L232.032 135.187C232.749 133.944 233.213 132.222 232.992 130.768C233.279 130.271 233.566 129.774 234.505 129.984C235.985 130.176 236.957 129.411 237.531 128.416C239 124.954 240.469 121.492 241.396 118.049C241.97 117.054 241.352 115.371 242.467 114.357C243.726 113.095 242.964 111.66 242.201 110.226C242.201 110.226 241.693 109.269 241.152 109.288C240.611 109.307 239.926 109.575 239.639 110.072C239.352 110.57 240.258 111.756 239.429 112.272C238.999 113.018 236.756 111.392 236.69 113.343C236.69 113.343 235.464 113.63 234.923 113.649C233.443 113.457 232.935 112.501 233.365 111.755C234.227 110.263 235.629 108.752 236.888 107.49C238.435 105.73 240.378 104.2 241.781 102.689C241.924 102.44 242.212 101.943 242.355 101.695C242.245 100.968 241.162 101.006 240.764 100.776C238.202 100.623 236.291 101.177 235.286 102.918C234.425 104.41 233.088 103.97 231.895 103.281C231.1 102.822 229.907 102.133 229.112 101.674C228.317 101.215 227.091 101.502 226.328 100.067C228.129 98.7854 229.785 97.7527 231.585 96.4713C232.701 95.4576 234.612 94.9031 233.739 92.7415C233.485 92.2633 234.026 92.2442 234.711 91.9765C237.163 91.403 238.072 89.8282 237.438 87.2522C237.438 87.2522 237.184 86.7739 236.93 86.2957C235.307 86.3529 234.081 86.6397 233.109 87.4047L230.756 85.0517ZM144.021 112.223C144.883 110.731 145.026 110.482 145.822 110.942C146.727 112.128 146.297 112.874 145.866 113.62C145.292 114.614 144.861 115.36 143.635 115.647C143.668 114.671 143.304 113.466 144.419 112.453L144.021 112.223ZM141.614 115.475C141.614 115.475 142.442 114.958 143.237 115.417L143.348 116.144C143.204 116.393 142.917 116.89 142.774 117.139C141.978 116.68 141.724 116.201 142.011 115.704L141.614 115.475ZM141.084 119.147C141.084 119.147 141.736 119.855 141.449 120.352C141.018 121.098 139.936 121.136 139.284 120.429C139.284 120.429 138.632 119.721 138.776 119.472C139.206 118.726 139.891 118.458 140.686 118.918L141.084 119.147ZM123.665 110.748C123.665 110.748 125.178 109.964 126.006 109.447C126.802 109.907 127.995 110.595 127.42 111.59C126.846 112.585 125.366 112.393 124.571 111.934C124.173 111.704 123.919 111.226 124.206 110.729L123.665 110.748ZM114.536 65.0303C114.536 65.0303 117.574 67.1156 118.623 68.053C117.906 69.2963 116.967 69.0858 116.171 68.6266C114.979 67.9379 114.757 66.4841 114.536 65.0303ZM116.503 70.8072C116.503 70.8072 116.216 71.3045 115.818 71.075C115.421 70.8454 115.023 70.6158 115.31 70.1185C115.31 70.1185 115.851 70.0994 116.249 70.329C116.249 70.329 116.105 70.5776 116.36 71.0559L116.503 70.8072ZM99.0065 60.7055L99.2936 60.2082C99.2936 60.2082 99.9453 60.9161 100.199 61.3943C100.454 61.8725 99.9123 61.8916 99.9123 61.8916C99.5146 61.662 99.117 61.4324 99.0065 60.7055ZM92.0813 61.6803C92.0813 61.6803 92.4789 61.9099 93.0201 61.8908C93.4178 62.1204 93.5283 62.8473 93.3847 63.0959C93.0976 63.5932 92.7 63.3636 92.4459 62.8854C92.0482 62.6558 91.9377 61.929 92.6225 61.6613L92.0813 61.6803ZM110.053 73.714C110.053 73.714 111.423 73.1786 112.218 73.6377C112.218 73.6377 112.616 73.8673 112.87 74.3456C112.439 75.0915 111.5 74.881 110.705 74.4219C110.705 74.4219 109.91 73.9627 110.053 73.714ZM117.62 81.7296C117.62 81.7296 119.321 83.3749 118.603 84.6181C118.46 84.8667 118.173 85.364 118.029 85.6127C117.234 85.1535 116.041 84.4648 115.245 84.0056C114.45 83.5464 114.483 82.5709 114.77 82.0736C115.201 81.3277 116.681 81.5191 117.333 82.2269L117.62 81.7296ZM92.1372 68.0117C92.1372 68.0117 92.9325 68.4709 92.6454 68.9682C92.3583 69.4655 91.8171 69.4846 91.563 69.0064C91.1653 68.7768 90.5136 68.069 90.2595 67.5907C90.6571 67.8203 91.7396 67.7822 92.2808 67.7631L92.1372 68.0117ZM85.6427 68.2406C86.6476 66.5 86.6476 66.5 90.1159 67.8394C89.5417 68.834 88.7134 69.3503 87.7415 70.1153C87.4544 70.6127 86.3719 70.6508 86.1178 70.1726C85.3225 69.7134 85.7532 68.9675 86.0403 68.4702L85.6427 68.2406ZM-70.8948 504.672C-70.8948 504.672 -71.4805 502.013 -70.9063 501.019C-70.5416 502.224 -70.3206 503.678 -70.8948 504.672ZM-38.619 521.317C-38.6486 519.532 -37.9088 517.638 -36.3996 515.637C-36.3551 518.314 -37.6141 519.577 -38.619 521.317ZM-27.6357 560.149C-27.6357 560.149 -28.2099 561.144 -28.8617 560.436C-28.8617 560.436 -29.1158 559.957 -29.3699 559.479C-29.2263 559.231 -28.9392 558.733 -28.7956 558.485C-28.6521 558.236 -28.2544 558.466 -28.0003 558.944C-28.1439 559.192 -27.8898 559.671 -28.0333 559.919L-27.6357 560.149ZM17.243 579.761C17.243 579.761 16.8123 580.506 16.4147 580.277C16.4147 580.277 15.6194 579.818 15.7629 579.569C15.9065 579.32 16.1936 578.823 16.5912 579.053C16.5912 579.053 16.9889 579.282 17.243 579.761ZM19.4739 577.733L18.6786 577.274C18.8221 577.025 19.1092 576.528 19.2528 576.279C19.2528 576.279 19.794 576.26 20.3352 576.241C20.7329 576.471 20.8434 577.198 20.3022 577.217C20.1587 577.465 19.6174 577.485 19.0762 577.504L19.4739 577.733ZM27.6365 580.125L27.3494 580.622C27.3494 580.622 26.9518 580.393 26.5541 580.163C25.7588 579.704 25.6483 578.977 24.9965 578.269C26.0789 578.231 26.5871 579.188 27.3824 579.647L27.6365 580.125ZM55.6703 590.343C55.6703 590.343 56.5761 591.529 56.8302 592.007C58.6419 594.379 58.6419 594.379 55.5052 595.22C55.2841 593.767 55.7478 592.045 52.5005 592.16C53.3619 590.668 54.3338 589.903 54.6539 588.43C56.134 588.621 55.5598 589.616 56.2115 590.324L55.6703 590.343ZM74.2406 620.625L73.9535 621.122C73.9535 621.122 71.2144 622.193 69.7674 621.026C68.718 620.089 69.4358 618.845 69.2147 617.392C69.5018 616.894 70.1866 616.627 70.8383 617.334C72.4289 618.253 73.3348 619.439 74.2406 620.625ZM-60.1596 498.935C-60.1596 498.935 -61.7172 497.041 -61.6841 496.065C-62.1923 495.109 -61.1099 495.071 -60.6792 494.325C-59.9945 494.057 -58.8015 494.746 -58.691 495.473C-58.4699 496.927 -58.6465 498.151 -60.016 498.686L-60.1596 498.935ZM-33.9591 511.409C-33.9591 511.409 -34.2132 510.931 -34.0696 510.683C-33.926 510.434 -33.6389 509.937 -33.0977 509.918C-32.3024 510.377 -32.5895 510.874 -32.7331 511.123C-32.8766 511.371 -33.1638 511.869 -33.9591 511.409ZM-17.3467 515.696C-17.3467 515.696 -18.208 517.188 -18.9258 518.431C-19.0033 516.729 -18.9703 515.753 -18.5396 515.007C-18.5396 515.007 -18.2525 514.51 -17.4572 514.969C-17.4572 514.969 -16.6619 515.428 -16.8055 515.677L-17.3467 515.696ZM-24.6149 510.837C-24.6149 510.837 -25.1892 511.831 -26.128 511.621C-26.128 511.621 -26.3821 511.143 -26.2386 510.894C-25.9514 510.397 -25.6643 509.899 -24.7255 510.11C-24.7255 510.11 -24.4714 510.588 -24.6149 510.837ZM-19.9206 511.889C-19.9206 511.889 -20.2077 512.387 -20.6054 512.157C-20.6054 512.157 -21.6218 510.244 -22.1299 509.288C-22.384 508.809 -22.4946 508.082 -21.4122 508.044C-20.8709 508.025 -20.0756 508.484 -19.8216 508.963C-19.3134 509.919 -19.3464 510.895 -19.9206 511.889ZM-31.5745 500.851C-31.5745 500.851 -32.1487 501.846 -32.6899 501.865C-33.7724 501.903 -33.8829 501.176 -34.137 500.698C-34.137 500.698 -34.7887 499.99 -35.0428 499.512C-35.8382 499.052 -35.8051 498.077 -34.8663 498.287C-33.3862 498.479 -32.4143 497.714 -30.6471 497.408C-31.2213 498.403 -31.0003 499.856 -31.5745 500.851ZM-70.7884 469.591C-71.5061 470.834 -73.1298 470.891 -74.5768 469.724C-75.7698 469.036 -75.5932 467.811 -74.3672 467.525C-73.1412 467.238 -71.9153 466.951 -70.5457 466.416C-69.7834 467.85 -70.3577 468.845 -70.7884 469.591ZM-80.9507 462.398C-84.175 469.819 -88.1947 476.781 -90.4802 484.413C-92.3019 490.323 -93.3284 496.693 -91.1407 503.924C-90.4114 506.334 -90.621 508.534 -90.2894 510.714C-90.5765 511.212 -89.9248 511.92 -89.273 512.627L-93.4922 513.507C-93.4922 513.507 -95.9111 513.105 -95.8781 512.129C-96.0661 509.7 -96.6518 507.041 -95.5034 505.052C-94.9291 504.057 -95.835 502.871 -94.8631 502.106C-93.7476 501.093 -95.3382 500.174 -95.3052 499.199C-94.8745 498.453 -95.3827 497.496 -95.3497 496.521C-95.5377 494.091 -95.5822 491.413 -94.8314 489.195C-93.3958 486.708 -93.1532 483.533 -92.3694 480.339C-90.8017 473.95 -86.7045 468.69 -84.198 462.512C-83.9108 462.015 -83.4802 461.269 -83.1931 460.771C-82.2212 460.006 -82.2987 458.304 -80.421 458.725C-79.6587 460.16 -81.0282 460.695 -81.2048 461.919L-80.9507 462.398ZM-67.564 462.17C-67.564 462.17 -69.4748 462.724 -70.1265 462.016C-70.5241 461.787 -71.0323 460.83 -71.2864 460.352L-70.9993 459.855L-69.8064 460.543C-69.8064 460.543 -69.4087 460.773 -69.0111 461.003C-66.8132 459.951 -67.653 456.814 -64.9139 455.743C-65.2671 458.191 -66.1615 460.659 -67.564 462.17ZM-119.834 421.382C-119.834 421.382 -120.409 422.377 -121.204 421.918C-121.204 421.918 -120.63 420.923 -120.486 420.674C-120.486 420.674 -119.834 421.382 -119.978 421.631L-119.834 421.382ZM140.075 568.125C140.075 568.125 139.644 568.871 138.849 568.412C138.053 567.953 138.484 567.207 138.771 566.71C138.915 566.461 139.202 565.964 139.6 566.193C140.793 566.882 139.821 567.647 139.677 567.896L140.075 568.125ZM-101.72 421.231C-101.72 421.231 -101.511 419.031 -102.958 417.864C-103.355 417.635 -103.609 417.157 -103.864 416.678C-103.72 416.43 -103.433 415.932 -103.289 415.684C-103.146 415.435 -102.461 415.167 -102.063 415.397C-100.473 416.315 -98.7716 417.961 -98.9482 419.185C-99.666 420.428 -99.4449 421.882 -100.958 422.666C-101.753 422.207 -101.466 421.709 -101.72 421.231ZM-90.8846 424.503C-90.8846 424.503 -91.0282 424.752 -90.7741 425.23L-91.5694 424.771L-92.3647 424.312C-92.0776 423.815 -91.6799 424.044 -91.4258 424.522L-90.8846 424.503ZM-34.9148 459.801C-34.9148 459.801 -35.489 460.796 -36.0303 460.815C-36.0303 460.815 -36.4279 460.585 -36.8256 460.356L-36.682 460.107C-36.682 460.107 -35.9642 458.864 -35.423 458.845C-35.423 458.845 -34.6277 459.304 -35.1689 459.323L-34.9148 459.801ZM-48.5125 450.293C-48.5125 450.293 -48.656 450.542 -49.1972 450.561C-49.1972 450.561 -49.7054 449.604 -49.5619 449.356C-48.7005 447.864 -47.9827 446.62 -45.9284 445.817C-46.7898 447.309 -47.6511 448.801 -48.3689 450.044L-48.5125 450.293ZM-108.879 405.163L-109.166 405.66C-109.166 405.66 -110.757 404.742 -110.724 403.766L-110.58 403.517C-110.58 403.517 -108.99 404.436 -108.736 404.914L-108.879 405.163ZM-83.9493 415.246C-83.9493 415.246 -85.4624 416.03 -85.7165 415.552C-85.7165 415.552 -85.2858 414.806 -84.347 415.016C-84.347 415.016 -83.9493 415.246 -83.5516 415.476L-83.9493 415.246ZM-31.5483 440.195C-31.5483 440.195 -32.2661 441.438 -32.8073 441.458C-33.3485 441.477 -33.3155 440.501 -32.7412 439.506C-32.4541 439.009 -32.0234 438.263 -31.0846 438.474C-30.5764 439.43 -31.2612 439.698 -31.6918 440.444L-31.5483 440.195ZM-28.5335 434.974C-28.5335 434.974 -28.9642 435.72 -29.9031 435.509C-30.6984 435.05 -30.4113 434.553 -30.1241 434.055C-29.837 433.558 -29.6935 433.309 -28.8982 433.768C-28.5005 433.998 -28.2464 434.476 -28.6771 435.222L-28.5335 434.974ZM-81.7973 399.58C-81.7973 399.58 -81.2891 400.537 -81.9739 400.804C-82.261 401.302 -83.1998 401.091 -84.1387 400.881C-84.1387 400.881 -84.7905 400.173 -84.901 399.446C-84.901 399.446 -84.868 398.47 -84.3268 398.451C-84.1832 398.203 -83.642 398.184 -83.2443 398.413C-82.449 398.872 -82.0514 399.102 -81.7973 399.58ZM-30.6667 422.138C-30.6667 422.138 -30.9869 423.611 -30.8763 424.338C-31.0199 424.587 -31.307 425.084 -31.4506 425.333L-32.2459 424.873C-32.6105 423.668 -32.4339 422.444 -31.462 421.679C-31.462 421.679 -31.1749 421.182 -30.3796 421.641L-29.5843 422.1L-30.6667 422.138ZM-68.7766 386.211C-68.7766 386.211 -69.1297 388.659 -70.9299 389.941C-70.8639 387.99 -70.6873 386.766 -69.7154 386.001L-68.9201 386.46L-68.7766 386.211ZM-9.32969 402.63C-9.32969 402.63 -9.76037 403.376 -9.90393 403.624C-9.90393 403.624 -10.125 402.171 -9.18614 402.381C-9.18614 402.381 -8.93205 402.859 -9.07561 403.108L-9.32969 402.63ZM-51.5151 367.333C-51.5151 367.333 -52.0564 367.353 -52.3104 366.874C-53.1057 366.415 -53.2163 365.688 -52.5315 365.421C-52.5315 365.421 -51.9903 365.401 -51.5927 365.631C-50.7973 366.09 -51.228 366.836 -51.5151 367.333ZM-47.2859 358.172C-47.2859 358.172 -48.0037 359.415 -48.5449 359.434C-49.0531 358.477 -47.9707 358.439 -47.6835 357.942C-47.6835 357.942 -47.54 357.693 -46.9988 357.674C-46.9988 357.674 -47.1423 357.923 -47.2859 358.172ZM-42.6806 353.868C-42.6806 353.868 -43.3653 354.136 -43.763 353.906C-44.1606 353.677 -44.2712 352.95 -43.73 352.931C-43.73 352.931 -43.1887 352.912 -42.7911 353.141C-42.3934 353.371 -41.9958 353.6 -42.4265 354.346L-42.6806 353.868ZM-82.7888 325.076C-82.7888 325.076 -83.0759 325.573 -83.4735 325.343C-83.8712 325.114 -84.2688 324.884 -83.9817 324.387C-83.9817 324.387 -83.4405 324.368 -83.0429 324.597C-83.0429 324.597 -82.7888 325.076 -82.5347 325.554L-82.7888 325.076ZM-36.1874 341.703C-36.1874 341.703 -36.585 341.474 -36.9827 341.244C-37.3803 341.015 -37.6344 340.536 -37.3473 340.039C-37.3473 340.039 -36.8061 340.02 -36.552 340.498C-36.1544 340.728 -35.9003 341.206 -36.1874 341.703ZM-33.0291 336.233C-33.0291 336.233 -33.7469 337.476 -34.4317 337.744C-34.4317 337.744 -34.8293 337.514 -35.227 337.285C-36.0223 336.826 -35.5916 336.08 -35.448 335.831C-35.0174 335.085 -34.7302 334.588 -33.5373 335.277C-33.1396 335.506 -32.742 335.736 -32.6314 336.463L-33.0291 336.233ZM27.4678 261.754C27.4678 261.754 27.1807 262.252 27.0371 262.5C26.8935 262.749 25.8111 262.787 25.1594 262.079C24.7617 261.85 25.1924 261.104 25.7336 261.085C26.4184 260.817 27.0701 261.525 27.3242 262.003L27.4678 261.754ZM65.0127 186.623C65.0127 186.623 64.7256 187.12 64.328 186.891C63.9303 186.661 63.5327 186.432 63.8198 185.934C63.8198 185.934 63.9633 185.686 64.5045 185.667C64.9022 185.896 65.2999 186.126 65.0127 186.623ZM292.744 301.858C292.744 301.858 292.457 302.356 292.059 302.126C292.059 302.126 291.661 301.896 291.407 301.418C291.981 300.424 292.556 299.429 293.561 297.688C293.351 299.888 292.777 300.883 292.203 301.877L292.744 301.858ZM297.912 292.907C297.912 292.907 297.481 293.653 297.194 294.15C296.907 294.647 296.763 294.896 296.079 295.164C296.079 295.164 295.681 294.934 295.283 294.705C295.283 294.705 295.493 292.505 296.719 292.218C296.719 292.218 297.26 292.199 297.658 292.429C297.658 292.429 298.055 292.658 298.166 293.385L297.912 292.907ZM83.8533 165.01C83.8533 165.01 83.4557 164.781 82.9145 164.8L82.1192 164.34C82.1192 164.34 83.091 163.575 83.7428 164.283C83.7428 164.283 83.9969 164.762 83.4557 164.781L83.8533 165.01ZM100.133 155.18C100.133 155.18 99.5585 156.175 98.7632 155.716C98.3656 155.486 98.1115 155.008 98.3986 154.51C98.6857 154.013 98.9728 153.516 99.514 153.497C100.309 153.956 100.563 154.434 100.276 154.931L100.133 155.18ZM100.518 139.82C100.518 139.82 99.4021 140.834 98.2092 140.145C97.8115 139.916 97.1598 139.208 97.8446 138.94C98.2752 138.194 99.2141 138.405 100.153 138.615C100.551 138.845 100.805 139.323 100.518 139.82ZM53.009 110.07C53.009 110.07 52.5783 110.816 51.783 110.357C50.9877 109.898 51.4184 109.152 51.7055 108.655C51.7055 108.655 51.9926 108.157 52.3903 108.387C53.1856 108.846 52.8985 109.343 52.6114 109.841L53.009 110.07ZM96.5181 130.217C96.5181 130.217 96.8053 129.72 97.2029 129.95C97.2029 129.95 97.0594 130.198 96.9158 130.447L96.7722 130.696L96.2641 129.739L96.5181 130.217ZM206.38 194.309C206.049 192.129 206.877 191.612 207.451 190.618C208.644 191.307 208.357 191.804 206.38 194.309ZM200.945 187.193L200.802 187.442C200.802 187.442 199.609 186.753 199.498 186.026C199.498 186.026 199.498 186.026 199.642 185.777C199.786 185.529 199.929 185.28 200.437 186.237C200.437 186.237 200.945 187.193 201.2 187.671L200.945 187.193ZM110.778 132.151C110.778 132.151 109.695 132.189 109.441 131.711C109.441 131.711 108.679 130.276 109.077 130.506C110.446 129.97 110.766 128.497 112.39 128.44C112.467 130.143 111.893 131.137 110.778 132.151ZM60.3305 97.3892L60.0434 97.8864C60.0434 97.8864 59.5022 97.9055 59.1045 97.6759C59.1045 97.6759 58.8504 97.1977 58.994 96.949C59.1375 96.7004 59.8223 96.4327 60.0764 96.9109L60.3305 97.3892ZM147.703 147.171L147.019 147.439C146.223 146.979 146.51 146.482 146.797 145.985C146.797 145.985 146.941 145.736 147.482 145.717C148.278 146.176 147.99 146.673 147.703 147.171ZM111.758 111.167C111.758 111.167 112.045 110.67 112.443 110.9C112.443 110.9 113.238 111.359 112.951 111.856C112.664 112.353 112.521 112.602 111.725 112.143C111.725 112.143 111.471 111.665 112.012 111.646L111.758 111.167ZM118.287 121.899C116.995 124.137 116.995 124.137 114.068 122.778C112.477 121.86 111.682 121.401 112.113 120.655C112.543 119.909 113.736 120.598 114.278 120.579C116.553 121.229 117.525 120.464 117.447 118.762C117.48 117.786 116.829 117.078 115.492 116.638C114.697 116.179 113.869 116.696 113.073 116.236C112.676 116.007 112.278 115.777 112.565 115.28C113.426 113.788 114.509 113.75 116.099 114.668C116.497 114.898 116.895 115.127 117.69 115.587C118.883 116.275 119.711 115.759 119.744 114.783C120.031 114.286 119.38 113.578 119.667 113.081C120.064 113.311 120.462 113.54 120.86 113.77C123.246 115.147 124.008 116.582 122.208 117.863C120.949 119.126 119.292 120.158 118.287 121.899ZM224.381 169.56L223.586 169.1C224.447 167.608 225.022 166.614 226.789 166.308C226.469 167.781 225.497 168.546 224.381 169.56ZM231.991 168.317C231.991 168.317 231.561 169.063 231.13 169.809C230.412 171.052 229.186 171.339 229.076 170.612C228.567 169.656 228.855 169.158 229.285 168.412C229.572 167.915 229.859 167.418 230.544 167.15C230.544 167.15 231.229 166.882 231.627 167.112C231.627 167.112 231.881 167.59 231.737 167.839L231.991 168.317ZM215.466 157.45C215.466 157.45 215.036 158.196 214.241 157.737C213.445 157.278 213.732 156.781 214.019 156.283L214.307 155.786C214.848 155.767 215.499 156.475 215.069 157.221L215.466 157.45ZM280.346 157.113C280.346 157.113 281.03 156.846 281.428 157.075C281.826 157.305 282.223 157.534 281.793 158.28C281.649 158.529 281.506 158.778 280.71 158.319C280.313 158.089 280.202 157.362 280.743 157.343L280.346 157.113ZM286.211 163.484C286.211 163.484 285.482 161.074 286.598 160.06C286.885 159.563 287.315 158.817 288.254 159.027C289.447 159.716 292.132 164.25 291.414 165.493C290.983 166.239 289.901 166.277 289.249 165.569C288.851 165.34 288.741 164.613 288.343 164.383C287.691 163.675 286.035 164.708 285.814 163.254L286.211 163.484ZM300.185 177.851C300.185 177.851 300.042 178.099 299.5 178.118C299.5 178.118 299.246 177.64 298.992 177.162C299.279 176.665 299.423 176.416 300.218 176.875L300.329 177.602L300.185 177.851ZM284.456 167.443C284.456 167.443 285.03 166.449 285.825 166.908C286.62 167.367 286.333 167.864 286.046 168.361C285.759 168.859 285.472 169.356 284.677 168.897C283.881 168.438 284.169 167.94 284.456 167.443ZM278.679 166.429C278.679 166.429 279.761 166.391 280.557 166.85C280.557 166.85 280.811 167.328 280.667 167.577C280.38 168.074 279.441 167.863 278.646 167.404C278.248 167.175 277.994 166.696 278.281 166.199L278.679 166.429ZM290.288 174.789C290.288 174.789 291.326 172.073 292.298 171.308C292.298 171.308 292.839 171.289 293.237 171.518C293.237 171.518 294.032 171.978 293.745 172.475C293.314 173.221 292.884 173.967 292.74 174.215C292.31 174.961 292.022 175.459 291.735 175.956C291.735 175.956 291.448 176.453 290.653 175.994C290.255 175.765 289.858 175.535 289.747 174.808L290.288 174.789ZM287.074 173.928L287.218 173.679L288.013 174.138L287.726 174.636C287.726 174.636 286.93 174.177 287.218 173.679L287.074 173.928ZM276.526 170.158C276.526 170.158 277.067 170.139 277.464 170.369C277.862 170.599 278.26 170.828 277.973 171.325C277.973 171.325 277.431 171.344 276.89 171.364C276.493 171.134 276.095 170.904 276.526 170.158ZM274.946 172.894C274.946 172.894 275.233 172.396 275.631 172.626C276.029 172.855 276.283 173.334 275.996 173.831C275.996 173.831 275.709 174.328 275.311 174.099C274.913 173.869 274.659 173.391 274.946 172.894ZM163.142 122.268C163.142 122.268 164.401 121.005 165.627 120.718C165.594 121.694 165.958 122.899 164.732 123.186C164.589 123.435 163.65 123.224 163.65 123.224C163.252 122.994 162.998 122.516 163.285 122.019L163.142 122.268ZM216.637 150.832L217.432 151.291C217.829 151.521 218.338 152.477 218.051 152.975L217.907 153.223C217.907 153.223 216.603 151.808 216.493 151.081L216.637 150.832ZM229.262 161.105C229.262 161.105 229.87 159.135 230.985 158.122C231.206 159.575 229.837 160.111 229.262 161.105ZM165.77 120.47C165.77 120.47 165.693 118.767 167.029 119.207C167.029 119.207 166.311 120.451 165.77 120.47ZM227.759 153.607C227.759 153.607 227.472 154.104 226.677 153.645C226.279 153.415 225.882 153.186 226.312 152.44C226.312 152.44 226.456 152.191 226.997 152.172C227.395 152.402 227.792 152.631 227.362 153.377L227.759 153.607ZM220.38 148.021C220.38 148.021 220.093 148.518 219.696 148.288L219.983 147.791C219.983 147.791 220.381 148.021 220.635 148.499L220.38 148.021ZM231.325 140.084C231.325 140.084 231.469 139.835 232.01 139.816C232.01 139.816 232.408 140.046 232.121 140.543L231.834 141.04C231.436 140.811 231.038 140.581 231.325 140.084ZM176.119 118.156C176.119 118.156 176.55 117.41 177.599 118.348C177.599 118.348 178.251 119.056 177.964 119.553C177.677 120.05 177.533 120.299 176.881 119.591C176.484 119.362 176.23 118.883 176.517 118.386L176.119 118.156ZM226.93 142.187C226.93 142.187 226.499 142.933 226.355 143.182C225.383 143.947 224.412 144.712 223.296 145.726C223.009 146.223 222.468 146.242 222.214 145.764C221.816 145.534 221.562 145.056 221.849 144.559C221.849 144.559 221.849 144.559 222.136 144.061C223.252 143.048 223.572 141.575 225.483 141.02C225.483 141.02 226.024 141.001 226.278 141.479C226.278 141.479 226.676 141.709 226.786 142.436L226.93 142.187ZM178.339 112.476C178.339 112.476 180.249 111.921 180.758 112.878L180.614 113.126C180.614 113.126 179.134 112.935 178.482 112.227L178.339 112.476ZM237.577 143.03C237.577 143.03 237.29 143.527 237.147 143.776C237.003 144.025 236.716 144.522 236.031 144.79C236.031 144.79 235.49 144.809 235.092 144.579C234.297 144.12 234.584 143.623 234.474 142.896C234.904 142.15 235.191 141.653 236.528 142.093L237.323 142.552L237.577 143.03ZM234.561 136.316C234.561 136.316 235.102 136.297 235.5 136.526C235.898 136.756 236.008 137.483 235.467 137.502C235.467 137.502 235.069 137.272 234.528 137.291C234.13 137.062 234.02 136.335 234.561 136.316Z" fill="black"/>
<path d="M90.1463 617.872C90.1463 617.872 90.4334 617.375 90.577 617.126C90.3229 616.648 89.7817 616.667 89.384 616.437C86.9321 617.011 85.6731 618.273 84.127 620.033C87.3412 620.894 88.7437 619.383 90.2899 617.623L90.1463 617.872Z" fill="black"/>
<path d="M129.772 102.007C129.772 102.007 130.17 102.237 130.568 102.466L130.855 101.969C130.855 101.969 129.871 99.0804 129.253 97.397C129.396 97.1484 128.457 96.9379 128.06 96.7083C127.916 96.9569 127.231 97.2247 127.485 97.7029C127.198 98.2002 128.977 101.548 130.026 102.485L129.772 102.007Z" fill="black"/>
<path d="M244.811 124.993C244.811 124.993 246.754 123.463 246.533 122.009C245.164 122.545 243.794 123.08 244.413 124.763L244.811 124.993Z" fill="black"/>
<path d="M245.95 143.223C245.95 143.223 247.032 143.184 247.32 142.687C247.607 142.19 247.894 141.693 246.701 141.004C245.906 140.545 245.508 140.315 245.077 141.061C244.79 141.558 245.155 142.763 245.552 142.993L245.95 143.223Z" fill="black"/>
<path d="M119.521 89.4577C119.521 89.4577 120.46 89.6682 120.747 89.1709C121.034 88.6736 121.178 88.4249 120.382 87.9658C119.587 87.5066 119.189 87.277 118.759 88.023C118.472 88.5203 118.726 88.9985 119.521 89.4577Z" fill="black"/>
<path d="M49.3084 598.605C49.3084 598.605 49.0212 599.103 49.4189 599.332C50.0706 600.04 50.7224 600.748 51.8048 600.71L51.9483 600.461L52.2355 599.964C51.8378 599.734 51.4402 599.505 51.0425 599.275L50.2472 598.816C50.2472 598.816 49.4519 598.357 49.3084 598.605Z" fill="black"/>
<path d="M121.728 68.1874C121.728 68.1874 122.523 68.6465 122.92 68.8761C123.318 69.1057 124.146 68.5894 124.434 68.092C124.434 68.092 124.323 67.3652 123.925 67.1356C123.13 66.6764 122.445 66.9441 122.302 67.1928C122.158 67.4414 121.473 67.7091 121.728 68.1874Z" fill="black"/>
<path d="M226.521 437.681C227.239 436.437 229.548 436.112 230.155 434.142C227.814 435.443 227.67 435.691 226.521 437.681Z" fill="black"/>
<path d="M243.542 146.474C243.542 146.474 242.604 146.263 242.316 146.761C242.029 147.258 242.14 147.985 242.25 148.712C242.935 148.444 244.018 148.406 243.907 147.679C244.051 147.43 244.338 146.933 243.542 146.474Z" fill="black"/>
<path d="M241.926 126.313C241.926 126.313 241.639 126.81 241.496 127.059C241.209 127.556 242.004 128.015 242.545 127.996C242.943 128.226 243.484 128.207 244.025 128.187C244.025 128.187 243.517 127.231 243.263 126.753C242.865 126.523 242.468 126.294 242.07 126.064L241.926 126.313Z" fill="black"/>
<path d="M243.628 127.958L243.882 128.436L244.026 128.187L243.628 127.958Z" fill="black"/>
<path d="M186.964 101.21C186.964 101.21 187.759 101.669 187.903 101.421C187.903 101.421 188.046 101.172 187.792 100.694L186.997 100.234L186.71 100.732L186.964 101.21Z" fill="black"/>
<path d="M117.826 43.7218C117.826 43.7218 117.03 43.2627 116.489 43.2817C116.346 43.5304 116.059 44.0277 116.456 44.2573C116.854 44.4869 117.252 44.7165 117.539 44.2191L117.826 43.7218Z" fill="black"/>
<path d="M160.047 101.915C160.047 101.915 160.08 100.939 159.539 100.958C159.539 100.958 159.396 101.207 159.252 101.456C159.108 101.704 159.362 102.182 159.76 102.412C159.76 102.412 160.301 102.393 160.047 101.915Z" fill="black"/>
<path d="M92.3969 611.216C92.3969 611.216 93.0817 610.948 92.684 610.719C92.684 610.719 92.0323 610.011 91.7782 609.533C91.3805 609.303 90.9829 609.074 91.0934 609.8C90.8063 610.298 91.4581 611.006 92.2534 611.465L92.3969 611.216Z" fill="black"/>
<path d="M99.368 612.919C99.368 612.919 100.053 612.651 100.594 612.632C100.881 612.135 101.168 611.638 100.229 611.427C100.229 611.427 99.9423 611.925 99.2575 612.192C98.9704 612.69 98.8268 612.938 99.7657 613.149L99.368 612.919Z" fill="black"/>
</g>
<defs>
<clipPath id="clip0_2075_23986">
<rect width="557.869" height="338.866" fill="white" transform="translate(-189.5 483.273) rotate(-60)"/>
</clipPath>
</defs>
</svg>
